<?xml version="1.0" encoding="UTF-8" standalone="no"?>
<svg width="100%" height="100%" viewBox="0 0 150 200" version="1.1" xmlns="http://www.w3.org/2000/svg" xmlns:xlink="http://www.w3.org/1999/xlink" xml:space="preserve" xmlns:serif="http://www.serif.com/" style="fill-rule:evenodd;clip-rule:evenodd;stroke-linejoin:round;stroke-miterlimit:2;">
    <path d="M23.607,60.806C29.388,63.005 27.395,69.798 29.511,74.295C30.112,75.693 29.213,69.897 29.511,68.495C27.21,46.087 49.516,55.293 69.31,53.616C69.31,48.213 69.51,45.225 69.71,43.601L70.111,33.21C70.111,29.205 71.909,25.805 67.111,23.424C67.111,23.424 68.426,18.327 71.826,18.327C78.627,18.327 88.338,24.411 88.338,29.134C88.338,29.632 88.137,30.732 87.737,32.134C86.535,36.819 86.237,41.126 86.037,51.516C98.429,48.218 123.182,50.313 126.938,56.819C131.152,64.117 130.976,88.394 124.024,98C119.464,104.301 110.525,104.807 108.621,104.709C106.921,104.411 104.125,104.411 102.236,104.411C97.626,104.411 91.548,103.709 84.125,104.111C83.724,107.409 83.524,114.501 83.324,126.101C83.324,147.788 80.426,169.929 78.034,177.486C77.233,180.086 76.334,181.491 75.136,181.491C73.636,181.491 73.035,180.29 71.437,171.101C69.937,162.599 68.539,149.791 68.539,105.736C65.441,106.635 56.919,106.534 55.918,106.534C54.218,106.534 42.916,107.035 42.719,107.035C42.319,107.035 42.519,111.53 42.519,112.233C42.519,114.534 34.518,113.732 30.621,111.732C27.865,110.317 27.111,99.729 24.503,92.135C21.893,84.538 21.802,77.155 16.021,62.23C17.247,62.588 23.607,60.806 23.607,60.806ZM69.113,66.229C62.222,63.827 46.455,68.207 40.7,69.316C35.504,70.317 37.411,92.906 39.311,96.495C43.105,98.326 68.067,98.332 68.913,90.315C69.423,85.482 69.305,66.768 69.113,66.229ZM101.17,91.321C113.8,91.6 117.109,90.08 118.373,75.738C118.522,74.044 118.355,62.855 112.675,61.139C108.829,59.976 102.662,57.239 85.489,62.829C84.045,77.522 83.758,80.347 83.989,89.919C88.787,89.22 96.598,91.22 101.17,91.321Z" style="fill:rgb(187,51,34);fill-rule:nonzero;"/>
</svg>
