<?xml version="1.0" encoding="UTF-8" standalone="no"?>
<svg width="100%" height="100%" viewBox="0 0 150 200" version="1.1" xmlns="http://www.w3.org/2000/svg" xmlns:xlink="http://www.w3.org/1999/xlink" xml:space="preserve" xmlns:serif="http://www.serif.com/" style="fill-rule:evenodd;clip-rule:evenodd;stroke-linejoin:round;stroke-miterlimit:2;">
    <path d="M53.18,191.304L56.584,187.098L56.584,101.19L53.18,101.19L53.18,191.304Z" style="fill:rgb(0,136,68);fill-rule:nonzero;"/>
    <path d="M62.191,90.176C62.191,84.77 60.589,79.264 57.385,73.756C54.181,68.247 50.278,64.144 45.571,61.34C43.27,60.04 41.565,59.338 40.266,59.338C40.168,59.338 39.963,59.338 39.567,59.44C40.368,61.54 40.768,63.445 40.768,65.345C40.768,67.548 40.168,70.752 38.864,74.957C37.56,79.162 36.96,82.268 36.96,84.369C36.96,87.074 38.161,89.976 40.662,93.082C43.164,96.188 45.767,98.088 48.37,98.787C49.572,99.188 51.072,99.286 52.976,99.286C59.184,99.486 62.188,96.384 62.188,90.173L62.191,90.176Z" style="fill:rgb(221,119,17);fill-rule:nonzero;"/>
    <path d="M70.202,62.141C69.2,62.141 67.198,62.942 63.895,64.646C60.892,66.248 58.889,67.45 57.986,68.251C63.695,74.058 66.597,81.267 66.597,90.078C66.597,91.88 66.196,93.981 65.395,96.486C67.696,95.485 69.601,93.482 71.203,90.479C72.805,87.373 73.606,84.569 73.606,81.97C73.606,80.466 73.103,78.463 72.106,75.962C71.108,73.461 70.602,71.455 70.602,69.955C70.602,67.151 71.105,64.548 72.204,62.145L70.202,62.141Z" style="fill:rgb(221,119,17);fill-rule:nonzero;"/>
    <path d="M71.203,164.27C73.005,165.169 75.306,165.573 78.113,165.573C80.615,165.573 82.719,165.275 84.521,164.674C87.223,163.873 90.431,160.268 94.134,153.762C97.84,147.354 101.343,143.447 104.849,142.246C101.142,140.043 96.438,138.943 90.529,138.943C87.563,138.936 84.606,139.272 81.718,139.945C78.113,140.844 74.411,142.646 70.504,145.453C66,148.756 63.695,151.861 63.695,154.865C63.695,156.369 64.598,158.171 66.298,160.174C67.901,162.176 69.601,163.476 71.207,164.281L71.203,164.27Z" style="fill:rgb(187,51,34);fill-rule:nonzero;"/>
    <path d="M67.198,163.268L64.897,160.963C60.892,162.165 58.689,170.375 58.288,185.594L61.693,181.291C62.293,170.579 64.096,164.572 67.198,163.268Z" style="fill:rgb(0,136,68);fill-rule:nonzero;"/>
    <path d="M52.179,62.141L55.984,66.346L59.69,63.743L56.588,58.635L52.179,62.141Z" style="fill:rgb(221,119,17);fill-rule:nonzero;"/>
    <path d="M95.135,131.228C92.83,131.829 90.831,132.229 89.327,132.429C89.426,133.431 89.728,134.832 90.03,136.835L95.237,136.835L95.237,131.228L95.135,131.228Z" style="fill:rgb(187,51,34);fill-rule:nonzero;"/>
    <path d="M51.178,192.305C51.178,158.262 47.872,136.435 41.365,126.822L38.46,130.125C44.668,139.336 47.773,158.662 47.773,188.3L51.178,192.305Z" style="fill:rgb(0,136,68);fill-rule:nonzero;"/>
    <path d="M43.168,118.212C43.866,116.209 44.267,114.407 44.267,112.907C44.267,106.899 42.264,102.395 38.259,99.29L31.549,94.484C30.049,93.082 28.746,90.479 27.544,86.776C24.54,89.882 22.035,94.586 19.935,100.895C24.242,100.997 28.848,102.898 33.752,106.605C38.66,110.209 41.762,114.112 43.164,118.219L43.168,118.212Z" style="fill:rgb(51,51,153);fill-rule:nonzero;"/>
    <path d="M61.19,148.249C61.19,148.952 61.39,149.851 61.893,151.155C62.992,147.35 66.499,143.844 72.306,140.84C77.713,137.836 82.519,136.435 86.622,136.635L86.622,134.734C86.622,131.931 84.82,127.725 81.117,122.02C79.115,126.724 76.311,129.83 72.608,131.334C64.999,134.44 61.194,140.043 61.194,148.253L61.19,148.249Z" style="fill:rgb(187,51,34);fill-rule:nonzero;"/>
    <path d="M18.136,96.184C17.736,96.082 16.836,95.783 15.635,95.285C14.433,94.786 13.632,94.484 13.33,94.484L12.329,94.484L11.426,99.89C12.125,99.89 14.029,100.091 16.935,100.393L18.136,96.184ZM9.525,114.207L15.034,126.222C17.736,129.924 22.043,131.727 28.05,131.727C31.152,131.727 34.058,130.827 36.861,129.025C40.065,127.121 41.668,124.718 41.668,121.714C41.668,120.713 40.969,119.013 39.567,116.81C37.062,112.805 32.958,109.401 27.151,106.797C21.744,104.194 16.538,102.792 11.531,102.792C9.026,102.792 5.924,103.491 2.32,104.995C4.825,105.494 7.224,108.599 9.529,114.207L9.525,114.207Z" style="fill:rgb(51,51,153);fill-rule:nonzero;"/>
    <path d="M76.209,71.152C83.819,67.249 90.227,60.241 96.537,48.324L96.937,47.523C96.336,47.821 95.033,48.524 94.836,48.724C93.132,49.824 93.132,49.824 92.433,49.824C90.23,49.824 87.729,47.821 87.729,46.219C87.729,45.921 87.827,45.52 87.929,45.018L88.13,44.719C88.632,44.817 89.033,44.817 89.229,44.817C90.831,44.817 93.533,43.918 95.838,42.717L102.246,39.312C102.748,38.413 102.748,38.413 103.047,37.51L103.047,37.212C102.344,37.412 101.445,37.71 101.244,37.911C99.54,38.511 98.94,38.712 98.441,38.712C96.238,38.712 94.338,37.31 94.338,35.508C94.338,33.906 94.538,33.705 96.438,33.505C100.043,32.304 101.543,31.703 103.545,30.399L103.746,29.7C103.243,29.901 102.843,29.901 102.544,29.901C100.942,29.901 98.838,28.997 97.44,27.898C95.838,26.496 95.339,25.793 94.836,24.792L94.935,24.293C95.637,24.392 96.136,24.392 96.537,24.392C99.34,24.392 102.042,23.492 106.647,20.987C107.448,18.584 108.351,15.082 108.351,13.979C108.351,13.676 108.151,13.378 107.951,13.378C107.181,13.477 106.454,13.789 105.85,14.277L105.348,14.277C105.147,13.778 105.147,13.378 105.147,13.076C105.147,11.474 107.052,10.072 109.353,10.072C112.054,10.072 113.758,11.273 113.758,13.178C113.758,13.877 113.758,12.875 112.757,15.18L111.854,18.683C112.054,18.781 112.254,18.883 112.356,18.883C112.557,18.883 112.859,18.781 113.157,18.581C114.359,17.98 114.661,17.78 115.058,17.78C115.859,17.78 119.063,18.981 119.864,19.684C120.767,20.383 121.368,21.184 121.368,21.785C121.368,22.986 120.366,23.587 115.761,25.389C112.757,26.591 112.054,26.893 109.753,28.295L109.455,30.195L111.155,29.594L113.86,28.393C114.136,28.232 114.442,28.131 114.759,28.094C116.027,28.316 117.247,28.755 118.364,29.394C119.063,29.995 119.365,30.596 119.365,31.397C119.365,32.296 118.764,32.897 116.664,33.8C115.462,34.298 113.958,35.402 111.155,37.204L112.356,37.004C112.859,36.902 113.259,36.902 113.456,36.902L116.059,36.702L117.06,36.603L118.364,36.501C118.965,36.403 125.173,36.403 125.275,36.403C126.975,36.403 128.879,38.005 128.879,39.407C128.879,40.408 127.98,41.009 126.578,41.009L117.068,40.911L111.861,41.111C115.065,42.811 116.668,44.115 122.373,49.223C127.281,54.029 135.491,59.134 143.501,62.542C145.704,63.445 147.306,65.043 147.306,66.146C147.306,67.147 146.006,67.446 141.699,67.446C139.696,67.446 135.393,66.747 133.186,66.044C131.785,65.644 131.785,65.644 129.582,62.938L125.679,58.831C125.278,58.431 123.676,56.526 122.074,54.426C120.775,52.725 120.37,52.321 119.169,51.524L119.671,54.225L119.573,56.428L119.671,62.636C119.671,63.936 119.373,69.445 119.169,70.446C118.67,74.152 116.766,77.557 115.266,77.557C114.166,77.557 114.166,77.557 111.461,71.047C111.06,70.147 110.962,70.147 110.259,70.147C107.955,70.147 105.952,70.846 104.052,72.448C103.851,72.649 103.549,72.849 103.349,72.849C102.948,72.849 101.947,71.848 100.946,70.548L99.242,68.443C99.042,68.243 99.042,68.145 99.042,68.043L99.242,65.44L99.042,65.039C98.539,63.936 98.339,62.734 98.339,61.533C98.339,60.634 98.437,59.73 98.539,58.631L98.739,56.228C98.739,55.427 98.539,55.026 98.037,55.026L97.836,55.026C90.929,65.341 84.918,70.147 76.712,71.349L76.209,71.152ZM116.361,49.023C115.462,48.021 113.46,46.121 111.555,45.018C109.054,43.518 108.253,43.718 107.452,43.718L105.249,43.918L102.948,46.922C101.044,50.424 99.642,51.928 98.841,53.33C100.043,54.229 102.246,57.135 102.548,58.438C102.67,58.508 102.808,58.542 102.948,58.537C103.749,58.537 104.751,58.136 107.154,57.037C107.656,56.836 108.155,56.636 108.457,56.636C109.659,56.636 111.461,58.238 111.461,59.338C111.427,59.781 111.25,60.203 110.958,60.539C110.358,61.042 110.358,61.042 106.953,61.843L104.951,62.542C104.448,62.742 104.048,62.844 103.749,62.844C103.549,62.844 103.349,62.742 102.948,62.644C102.748,63.343 102.548,64.945 102.548,66.346C102.548,66.747 102.948,67.147 103.251,67.147C103.451,67.147 103.549,67.049 103.753,66.947C105.155,66.346 107.856,65.647 108.858,65.647C109.56,65.647 110.161,66.048 110.86,66.947C111.359,67.348 111.759,67.548 112.16,67.548C113.063,67.548 113.562,66.248 113.361,63.943L113.46,60.838L113.66,56.232C113.66,52.627 113.157,51.626 111.559,51.626C110.66,51.626 109.957,51.826 108.756,52.627C106.353,54.131 105.049,54.732 104.452,54.732C103.95,54.732 103.251,54.531 102.049,54.131C101.547,53.931 101.448,53.931 101.048,53.228L101.248,52.929C102.249,52.529 102.249,52.529 103.251,51.528C105.752,49.125 108.96,47.22 110.762,47.22C111.963,47.22 113.165,47.22 115.368,48.324L116.361,49.023Z" style="fill:rgb(187,51,34);fill-rule:nonzero;"/>
</svg>