<?xml version="1.0" encoding="UTF-8" standalone="no"?>
<svg width="100%" height="100%" viewBox="0 0 150 200" version="1.1" xmlns="http://www.w3.org/2000/svg" xmlns:xlink="http://www.w3.org/1999/xlink" xml:space="preserve" xmlns:serif="http://www.serif.com/" style="fill-rule:evenodd;clip-rule:evenodd;stroke-linejoin:round;stroke-miterlimit:2;">
    <path d="M90.042,19.71C90.403,19.784 90.772,19.817 91.141,19.809C94.047,19.809 94.047,19.809 104.66,16.404L113.671,14.001L123.786,11.598C125.463,11.648 127.094,12.167 128.49,13.098C129.491,13.801 130.092,14.602 130.092,15.702C130.092,16.605 129.193,17.606 128.392,17.606L124.088,17.504C122.486,17.504 119.38,18.705 116.577,20.406L118.98,21.309C122.785,22.911 124.088,24.21 124.088,26.417C124.088,27.32 123.986,28.419 123.888,29.621L123.385,33.324L123.287,43.438C123.287,44.239 122.785,46.042 121.885,48.244C123.79,48.747 124.489,49.147 125.29,50.247C126.193,51.448 127.092,53.251 127.092,54.052C127.092,54.754 126.79,55.956 126.091,57.358C125.29,58.96 124.889,59.961 123.888,62.466C135.703,67.072 136.904,67.771 138.306,70.578C138.907,71.882 140.309,76.385 140.309,77.084C140.309,77.387 140.21,77.587 140.01,77.587C139.508,77.587 138.106,77.084 136.606,76.385C133.904,75.082 133.904,75.082 127.496,70.378C125.894,69.176 124.092,68.375 120.786,67.174C117.782,70.378 114.979,71.78 111.676,71.78C110.773,71.78 109.171,71.579 107.471,71.281L104.067,70.578C102.877,70.488 101.734,70.073 100.764,69.377L100.666,69.078C110.278,68.976 112.579,68.375 116.486,64.571C109.976,62.568 109.477,62.568 106.171,62.27C104.267,63.169 103.065,64.472 99.261,68.976C97.859,70.979 97.258,71.579 96.257,71.579C95.055,71.579 94.356,70.378 94.356,68.576C94.356,66.275 94.757,65.674 97.961,63.071C98.762,62.47 102.767,57.864 104.569,55.461C106.171,53.36 108.975,49.053 108.975,48.754C108.975,48.554 108.775,48.554 108.476,48.554C107.573,48.554 105.472,49.555 102.469,51.558C96.363,55.563 95.259,56.164 94.258,56.164C93.756,56.164 93.057,55.363 93.057,54.962L93.257,52.657L93.355,51.055L93.858,50.156L94.258,49.956C97.262,49.854 101.169,48.154 102.967,46.151C101.467,42.649 101.267,41.746 101.267,39.142C101.267,33.936 102.068,30.932 104.369,27.63C106.67,24.327 108.775,22.125 112.98,19.019L111.979,18.917C110.577,18.917 109.576,19.317 106.069,21.222L101.365,24.025C99.264,25.627 97.258,26.53 96.159,26.53C95.456,26.53 93.956,25.827 93.155,25.128C91.353,23.526 89.751,21.426 89.751,20.625L89.849,20.224L90.042,19.71ZM105.763,43.242C107.067,43.042 107.267,42.841 108.469,41.738C109.27,40.839 109.969,40.136 110.671,39.535C111.174,39.037 111.472,38.636 111.472,38.334C111.472,38.134 111.272,38.134 111.174,38.134C110.974,38.134 110.875,38.134 110.671,38.236L108.771,38.236C107.868,38.236 107.569,37.933 107.569,37.332C107.569,36.834 107.668,36.331 107.77,35.632C107.868,35.33 107.868,35.33 108.971,34.431L110.573,33.229C112.277,31.627 112.277,31.627 112.277,31.329C112.277,30.826 111.676,30.728 109.772,30.728C108.918,30.734 108.093,30.41 107.471,29.825C105.967,32.628 105.37,35.632 105.37,39.637C105.37,40.438 105.37,41.137 105.571,41.738L105.771,42.739L105.763,43.242ZM116.879,49.65C115.878,48.248 115.375,47.749 114.877,47.749C113.675,47.749 112.674,48.951 109.368,54.256L116.879,49.65ZM116.879,42.142C117.079,42.142 117.28,42.044 117.382,41.942C117.884,41.341 118.383,36.037 118.383,31.03C118.383,25.824 117.083,24.021 112.776,23.322C111.174,24.222 110.872,24.524 109.772,26.024C109.972,26.224 110.173,26.224 110.275,26.224L111.476,26.224C113.981,26.224 116.981,27.928 116.981,29.53C116.981,30.63 115.579,32.534 113.977,33.535C113.475,33.936 113.074,34.238 113.074,34.438C113.074,34.639 113.373,34.737 114.076,35.039C115.477,35.64 116.581,36.841 116.581,37.843C116.581,38.542 116.479,38.644 114.68,39.142C114.28,39.343 114.178,39.343 112.077,40.744C109.674,42.547 109.674,42.547 109.674,42.747C109.674,42.947 109.874,43.049 110.074,43.049C110.32,43.03 110.558,42.962 110.777,42.849C112.78,41.848 113.282,41.647 114.684,41.647C115.485,41.647 115.485,41.647 116.686,42.146L116.879,42.142ZM116.377,59.866C116.777,60.067 117.778,60.365 118.882,60.766C120.884,57.361 121.987,54.558 121.987,52.756C121.987,52.155 121.485,51.554 120.986,51.554C120.688,51.554 120.385,51.754 119.985,52.053L110.573,58.162C113.176,58.665 113.278,58.665 115.379,59.466L116.377,59.866Z" style="fill:rgb(187,51,34);fill-rule:nonzero;"/>
    <path d="M76.322,75.781L75.62,75.078L75.419,75.781C75.419,76.382 75.518,76.88 75.82,77.281L76.919,83.987C77.018,85.189 77.418,86.591 77.921,88.295L78.922,92.402L79.625,101.715C79.326,104.719 78.423,107.322 77.021,109.325C76.02,110.727 75.518,111.728 75.518,112.128C75.518,112.827 76.02,113.428 77.021,113.829C77.921,113.829 78.423,113.53 78.722,112.929C78.82,112.627 79.02,112.329 79.122,112.026L79.523,111.327C81.227,108.626 84.929,107.024 90.635,106.521C92.323,106.527 93.981,106.977 95.441,107.825L95.641,108.225C95.747,108.617 95.917,108.988 96.144,109.325C96.344,109.627 96.646,109.725 97.145,109.725L97.545,110.424C96.873,110.421 96.202,110.488 95.543,110.625C91.035,111.225 86.131,111.528 80.724,111.528L92.037,113.931C92.373,113.931 92.708,113.964 93.038,114.029C93.367,114.099 93.703,114.133 94.039,114.131C96.042,114.131 97.742,113.829 99.045,113.228C99.486,113.211 99.923,113.143 100.349,113.028C100.647,112.627 101.052,112.329 101.448,112.329C101.547,112.329 101.849,112.529 102.351,113.028L103.054,113.228C105.355,114.63 107.157,115.431 108.461,115.631L108.06,113.931C107.46,113.33 107.157,112.827 107.157,112.427C106.859,112.329 106.557,111.928 106.254,111.426C105.952,110.923 105.654,110.526 105.351,110.126L104.649,109.125C102.646,106.623 99.544,104.919 95.339,103.918C97.039,102.618 98.241,101.016 98.841,99.112C98.841,99.014 99.042,98.511 99.344,97.71C99.744,96.909 99.846,96.411 99.846,96.309C100.447,94.707 100.749,92.103 100.749,88.499C101.35,88.196 102.351,87.898 103.651,87.497C105.053,87.097 105.956,86.995 106.356,86.995C104.354,86.096 103.054,85.695 102.453,85.695L101.354,85.695C98.15,85.695 95.146,86.096 92.441,86.995L88.137,89.598C87.737,89.7 87.234,90.101 86.634,90.599L85.334,91.601C85.334,92.202 85.035,92.504 84.431,92.504C84.132,92.504 84.03,92.402 84.03,92.103L84.03,91.2C83.429,87.093 80.826,81.887 76.322,75.781ZM84.533,101.413L84.533,99.411L86.237,97.707C90.843,93.804 95.35,90.898 99.756,88.997C99.457,89.398 98.955,90.301 98.252,91.503L96.552,94.605C96.375,94.811 96.239,95.05 96.151,95.307C96.049,95.606 95.951,95.806 95.951,96.006C95.853,96.407 95.448,97.008 94.851,97.608L93.552,99.01C91.047,101.515 87.642,103.718 83.339,105.72C83.66,105.017 83.895,104.278 84.038,103.518C84.037,102.788 84.208,102.068 84.537,101.417L84.533,101.413Z" style="fill:rgb(187,34,119);fill-rule:nonzero;"/>
    <path d="M120.28,103.816C126.487,102.414 130.693,99.509 132.895,95.107C133.139,94.571 133.275,93.992 133.296,93.403L133.096,92.704C132.997,92.304 132.895,92.001 132.895,91.801C132.597,91.2 131.894,90.902 130.693,90.902C129.491,90.902 128.592,91.302 127.889,92.001C127.288,92.402 126.487,93.105 125.486,94.004L123.484,95.708C123.083,96.006 122.282,96.309 121.281,96.607C120.28,96.906 119.679,97.208 119.577,97.506C119.475,97.506 119.176,97.608 118.874,97.907C118.576,98.307 118.273,98.61 117.971,98.81C116.271,100.412 113.365,102.312 109.462,104.417C107.562,105.418 106.659,106.019 106.659,106.117L108.363,106.117C111.865,105.917 115.772,105.116 120.276,103.816L120.28,103.816ZM130.292,113.829C129.691,114.131 128.992,114.429 128.089,114.732C127.39,115.03 126.189,115.132 124.583,115.132L121.281,116.031C121.281,117.033 122.482,117.535 124.787,117.535L129.393,118.435C130.795,118.435 131.796,117.634 132.196,116.031C132.196,114.531 131.596,113.829 130.292,113.829ZM124.987,140.164C125.989,139.261 126.79,138.66 127.292,138.46C127.991,137.961 129.695,137.058 132.499,135.758L144.714,131.651C141.31,131.451 138.004,131.451 134.702,131.749C131.399,132.048 128.992,132.452 127.591,132.951C125.89,133.552 123.484,134.553 120.48,136.057L113.373,138.962C112.372,139.363 111.068,140.062 109.368,141.263L106.164,143.266C98.154,148.571 93.348,154.578 92.048,161.288C91.447,155.783 90.344,149.976 88.746,143.969L88.447,142.865L88.349,141.766C88.251,141.165 88.95,140.863 90.45,140.662C90.548,140.662 90.952,140.364 91.451,139.861L92.252,139.563C92.35,139.563 93.053,139.763 94.254,140.262C96.159,140.662 98.46,140.662 101.063,140.462C103.466,140.262 105.268,139.963 106.47,139.661C113.18,137.961 117.782,133.956 120.389,127.748L121.088,125.946C121.387,125.746 122.188,125.647 123.691,125.447C123.793,125.447 124.194,125.247 124.693,125.047C125.293,124.744 125.694,124.544 125.894,124.344C126.495,124.144 127.194,123.845 128.097,123.445C129,123.044 129.699,122.742 130.099,122.341C131.702,121.14 133.001,119.84 133.802,118.234C132.298,119.534 130.296,120.335 127.693,120.637C127.092,120.736 124.489,120.637 119.785,120.535L113.577,119.836C112.375,119.636 110.773,119.134 108.571,118.132C103.764,116.632 100.058,115.729 97.356,115.529L94.553,115.827C94.152,115.827 93.453,115.827 92.649,115.627C91.844,115.427 91.145,115.227 90.548,115.227C88.345,114.826 85.742,114.826 82.84,115.128C78.332,115.627 75.431,116.53 74.127,117.932L73.224,119.334L72.521,118.933C72.223,118.835 71.921,118.733 71.618,118.835C71.32,118.435 70.916,118.234 70.519,118.332C69.918,118.234 68.917,118.234 67.613,118.332L64.908,118.533C61.406,118.933 58.901,119.534 57.298,120.637C55.696,122.239 55.096,124.442 55.296,127.144C55.296,127.446 55.394,127.846 55.598,128.447C55.696,128.447 55.999,128.345 56.199,128.145C56.297,127.744 56.702,127.144 57.503,126.445L58.802,125.243C60.306,123.94 62.309,123.139 64.908,122.84C66.212,122.738 69.416,123.04 74.422,123.841C74.52,123.841 74.822,123.94 75.223,124.242C75.623,124.544 76.024,124.741 76.523,124.941C77.426,125.542 78.325,125.844 79.228,125.742C79.526,125.742 79.73,125.644 79.829,125.443C79.927,125.443 80.029,125.243 80.029,124.741C79.964,123.567 79.464,122.459 78.627,121.635L76.923,120.233C77.324,119.931 78.325,119.632 79.927,119.53L83.131,119.232C86.736,118.831 90.941,119.031 95.849,119.73C95.947,119.73 96.45,119.832 97.05,119.931L98.754,120.331C98.853,120.331 99.257,120.433 99.756,120.531C100.258,120.732 100.659,120.732 100.957,120.732C101.256,120.732 101.358,120.433 101.358,120.033C101.157,119.632 101.059,119.33 101.059,119.232C101.946,119.385 102.818,119.619 103.662,119.931C104.762,120.331 105.567,120.531 106.065,120.634L110.872,122.534C111.971,123.037 114.676,123.437 119.082,123.936C120.786,123.736 121.787,123.736 121.885,123.838C121.813,124.223 121.678,124.595 121.485,124.937C121.186,125.538 120.884,125.84 120.582,125.938C120.19,126.367 119.713,126.708 119.18,126.94C118.477,127.34 117.979,127.54 117.476,127.741C116.675,128.239 113.974,129.543 109.466,131.545L98.652,136.249C98.554,136.249 97.95,136.45 96.948,136.752L95.248,137.251L94.848,137.251C94.749,136.552 95.048,135.849 95.751,135.15C95.849,134.95 96.151,134.749 96.45,134.447C96.748,134.145 97.05,133.846 97.353,133.748C97.553,133.147 97.651,132.244 97.553,131.043C97.455,129.841 97.254,129.04 97.152,128.84L96.854,128.239L95.853,127.438C94.95,127.136 94.149,126.936 93.65,127.038C93.552,127.038 93.249,127.136 93.049,127.336C92.751,127.537 92.448,127.639 92.248,127.639C91.95,127.937 91.647,128.137 91.247,128.137L87.744,132.441C86.59,133.536 85.117,134.238 83.539,134.443L80.233,134.746C79.87,134.836 79.484,134.72 79.232,134.443C77.029,134.545 74.324,133.744 70.923,132.142C67.523,130.54 64.814,129.838 62.611,130.038C61.529,130.1 60.456,130.268 59.407,130.54C60.71,130.741 61.912,131.141 63.011,131.942C64.111,132.743 65.214,133.642 66.215,134.746L68.72,137.247L69.223,137.647L68.622,137.95C67.977,138.049 67.32,137.866 66.82,137.447C66.62,137.349 66.419,137.047 66.219,136.748C65.921,136.446 65.717,136.147 65.316,135.845C65.316,135.747 65.116,135.645 64.814,135.645C64.413,135.645 64.115,135.645 63.914,135.547C63.505,135.363 63.063,135.26 62.615,135.244C62.014,135.346 61.814,136.348 62.014,138.35C62.112,139.552 62.312,140.251 62.717,140.651C63.117,141.754 64.421,142.654 66.722,143.356C67.322,143.254 67.625,143.455 67.625,143.957C67.723,144.656 67.625,145.261 67.326,145.759L67.228,153.471L67.326,160.68L67.028,161.783C66.929,161.783 66.827,161.485 66.729,160.982L64.829,150.868C63.827,147.063 62.728,143.761 61.424,141.157C57.521,132.645 52.111,125.938 45.204,120.932C40.901,117.528 35.792,114.724 29.883,112.423C29.581,112.325 28.984,112.023 28.183,111.622C27.573,111.299 26.936,111.031 26.278,110.821C24.374,109.521 23.074,108.921 22.372,108.819C20.369,109.019 19.168,109.722 18.865,110.923C18.767,111.324 18.767,111.924 18.767,112.423L18.865,113.526L18.264,114.426C17.762,115.529 16.863,117.029 15.563,119.031L12.861,123.437C11.558,126.241 11.059,129.343 11.358,132.751L11.558,134.451L11.86,135.252C11.958,135.252 12.162,134.651 12.363,133.45C12.963,132.048 14.668,129.645 17.569,126.142C21.975,120.736 25.081,117.932 26.781,117.732C27.48,117.634 28.084,117.732 28.583,118.034C28.681,118.034 29.584,118.332 31.285,119.035C39.397,122.44 46.205,128.647 51.71,137.761C51.911,137.859 52.712,140.062 54.113,144.267C55.413,147.071 56.815,151.076 58.417,156.282L58.617,158.186L57.914,157.385C52.708,152.081 47.199,147.773 41.293,144.471C37.186,142.37 33.283,141.169 29.581,140.866C28.882,140.768 27.676,140.866 26.074,140.969C22.801,141.275 19.628,142.263 16.761,143.87L17.66,143.772C26.173,142.869 34.281,145.673 42.091,151.982C46.496,155.186 50.702,159.792 54.805,165.8C55.806,166.903 56.509,167.704 56.807,168.403C57.71,169.503 58.61,170.304 59.709,170.806C63.816,171.705 67.817,171.305 71.724,170.005C71.626,170.005 71.626,170.005 71.626,169.907L71.724,169.008L74.327,168.906L74.528,168.906C75.23,168.807 75.627,169.008 75.627,169.408L75.827,168.906L76.73,168.807C78.332,168.607 79.432,168.709 80.233,168.906L87.642,168.607C89.947,168.407 91.149,168.407 91.349,168.705C91.647,168.705 91.749,168.807 91.848,169.106L92.146,169.707C93.049,170.307 94.247,170.606 95.55,170.508L96.151,170.409L96.552,170.111C97.455,169.412 97.953,168.807 97.855,168.207L97.757,167.307C97.659,166.106 98.157,165.207 99.257,164.504C100.56,162.902 104.165,160.899 110.071,158.594L111.971,157.895C112.595,157.633 113.23,157.398 113.875,157.193C114.276,156.894 114.975,156.592 116.078,156.293C117.181,155.995 117.88,155.795 118.281,155.394C118.379,155.194 118.681,154.994 119.18,154.793L120.079,154.193C126.287,149.587 130.394,145.88 132.295,142.877L132.495,142.676C132.495,142.374 131.894,142.574 130.795,143.277C126.99,145.578 122.985,147.482 118.878,149.084C118.077,149.485 116.675,149.885 114.873,150.286L111.268,151.189C109.266,151.99 107.063,153.191 104.66,154.691C106.462,152.591 112.572,148.185 122.785,141.475C123.185,141.577 123.986,141.074 124.987,140.175L124.987,140.164ZM66.612,166.895C66.514,166.895 66.412,166.895 66.412,166.695L66.51,165.792C66.71,165.093 66.911,164.693 67.013,164.693C67.115,164.693 67.311,165.293 67.413,166.593C67.315,166.793 67.013,166.895 66.612,166.895ZM74.622,165.894C74.622,166.295 74.622,166.593 74.324,166.593C74.123,166.593 73.923,166.495 73.723,166.193L72.219,166.793C72.121,166.793 71.819,166.695 71.516,166.393L71.717,164.19L73.421,163.99C74.021,163.892 74.324,164.088 74.324,164.288L74.622,165.894ZM74.422,158.084C74.422,158.387 74.422,159.086 74.222,160.287L73.621,160.786L72.321,160.487C72.023,160.487 71.819,160.688 71.72,160.986L71.52,160.986L71.422,159.686C71.52,159.086 71.52,158.685 71.52,158.583C71.222,155.277 70.319,150.373 68.917,143.764L70.22,143.662C72.223,143.462 73.723,142.763 74.826,141.46C74.528,144.664 74.426,150.173 74.426,158.081L74.422,158.084ZM81.631,165.894L81.23,166.193C80.932,166.193 80.528,166.193 79.931,166.094L78.427,166.295C78.427,165.996 78.525,165.796 78.827,165.596C78.729,164.394 78.729,163.892 78.827,163.793L81.431,163.495L81.631,165.894ZM81.431,142.465C81.23,143.065 81.132,143.466 81.132,143.568C80.932,146.972 80.932,151.578 81.23,157.586C81.329,158.885 81.329,159.686 81.03,159.989L78.627,159.788L78.427,159.588L78.427,157.586L77.924,152.78L76.224,140.462L80.029,141.365C80.466,141.358 80.902,141.391 81.332,141.463L81.431,142.465ZM85.734,165.694L85.436,165.093C85.338,164.19 85.436,163.79 85.734,163.79L85.436,163.389L85.636,163.389L87.839,163.589L88.239,165.69C86.736,165.788 85.836,165.788 85.734,165.69L85.734,165.694ZM85.935,142.865L85.935,143.764L86.233,153.577C86.233,153.875 86.433,154.476 86.634,155.481L87.136,157.884L87.336,159.785C86.335,159.887 85.632,159.887 85.334,159.785L85.134,157.884L85.334,155.481C85.236,154.88 85.236,153.679 85.035,151.775L84.737,147.471L83.936,142.064L83.936,141.664C85.236,141.565 85.938,141.664 85.938,142.166L85.935,142.865Z" style="fill:rgb(0,136,68);fill-rule:nonzero;"/>
    <path d="M59.301,170.901C59.702,171.101 60.102,171.199 60.605,171.399C56.902,171.8 53.898,171.599 51.793,170.798C49.693,170.3 46.587,170.198 42.582,170.598C40.081,170.798 37.077,169.196 33.571,165.592C33.873,168.494 35.373,170.798 37.976,172.601C39.88,173.704 41.581,174.403 43.183,174.702L45.087,174.501C47.06,174.298 49.053,174.398 50.996,174.8C51.695,174.702 52.999,174.8 54.699,175C56.094,175.176 57.503,175.209 58.904,175.098L68.018,174.599L76.028,173.999L80.433,173.598C82.338,173.398 83.838,173.3 84.937,173.398C88.043,173.398 95.751,173.999 108.068,175.2L82.035,177.203L73.523,177.603C69.62,178.004 66.812,178.102 65.01,178.004C63.11,177.906 60.605,177.403 57.401,176.602C54.397,175.899 51.295,175.699 47.989,176.001C45.484,176.202 43.183,176.802 40.98,177.603C46.685,177.505 51.491,178.102 55.398,179.406L59.003,180.807C61.908,182.107 64.912,182.712 68.116,182.511C73.024,183.01 79.53,182.912 87.741,182.013L99.854,180.309L110.365,178.805C115.273,178.306 118.878,178.204 121.081,178.605C121.78,178.703 122.781,179.205 123.884,180.105C124.984,180.603 125.486,181.106 125.584,181.707L125.584,181.907C125.584,182.205 125.486,182.406 125.086,182.508L123.782,182.806C123.28,182.904 122.883,183.006 122.581,183.006L107.259,187.011C105.96,187.31 104.154,187.514 101.652,187.812C100.05,188.013 98.947,188.013 98.146,187.914C96.945,187.412 96.144,187.212 95.943,187.314C96.344,187.412 97.345,187.812 98.645,188.515C98.943,188.613 99.446,188.613 100.149,188.613C103.451,189.717 106.957,190.215 110.562,189.917C111.162,189.815 112.266,189.815 113.868,189.717C115.47,189.618 116.671,189.717 117.37,189.917L123.778,190.117L124.678,190.019C127.081,189.819 129.582,188.515 132.189,186.214C133.19,186.014 133.889,185.515 134.29,184.914C134.788,184.314 134.989,183.414 134.89,182.213C134.788,180.811 133.787,179.409 132.087,178.008C130.387,176.606 127.98,175.805 125.078,175.506C121.073,174.607 116.868,174.403 112.564,174.804L109.062,175.204C108.963,175.204 108.461,175.106 107.66,174.804L106.058,174.203C100.651,172.298 94.946,170.999 89.037,170.496C88.636,170.398 85.931,170.398 81.125,170.398C80.222,170.496 79.024,170.496 77.52,170.296L73.715,169.997C72.314,170.096 71.513,170.198 71.214,170.096C67.307,171.399 63.404,171.8 59.297,170.897L59.301,170.901Z" style="fill:rgb(51,51,153);fill-rule:nonzero;"/>
    <path d="M69.314,108.822C68.312,106.62 67.81,103.616 67.81,99.709C67.81,94.102 73.817,82.385 76.02,77.081C75.317,77.383 70.814,82.986 68.713,85.691L65.709,90.297C65.108,89.995 63.907,89.696 63.008,88.895C58.7,85.79 53.195,84.188 46.485,84.188L43.179,84.188C43.878,84.29 44.879,84.588 46.183,85.091C47.486,85.491 48.283,85.79 48.586,85.99L49.489,86.19C50.188,86.492 50.588,86.693 50.588,86.893C49.587,89.194 49.084,91.196 49.084,92.798C49.084,95.099 49.587,97.102 50.588,98.704C50.286,98.704 49.885,98.606 49.285,98.504L45.178,98.103C40.273,98.103 36.865,99.207 35.165,101.409C34.863,101.708 30.858,101.81 30.858,101.81C34.364,102.509 38.369,103.51 41.071,106.816C43.273,109.722 44.875,111.524 46.077,112.223C48.28,113.625 51.884,114.728 56.992,115.529L60.899,116.428C62.101,116.428 62.902,116.028 63.503,115.329L64.406,114.626L65.309,114.626C65.909,114.626 66.212,114.327 66.212,113.727C66.212,113.126 66.011,112.623 65.509,112.223C65.411,111.822 65.108,111.324 64.708,110.923L63.707,109.82C62.407,108.52 61.205,107.016 60.004,105.214C59.705,104.916 57.2,100.71 57,100.408C55.296,97.503 53.894,94.601 52.893,91.695L52.693,89.995L51.99,87.792C51.99,87.694 52.088,87.592 52.39,87.592C56.596,89.496 59.702,91.196 61.704,92.798L64.307,95.402C64.307,95.7 64.107,96.403 63.605,97.605C63.452,98.968 63.385,100.34 63.404,101.712C63.404,105.018 64.205,108.218 65.807,111.324C66.408,112.325 66.71,112.926 66.907,113.024C67.908,114.025 68.709,114.528 69.31,114.528C70.61,114.528 71.312,114.025 71.312,113.024C71.312,112.423 70.912,111.822 70.213,111.021C70.054,110.237 69.749,109.49 69.314,108.819L69.314,108.822ZM60,111.826C58.999,111.426 57.098,111.025 54.193,110.727C51.389,110.424 49.485,109.824 48.385,108.724C47.785,108.422 47.184,107.723 46.383,106.521C44.38,103.82 41.577,102.116 38.071,101.515L40.073,101.515C49.783,101.617 56.392,105.021 59.996,111.83L60,111.826Z" style="fill:rgb(187,34,119);fill-rule:nonzero;"/>
    <path d="M72.317,79.786L72.317,77.583C72.219,77.383 72.219,76.88 72.219,75.981L70.919,53.054L71.12,46.348C71.921,32.931 81.533,15.411 85.938,10.805C83.237,13.008 73.923,23.719 72.321,26.126C71.12,28.026 69.82,31.332 68.516,35.836C67.417,39.04 66.714,42.947 66.514,47.549C66.25,51.515 66.116,55.488 66.113,59.462C66.212,59.863 66.314,60.463 66.314,61.264L66.113,61.264L65.913,60.762C63.638,56.866 61.165,53.089 58.504,49.446C58.406,49.246 57.805,48.346 56.603,46.945L54.098,43.741C54,43.639 53.698,43.242 53.097,42.539C52.594,41.84 52.194,41.338 51.997,40.839C51.797,40.737 51.495,40.438 51.298,39.936C50.996,39.437 50.698,39.037 50.395,38.636C50.093,38.236 49.893,38.134 49.693,38.134C49.594,38.134 49.292,38.236 48.994,38.534C48.593,38.734 48.295,38.935 47.894,38.935C47.796,38.935 47.494,39.037 47.093,39.135C46.693,39.233 46.394,39.437 46.19,39.637C45.986,39.838 45.79,40.038 45.589,40.336C45.389,40.635 45.189,40.839 45.087,40.937C44.568,41.828 44.067,42.728 43.583,43.639C42.884,44.942 42.484,45.841 42.079,46.344C41.652,47.047 41.282,47.783 40.98,48.547L39.88,51.252C39.595,52.024 39.227,52.763 38.781,53.455C35.275,59.36 25.666,72.078 19.957,75.482C23.864,73.88 35.977,66.573 40.383,60.565C42.684,57.361 44.188,54.958 48.691,47.651L49.791,46.351C50.093,46.351 50.694,46.752 51.393,47.651C51.593,47.851 52.995,49.654 52.995,49.854C53.195,49.956 53.996,51.157 55.5,53.258C62.108,62.47 66.914,71.081 69.918,78.992C69.82,78.89 69.718,78.792 69.518,78.69C70.118,79.793 70.817,80.693 72.321,79.793L72.317,79.786Z" style="fill:rgb(0,136,68);fill-rule:nonzero;"/>
    <path d="M14.244,186.921C14.547,187.219 14.747,187.419 14.747,187.722C15.446,188.523 16.05,189.021 16.647,189.324C18.348,190.026 20.452,190.223 23.055,190.026C25.258,189.826 27.06,189.324 28.564,188.625C29.165,188.424 29.766,188.024 30.665,187.325C31.466,186.622 32.169,186.225 32.766,186.025C34.168,185.024 37.47,184.023 42.979,183.021L54.094,181.019C50.089,180.218 46.984,179.916 44.781,180.018C44.479,179.919 43.878,179.919 43.179,179.919L41.377,180.12L41.074,179.519C40.772,179.519 40.674,179.519 40.576,179.319C37.874,177.116 33.767,175.816 28.36,175.514L23.055,175.215L17.947,176.817L16.345,178.722C14.343,180.626 13.443,182.829 13.742,185.13C13.742,185.428 13.84,185.73 14.044,185.931L14.244,186.921ZM22.953,181.914C24.257,180.615 26.656,179.814 30.162,179.413C34.069,179.013 37.273,179.115 39.775,179.712C39.174,179.814 38.173,179.814 36.869,179.912L33.763,180.112C29.456,180.513 25.855,181.514 23.15,182.916L22.349,183.214L22.149,183.214C21.948,183.214 22.247,182.715 22.95,181.914L22.953,181.914ZM70.715,187.521C70.315,187.521 69.616,187.722 68.815,187.922L67.111,188.322L64.806,188.621C63.903,188.821 63.306,188.919 63.004,188.919C62.101,188.621 61.5,188.421 61.202,188.421C60.903,188.322 60.401,188.22 59.599,188.122C64.806,190.223 69.914,191.024 75.121,190.525C77.724,190.227 79.526,189.924 80.728,189.524C82.031,189.123 84.03,188.621 86.834,188.02L92.743,187.019L78.223,186.32L70.712,187.521L70.715,187.521Z" style="fill:rgb(51,51,153);fill-rule:nonzero;"/>
    <path d="M95.849,124.843C96.45,124.941 97.05,125.341 97.851,125.844C98.554,126.343 99.053,126.645 99.155,126.845C99.555,127.246 100.254,127.544 101.157,127.544L101.86,127.544C102.763,127.544 103.262,127.344 103.56,126.845L103.961,125.742C103.961,125.443 103.761,124.941 103.258,124.242C102.858,123.539 102.057,122.938 101.055,122.538C99.854,122.137 98.652,121.839 97.349,121.839C96.348,121.839 95.649,121.937 95.146,122.239C93.242,123.139 92.343,123.641 92.343,123.94C92.343,124.54 93.045,124.843 94.345,124.843L95.849,124.843ZM132.895,108.52C133.001,108.411 133.069,108.271 133.096,108.12L133.096,107.719C133.194,107.421 133.296,107.118 133.296,106.82C133.296,105.218 132.393,104.417 130.693,104.417C130.092,104.417 129.491,104.515 128.992,104.715C128.392,104.916 127.791,105.218 127.292,105.717L125.788,106.62L122.985,108.12C120.68,109.023 119.479,109.722 119.479,110.421C119.479,111.12 119.879,111.524 120.778,111.822C121.179,112.125 122.18,112.223 123.782,112.223C125.384,112.223 126.484,112.125 127.288,111.822C128.89,111.822 130.292,111.324 131.592,110.322C131.89,110.22 131.992,110.02 131.992,109.82C131.992,109.62 132.094,109.419 132.193,109.321C132.393,109.023 132.593,108.822 132.892,108.52L132.895,108.52Z" style="fill:rgb(0,136,68);fill-rule:nonzero;"/>
</svg>