<?xml version="1.0" encoding="UTF-8" standalone="no"?>
<!DOCTYPE svg PUBLIC "-//W3C//DTD SVG 1.1//EN" "http://www.w3.org/Graphics/SVG/1.1/DTD/svg11.dtd">
<svg width="100%" height="100%" viewBox="0 0 150 200" version="1.1" xmlns="http://www.w3.org/2000/svg" xmlns:xlink="http://www.w3.org/1999/xlink" xml:space="preserve" xmlns:serif="http://www.serif.com/" style="fill-rule:evenodd;clip-rule:evenodd;stroke-linejoin:round;stroke-miterlimit:2;">
    <g transform="matrix(0.265,0,0,0.265,176.826,-342.317)">
        <path d="M-385.39,1443.39C-380.856,1445.28 -376.7,1446.03 -374.433,1446.03C-368.766,1446.03 -363.098,1443.39 -344.207,1432.81C-320.025,1419.21 -320.025,1419.21 -311.335,1413.16C-311.713,1401.45 -312.846,1397.67 -317.758,1388.98C-330.227,1392.38 -350.63,1396.16 -359.698,1396.16L-364.61,1395.78L-365.743,1393.89C-351.763,1388.6 -334.383,1380.29 -319.647,1372.73C-295.466,1359.51 -293.955,1358.75 -294.71,1354.22C-294.332,1351.95 -293.955,1351.2 -292.821,1349.68L-290.932,1349.31C-286.02,1350.82 -283.375,1352.33 -280.73,1355.73C-274.685,1362.53 -270.151,1371.22 -270.151,1376.51C-270.151,1380.67 -272.796,1381.8 -282.242,1382.56C-284.887,1382.93 -291.31,1384.07 -301.889,1386.34C-293.199,1391.62 -290.554,1395.03 -290.554,1403.34L-290.554,1404.47C-288.665,1403.34 -287.154,1402.58 -286.398,1402.58C-280.73,1402.58 -272.04,1410.89 -272.04,1416.18C-272.04,1418.83 -273.929,1420.72 -280.353,1423.36C-284.509,1425.25 -287.909,1427.14 -296.599,1433.19C-292.821,1437.34 -291.688,1440.37 -291.688,1444.14C-291.688,1447.92 -291.688,1447.92 -295.088,1460.77L-296.977,1465.3L-298.111,1469.08C-294.71,1467.57 -290.554,1463.41 -278.463,1447.17L-276.952,1449.06C-278.841,1458.5 -287.909,1472.86 -302.267,1488.73C-303.023,1494.02 -303.023,1498.17 -303.023,1500.44C-303.023,1503.46 -303.023,1503.46 -300.756,1531.8C-300,1537.85 -300,1543.14 -300,1546.91C-300,1554.47 -303.778,1563.54 -307.179,1563.54C-309.068,1563.54 -312.846,1559.38 -315.113,1554.85C-317.38,1550.32 -318.514,1545.78 -318.514,1539.74C-318.514,1535.96 -318.136,1531.05 -317.758,1525.76C-317.003,1519.71 -317.003,1515.55 -317.003,1512.53L-317.38,1505.35L-326.448,1512.91C-331.738,1517.07 -335.139,1520.09 -335.894,1520.84L-340.428,1525C-342.317,1526.89 -343.829,1527.64 -344.962,1527.64C-347.229,1527.64 -347.607,1526.89 -349.874,1521.22C-354.03,1510.26 -354.03,1510.26 -354.03,1507.24C-354.09,1504.19 -353.305,1501.18 -351.763,1498.55C-351.008,1497.04 -349.874,1496.66 -344.207,1494.02C-325.693,1483.06 -312.846,1461.9 -313.224,1443.01C-321.159,1449.43 -321.159,1449.43 -340.428,1463.79C-349.118,1470.59 -353.275,1472.48 -357.053,1472.48C-361.587,1472.48 -372.544,1466.44 -379.345,1460.01C-384.257,1455.1 -385.768,1451.7 -386.524,1444.52L-385.39,1443.39ZM-295.844,1525.38C-270.151,1520.47 -256.549,1506.11 -247.481,1475.5C-242.191,1457.75 -239.169,1441.88 -236.902,1418.07C-235.013,1400.69 -233.123,1374.24 -233.123,1367.82C-233.123,1359.13 -233.879,1357.62 -241.814,1353.84L-243.703,1352.33C-240.302,1341.75 -237.28,1337.22 -233.123,1337.22C-224.433,1337.22 -216.121,1353.84 -216.121,1370.84C-216.121,1374.24 -216.499,1378.78 -216.877,1384.07C-218.01,1395.4 -218.388,1399.94 -218.766,1409.01C-205.919,1409.38 -200.252,1410.89 -192.317,1414.3C-183.249,1418.45 -177.582,1426.01 -177.582,1433.56C-177.582,1439.61 -182.494,1443.39 -189.295,1443.39C-195.34,1443.39 -202.897,1438.85 -211.965,1430.54C-216.877,1426.01 -218.01,1425.63 -221.788,1425.63C-223.678,1440.74 -224.811,1449.06 -228.212,1465.68L-220.277,1470.97C-219.144,1471.73 -214.61,1475.5 -207.809,1481.17C-188.161,1497.04 -160.202,1514.8 -140.554,1523.49C-129.219,1528.4 -123.929,1533.69 -123.929,1539.74C-123.929,1541.62 -123.929,1541.62 -140.176,1543.14L-148.866,1542.76L-164.736,1542C-176.826,1543.14 -194.962,1526.51 -218.388,1492.88C-224.433,1484.57 -224.811,1483.82 -230.856,1479.28C-235.768,1498.55 -238.413,1504.98 -243.703,1512.15C-251.637,1523.11 -267.128,1530.67 -281.486,1530.67C-286.02,1530.67 -289.421,1529.91 -296.599,1527.64L-295.844,1525.38ZM-242.947,1430.92C-243.703,1433.56 -244.458,1435.45 -244.836,1436.59C-245.214,1437.72 -246.725,1441.12 -249.37,1446.79C-252.771,1453.21 -253.904,1456.61 -258.816,1472.86C-261.461,1481.55 -264.484,1485.7 -267.506,1485.7C-270.907,1485.7 -276.574,1471.73 -276.574,1463.79C-276.574,1460.01 -276.574,1460.01 -270.529,1444.9C-269.773,1442.63 -269.395,1440.37 -269.395,1438.1C-269.395,1434.32 -270.151,1430.92 -273.174,1424.12L-272.04,1422.23C-265.617,1422.61 -261.839,1424.12 -258.438,1429.41C-254.66,1435.45 -254.282,1435.45 -252.015,1435.45C-251.259,1435.45 -250.504,1435.45 -250.126,1435.08C-245.97,1430.54 -245.97,1430.54 -244.081,1429.41L-242.947,1430.92Z" style="fill:rgb(187,51,34);fill-rule:nonzero;"/>
        <g>
            <path d="M-608.312,1673.87C-609.446,1675.76 -611.713,1678.02 -614.736,1680.67C-615.491,1681.42 -616.625,1682.18 -618.136,1683.31C-620.025,1684.45 -621.159,1685.58 -621.914,1686.71C-632.116,1695.78 -638.917,1709.38 -642.317,1726.76L-642.695,1730.92C-644.207,1747.92 -638.539,1759.63 -625.693,1766.06C-622.67,1767.19 -620.025,1767.95 -617.758,1767.95C-615.491,1767.95 -614.358,1767.57 -613.602,1767.19C-612.846,1766.81 -612.469,1765.68 -611.713,1764.55C-610.957,1763.41 -610.579,1761.52 -610.579,1759.26C-610.202,1756.99 -609.824,1755.1 -609.068,1753.21L-601.889,1711.27C-599.244,1699.18 -596.977,1690.49 -595.088,1684.82C-590.932,1674.62 -586.776,1667.82 -583.375,1664.42C-570.907,1655.73 -555.416,1651.57 -536.146,1651.57C-528.589,1651.57 -518.766,1653.46 -507.053,1656.86L-511.965,1656.86C-542.191,1656.86 -562.217,1665.93 -572.796,1684.45C-574.685,1687.47 -576.574,1691.25 -578.841,1696.54C-578.841,1697.29 -579.219,1698.8 -579.975,1702.2C-580.73,1705.23 -580.73,1707.49 -581.108,1708.63L-581.486,1712.03L-579.219,1722.99C-578.086,1727.52 -576.574,1730.92 -574.307,1733.19C-569.018,1736.21 -565.617,1737.34 -564.106,1737.34L-563.35,1737.34C-555.038,1737.34 -549.748,1733.94 -547.481,1727.14C-546.348,1725.25 -545.214,1722.23 -544.836,1717.69L-544.081,1710.89C-541.814,1705.61 -538.791,1700.32 -535.013,1694.65C-527.078,1680.29 -517.632,1669.71 -506.297,1662.15C-505.919,1662.15 -504.786,1661.78 -502.897,1660.26C-501.008,1659.13 -499.874,1658.38 -499.496,1658.38C-497.985,1658.38 -495.718,1659.13 -493.451,1661.02C-491.184,1662.91 -489.673,1663.66 -489.295,1663.66C-468.892,1675 -451.889,1689.74 -437.909,1707.49C-446.599,1685.96 -458.312,1670.09 -472.67,1660.26C-473.048,1659.13 -474.181,1658 -476.071,1656.86C-477.96,1655.73 -479.093,1654.98 -479.471,1654.22L-481.36,1640.62L-480.605,1633.06C-480.227,1629.66 -480.605,1626.64 -481.36,1624.37L-481.36,1617.57C-480.227,1605.1 -479.849,1596.03 -480.605,1591.12C-480.605,1590.74 -480.982,1589.23 -481.36,1587.34C-482.116,1585.45 -482.494,1583.94 -482.872,1582.81L-484.761,1576.01C-486.65,1573.74 -490.05,1572.61 -494.962,1572.61C-501.385,1572.61 -507.053,1574.5 -511.209,1578.65C-513.854,1583.19 -515.365,1587.34 -515.743,1591.5L-516.121,1594.14C-517.254,1606.61 -514.61,1616.81 -508.564,1625.13C-507.431,1625.88 -506.297,1626.26 -504.786,1627.39C-503.275,1628.15 -502.141,1629.28 -501.385,1630.04C-500.63,1630.79 -499.874,1632.31 -499.118,1633.82C-498.363,1635.33 -498.363,1636.84 -498.363,1637.59C-498.363,1638.35 -497.985,1639.86 -496.851,1641.75C-495.718,1643.64 -494.962,1645.15 -495.34,1645.53L-495.34,1647.42C-497.034,1647.45 -498.565,1646.38 -499.118,1644.77C-511.965,1640.24 -522.166,1637.97 -529.723,1637.97C-530.856,1637.97 -532.368,1637.97 -534.635,1638.35C-536.902,1638.73 -538.413,1638.73 -539.169,1638.73C-539.924,1638.73 -541.058,1638.35 -541.814,1637.97L-543.325,1637.97C-543.703,1636.84 -544.836,1634.95 -545.97,1632.68L-547.481,1630.79C-550.126,1624.37 -550.882,1616.06 -549.748,1605.1C-549.37,1600.94 -548.615,1598.68 -547.481,1597.54C-547.481,1595.65 -546.348,1593.01 -544.081,1588.85C-542.191,1584.7 -540.302,1581.3 -538.791,1578.65C-538.035,1571.85 -539.924,1566.18 -543.703,1561.65C-546.725,1559.76 -550.504,1559.01 -555.038,1559.01C-555.416,1559.01 -557.305,1559.76 -560.327,1561.65C-561.839,1562.41 -564.106,1562.41 -567.128,1562.41C-570.151,1564.3 -572.796,1567.32 -575.441,1571.85C-578.086,1577.14 -579.975,1583.94 -580.73,1592.25C-581.108,1596.79 -581.108,1600.19 -580.73,1602.46L-576.196,1614.55C-569.773,1625.88 -562.217,1633.82 -553.904,1638.35C-562.972,1640.24 -569.395,1642.13 -573.174,1644.39L-575.063,1645.15C-576.952,1646.29 -578.086,1647.04 -578.463,1647.04L-581.486,1644.39C-582.997,1644.02 -584.509,1642.88 -585.264,1641.75C-586.398,1641.75 -587.531,1641.37 -589.421,1640.62C-590.932,1639.86 -592.443,1639.11 -593.199,1638.35C-610.579,1633.06 -619.647,1630.79 -620.403,1630.79C-621.914,1630.79 -623.426,1630.79 -624.937,1631.17C-626.448,1631.55 -627.204,1631.55 -627.96,1631.55C-636.65,1636.08 -643.451,1642.51 -648.741,1651.2L-648.741,1651.95C-647.229,1657.62 -644.584,1661.78 -640.806,1664.04C-639.673,1664.8 -637.406,1664.8 -633.627,1664.8C-629.093,1664.8 -626.071,1664.42 -623.804,1664.04C-620.781,1662.91 -616.625,1661.4 -610.957,1659.89C-605.29,1658 -601.511,1656.86 -598.866,1655.73C-596.977,1654.6 -594.71,1653.84 -592.065,1653.84L-591.31,1653.84C-592.065,1654.6 -592.443,1654.6 -593.199,1654.6C-594.332,1654.6 -599.244,1661.02 -608.312,1673.87ZM-521.033,1842C-526.322,1846.16 -529.345,1851.83 -530.101,1859.01C-530.479,1862.41 -530.101,1865.05 -529.345,1866.56C-526.322,1869.58 -522.166,1870.72 -516.499,1870.72L-513.854,1870.72C-512.343,1870.72 -510.076,1870.34 -507.431,1868.83C-504.786,1867.69 -502.519,1866.94 -500.252,1866.94C-499.118,1866.94 -497.229,1867.69 -494.207,1869.21C-491.184,1870.72 -489.673,1871.47 -488.917,1871.47C-484.383,1871.47 -480.605,1871.1 -477.204,1869.58C-474.181,1868.45 -472.67,1865.81 -472.292,1862.03C-471.914,1859.76 -473.048,1856.74 -475.693,1853.34C-476.826,1853.34 -477.204,1852.58 -477.204,1850.69C-477.204,1848.8 -477.204,1847.67 -477.582,1847.29C-479.471,1845.03 -481.738,1843.14 -484.383,1841.25C-490.05,1838.98 -494.962,1837.85 -498.741,1837.85L-503.652,1837.85C-510.831,1838.6 -516.499,1839.74 -521.033,1842Z" style="fill:rgb(0,136,68);fill-rule:nonzero;"/>
            <path d="M-457.179,1466.06C-457.179,1464.92 -456.801,1463.04 -456.423,1460.77C-456.045,1458.5 -455.29,1456.99 -454.156,1456.61C-448.866,1424.12 -434.887,1395.4 -412.972,1370.84C-407.683,1364.42 -404.66,1361.4 -403.149,1361.4C-401.637,1361.4 -400.504,1362.15 -399.748,1364.04C-396.348,1366.31 -391.814,1367.44 -386.902,1367.44C-385.013,1367.44 -382.368,1367.07 -378.967,1365.55C-375.567,1364.42 -373.3,1363.66 -371.788,1363.66C-370.277,1363.66 -367.632,1363.66 -363.476,1363.29C-359.32,1362.91 -356.297,1362.15 -354.408,1361.02C-352.519,1361.02 -349.874,1359.89 -345.718,1357.62C-342.317,1354.22 -340.428,1350.44 -340.05,1346.66L-341.562,1339.86C-341.94,1338.73 -342.317,1337.59 -342.317,1336.08L-342.317,1333.06C-344.207,1333.06 -345.718,1332.31 -346.851,1330.42C-351.008,1328.15 -355.542,1327.02 -361.209,1327.02L-371.788,1327.02C-385.39,1328.9 -395.97,1333.82 -403.526,1342.51L-409.572,1349.31C-411.461,1351.57 -414.861,1354.98 -419.018,1359.51L-429.219,1370.47C-448.866,1396.16 -461.713,1423.36 -467.38,1452.83L-468.892,1462.28L-473.426,1459.63C-479.093,1456.61 -484.005,1455.48 -487.783,1455.48C-488.539,1455.48 -490.05,1455.48 -491.94,1455.86C-493.829,1456.23 -494.962,1456.23 -495.34,1456.23C-509.32,1459.26 -519.899,1468.33 -526.7,1483.82L-528.212,1487.22C-528.967,1489.48 -529.345,1491.37 -529.345,1492.51C-530.101,1501.2 -526.7,1507.24 -519.899,1510.64C-518.766,1511.78 -516.499,1512.53 -513.854,1512.53C-509.32,1512.53 -503.652,1511.02 -497.229,1508L-484.761,1502.33C-482.872,1500.06 -479.471,1498.93 -474.937,1498.93L-476.071,1512.53C-477.204,1526.13 -476.826,1537.85 -474.937,1547.67C-474.181,1549.56 -473.426,1551.83 -472.292,1554.85C-471.537,1557.87 -470.781,1559.76 -470.403,1560.52L-436.02,1647.04C-426.574,1667.07 -418.262,1681.42 -411.083,1689.74C-397.859,1706.74 -385.768,1717.32 -374.811,1721.47C-383.123,1714.67 -394.836,1697.29 -409.95,1669.33C-419.395,1649.31 -426.196,1633.82 -430.353,1623.24C-431.486,1621.35 -432.62,1618.7 -433.753,1614.92C-434.887,1611.15 -435.642,1608.5 -436.398,1606.61C-436.398,1606.23 -437.154,1604.35 -438.287,1601.32C-439.798,1598.3 -440.932,1596.41 -441.688,1595.28C-444.71,1588.85 -448.111,1580.54 -451.511,1570.34C-454.912,1565.81 -456.423,1561.65 -456.045,1558.25C-456.045,1557.12 -454.912,1554.85 -452.267,1551.83C-450,1548.8 -448.111,1546.16 -446.977,1543.51C-446.599,1543.51 -446.222,1542.76 -446.222,1541.25C-446.222,1539.74 -445.844,1538.98 -445.466,1538.22L-442.821,1540.11L-440.932,1542L-438.665,1542C-436.776,1542 -434.131,1541.25 -430.73,1539.36C-429.975,1539.36 -428.463,1538.6 -426.952,1537.09C-425.441,1535.58 -424.307,1534.82 -423.174,1534.82L-415.617,1529.53C-406.549,1520.84 -401.259,1507.62 -399.748,1489.48L-399.37,1482.68C-398.615,1475.13 -400.882,1469.08 -406.171,1463.79C-409.95,1462.66 -412.972,1461.9 -415.617,1461.9L-417.128,1461.9C-420.907,1461.9 -423.929,1463.41 -426.574,1466.06C-428.086,1467.95 -428.841,1469.84 -429.219,1472.1C-429.219,1472.86 -429.975,1473.99 -431.486,1475.5C-431.864,1476.26 -432.242,1476.64 -432.242,1477.77C-432.242,1478.53 -433.375,1483.06 -434.887,1490.62C-436.776,1498.17 -438.287,1503.46 -440.176,1506.49C-440.932,1508.38 -442.443,1510.64 -445.466,1513.66C-448.489,1516.69 -450.378,1518.95 -451.511,1520.09C-454.156,1523.49 -455.668,1527.27 -456.045,1531.05C-456.045,1531.8 -455.668,1532.18 -455.29,1533.31C-454.534,1534.07 -454.534,1534.82 -454.534,1535.58C-457.935,1539.74 -460.202,1541.62 -460.579,1541.62L-460.202,1536.34C-461.335,1527.27 -461.335,1518.2 -460.957,1509.89C-461.713,1509.51 -462.091,1507.24 -461.713,1503.46C-461.335,1499.68 -460.957,1497.8 -459.824,1497.8C-459.824,1498.55 -458.69,1498.55 -456.423,1498.55C-454.534,1498.55 -453.401,1497.42 -453.401,1495.15C-453.023,1491.75 -453.778,1487.22 -455.668,1481.55C-455.668,1479.28 -456.045,1477.02 -457.935,1474.75C-457.935,1473.62 -457.557,1472.1 -457.179,1470.21C-457.557,1468.7 -457.179,1467.19 -457.179,1466.06ZM-631.36,1964.8L-623.048,1951.57C-615.113,1939.86 -606.423,1933.44 -597.733,1932.31L-602.645,1932.31C-609.824,1932.31 -617.003,1934.57 -624.937,1939.48C-635.139,1945.53 -641.562,1953.09 -644.207,1962.15L-644.584,1965.55C-644.962,1970.09 -644.962,1975.76 -644.207,1982.93C-641.184,1997.29 -633.249,2004.09 -620.781,2004.09L-619.27,2004.09C-629.093,2004.09 -634.005,1996.16 -633.627,1980.67L-633.627,1976.51C-633.627,1974.24 -633.627,1971.98 -633.249,1970.09C-633.249,1969.71 -632.872,1968.58 -632.494,1967.44C-631.738,1966.31 -631.36,1965.18 -631.36,1964.8ZM-128.841,1729.41C-129.975,1725.63 -130.73,1722.99 -130.353,1721.1C-131.486,1719.96 -131.864,1718.07 -131.486,1715.81L-130.73,1709.76C-131.486,1706.36 -133.375,1702.96 -136.398,1699.56C-141.688,1696.16 -145.088,1694.27 -147.355,1694.27C-153.778,1694.27 -159.446,1696.54 -164.358,1701.07C-165.222,1702.44 -166.236,1703.7 -167.38,1704.85C-168.514,1706.36 -169.647,1707.12 -170.781,1707.87C-173.426,1710.89 -175.315,1713.54 -176.448,1716.56C-180.605,1724.12 -183.249,1736.97 -185.139,1755.86C-185.139,1756.99 -186.272,1758.88 -187.783,1761.52C-189.295,1764.17 -190.428,1765.68 -191.184,1766.06C-192.317,1767.95 -193.073,1770.21 -193.451,1772.86C-193.451,1773.62 -193.073,1775.5 -192.317,1778.9L-191.94,1783.06L-196.474,1785.7C-198.741,1787.59 -200.63,1788.73 -201.763,1789.11C-210.076,1794.02 -225.567,1804.6 -248.615,1821.6C-269.773,1838.22 -278.086,1845.78 -300,1863.54L-300,1863.92L-316.247,1880.16C-317.38,1881.3 -323.048,1887.72 -332.872,1899.06C-345.34,1913.79 -354.408,1928.53 -360.076,1942.88C-360.453,1947.04 -360.831,1948.93 -361.587,1948.93C-363.854,1948.55 -364.987,1948.17 -365.743,1948.17L-371.411,1940.62C-374.055,1939.48 -375.189,1937.22 -374.811,1933.82L-374.811,1933.06C-374.433,1930.79 -370.655,1923.99 -363.098,1912.66C-358.564,1906.23 -355.542,1899.81 -353.652,1893.01C-353.275,1887.34 -353.652,1884.32 -355.164,1884.32C-355.542,1884.32 -357.053,1885.08 -359.32,1886.21L-362.72,1888.1L-369.899,1894.14C-372.166,1896.03 -374.811,1898.3 -377.456,1901.7C-380.101,1905.1 -382.368,1906.99 -383.501,1907.75C-386.146,1907.75 -389.169,1909.63 -392.191,1913.79C-393.325,1913.79 -393.703,1913.04 -393.703,1911.15L-394.458,1909.26L-396.348,1903.21C-403.904,1886.21 -423.174,1877.14 -454.534,1875.63L-462.091,1875.63C-481.738,1875.63 -499.118,1882.05 -514.232,1895.28C-499.118,1887.72 -484.761,1884.32 -470.403,1884.32L-460.579,1884.32C-453.023,1884.32 -440.554,1888.1 -423.174,1895.28C-410.705,1900.57 -402.393,1904.35 -398.992,1907.37C-395.97,1909.63 -394.458,1911.9 -394.836,1914.17C-394.836,1916.06 -395.592,1916.81 -396.725,1916.81C-401.259,1922.48 -403.904,1930.42 -404.66,1940.62L-405.038,1944.02C-405.416,1949.31 -404.66,1953.84 -402.015,1957.62C-399.37,1961.78 -398.237,1964.04 -398.237,1965.18C-397.859,1966.31 -397.859,1968.96 -398.237,1972.73C-398.237,1973.87 -398.615,1975.76 -399.37,1978.78C-399.748,1981.8 -400.126,1984.07 -400.504,1985.58C-400.882,1988.6 -400.882,1990.87 -400.504,1992.38C-399.37,2001.45 -393.325,2007.87 -382.746,2011.27C-381.234,2011.65 -378.589,2012.03 -375.567,2012.03C-370.655,2012.03 -364.232,2009.76 -355.919,2005.23C-350.252,2002.2 -346.096,1999.18 -343.451,1995.78C-339.673,1991.62 -337.406,1987.09 -336.272,1981.05L-335.894,1977.64C-336.272,1975.76 -336.272,1974.62 -336.272,1974.24C-335.894,1974.24 -335.516,1974.62 -335.516,1975L-332.494,1984.45C-331.36,1984.82 -328.715,1986.71 -323.804,1989.74C-321.159,1989.74 -319.647,1990.11 -318.892,1991.62C-317.758,1991.62 -317.003,1991.62 -316.625,1992C-316.247,1992.38 -315.491,1992.38 -314.358,1992.38C-309.068,1992.38 -303.023,1989.36 -296.222,1982.93C-289.421,1975.38 -285.642,1967.44 -284.887,1959.13C-284.509,1954.98 -284.887,1952.71 -285.642,1951.57C-288.287,1944.02 -292.065,1939.86 -297.355,1938.73C-298.489,1938.73 -300.756,1938.35 -303.778,1937.59C-306.801,1936.84 -309.446,1936.46 -310.957,1936.46C-318.428,1934.61 -325.396,1931.12 -331.36,1926.26C-337.406,1922.1 -340.428,1919.84 -340.428,1919.08C-340.428,1918.33 -340.05,1917.57 -339.295,1916.81C-337.406,1914.92 -336.65,1913.79 -336.65,1913.41C-320.781,1891.88 -297.733,1868.45 -266.751,1843.89C-263.728,1840.87 -242.947,1825.38 -204.786,1796.66C-203.652,1794.77 -201.385,1792.88 -197.985,1790.62C-194.584,1788.35 -191.94,1786.46 -190.05,1784.95C-188.161,1783.44 -185.894,1782.31 -183.627,1781.55C-181.36,1780.79 -170.781,1779.28 -151.889,1777.02C-145.088,1774.75 -141.31,1773.24 -140.932,1772.86L-134.131,1762.66L-133.753,1757.37C-133.753,1756.99 -132.997,1755.48 -132.242,1753.97C-131.108,1752.08 -130.73,1750.94 -130.73,1749.81C-129.219,1746.41 -128.463,1743.01 -128.086,1739.61C-127.33,1736.21 -127.708,1733.19 -128.841,1729.41ZM-337.406,1923.24C-335.516,1925.5 -334.761,1928.53 -335.139,1931.93L-336.272,1942.88C-337.028,1951.95 -337.406,1959.89 -337.028,1965.93C-338.917,1961.4 -345.34,1956.49 -357.053,1951.2L-357.053,1949.31L-354.786,1942.51C-350.252,1933.44 -346.096,1925.5 -342.695,1919.46C-340.806,1919.84 -339.295,1920.97 -337.406,1923.24ZM-250.504,1812.15C-249.37,1811.02 -244.081,1811.4 -239.547,1808C-235.39,1804.22 -232.368,1800.82 -231.234,1797.42L-230.856,1793.26C-230.856,1792.88 -229.723,1791.37 -227.834,1789.11C-225.945,1786.84 -224.811,1784.95 -224.811,1783.82C-222.922,1781.93 -220.655,1778.9 -217.254,1774.37C-213.098,1770.97 -210.831,1768.7 -210.831,1767.57C-211.965,1763.04 -213.854,1760.01 -216.499,1758.88C-220.655,1756.99 -224.055,1756.23 -225.945,1756.23C-229.723,1756.23 -233.879,1756.99 -238.413,1758.88C-241.058,1758.88 -244.458,1760.77 -248.615,1764.17C-254.66,1770.59 -258.06,1778.15 -259.194,1787.22L-257.305,1800.82L-257.683,1806.11C-256.927,1808 -255.793,1809.89 -254.66,1811.78L-250.504,1812.15Z" style="fill:rgb(0,136,68);fill-rule:nonzero;"/>
        </g>
        <path d="M-216.877,1685.2C-217.632,1683.31 -223.3,1679.91 -233.879,1674.24C-247.859,1665.18 -256.927,1656.49 -261.083,1648.55L-264.484,1641C-265.239,1639.11 -266.751,1637.22 -268.64,1634.95C-270.529,1632.68 -271.662,1630.42 -272.04,1628.15C-273.552,1621.35 -274.307,1616.06 -273.929,1611.9C-273.929,1611.52 -273.552,1610.01 -273.174,1608.12C-272.796,1606.23 -272.418,1604.72 -272.418,1603.59C-272.04,1600.19 -273.174,1596.79 -275.441,1593.39C-275.441,1593.01 -277.33,1591.5 -280.73,1589.99C-283.375,1588.85 -285.642,1588.1 -287.154,1588.1C-290.554,1588.1 -294.332,1589.23 -298.866,1591.5C-306.045,1596.03 -314.736,1605.1 -325.315,1617.95C-329.849,1623.62 -332.872,1626.64 -335.139,1626.64C-336.65,1626.64 -338.917,1624.75 -341.94,1621.35L-353.652,1605.1C-354.03,1603.97 -355.164,1602.08 -356.297,1599.81C-356.675,1597.54 -357.431,1596.03 -358.186,1595.65C-363.476,1592.63 -367.632,1591.5 -371.033,1591.5C-376.322,1591.5 -379.345,1593.01 -379.723,1595.65C-381.234,1596.41 -383.501,1599.81 -386.524,1605.86C-388.035,1610.01 -389.169,1616.44 -389.924,1625.5C-392.191,1647.8 -389.547,1664.42 -382.368,1676.13C-378.589,1680.67 -375.567,1683.69 -373.3,1684.82L-373.3,1682.93L-371.788,1682.93C-369.899,1687.09 -368.766,1688.98 -368.388,1688.98C-374.055,1679.91 -375.945,1665.55 -374.055,1646.29C-373.678,1643.26 -373.3,1639.86 -372.544,1635.33C-371.788,1630.79 -371.411,1626.64 -371.033,1623.24C-370.277,1616.44 -369.521,1613.04 -368.388,1613.04C-367.632,1615.3 -365.365,1618.33 -361.965,1622.48L-354.03,1631.93C-351.385,1631.93 -350.252,1633.82 -350.63,1637.97C-350.63,1638.73 -351.385,1638.73 -353.275,1638.73L-355.164,1639.48L-362.343,1646.29C-364.61,1648.55 -366.121,1651.95 -366.499,1656.49C-366.877,1659.51 -366.121,1665.18 -364.232,1674.62C-357.809,1682.18 -354.786,1686.34 -354.786,1687.47C-353.275,1692.76 -352.519,1699.56 -353.652,1709.01C-353.652,1710.89 -354.408,1713.92 -355.164,1718.45L-356.675,1727.9C-359.32,1739.99 -361.587,1747.92 -363.098,1751.7C-368.766,1763.04 -373.678,1768.7 -377.834,1768.7L-377.078,1761.9C-377.078,1750.57 -382.368,1741.5 -392.569,1735.45C-392.947,1735.08 -394.081,1734.32 -395.97,1733.19C-397.859,1732.43 -398.992,1732.05 -399.37,1732.05L-405.793,1732.05C-408.438,1732.05 -411.461,1732.05 -414.484,1732.43C-417.506,1732.81 -420.907,1733.56 -424.307,1734.7C-427.708,1735.83 -429.975,1736.59 -431.108,1736.59C-451.889,1744.14 -467.758,1755.86 -477.96,1772.48C-483.249,1783.44 -486.272,1789.48 -486.272,1791.37C-487.783,1794.39 -488.539,1797.8 -488.917,1802.33C-490.05,1813.29 -488.917,1823.87 -485.516,1834.82C-477.204,1857.12 -462.091,1870.34 -440.176,1874.12C-436.398,1874.87 -430.73,1874.87 -423.174,1874.87C-409.95,1874.87 -399.748,1872.99 -392.191,1869.58C-391.058,1869.58 -389.547,1868.83 -387.657,1866.94C-385.768,1865.05 -384.257,1864.3 -383.123,1864.3C-373.678,1857.87 -368.01,1851.07 -366.121,1842.76L-365.743,1838.6C-364.61,1838.6 -364.232,1839.36 -364.232,1840.49C-356.297,1853.72 -343.451,1861.65 -325.693,1864.3C-324.181,1864.3 -322.292,1864.3 -320.781,1864.67C-319.27,1865.05 -314.358,1864.3 -314.358,1864.3C-290.176,1861.65 -278.086,1852.96 -270.529,1836.71C-267.506,1830.29 -268.262,1821.6 -268.64,1815.55L-269.018,1813.29C-271.662,1804.6 -275.819,1797.04 -276.574,1796.29C-282.242,1786.08 -295.088,1780.04 -315.113,1778.15C-307.557,1780.42 -301.889,1783.44 -298.111,1787.59C-291.688,1795.53 -289.043,1804.22 -289.798,1813.29C-290.554,1821.98 -293.955,1826.89 -299.244,1828.02C-303.778,1830.29 -309.068,1831.42 -314.358,1831.42C-326.826,1831.42 -338.917,1827.27 -350.252,1819.33L-357.809,1814.04C-360.453,1811.78 -361.587,1803.46 -361.965,1789.11L-361.209,1781.55L-361.965,1781.55C-363.098,1782.68 -364.232,1783.82 -364.987,1785.33C-365.743,1786.84 -366.499,1787.97 -367.254,1789.11C-368.01,1790.24 -369.144,1791 -369.899,1791L-372.922,1791L-375.945,1790.24L-378.589,1790.24C-380.101,1790.24 -381.612,1791 -383.123,1792.88L-383.123,1793.64C-383.501,1797.8 -381.99,1799.68 -378.967,1799.68L-376.322,1797.8L-372.166,1797.8L-373.678,1811.4L-372.544,1815.55C-375.945,1816.31 -377.834,1816.31 -378.212,1816.31C-385.013,1819.33 -388.791,1822.73 -389.169,1827.27C-389.547,1829.53 -388.413,1831.8 -386.524,1834.07L-383.501,1837.47C-383.501,1839.36 -385.013,1840.11 -388.035,1840.11C-391.436,1842 -395.592,1842.76 -400.504,1842.76L-405.038,1845.4C-407.305,1846.54 -409.194,1847.67 -411.083,1848.8C-411.839,1849.56 -412.972,1849.56 -414.484,1849.56C-417.506,1851.45 -421.285,1852.2 -426.196,1852.2L-428.463,1850.32L-431.864,1850.32C-436.776,1850.32 -439.043,1849.18 -439.043,1846.91L-434.509,1841.62L-428.463,1848.43C-428.086,1849.18 -426.952,1849.18 -425.441,1849.18C-423.929,1849.18 -421.285,1847.29 -417.506,1843.14L-411.839,1833.69L-411.839,1832.93C-411.461,1828.4 -414.484,1826.13 -420.907,1826.13C-425.441,1826.13 -428.841,1828.02 -431.486,1832.18C-434.887,1828.02 -438.665,1826.13 -442.443,1826.13C-447.355,1826.13 -450.756,1826.51 -452.267,1826.89C-452.645,1826.89 -453.778,1827.64 -454.912,1829.53C-456.045,1831.42 -457.179,1832.18 -457.557,1832.18L-458.312,1829.53C-459.446,1829.16 -460.202,1827.64 -460.579,1826.13C-460.957,1824.24 -460.957,1823.11 -460.957,1822.73C-462.846,1820.47 -463.98,1818.2 -463.602,1815.93C-465.113,1814.04 -465.869,1812.15 -465.491,1809.89C-465.491,1808 -464.736,1806.86 -463.602,1806.49C-462.469,1806.11 -460.957,1804.98 -459.068,1803.84L-457.557,1803.84C-453.401,1800.44 -451.134,1797.42 -451.134,1795.15L-451.134,1792.51C-450,1795.53 -447.355,1797.04 -443.199,1797.04C-439.798,1797.04 -435.642,1794.39 -429.975,1789.48L-423.174,1786.08C-420.84,1783.75 -419.373,1780.68 -419.018,1777.39C-419.018,1776.26 -419.773,1774.75 -420.907,1773.24C-422.796,1768.7 -425.063,1766.44 -428.463,1766.44C-437.154,1766.44 -443.577,1769.46 -447.355,1775.88C-449.622,1778.15 -451.134,1781.55 -451.511,1786.08L-451.511,1789.86C-452.267,1787.97 -453.401,1786.08 -455.29,1784.57L-458.312,1783.82L-456.423,1781.17C-455.668,1780.04 -455.29,1778.9 -455.29,1777.77C-454.534,1777.39 -453.778,1775.88 -451.889,1773.62C-450.378,1771.35 -448.866,1769.46 -447.733,1767.95C-446.67,1766.51 -445.396,1765.23 -443.955,1764.17C-436.398,1760.01 -429.597,1758.12 -422.796,1758.12L-416.373,1758.12C-413.728,1758.12 -411.083,1758.12 -408.816,1757.75C-406.549,1757.37 -405.416,1756.61 -405.416,1754.72C-405.416,1754.35 -408.438,1751.7 -414.484,1747.92L-419.395,1747.92C-419.395,1746.79 -416.373,1746.03 -411.083,1746.03L-407.683,1746.03C-398.237,1746.03 -390.302,1749.81 -383.501,1756.99C-379.723,1761.52 -377.834,1765.68 -378.212,1769.08C-379.345,1770.21 -381.612,1771.35 -384.257,1772.48C-387.28,1773.62 -388.413,1774.75 -388.791,1775.88C-372.166,1773.62 -360.453,1768.33 -353.652,1759.63C-351.008,1756.23 -348.741,1749.81 -346.851,1740.74C-344.207,1735.45 -341.94,1728.65 -340.05,1720.34C-337.783,1696.54 -337.406,1681.05 -338.917,1674.24C-340.05,1673.87 -341.184,1672.36 -342.695,1670.09C-344.207,1667.82 -345.34,1665.93 -346.096,1664.04L-346.851,1661.4L-346.474,1657.24C-346.474,1655.35 -343.451,1653.09 -338.539,1650.44C-337.406,1650.44 -336.272,1649.68 -334.761,1647.8C-333.249,1645.91 -332.116,1645.15 -331.738,1645.15C-327.582,1642.88 -318.136,1634.57 -303.023,1620.21C-302.645,1616.81 -300.756,1614.92 -297.733,1614.92L-296.977,1614.92C-294.332,1633.82 -290.932,1646.66 -286.776,1653.46C-280.73,1664.42 -269.395,1675.76 -252.393,1687.85C-244.081,1694.27 -240.302,1697.67 -240.302,1698.05C-240.302,1699.94 -242.569,1702.58 -245.97,1706.74C-255.038,1715.43 -262.972,1721.47 -269.773,1724.87L-276.574,1728.28C-288.665,1732.81 -295.466,1744.52 -297.355,1763.41C-297.733,1767.57 -297.733,1769.46 -296.977,1769.46L-290.554,1764.17C-287.531,1761.9 -282.62,1759.26 -275.441,1755.86C-268.262,1752.83 -262.972,1750.57 -259.572,1749.43C-245.592,1742.63 -236.524,1736.59 -231.612,1731.3C-230.101,1728.28 -228.212,1726.01 -225.945,1723.74C-224.811,1723.36 -223.678,1721.85 -222.166,1719.96C-221.033,1718.07 -219.899,1716.56 -219.144,1716.18C-216.877,1710.89 -215.743,1707.12 -215.365,1704.09C-213.476,1698.05 -214.232,1691.62 -216.877,1685.2Z" style="fill:rgb(187,34,119);fill-rule:nonzero;"/>
        <path d="M-593.199,1915.68C-593.955,1925.5 -593.577,1933.44 -591.31,1939.48C-590.554,1941.37 -588.287,1944.02 -585.642,1948.17C-584.509,1948.93 -581.486,1948.93 -576.574,1948.93L-566.751,1948.93C-566.373,1948.93 -564.861,1948.93 -562.972,1948.55C-561.083,1948.17 -559.194,1948.17 -557.683,1948.17C-557.305,1948.17 -556.549,1948.93 -555.416,1950.06L-553.149,1951.95C-549.748,1955.35 -547.859,1958 -547.481,1959.51L-544.081,1967.07C-541.058,1970.47 -538.413,1973.11 -535.768,1974.62C-533.879,1975.76 -530.479,1976.51 -525.945,1976.51C-519.899,1976.51 -506.297,1971.22 -485.139,1960.26C-463.98,1948.93 -449.622,1942.13 -442.821,1939.86C-439.798,1937.97 -432.997,1935.7 -421.662,1933.06L-419.018,1932.31C-420.32,1932.38 -421.533,1931.62 -422.04,1930.42C-429.597,1928.15 -438.287,1927.02 -448.111,1927.02C-463.602,1927.02 -475.315,1930.04 -484.383,1935.7L-489.673,1939.86C-490.806,1939.48 -491.184,1938.73 -491.184,1937.59C-491.14,1936.61 -490.737,1935.66 -490.05,1934.95C-489.295,1934.19 -488.917,1933.44 -488.917,1932.68C-488.539,1928.53 -490.05,1923.62 -493.829,1917.19L-499.874,1910.39C-502.141,1909.26 -505.164,1907.75 -509.32,1906.23L-514.987,1906.23C-517.254,1906.23 -518.388,1905.86 -519.144,1905.48C-519.521,1905.48 -520.655,1905.1 -521.411,1904.35C-522.544,1903.59 -523.3,1902.46 -524.055,1901.7C-524.811,1900.94 -525.567,1900.57 -526.322,1900.57C-527.078,1900.57 -528.212,1900.57 -529.723,1900.19C-531.234,1899.81 -532.368,1899.81 -533.879,1899.43C-535.39,1899.06 -536.524,1898.3 -537.28,1897.17C-539.547,1897.17 -541.814,1895.65 -544.081,1893.01C-544.458,1891.88 -545.214,1889.99 -545.97,1887.34C-546.725,1884.7 -547.859,1883.19 -548.615,1882.81C-549.37,1878.28 -550.504,1874.87 -552.393,1872.61C-555.038,1870.72 -560.705,1869.96 -569.395,1869.96C-573.929,1870.72 -581.486,1872.61 -592.065,1876.01C-600.756,1877.14 -607.179,1879.79 -610.957,1883.56C-612.091,1883.56 -613.224,1884.32 -614.358,1885.83C-615.491,1887.34 -616.625,1888.48 -617.38,1889.61L-624.181,1893.01C-628.715,1896.03 -633.249,1899.43 -637.406,1903.21L-641.184,1910.01C-640.05,1909.63 -639.295,1909.26 -638.539,1909.26C-630.982,1902.83 -619.27,1899.81 -604.156,1899.81L-598.489,1899.81L-592.443,1903.21C-591.688,1905.1 -591.31,1906.61 -591.31,1907.75C-591.31,1909.26 -591.688,1910.77 -592.065,1911.9C-592.783,1913.03 -593.175,1914.34 -593.199,1915.68ZM-453.401,1691.62C-456.423,1689.74 -461.335,1688.98 -467.758,1688.98C-480.227,1688.98 -493.073,1694.65 -506.297,1705.98C-520.655,1720.34 -528.589,1732.05 -529.345,1741.88C-529.723,1746.41 -528.967,1749.81 -527.078,1752.08C-526.7,1754.35 -523.3,1757.37 -517.254,1760.77C-514.61,1761.9 -512.343,1762.66 -510.076,1762.66C-506.297,1762.66 -502.897,1761.15 -499.874,1758.5C-497.985,1756.61 -493.829,1751.32 -487.783,1742.25C-486.65,1740.37 -484.761,1738.48 -482.116,1736.21C-479.849,1733.94 -478.338,1732.43 -478.338,1732.05C-476.826,1727.52 -475.693,1722.99 -475.315,1718.45L-475.315,1707.87C-474.181,1698.05 -466.625,1692.76 -453.401,1691.62Z" style="fill:rgb(0,136,68);fill-rule:nonzero;"/>
        <path d="M-423.174,1798.55C-426.574,1799.31 -429.597,1801.57 -431.864,1805.35L-433.753,1809.51C-433.753,1810.26 -434.509,1811.4 -435.642,1812.91C-436.02,1816.31 -434.131,1818.2 -429.597,1818.2C-425.063,1818.2 -421.662,1817.07 -419.395,1814.8C-418.262,1814.8 -417.884,1814.42 -417.506,1812.91L-416.373,1810.26L-415.617,1809.51L-413.728,1808.75L-412.594,1806.11L-412.217,1803.46C-411.839,1800.06 -414.861,1798.17 -420.907,1798.17L-423.174,1798.17L-423.174,1798.55Z" style="fill:rgb(187,34,119);fill-rule:nonzero;"/>
        <path d="M-273.174,1919.46C-269.773,1919.08 -267.128,1916.81 -265.239,1913.41C-262.217,1906.61 -261.083,1902.46 -260.705,1901.32C-260.327,1899.06 -262.217,1896.03 -265.617,1891.88C-267.884,1888.48 -270.907,1886.59 -274.307,1886.59L-286.776,1886.59L-311.335,1892.63L-309.824,1893.39C-304.156,1895.28 -300.378,1899.06 -298.866,1905.48C-298.489,1906.23 -297.355,1908.12 -296.222,1911.52C-295.088,1914.92 -293.955,1917.19 -292.821,1918.33C-287.154,1921.35 -283.753,1922.48 -283.375,1922.48C-281.864,1922.48 -279.975,1922.1 -277.708,1920.59C-275.063,1920.21 -273.552,1919.46 -273.174,1919.46Z" style="fill:rgb(0,136,68);fill-rule:nonzero;"/>
        <path d="M-449.622,1806.11C-456.423,1806.86 -459.824,1809.89 -460.202,1815.55C-460.579,1817.82 -460.202,1819.33 -459.068,1819.71C-459.446,1821.98 -457.557,1823.11 -453.778,1823.11C-448.489,1823.11 -443.577,1821.22 -440.176,1817.07C-439.043,1816.69 -438.287,1815.18 -438.287,1812.91C-437.909,1808.38 -440.554,1806.11 -446.599,1806.11L-449.622,1806.11Z" style="fill:rgb(187,34,119);fill-rule:nonzero;"/>
        <path d="M-167.003,1828.78C-163.224,1830.67 -160.202,1832.18 -157.935,1832.56C-156.801,1832.56 -155.29,1832.93 -153.023,1833.31C-150.756,1834.07 -148.866,1834.07 -147.355,1834.07C-139.043,1834.07 -132.242,1832.18 -126.196,1828.78C-125.063,1828.4 -123.929,1826.51 -123.174,1824.24L-121.662,1818.58L-121.285,1815.18C-120.907,1812.91 -121.285,1811.02 -121.662,1809.13C-123.174,1801.57 -126.196,1796.66 -130.73,1793.64C-132.997,1793.64 -135.642,1792.88 -138.665,1791C-139.043,1791 -140.554,1790.62 -142.065,1789.11C-143.955,1787.97 -145.088,1787.22 -145.466,1787.22L-149.622,1787.22C-154.912,1787.22 -159.068,1787.59 -161.335,1787.97C-165.113,1789.11 -177.204,1794.39 -197.229,1804.22C-206.297,1808.75 -217.254,1815.55 -229.723,1824.62C-229.345,1824.62 -227.078,1824.62 -224.055,1824.24C-220.655,1823.87 -218.388,1823.87 -216.499,1823.87C-213.854,1823.49 -209.32,1823.11 -203.275,1823.11C-189.673,1823.11 -180.227,1823.49 -175.315,1823.87C-174.181,1825.76 -171.159,1826.89 -167.003,1828.78ZM-250.504,1885.08C-247.481,1889.23 -244.836,1891.5 -242.569,1892.63C-238.413,1896.03 -231.99,1897.92 -222.544,1897.92C-218.01,1897.92 -214.987,1897.54 -213.476,1897.17C-209.698,1897.17 -206.297,1895.28 -203.275,1891.88C-201.008,1889.61 -199.496,1885.83 -198.741,1880.92C-198.363,1878.65 -198.741,1876.38 -198.741,1874.12C-202.141,1867.69 -205.919,1864.67 -210.831,1864.67C-212.343,1864.67 -214.61,1865.05 -217.632,1865.43C-220.277,1866.18 -222.544,1866.18 -224.433,1866.18C-226.7,1865.81 -228.967,1864.67 -231.234,1863.54C-233.501,1862.41 -235.768,1861.65 -237.28,1861.65C-241.058,1861.27 -247.481,1860.89 -256.171,1860.89C-257.305,1861.65 -259.194,1861.65 -261.839,1861.65C-264.484,1861.65 -266.373,1862.03 -267.506,1862.41L-276.952,1867.69C-276.952,1869.58 -273.929,1868.45 -273.929,1868.45C-267.506,1870.34 -262.217,1873.36 -257.683,1877.9C-256.171,1878.65 -253.904,1880.92 -250.504,1885.08Z" style="fill:rgb(0,136,68);fill-rule:nonzero;"/>
        <path d="M-400.504,1813.66L-403.149,1814.42C-406.171,1817.82 -408.06,1823.11 -408.816,1830.67C-409.194,1835.2 -406.927,1837.47 -401.259,1837.47C-398.992,1837.47 -397.481,1837.09 -396.348,1836.71C-395.97,1834.45 -394.836,1833.31 -392.569,1833.31C-391.814,1832.18 -391.436,1831.05 -391.436,1829.91L-391.058,1827.27C-391.058,1826.89 -390.302,1825.76 -389.169,1824.62C-388.035,1823.49 -387.28,1822.36 -387.28,1821.22L-386.902,1817.82C-386.524,1814.8 -387.28,1812.53 -388.791,1811.02C-394.081,1811.02 -397.859,1811.4 -399.37,1811.78C-400.126,1811.78 -400.504,1812.53 -400.504,1813.66ZM-384.257,1789.48C-383.879,1784.19 -386.524,1781.93 -392.569,1781.93C-392.947,1781.93 -393.703,1782.31 -394.836,1782.68C-395.592,1783.44 -396.348,1783.44 -397.103,1783.44C-401.637,1785.7 -404.282,1789.11 -404.66,1793.64C-405.038,1798.17 -402.771,1800.44 -397.859,1800.44C-389.547,1800.44 -385.39,1797.04 -384.635,1790.24L-384.257,1789.48Z" style="fill:rgb(187,34,119);fill-rule:nonzero;"/>
    </g>
</svg>
