<?xml version="1.0" encoding="UTF-8" standalone="no"?>
<svg width="100%" height="100%" viewBox="0 0 150 200" version="1.1" xmlns="http://www.w3.org/2000/svg" xmlns:xlink="http://www.w3.org/1999/xlink" xml:space="preserve" xmlns:serif="http://www.serif.com/" style="fill-rule:evenodd;clip-rule:evenodd;stroke-linejoin:round;stroke-miterlimit:2;">
    <path d="M98.615,130.094C99.117,115.178 97.413,96.35 93.31,73.521C92.909,99.754 91.81,121.484 90.208,138.705C88.304,157.631 84.499,175.65 78.793,192.671L89.607,192.671C95.214,171.244 98.218,150.32 98.618,130.094L98.615,130.094Z" style="fill:rgb(0,136,68);fill-rule:nonzero;"/>
    <path d="M59.664,101.87C59.457,105.193 66.373,99.359 66.476,98.855C67.403,94.335 66.178,91.548 62.471,90.346C62.471,85.238 55.761,81.033 42.446,77.832C41.747,75.528 41.044,73.325 40.141,71.224C37.938,72.225 36.034,73.325 34.432,74.727L25.621,67.219C23.018,70.722 21.416,74.53 20.815,78.634C14.407,79.835 9.899,81.335 7.296,83.137C9.2,88.442 12,92.149 15.506,94.453C13.202,97.956 12,103.162 12,109.975C17.207,110.073 21.51,109.775 24.918,109.174C26.72,113.077 30.325,116.485 35.834,119.489C36.635,115.786 37.836,112.28 39.34,108.977C42.144,110.78 44.044,111.581 45.045,111.581C44.947,108.977 44.743,106.374 44.543,103.571C47.649,102.77 51.654,101.168 56.558,98.866C60.264,95.761 59.996,96.527 59.664,101.87ZM37.538,104.262C35.936,107.666 34.734,111.071 34.031,114.377C31.13,112.975 28.727,110.171 26.524,106.064C22.918,106.934 19.22,107.371 15.51,107.364C15.51,102.059 17.014,97.654 19.916,94.147C14.611,90.142 12.008,86.938 12.008,84.433C15.62,82.995 19.441,82.15 23.324,81.932C24.525,77.825 25.628,74.723 26.63,72.618L34.44,79.627L37.946,77.424C38.547,78.724 38.849,81.127 38.849,84.433C35.645,83.232 32.641,82.631 30.038,82.631C25.931,82.631 23.83,85.835 23.83,92.043C23.83,98.95 26.335,102.358 31.341,102.358C33.442,102.358 36.446,101.659 40.152,100.155C40.553,101.557 40.953,103.461 41.252,105.962L37.538,104.262ZM34.432,92.145C34.334,97.552 33.23,100.257 30.929,100.257C28.326,100.257 26.924,97.552 26.924,92.145C26.924,87.339 28.126,84.834 30.431,84.834C33.132,84.834 34.436,87.339 34.436,92.145L34.432,92.145ZM43.746,99.853C43.746,98.05 43.145,95.047 41.943,91.042C42.544,87.539 42.846,84.736 42.846,82.729C52.258,85.03 56.962,87.535 56.962,90.237C56.864,92.44 52.455,95.644 43.746,99.849L43.746,99.853ZM11.003,155.621L17.713,153.218C19.115,155.319 21.317,158.024 24.419,161.228C26.324,163.329 29.123,164.13 32.732,163.729C32.335,163.773 35.337,162.534 36.238,161.228C38.241,158.326 39.144,153.018 38.841,145.408C40.616,144.425 42.321,143.321 43.946,142.106C42.729,140.693 41.272,139.508 39.642,138.603L43.946,129.992C40.341,128.893 36.737,128.591 33.132,129.093C30.627,124.586 28.326,121.484 26.225,119.882C22.22,122.583 19.715,125.587 18.616,128.893C15.113,127.892 10.508,128.292 4.798,129.894C5.898,133.899 7.103,137.205 8.305,139.605C5.399,141.906 3.401,145.51 2.097,150.418C5.399,150.116 8.603,150.116 11.807,150.516C11.108,153.12 10.806,154.82 11.006,155.625L11.003,155.621ZM31.927,159.426C30.026,159.924 26.32,157.423 20.713,151.714C22.315,151.215 24.718,150.112 27.722,148.31C30.827,147.909 33.329,147.411 35.033,146.908C35.233,154.62 34.232,158.825 31.931,159.426L31.927,159.426ZM17.411,142.204C16.81,140.202 18.812,138.497 23.316,137.096C27.423,135.894 29.724,136.295 30.325,138.097C30.827,140.099 29.123,141.702 25.016,142.805C20.509,144.105 17.909,143.908 17.407,142.204L17.411,142.204ZM6.295,147.909C6.797,145.306 8.599,142.703 11.603,140.099C10.001,137.496 8.8,134.795 7.999,132.089C12.506,130.79 16.511,130.79 20.214,132.191C22.315,127.185 24.419,124.382 26.524,123.879C28.526,126.482 30.128,129.086 31.228,131.889C34.134,131.885 37.039,131.953 39.937,132.089L35.732,139.797L38.335,142C37.334,142.703 35.429,143.5 32.626,144.403C32.826,141.599 32.626,139.196 32.123,137.292C31.224,134.186 28.118,133.287 22.81,134.791C17.003,136.593 14.702,139.295 15.801,143.001C16.304,144.603 17.603,146.708 19.806,149.307C18.707,149.908 17.105,150.611 15.102,151.412L15.903,148.208C12.298,147.709 9.193,147.607 6.291,147.909L6.295,147.909Z" style="fill:rgb(221,119,17);fill-rule:nonzero;"/>
    <path d="M79.492,175.151C84.196,156.826 87.2,140.209 88.504,125.288C89.807,104.662 87.601,84.037 81.895,63.21C82.897,92.647 82.194,116.477 79.594,134.5C77.494,148.117 74.388,162.433 70.383,177.754C70.681,176.152 71.286,171.747 72.185,164.538C73.084,157.329 74.286,149.421 75.888,140.708C77.49,131.995 78.593,121.684 79.092,109.669C80.093,90.346 75.586,72.021 65.573,54.702C71.078,75.83 71.879,100.06 67.874,127.295C65.173,143.013 62.77,164.84 60.767,192.479L75.487,192.479C76.19,188.273 77.588,182.466 79.492,175.159L79.492,175.151Z" style="fill:rgb(0,136,68);fill-rule:nonzero;"/>
    <path d="M147.676,126.089C146.577,120.184 144.472,115.877 141.469,113.175C142.972,110.27 144.374,106.469 145.772,101.761C139.564,99.758 134.558,99.358 130.655,100.461C129.654,96.554 127.05,93.052 122.845,89.749C120.344,91.65 117.639,95.356 114.835,100.763C110.932,100.064 107.025,100.465 103.02,101.764L107.324,111.977C105.521,112.979 103.919,114.38 102.518,116.183C104.12,117.584 105.922,118.884 107.924,120.188C107.222,129.199 107.724,135.305 109.326,138.309C109.489,138.613 110.83,143.912 113.736,141.811C117.741,142.212 120.744,141.309 122.947,138.807C126.45,135.003 129.053,131.798 130.655,129.195C133.058,130.298 135.461,131.3 137.664,132.101C138.064,131.099 137.762,129.195 136.961,126.191C140.565,125.791 144.072,125.693 147.676,126.093L147.676,126.089ZM114.937,136.703C112.534,135.902 111.631,130.895 112.334,121.786C114.136,122.387 116.739,122.889 120.144,123.388C123.45,125.591 125.853,126.992 127.553,127.495C121.247,134.304 117.038,137.307 114.937,136.707L114.937,136.703ZM123.147,116.98C118.844,115.578 116.94,113.674 117.642,111.373C118.341,109.17 120.945,108.77 125.252,110.171C130.258,111.671 132.359,113.776 131.558,116.179C130.957,118.181 128.154,118.382 123.147,116.98ZM133.262,123.188L133.764,126.992C131.664,125.991 129.96,125.19 128.856,124.491C131.259,121.487 132.861,118.986 133.462,116.984C134.864,112.476 132.363,109.272 126.053,107.273C120.344,105.471 116.943,106.37 115.84,110.175C115.039,112.578 114.737,115.382 114.839,118.684C111.835,117.683 109.734,116.783 108.631,115.982L111.733,113.379L107.528,104.266C109.73,104.065 112.832,103.963 116.841,103.963C118.141,100.759 120.045,97.555 122.448,94.552C124.651,95.254 126.854,98.557 128.955,104.466C132.96,102.762 137.365,102.664 142.171,104.266C141.17,107.568 139.666,110.772 137.766,113.976C140.97,117.082 142.874,120.086 143.275,123.089C140.169,122.689 136.764,122.787 133.262,123.188Z" style="fill:rgb(221,119,17);fill-rule:nonzero;"/>
    <path d="M80.191,58.004C80.792,58.907 81.291,59.205 81.994,59.205C83.698,59.205 86.8,56.904 92.105,51.996C95.811,48.49 97.613,46.487 105.321,36.278C104.021,35.576 103.22,35.375 100.515,35.375C99.215,35.375 98.112,35.477 97.111,35.776L95.607,35.976C95.207,35.976 95.006,35.776 94.606,35.477L94.606,35.175C94.806,34.374 95.108,33.974 96.51,33.275C99.212,31.873 100.613,31.37 102.015,31.37C102.616,31.37 103.617,31.472 105.019,31.673C105.62,31.775 106.621,31.873 108.023,31.873C112.727,25.865 114.929,22.06 114.929,20.659C114.929,19.858 113.426,19.057 111.926,19.057C110.826,19.057 109.723,19.96 107.32,22.763C106.02,24.365 103.916,26.368 101.214,28.873C98.909,30.977 98.411,31.276 97.511,31.276C96.51,31.276 95.207,29.273 95.207,27.773C95.207,27.173 95.207,26.87 95.709,24.97C95.909,23.866 96.212,23.666 98.312,22.567C100.315,21.463 100.413,21.365 103.621,17.458C105.922,14.455 106.122,14.254 106.122,13.654C106.122,13.453 105.922,13.053 105.62,12.452C104.917,11.251 104.52,10.147 104.52,9.248C104.52,9.248 104.52,9.146 104.618,8.946L104.917,8.946L106.621,9.547L109.424,10.45C112.829,11.851 114.03,13.151 114.23,15.256C118.836,16.155 119.335,16.355 120.537,17.156C122.139,18.055 123.438,20.36 123.438,22.06C123.438,23.262 123.438,23.262 120.234,26.168C119.732,26.666 118.632,27.97 117.23,29.87C116.728,30.369 115.628,32.073 114.227,33.773C122.135,39.282 129.945,43.586 136.054,45.788C143.463,48.089 144.363,48.792 146.868,53.099L146.868,53.402C146.165,54.501 146.165,54.603 144.563,54.702L138.657,54.902C135.355,54.902 132.85,53.901 129.147,51.199L119.535,43.291C115.33,39.785 114.431,39.184 110.822,37.582L92.199,56.708C87.793,59.912 84.189,61.714 81.986,61.714C80.785,61.714 79.583,60.112 79.583,58.608C79.583,58.208 79.783,58.008 80.086,57.509L80.184,57.509L80.191,58.004ZM105.321,45.686C106.322,45.486 107.225,45.486 107.724,45.486C112.028,45.486 116.936,49.193 116.936,52.397C116.936,53.398 116.335,54.698 115.636,55.298C115.338,55.499 115.134,55.597 115.035,55.597L109.53,55.899L107.528,56.5L106.024,56.598L106.024,56.3L106.927,55.2C108.929,52.895 109.13,52.597 109.028,52.295C109.028,51.996 108.729,51.395 108.125,50.893C106.621,49.393 105.922,48.089 105.219,46.087L105.321,45.686ZM106.122,60.105C107.724,61.605 108.427,62.005 110.528,62.508C114.733,63.407 115.031,63.607 116.834,65.311C119.335,67.612 120.941,70.015 120.941,71.319C120.941,72.222 119.838,72.72 117.937,72.72C115.632,72.72 115.632,72.72 109.727,69.717C107.724,68.715 106.821,67.616 106.122,65.413L105.121,61.306C105.121,61.004 105.321,60.603 105.623,60.105L106.122,60.105Z" style="fill:rgb(187,51,34);fill-rule:nonzero;"/>
    <path d="M62.569,91.045L62.569,90.947L62.471,90.947C62.471,91.045 62.471,91.045 62.373,91.147C62.373,91.446 62.275,91.748 62.173,92.047C62.173,92.349 62.173,92.549 62.074,92.848C62.074,93.15 61.976,93.346 61.874,93.649C61.778,94.706 61.317,95.698 60.571,96.452C60.272,96.951 59.872,97.453 59.369,97.854C60.571,97.654 60.669,99.256 59.668,102.558C54.559,118.778 51.555,148.816 50.656,192.773L56.562,192.773C58.364,154.827 60.166,130.895 62.067,120.981C63.967,111.067 65.471,103.96 66.574,99.456C67.576,95.05 66.276,92.247 62.569,91.045ZM36.435,162.033L36.132,162.335C35.433,163.435 34.228,164.236 32.528,164.338L32.528,164.436L32.83,164.436C35.433,166.537 37.338,169.945 38.539,174.751C39.976,180.697 41.112,186.712 41.943,192.773L47.15,192.773C44.947,175.65 41.343,165.339 36.438,162.033L36.435,162.033ZM111.03,139.605C110.405,139.16 109.89,138.577 109.526,137.901C109.625,138.101 109.625,138.203 109.727,138.403C103.319,143.708 98.513,161.832 95.108,192.872L100.817,192.872C101.72,180.955 103.923,168.04 107.426,154.121C109.028,148.011 111.23,144.006 114.136,141.906C113.879,141.773 113.645,141.603 113.433,141.407C112.442,141.114 111.589,140.474 111.03,139.605Z" style="fill:rgb(0,136,68);fill-rule:nonzero;"/>
</svg>
