<?xml version="1.0" encoding="UTF-8" standalone="no"?>
<svg width="100%" height="100%" viewBox="0 0 150 200" version="1.1" xmlns="http://www.w3.org/2000/svg" xmlns:xlink="http://www.w3.org/1999/xlink" xml:space="preserve" xmlns:serif="http://www.serif.com/" style="fill-rule:evenodd;clip-rule:evenodd;stroke-linejoin:round;stroke-miterlimit:2;">
    <g transform="matrix(0.265,0,0,0.265,180.605,-342.317)">
        <path d="M-664.987,1432.05L-657.053,1432.81C-648.363,1432.81 -641.94,1429.79 -630.982,1421.1C-595.088,1390.87 -592.821,1389.36 -591.688,1382.93C-589.421,1370.09 -588.287,1360.64 -588.287,1353.84C-588.287,1344.02 -590.176,1339.86 -598.111,1331.93L-597.733,1330.79C-595.844,1328.9 -594.71,1328.15 -593.199,1328.15C-582.997,1328.15 -562.972,1343.64 -562.972,1351.2C-562.972,1353.46 -564.484,1358.75 -567.506,1366.69C-568.262,1368.58 -569.018,1371.22 -569.773,1375.38C-560.327,1380.67 -556.927,1384.07 -556.927,1387.85C-556.927,1390.87 -557.683,1392.38 -565.617,1399.18C-574.685,1407.87 -577.708,1413.16 -579.597,1425.63C-575.441,1433.56 -574.307,1436.96 -574.307,1440.37C-574.307,1441.12 -574.307,1441.5 -574.685,1442.25C-575.063,1443.39 -575.441,1444.14 -575.441,1444.52L-575.441,1445.28L-572.04,1443.39C-570.151,1442.63 -567.128,1438.85 -562.972,1432.05C-559.572,1426.01 -556.171,1420.72 -552.771,1415.05L-547.859,1404.85C-547.481,1404.09 -546.725,1402.96 -545.214,1400.69L-544.458,1400.69L-544.458,1402.58C-544.458,1413.92 -557.305,1444.9 -566.751,1456.99C-577.33,1469.84 -584.509,1478.9 -584.887,1480.04C-586.398,1482.68 -587.154,1486.46 -587.154,1491C-587.154,1499.31 -584.131,1524.62 -581.486,1535.96C-579.975,1543.51 -579.219,1549.94 -579.219,1554.09C-579.219,1556.74 -581.108,1558.63 -582.62,1558.63C-583.375,1558.63 -584.509,1557.87 -585.642,1557.12C-595.088,1548.43 -600.378,1533.69 -600.378,1517.82C-600.378,1516.69 -600,1507.24 -598.866,1489.48L-610.579,1499.31C-621.537,1508.38 -623.804,1509.89 -627.204,1509.89C-630.982,1509.89 -632.494,1505.35 -632.494,1495.53C-632.494,1484.19 -632.494,1483.82 -619.647,1476.26C-610.957,1470.97 -601.134,1459.26 -598.111,1450.19C-597.355,1447.54 -595.088,1432.81 -595.088,1429.41C-595.088,1429.03 -595.088,1428.65 -595.844,1428.65C-597.355,1428.65 -603.401,1433.19 -612.091,1440.74C-632.116,1458.12 -632.494,1458.5 -637.783,1458.5C-641.94,1458.5 -648.363,1454.72 -657.431,1447.54C-663.476,1442.25 -664.232,1441.12 -664.987,1433.19L-664.987,1432.05ZM-571.285,1480.79C-570.529,1481.17 -569.773,1481.17 -569.395,1481.17C-568.64,1481.17 -566.751,1480.42 -564.861,1479.66C-563.35,1478.9 -558.438,1477.02 -550.504,1474.37C-549.37,1473.99 -544.836,1472.48 -540.302,1470.59L-532.368,1442.25C-529.345,1429.79 -526.322,1421.47 -523.678,1418.45L-515.743,1408.63L-506.675,1395.4C-505.542,1393.89 -502.897,1391.25 -499.118,1387.47C-512.72,1391.25 -516.877,1393.14 -522.922,1396.91C-526.322,1399.18 -529.345,1400.69 -531.234,1400.69C-531.99,1400.69 -533.123,1399.94 -533.879,1399.18C-536.146,1397.29 -541.058,1388.98 -540.68,1387.47C-540.68,1385.96 -538.791,1383.31 -536.146,1380.29C-530.101,1373.49 -525.945,1367.07 -525.945,1362.91C-525.945,1361.78 -527.078,1359.89 -528.212,1359.51C-536.902,1356.11 -536.902,1356.11 -538.791,1354.22L-539.547,1353.09C-539.169,1348.55 -536.524,1345.15 -533.501,1345.53L-526.7,1346.66C-512.72,1348.55 -512.72,1348.55 -508.186,1351.57C-504.03,1354.6 -501.008,1358.75 -501.008,1361.78C-501.008,1363.66 -502.897,1367.44 -504.786,1369.71C-506.675,1371.22 -506.675,1371.6 -506.675,1372.36L-503.275,1371.6C-478.338,1360.64 -478.338,1360.64 -473.048,1360.64C-464.358,1360.64 -450.756,1369.33 -450.756,1374.62C-450.756,1378.02 -454.156,1379.53 -468.892,1382.93C-487.783,1387.47 -514.61,1407.87 -514.61,1418.45C-514.61,1419.21 -514.232,1419.96 -513.476,1419.96C-510.453,1419.96 -503.275,1415.81 -492.317,1407.87C-487.783,1404.47 -483.249,1402.58 -479.849,1402.58C-476.448,1402.58 -468.514,1406.74 -462.091,1411.27C-457.179,1415.05 -453.778,1419.58 -453.778,1422.61C-453.778,1423.36 -454.534,1427.52 -455.668,1433.56C-455.668,1436.21 -456.045,1442.25 -456.423,1451.7C-440.176,1452.83 -434.509,1455.1 -425.441,1462.66C-418.262,1468.7 -415.995,1471.35 -415.995,1474.37C-415.995,1476.64 -417.884,1478.15 -420.907,1478.15C-422.796,1478.15 -425.819,1477.77 -429.219,1477.02C-441.31,1473.62 -444.71,1473.62 -458.312,1472.86C-459.068,1487.22 -459.446,1489.48 -460.579,1502.71C-451.889,1503.46 -448.111,1505.73 -440.554,1512.91C-437.154,1516.31 -435.264,1519.33 -435.264,1521.6C-435.264,1523.87 -437.154,1525 -440.932,1525C-444.332,1525 -445.844,1524.62 -454.156,1521.98C-458.69,1520.47 -458.69,1520.09 -463.98,1518.95C-472.292,1539.36 -477.204,1548.05 -486.272,1557.12C-490.05,1560.52 -493.451,1562.78 -496.474,1562.78C-499.496,1562.78 -499.874,1562.41 -503.652,1554.85L-508.564,1546.91C-511.587,1538.22 -512.343,1535.58 -515.365,1527.64L-514.61,1526.89C-506.675,1531.42 -502.519,1532.93 -498.741,1532.93C-491.184,1532.93 -487.406,1528.02 -481.738,1513.29C-485.894,1512.53 -489.295,1512.53 -491.562,1512.53C-499.118,1512.53 -507.431,1514.42 -524.433,1521.22C-533.123,1524.62 -533.123,1524.62 -542.191,1529.91C-544.081,1531.05 -546.348,1531.8 -548.992,1531.8C-550.882,1531.8 -553.526,1531.05 -555.038,1529.91C-558.438,1526.13 -562.217,1517.07 -562.217,1512.53C-562.217,1510.26 -562.217,1510.26 -554.282,1500.82C-553.149,1499.68 -552.393,1498.55 -552.393,1497.8C-552.393,1497.04 -553.149,1496.66 -554.282,1496.66C-555.038,1496.66 -556.171,1497.04 -557.683,1497.42C-561.083,1498.17 -563.35,1498.93 -563.35,1498.93C-582.242,1496.66 -582.242,1496.66 -582.242,1495.91C-582.242,1495.53 -582.242,1495.53 -581.108,1494.02L-577.33,1487.97C-576.952,1487.22 -575.063,1484.57 -572.796,1482.31L-571.285,1482.31L-571.285,1480.79ZM-518.766,1498.17C-516.877,1495.15 -510.453,1482.68 -510.453,1480.79C-510.453,1480.04 -511.209,1479.66 -512.343,1479.66C-514.987,1479.66 -518.388,1480.79 -530.479,1486.46C-536.524,1497.8 -537.657,1499.31 -543.703,1510.26C-528.212,1506.11 -522.922,1503.09 -518.766,1498.17ZM-515.743,1425.63C-516.877,1443.77 -517.632,1446.79 -522.922,1465.68C-515.743,1463.41 -514.61,1463.04 -506.297,1461.15C-504.408,1453.59 -502.519,1441.12 -502.519,1435.08C-502.519,1433.19 -503.275,1431.3 -504.786,1430.54L-515.743,1425.63ZM-497.607,1499.68C-492.695,1498.93 -488.917,1498.93 -486.272,1498.93C-484.761,1498.93 -482.116,1498.93 -479.093,1499.31C-477.204,1486.08 -476.826,1483.82 -475.693,1472.86C-489.295,1473.62 -492.317,1473.99 -493.829,1476.26C-494.584,1477.39 -501.008,1496.66 -501.008,1498.55C-501.008,1499.31 -500.252,1500.06 -499.118,1500.06L-497.607,1500.06L-497.607,1499.68ZM-474.559,1444.52C-474.559,1423.74 -475.315,1419.21 -477.96,1419.21C-478.338,1419.21 -478.338,1419.21 -484.005,1423.74C-490.05,1429.41 -490.05,1429.41 -490.05,1430.16C-490.05,1430.92 -489.295,1433.19 -488.161,1435.83C-487.406,1438.48 -486.65,1440.74 -486.65,1442.25C-486.65,1444.14 -487.028,1446.41 -487.783,1449.81C-488.539,1451.32 -488.539,1453.97 -489.673,1457.37C-481.738,1456.61 -480.605,1456.61 -473.804,1453.97L-474.559,1444.52Z" style="fill:rgb(51,51,153);fill-rule:nonzero;"/>
        <path d="M-479.849,2017.69L-477.204,2003.34L-472.67,1982.18L-466.625,1956.49L-458.312,1928.15L-445.088,1921.73L-423.552,1911.9C-415.239,1908.12 -405.416,1904.72 -394.836,1900.94L-360.831,1890.37L-343.073,1906.99L-316.625,1928.15L-304.534,1936.84L-286.776,1947.8C-275.063,1954.6 -262.972,1960.26 -249.748,1965.55C-236.524,1970.84 -224.433,1975.38 -213.098,1979.16C-200.252,1983.69 -187.406,1987.85 -174.181,1991.25L-169.27,1985.96C-172.292,1985.2 -175.693,1984.07 -179.093,1982.93C-185.516,1981.05 -193.451,1978.4 -203.652,1974.24C-207.043,1972.86 -214.614,1969.98 -219.144,1968.2C-229.723,1964.04 -239.924,1959.51 -250.504,1954.98C-261.083,1950.44 -269.773,1946.29 -277.33,1941.75C-283.753,1937.97 -290.554,1933.06 -298.111,1927.77C-305.29,1922.48 -312.469,1916.81 -318.892,1911.52C-325.315,1906.23 -330.982,1901.32 -335.894,1896.79C-340.806,1892.25 -344.584,1888.85 -346.474,1886.59C-345.34,1886.21 -342.695,1885.83 -338.917,1885.08C-334.773,1884.25 -330.616,1883.5 -326.448,1882.81C-321.914,1882.05 -317.758,1881.3 -313.98,1880.92C-310.202,1880.16 -307.557,1880.16 -306.045,1880.16C-299.244,1879.41 -291.688,1879.03 -284.131,1878.65C-276.574,1878.28 -268.64,1877.9 -260.705,1877.9C-263.35,1881.3 -265.995,1884.7 -268.262,1888.85C-270.529,1892.63 -271.285,1896.79 -270.907,1900.94C-270.529,1903.38 -269.626,1905.7 -268.262,1907.75L-266.751,1909.26C-262.594,1913.79 -258.06,1916.06 -253.526,1916.06C-251.259,1916.06 -248.615,1915.68 -246.348,1914.55C-244.081,1913.79 -241.814,1912.28 -239.547,1910.77C-238.791,1910.01 -237.657,1909.63 -236.902,1908.88C-235.768,1908.12 -235.013,1907.37 -234.635,1906.23C-233.879,1905.48 -232.746,1904.35 -231.612,1902.46L-231.234,1902.46C-229.345,1904.72 -227.456,1906.99 -225.567,1908.5C-223.3,1910.01 -221.033,1910.77 -218.766,1910.77L-216.499,1910.39C-212.72,1909.63 -208.942,1909.26 -205.919,1908.5C-202.519,1907.75 -199.874,1906.61 -197.607,1905.1C-194.207,1902.46 -192.695,1898.68 -193.073,1894.14L-193.451,1891.5C-194.207,1889.23 -195.718,1886.97 -197.229,1884.7C-198.741,1882.81 -201.008,1880.92 -203.275,1879.41C-199.874,1879.79 -196.851,1879.79 -194.207,1879.79L-187.783,1879.79C-185.516,1879.79 -183.627,1879.79 -181.738,1880.16L-182.494,1873.74C-184.005,1873.36 -185.894,1872.99 -188.161,1872.99C-190.05,1872.61 -192.317,1872.61 -194.962,1872.23C-197.607,1872.23 -200.63,1871.85 -204.03,1871.1L-201.385,1869.58C-201.008,1868.83 -200.252,1868.45 -200.252,1868.45C-199.874,1868.45 -199.874,1868.07 -199.496,1867.32C-196.474,1863.92 -194.207,1860.89 -192.695,1858.63C-191.184,1855.98 -190.806,1853.72 -190.806,1851.07C-190.806,1849.56 -191.94,1847.67 -193.829,1845.03C-194.962,1843.14 -196.096,1841.62 -197.607,1840.49C-201.385,1837.85 -205.164,1836.34 -209.32,1836.34C-214.987,1836.34 -221.033,1837.85 -226.7,1840.87C-224.811,1837.85 -223.3,1834.82 -222.544,1831.8C-221.788,1828.78 -221.411,1825.76 -221.411,1822.73C-221.788,1820.3 -222.691,1817.98 -224.055,1815.93L-225.189,1814.42C-229.723,1810.26 -233.879,1808 -238.413,1808C-240.68,1808 -243.325,1808.38 -245.592,1809.51C-247.859,1810.26 -250.126,1811.78 -252.393,1813.29L-258.438,1818.2C-262.217,1821.98 -263.35,1826.89 -262.972,1832.93C-262.594,1837.09 -261.461,1841.25 -259.95,1845.4C-258.438,1849.56 -256.549,1852.96 -254.66,1855.98C-256.549,1853.72 -259.194,1851.45 -261.839,1848.43C-264.861,1845.4 -267.884,1843.14 -270.907,1840.87C-274.307,1838.6 -277.33,1836.71 -280.73,1834.82C-283.753,1833.31 -286.776,1832.18 -289.798,1832.18C-292.443,1832.18 -294.71,1832.93 -295.844,1834.07C-301.134,1837.85 -303.401,1842.38 -302.645,1848.43C-302.267,1851.83 -301.511,1855.23 -299.622,1858.25C-298.111,1861.65 -295.844,1864.67 -293.577,1867.69C-293.199,1868.45 -292.821,1868.83 -292.065,1869.58L-309.824,1871.1C-324.181,1872.61 -337.406,1874.5 -349.874,1876.38C-351.758,1876.67 -371.042,1880.96 -378.589,1882.81C-397.103,1887.34 -412.594,1892.25 -425.441,1897.17L-454.912,1909.63C-452.645,1903.59 -450.756,1897.54 -448.489,1891.5C-446.222,1885.45 -443.955,1879.79 -440.932,1874.5C-437.154,1866.56 -431.864,1858.25 -424.685,1849.56C-417.884,1840.87 -409.95,1832.18 -401.259,1823.11C-392.569,1814.42 -383.501,1805.73 -373.678,1797.04L-345.34,1773.62C-344.584,1772.86 -325.688,1758.85 -323.804,1757.37C-318.514,1753.21 -313.602,1749.43 -309.068,1746.41C-304.534,1743.39 -300.756,1740.37 -297.355,1738.1C-293.577,1735.45 -290.176,1732.81 -286.776,1730.54L-288.665,1723.74C-289.421,1721.47 -290.176,1718.45 -290.932,1715.81C-291.688,1712.78 -292.443,1709.38 -293.577,1705.98C-294.451,1703.36 -296.507,1692.75 -297.355,1689.36C-300,1678.78 -301.889,1667.44 -303.401,1655.35L-300.756,1655.35C-296.599,1655.35 -292.821,1653.84 -289.421,1651.2C-286.031,1648.56 -282.985,1645.52 -280.353,1642.13C-278.086,1638.73 -277.33,1634.95 -277.708,1630.79C-278.086,1627.02 -279.219,1622.86 -281.486,1619.08C-283.403,1615.3 -285.548,1611.64 -287.909,1608.12C-284.509,1610.01 -280.73,1611.52 -276.574,1613.04C-272.418,1614.55 -268.64,1614.92 -264.484,1614.92C-262.217,1614.92 -259.95,1614.55 -257.683,1613.41C-255.793,1612.66 -253.526,1610.77 -251.637,1608.5C-249.748,1605.48 -248.992,1602.46 -249.37,1599.06C-249.748,1595.65 -250.882,1592.63 -253.526,1589.99C-255.793,1587.34 -258.438,1584.7 -261.461,1582.43C-263.35,1580.54 -265.617,1579.41 -267.884,1578.28C-269.395,1577.52 -270.907,1576.76 -272.796,1576.01C-272.04,1575.25 -270.907,1573.36 -269.395,1569.58C-267.884,1565.81 -267.506,1562.03 -267.884,1557.49C-268.262,1553.34 -270.151,1549.56 -273.929,1546.16C-277.33,1542.76 -283.753,1540.87 -292.443,1540.87C-295.844,1540.87 -298.489,1542 -300.756,1543.89C-303.023,1545.78 -304.912,1548.05 -306.045,1550.32C-304.912,1533.31 -303.401,1516.31 -301.511,1499.31L-295.466,1450.94C-292.443,1440 -292.442,1429.78 -291.688,1425.63C-289.421,1413.16 -287.531,1401.45 -286.02,1390.87C-284.131,1380.29 -282.62,1371.22 -280.73,1363.29L-275.441,1338.35L-281.864,1342.88L-291.688,1384.45C-294.71,1396.91 -297.733,1411.65 -301.134,1428.28C-304.534,1444.9 -307.557,1462.66 -310.579,1481.17C-311.441,1486.45 -312.243,1491 -312.846,1494.77C-314.358,1504.22 -315.869,1514.04 -317.003,1523.87L-320.025,1552.96L-320.403,1552.96C-323.804,1551.45 -326.826,1550.32 -329.093,1549.56C-331.36,1548.8 -333.627,1548.43 -335.894,1548.43C-338.917,1548.43 -341.562,1549.94 -344.207,1552.58C-344.584,1553.34 -345.34,1554.47 -345.718,1555.23C-346.096,1555.98 -346.474,1556.74 -346.851,1557.12C-347.607,1559.01 -347.985,1560.89 -347.607,1563.54C-347.229,1567.32 -346.096,1570.72 -343.451,1574.12C-341.184,1577.52 -338.161,1580.92 -335.139,1584.32C-339.295,1583.19 -343.451,1582.43 -347.607,1582.43C-351.763,1582.43 -355.542,1583.94 -358.942,1586.59C-362.343,1589.23 -363.476,1593.01 -363.098,1597.92C-362.72,1601.32 -361.587,1604.35 -359.32,1606.99C-357.053,1610.01 -354.408,1612.66 -351.008,1614.92C-349.118,1616.81 -346.851,1618.33 -344.207,1619.46C-341.184,1620.97 -338.161,1621.73 -335.516,1621.73C-331.738,1621.73 -327.582,1620.59 -323.048,1618.7C-323.048,1622.1 -323.048,1625.5 -322.67,1628.9L-321.537,1639.11C-320.403,1652.71 -318.514,1664.8 -316.625,1676.13C-322.292,1669.33 -329.093,1661.78 -336.65,1653.46C-344.207,1645.53 -352.897,1637.22 -362.343,1629.66C-371.033,1622.86 -380.856,1616.06 -391.058,1609.26L-420.151,1591.12C-425.431,1589.23 -440.176,1579.41 -444.332,1577.14C-448.489,1574.87 -452.267,1572.99 -455.668,1571.47C-459.068,1569.58 -462.469,1568.07 -465.869,1566.56L-472.292,1570.72L-443.577,1586.97L-416.751,1602.83C-407.305,1608.5 -398.237,1614.17 -389.924,1619.84C-395.214,1619.84 -402.393,1619.84 -411.083,1619.46L-438.665,1617.95L-467.38,1615.68C-476.826,1614.92 -485.139,1613.41 -491.94,1611.9C-501.008,1610.01 -511.209,1606.99 -522.544,1602.83C-533.879,1598.68 -544.836,1594.14 -555.038,1589.61L-591.688,1572.99L-590.554,1580.54C-587.531,1582.43 -583.753,1584.32 -579.975,1586.59C-576.574,1588.48 -572.418,1590.37 -567.884,1593.01C-563.35,1595.28 -558.06,1597.92 -552.771,1600.19C-547.868,1602.29 -545.965,1602.94 -541.814,1604.72C-533.879,1608.12 -525.567,1611.15 -517.254,1613.79C-508.942,1616.81 -499.874,1619.08 -490.428,1621.35C-483.249,1622.86 -475.693,1623.99 -467.38,1625.13C-459.068,1626.26 -450.756,1627.02 -442.443,1627.77C-434.131,1628.53 -425.819,1628.9 -417.884,1628.9C-409.95,1628.9 -403.149,1629.28 -397.103,1629.28C-392.947,1629.28 -389.169,1629.28 -386.146,1628.9C-383.123,1628.9 -380.479,1628.53 -378.589,1628.53C-376.7,1630.42 -375.189,1631.55 -374.055,1632.31C-366.877,1638.35 -359.698,1645.15 -352.141,1653.09C-344.962,1661.02 -338.161,1668.2 -332.494,1675.38L-318.136,1693.51L-312.469,1701.45C-311.335,1705.23 -310.957,1708.25 -310.202,1711.27C-309.824,1714.3 -309.068,1716.94 -308.312,1718.83C-307.935,1721.1 -307.179,1723.36 -306.423,1725.25C-316.625,1732.43 -358.942,1764.55 -370.655,1774.37L-405.038,1804.98C-408.816,1798.93 -413.728,1791 -420.151,1781.55C-426.574,1772.1 -434.887,1761.52 -445.088,1750.57C-447.733,1748.3 -450.378,1745.65 -452.645,1743.01C-454.912,1740.37 -457.557,1738.1 -460.202,1735.45C-462.086,1733.57 -478.541,1719.46 -480.227,1718.07C-486.65,1712.78 -493.073,1707.87 -499.496,1703.72L-515.743,1692.38C-521.411,1688.6 -526.322,1685.58 -531.234,1682.56L-538.413,1685.2C-537.28,1685.96 -535.768,1687.09 -534.635,1688.22C-533.501,1688.98 -531.99,1690.11 -530.479,1691.25C-528.967,1692.38 -527.456,1693.51 -525.189,1695.03C-516.135,1701.06 -500.252,1713.16 -500.252,1713.16C-491.562,1719.96 -484.383,1725.63 -478.338,1730.92C-472.292,1736.21 -466.247,1741.88 -460.579,1747.92C-457.557,1751.32 -454.156,1754.72 -450.756,1758.5L-442.821,1767.19C-443.582,1765.68 -433.375,1781.55 -433.375,1781.55C-428.841,1787.59 -425.063,1793.26 -421.662,1798.93C-418.262,1804.6 -415.617,1809.13 -413.35,1813.29C-422.796,1822.73 -431.486,1832.18 -439.421,1841.62C-447.355,1851.45 -453.778,1860.52 -459.068,1869.58C-460.202,1871.47 -460.579,1872.61 -460.957,1873.36C-465.491,1869.21 -471.537,1864.3 -478.338,1859.01C-485.139,1853.72 -492.695,1848.05 -501.008,1842.38C-497.985,1840.87 -495.718,1838.6 -494.962,1835.96C-493.829,1832.18 -492.695,1828.78 -491.94,1825.76C-491.184,1822.36 -490.806,1819.33 -490.806,1816.69C-491.184,1811.4 -494.584,1807.24 -500.252,1804.98C-502.897,1804.22 -505.164,1803.46 -507.809,1803.46C-511.209,1803.46 -514.232,1804.22 -517.254,1805.35C-520.277,1806.49 -523.3,1808 -526.322,1809.51C-524.811,1807.62 -524.055,1805.73 -523.3,1803.84C-522.471,1801.81 -522.21,1799.59 -522.544,1797.42C-522.544,1795.91 -522.922,1794.77 -523.3,1794.39C-525.567,1787.97 -527.456,1783.44 -529.723,1780.42C-531.99,1777.39 -535.39,1775.88 -539.547,1775.88C-541.814,1775.88 -543.703,1775.88 -544.836,1776.26C-549.748,1777.39 -552.771,1780.42 -554.66,1784.95C-556.549,1789.48 -557.683,1794.77 -558.06,1800.06C-561.083,1795.15 -564.106,1791 -567.128,1787.59C-570.151,1784.19 -573.929,1782.31 -578.086,1782.31L-579.975,1782.31C-585.264,1783.06 -588.665,1784.95 -590.554,1787.97C-592.443,1791 -593.577,1794.77 -593.955,1798.55C-601.134,1796.29 -607.935,1794.02 -613.98,1792.88C-620.025,1791.37 -625.315,1789.86 -630.227,1788.35C-635.894,1787.22 -640.806,1785.7 -645.34,1784.19L-650.252,1789.48C-649.118,1789.86 -647.607,1790.24 -645.718,1791C-644.207,1791.75 -642.317,1792.13 -639.673,1792.88C-637.406,1793.64 -634.761,1794.39 -632.116,1794.77C-624.951,1795.8 -627.195,1796.52 -619.27,1799.68C-615.491,1801.2 -611.335,1802.71 -607.179,1803.84C-603.023,1805.35 -598.489,1806.49 -594.332,1808C-594.332,1809.89 -593.955,1811.02 -593.577,1812.15C-592.443,1815.93 -590.932,1818.95 -588.287,1821.22C-585.642,1823.49 -582.997,1825.76 -579.597,1827.27C-576.574,1828.78 -573.174,1830.29 -569.773,1831.05C-566.615,1831.76 -563.466,1832.51 -560.327,1833.31C-563.728,1833.69 -567.506,1834.07 -572.04,1835.2C-576.574,1835.96 -580.73,1837.47 -584.509,1838.98C-588.287,1840.49 -591.31,1842.38 -593.955,1845.03C-596.599,1847.29 -597.355,1850.32 -597.355,1854.09C-596.599,1862.03 -593.199,1866.94 -586.776,1869.58C-580.353,1872.23 -573.929,1873.36 -567.884,1873.36C-561.839,1873.36 -556.927,1870.72 -553.526,1865.05C-550.126,1859.76 -547.481,1854.47 -545.97,1849.18C-545.214,1851.83 -544.081,1854.85 -542.947,1858.25C-541.814,1861.65 -540.302,1864.67 -538.035,1867.32C-536.146,1870.34 -533.879,1872.61 -531.612,1874.5C-529.345,1876.38 -526.322,1877.14 -523.3,1877.14L-521.411,1877.14C-514.987,1876.38 -510.831,1874.12 -509.32,1869.58C-507.353,1865.07 -506.698,1860.1 -507.431,1855.23L-507.809,1852.96L-493.451,1864.3C-488.917,1868.07 -484.761,1871.1 -481.36,1874.12C-477.96,1877.14 -474.937,1879.41 -473.048,1881.3C-470.781,1883.19 -469.647,1884.32 -468.892,1884.7C-474.937,1897.54 -480.227,1911.15 -484.761,1924.75C-489.295,1938.35 -493.073,1951.2 -495.718,1963.29C-498.741,1975.38 -501.008,1985.96 -502.519,1995.4L-505.919,2016.56L-479.849,2017.69ZM-244.458,1858.25L-231.612,1857.87L-242.191,1869.58L-245.97,1869.96L-244.458,1858.25ZM-298.866,1591.5L-297.355,1594.52L-301.889,1604.72L-310.579,1593.77L-298.866,1591.5ZM-541.058,1836.34L-545.592,1833.69L-543.325,1828.4L-537.657,1833.31L-541.058,1836.34Z" style="fill:rgb(0,136,68);fill-rule:nonzero;"/>
        <g>
            <path d="M-250.504,1432.05C-252.393,1428.28 -254.66,1424.5 -257.305,1421.85C-259.95,1418.83 -262.594,1416.56 -265.239,1414.67C-267.884,1412.78 -270.151,1412.03 -272.418,1412.03C-275.063,1412.03 -278.086,1413.54 -280.73,1416.18C-283.753,1418.83 -286.02,1421.85 -288.287,1425.25L-288.287,1424.5C-290.554,1427.52 -292.443,1452.46 -292.443,1450.94C-289.421,1451.32 -284.509,1451.7 -278.086,1451.7L-260.327,1452.08C-256.549,1452.08 -253.149,1451.7 -250.882,1450.57C-248.237,1449.43 -247.481,1447.17 -247.481,1444.14C-247.481,1439.61 -248.615,1435.83 -250.504,1432.05ZM-343.451,1486.46C-341.94,1487.97 -339.295,1489.11 -336.272,1490.24L-326.826,1492.51C-323.426,1493.26 -320.403,1493.64 -317.003,1494.02C-313.602,1494.39 -310.957,1494.39 -309.068,1494.39L-309.068,1494.77C-307.935,1494.39 -305.29,1484.57 -306.423,1479.66C-306.423,1480.04 -306.423,1480.42 -306.801,1480.79L-314.736,1473.24L-323.048,1465.3L-330.982,1458.88C-333.627,1456.99 -335.894,1456.23 -337.783,1456.23C-339.673,1456.23 -341.184,1456.99 -343.073,1458.88C-347.607,1464.92 -349.874,1470.59 -349.118,1475.5C-348.741,1480.04 -346.851,1483.44 -343.451,1486.46ZM-346.851,1614.17C-344.962,1616.06 -342.695,1617.57 -340.05,1618.7C-337.028,1620.21 -334.005,1620.97 -331.36,1620.97C-327.582,1620.97 -323.426,1619.84 -318.892,1617.95L-318.514,1628.15L-317.38,1638.35C-317.003,1642.13 -315.491,1647.04 -310.957,1650.44L-308.312,1651.95C-306.045,1653.09 -303.401,1653.84 -300.756,1654.6L-298.111,1654.6C-293.955,1654.6 -290.176,1653.09 -286.776,1650.44C-283.386,1647.81 -280.34,1644.76 -277.708,1641.37C-275.441,1637.97 -274.685,1634.19 -275.063,1630.04C-275.441,1626.26 -276.574,1622.1 -278.841,1618.33C-280.758,1614.55 -282.903,1610.89 -285.264,1607.37C-281.864,1609.26 -278.086,1610.77 -273.929,1612.28C-269.773,1613.79 -265.995,1614.17 -261.839,1614.17C-259.572,1614.17 -257.305,1613.79 -255.038,1612.66C-253.149,1611.9 -250.882,1610.01 -248.992,1607.75C-247.103,1604.72 -246.348,1601.7 -246.725,1598.3C-247.103,1594.9 -248.237,1591.88 -250.882,1589.23C-253.149,1586.59 -255.793,1583.94 -258.816,1581.67C-260.705,1579.79 -262.972,1578.65 -265.239,1577.52L-270.151,1575.25C-269.395,1574.5 -268.262,1572.61 -266.751,1568.83C-265.239,1565.05 -264.861,1561.27 -265.239,1556.74C-265.617,1552.58 -267.506,1548.8 -271.285,1545.4C-274.685,1542 -281.108,1540.11 -289.798,1540.11C-293.199,1540.11 -295.844,1541.25 -298.111,1543.14C-300.378,1545.03 -302.267,1547.29 -303.401,1549.56C-303.401,1548.05 -308.69,1561.27 -308.312,1559.38C-309.068,1558.25 -310.202,1555.23 -310.579,1556.36L-317.758,1551.83L-326.448,1548.43C-328.715,1547.67 -330.982,1547.29 -333.249,1547.29C-336.272,1547.29 -338.917,1548.8 -341.562,1551.45C-341.94,1552.2 -342.695,1553.34 -343.073,1554.09C-343.451,1554.85 -343.829,1555.61 -344.207,1555.98C-344.962,1557.87 -345.34,1559.76 -344.962,1562.41C-344.584,1566.18 -343.451,1569.58 -340.806,1572.99C-338.539,1576.38 -335.516,1579.79 -332.494,1583.19C-336.65,1582.05 -340.806,1581.3 -344.962,1581.3C-349.118,1581.3 -352.897,1582.81 -356.297,1585.45C-359.698,1588.1 -360.831,1591.88 -360.453,1596.79C-360.076,1600.19 -358.942,1603.21 -356.675,1605.86C-352.897,1609.26 -350.252,1611.9 -346.851,1614.17ZM-297.733,1590.37L-296.222,1593.39L-300.756,1603.59L-309.446,1592.63L-297.733,1590.37ZM-403.526,1553.34C-406.171,1550.32 -408.816,1548.43 -411.461,1547.29C-411.839,1546.91 -412.594,1546.91 -413.728,1546.91C-414.484,1546.91 -415.995,1547.29 -417.128,1547.67C-418.64,1548.43 -420.907,1549.18 -423.552,1550.69C-424.753,1553.06 -425.521,1555.62 -425.819,1558.25L-426.574,1567.32L-426.574,1576.38C-426.574,1579.41 -426.196,1582.05 -426.196,1583.94C-426.196,1583.94 -426.574,1583.94 -426.574,1583.56C-425.441,1586.97 -418.64,1589.99 -414.861,1588.85C-412.594,1586.97 -410.327,1584.7 -407.305,1581.3C-403.904,1577.52 -401.259,1574.12 -399.37,1570.72C-398.615,1568.83 -398.237,1567.32 -398.615,1566.18C-399.37,1560.52 -400.882,1555.98 -403.526,1553.34ZM-548.615,1600.19L-558.06,1606.23C-561.839,1608.88 -564.861,1611.52 -567.128,1614.17C-568.64,1615.68 -569.018,1617.95 -569.395,1620.97C-569.111,1625.15 -568.087,1629.24 -566.373,1633.06C-564.861,1636.08 -562.972,1638.73 -561.083,1640.24C-558.816,1642.13 -556.549,1642.88 -554.282,1642.88C-552.015,1642.88 -550.126,1641.75 -547.859,1639.11C-544.836,1634.95 -542.569,1629.28 -540.68,1622.48C-538.791,1615.68 -537.657,1609.63 -537.28,1604.72L-536.902,1604.72C-537.28,1602.08 -545.214,1599.06 -548.615,1600.19ZM-519.521,1721.47C-516.121,1722.99 -513.098,1724.12 -509.698,1724.5C-506.675,1725.25 -504.408,1725.25 -502.897,1725.25C-499.118,1725.25 -496.851,1724.12 -496.096,1722.23C-495.34,1719.96 -494.962,1717.69 -494.962,1715.43L-494.962,1714.3C-500.252,1710.52 -516.499,1694.65 -520.277,1695.03C-519.899,1695.03 -519.899,1695.4 -519.899,1695.4C-522.166,1696.16 -525.189,1696.91 -528.212,1698.43C-531.234,1699.94 -532.746,1702.2 -532.368,1705.61C-531.99,1709.38 -530.479,1712.78 -528.212,1715.43C-525.567,1718.07 -522.922,1719.96 -519.521,1721.47ZM-468.136,1790.62C-466.625,1792.51 -464.358,1793.26 -460.579,1793.26C-455.29,1793.26 -449.622,1791.75 -443.577,1789.11L-428.841,1781.93C-428.841,1782.31 -437.909,1767.95 -437.909,1767.95C-438.665,1767.57 -439.421,1767.57 -440.176,1767.19C-440.932,1767.19 -441.688,1766.81 -442.065,1766.44L-448.489,1764.55C-451.134,1763.79 -453.778,1763.79 -456.045,1763.79C-458.312,1763.79 -460.202,1764.17 -461.335,1765.3C-465.113,1768.7 -467.758,1772.1 -469.27,1775.13C-470.781,1778.53 -471.159,1781.55 -470.781,1784.19C-470.403,1786.84 -469.647,1789.11 -468.136,1790.62ZM-343.073,1774.37C-342.695,1773.99 -342.317,1773.99 -342.317,1773.62C-341.562,1776.64 -340.806,1780.79 -338.917,1785.7C-337.406,1791 -335.516,1795.91 -333.249,1800.82C-330.982,1805.73 -328.338,1809.89 -325.315,1813.66C-322.292,1817.44 -318.892,1818.95 -314.736,1818.95C-311.713,1818.95 -309.068,1817.82 -306.801,1815.93C-304.534,1813.66 -303.023,1811.02 -301.511,1808C-300.378,1804.98 -299.622,1801.2 -299.244,1797.8C-298.866,1794.02 -298.866,1790.62 -299.244,1787.22C-299.622,1784.95 -300.378,1782.31 -301.889,1779.28C-303.401,1776.26 -305.29,1773.62 -307.557,1770.97L-314.358,1763.41L-320.781,1757.37C-326.826,1756.61 -342.317,1769.08 -343.073,1774.37ZM-205.542,1875.63L-198.741,1868.45C-198.363,1867.69 -197.607,1867.32 -197.607,1867.32C-197.229,1867.32 -197.229,1866.94 -196.851,1866.18C-193.829,1862.78 -191.562,1859.76 -190.05,1857.49C-188.539,1854.85 -188.161,1852.58 -188.161,1849.94C-188.161,1848.43 -189.295,1846.54 -191.184,1843.89C-192.317,1842 -193.451,1840.49 -194.962,1839.36C-198.741,1836.71 -202.519,1835.2 -206.675,1835.2C-212.343,1835.2 -218.388,1836.71 -224.055,1839.74C-222.166,1836.71 -220.655,1833.69 -219.899,1830.67C-219.144,1827.64 -218.766,1824.62 -218.766,1821.6C-219.144,1819.17 -220.046,1816.85 -221.411,1814.8L-222.544,1813.29C-227.078,1809.13 -231.234,1806.86 -235.768,1806.86C-238.035,1806.86 -240.68,1807.24 -242.947,1808.38C-245.214,1809.13 -247.481,1810.64 -249.748,1812.15L-255.793,1817.07C-259.572,1820.84 -260.705,1825.76 -260.327,1831.8C-259.95,1835.96 -258.816,1840.11 -257.305,1844.27C-255.793,1848.43 -253.904,1851.83 -252.015,1854.85C-253.904,1852.58 -256.549,1850.32 -259.194,1847.29C-262.217,1844.27 -265.239,1842 -268.262,1839.74L-278.086,1833.69C-281.108,1832.18 -284.131,1831.05 -287.154,1831.05C-289.798,1831.05 -292.065,1831.8 -293.199,1832.93C-298.489,1836.71 -300.756,1841.25 -300,1847.29C-299.622,1850.69 -298.866,1854.09 -296.977,1857.12C-295.466,1860.52 -293.199,1863.54 -290.932,1866.56C-290.554,1866.94 -290.554,1867.32 -290.176,1867.69C-286.398,1872.99 -266.751,1876.01 -259.194,1875.63C-261.839,1879.03 -264.484,1882.43 -266.751,1886.59C-269.018,1890.37 -269.773,1894.52 -269.395,1898.68C-269.018,1901.11 -268.115,1903.43 -266.751,1905.48L-265.239,1906.99C-261.083,1911.52 -256.549,1913.79 -252.015,1913.79C-249.748,1913.79 -247.103,1913.41 -244.836,1912.28C-242.569,1911.52 -240.302,1910.01 -238.035,1908.5C-237.28,1907.75 -236.146,1907.37 -235.39,1906.61C-234.257,1905.86 -233.501,1905.1 -233.123,1903.97C-231.954,1902.85 -230.938,1901.58 -230.101,1900.19L-229.723,1900.19C-227.834,1902.46 -225.945,1904.72 -224.055,1906.23C-221.788,1907.75 -219.521,1908.5 -217.254,1908.5L-214.987,1908.12L-204.408,1906.23C-201.008,1905.48 -198.363,1904.35 -196.096,1902.83C-192.695,1900.19 -191.184,1896.41 -191.562,1891.88L-191.94,1889.23C-192.695,1886.97 -194.207,1884.7 -195.718,1882.43C-196.851,1881.3 -202.141,1876.01 -205.542,1875.63ZM-241.436,1868.45L-245.214,1868.83L-243.703,1857.12L-230.856,1856.74L-241.436,1868.45ZM-316.247,1927.02L-327.204,1928.15C-332.116,1928.9 -336.65,1930.04 -341.184,1931.55C-345.718,1933.06 -349.496,1935.33 -352.897,1937.97C-356.297,1940.62 -357.431,1943.64 -357.053,1947.8C-356.297,1955.73 -352.897,1960.64 -346.474,1963.29C-340.05,1965.93 -333.627,1967.07 -327.582,1967.07C-323.828,1967.14 -320.182,1965.79 -317.38,1963.29C-314.736,1961.02 -312.091,1958 -310.202,1954.6C-308.379,1951.34 -306.861,1947.93 -305.668,1944.39L-303.401,1935.33L-303.023,1935.7C-304.156,1931.55 -310.957,1927.02 -316.247,1927.02Z" style="fill:rgb(187,51,34);fill-rule:nonzero;"/>
            <path d="M-157.557,1942.13C-158.41,1940.84 -159.581,1939.8 -160.957,1939.11C-162.846,1938.35 -165.491,1937.59 -168.892,1937.22C-172.292,1936.84 -177.204,1936.46 -183.249,1936.46C-188.539,1936.46 -193.451,1937.59 -197.607,1940.24C-201.763,1942.88 -204.786,1945.91 -207.809,1949.31C-210.453,1952.71 -212.72,1956.11 -214.232,1959.51C-215.743,1962.91 -217.254,1965.18 -218.01,1966.69C-217.254,1967.82 -203.275,1972.73 -202.519,1972.73L-202.897,1972.73L-188.539,1967.07L-173.426,1959.89C-168.514,1957.62 -164.736,1954.98 -161.335,1952.71C-157.935,1950.44 -156.423,1948.17 -156.801,1945.91C-156.801,1944.39 -157.179,1943.26 -157.557,1942.13ZM-345.718,1875.25L-346.851,1875.25L-340.806,1859.38C-338.539,1853.34 -337.783,1849.56 -337.783,1847.29C-337.783,1846.54 -338.917,1845.4 -341.184,1844.65L-348.363,1842C-351.008,1841.25 -354.03,1840.49 -357.053,1840.11L-364.987,1839.36C-368.01,1839.36 -370.277,1841.25 -371.788,1845.4C-373.3,1849.56 -374.433,1854.09 -375.189,1859.01C-375.945,1863.92 -375.945,1868.83 -375.945,1873.36L-375.567,1881.3C-373.3,1884.7 -352.141,1879.03 -345.718,1875.25ZM-485.516,1815.93C-485.894,1810.64 -489.295,1806.49 -494.962,1804.22C-497.607,1803.46 -499.874,1802.71 -502.519,1802.71C-505.919,1802.71 -508.942,1803.46 -511.965,1804.6C-514.987,1805.73 -518.01,1807.24 -521.033,1808.75C-519.521,1806.86 -518.766,1804.98 -518.01,1803.09C-517.182,1801.05 -516.92,1798.83 -517.254,1796.66C-517.254,1795.15 -517.632,1794.02 -518.01,1793.64C-520.277,1787.22 -522.166,1782.68 -524.433,1779.66C-526.7,1776.64 -530.101,1775.13 -534.257,1775.13C-536.524,1775.13 -538.413,1775.13 -539.547,1775.5C-544.458,1776.64 -547.481,1779.66 -549.37,1784.19C-551.259,1788.73 -552.393,1794.02 -552.771,1799.31C-555.793,1794.39 -558.816,1790.24 -561.839,1786.84C-564.861,1783.44 -568.64,1781.55 -572.796,1781.55L-574.685,1781.55C-579.975,1782.31 -583.375,1784.19 -585.264,1787.22C-587.154,1790.24 -588.287,1794.02 -588.665,1797.8C-588.287,1800.82 -588.287,1804.6 -588.287,1807.24C-588.287,1809.13 -587.909,1810.26 -587.531,1811.4C-586.398,1815.18 -584.887,1818.2 -582.242,1820.47C-579.597,1822.73 -576.952,1825 -573.552,1826.51C-570.529,1828.02 -567.128,1829.53 -563.728,1830.29L-554.282,1832.56C-557.683,1832.93 -561.461,1833.31 -565.995,1834.45C-570.529,1835.2 -574.685,1836.71 -578.463,1838.22C-582.242,1839.74 -585.264,1841.62 -587.909,1844.27C-590.554,1846.54 -591.31,1849.56 -591.31,1853.34C-590.554,1861.27 -587.154,1866.18 -580.73,1868.83C-574.307,1871.47 -567.884,1872.61 -561.839,1872.61C-555.793,1872.61 -550.882,1869.96 -547.481,1864.3C-544.081,1859.01 -541.436,1853.72 -539.924,1848.43L-536.902,1857.49C-535.768,1860.89 -534.257,1863.92 -531.99,1866.56C-530.101,1869.58 -527.834,1871.85 -525.567,1873.74C-523.3,1875.63 -520.277,1876.38 -517.254,1876.38L-515.365,1876.38C-508.942,1875.63 -504.786,1873.36 -503.275,1868.83C-501.308,1864.32 -500.653,1859.34 -501.385,1854.47L-502.141,1845.03C-501.385,1845.78 -492.317,1844.27 -489.295,1835.2C-488.161,1831.8 -487.783,1828.02 -487.028,1824.62C-484.761,1821.98 -485.139,1818.58 -485.516,1815.93ZM-539.924,1834.45L-544.458,1831.8L-542.191,1826.51L-536.524,1831.42L-539.924,1834.45ZM-628.715,1793.64C-626.448,1794.39 -634.383,1799.68 -638.539,1803.09C-642.695,1806.49 -644.584,1809.51 -644.584,1812.53C-643.829,1820.47 -641.94,1826.13 -638.539,1830.29C-635.139,1834.07 -631.738,1836.34 -628.715,1836.34C-626.071,1836.34 -623.804,1834.82 -621.914,1831.8C-620.025,1828.78 -618.514,1825.38 -617.38,1821.22C-616.247,1817.07 -615.491,1813.29 -614.736,1809.13L-613.224,1799.31C-617.003,1796.66 -630.982,1792.88 -628.715,1793.64ZM-455.29,1735.08C-453.401,1734.32 -451.134,1732.81 -447.355,1730.92L-437.154,1724.87L-428.463,1718.45C-425.819,1716.18 -424.685,1714.67 -425.063,1713.16C-425.063,1712.41 -426.196,1711.27 -427.708,1709.01L-433.753,1701.83C-436.02,1699.56 -438.287,1697.29 -440.932,1695.4C-443.577,1693.51 -445.844,1692.38 -448.111,1692.38C-450.378,1692.38 -453.023,1693.14 -455.668,1695.03C-458.312,1696.91 -460.579,1699.18 -463.224,1701.83C-465.869,1704.47 -468.136,1707.49 -470.025,1710.14L-475.315,1717.69C-476.071,1716.56 -453.778,1736.59 -455.29,1735.08ZM-289.798,1704.85L-277.33,1707.87C-271.285,1709.01 -265.995,1709.76 -260.705,1709.76C-256.927,1709.76 -253.526,1709.38 -251.259,1708.25C-248.615,1707.12 -247.859,1704.85 -247.859,1701.83C-248.286,1697.75 -249.438,1693.78 -251.259,1690.11C-253.149,1686.34 -255.416,1682.93 -258.06,1679.91C-260.705,1676.89 -263.35,1674.62 -265.617,1672.73C-268.262,1670.84 -270.529,1670.09 -272.796,1670.09C-276.196,1670.09 -279.975,1671.98 -284.131,1676.13C-288.287,1679.91 -295.466,1688.98 -295.844,1689.74C-296.599,1690.49 -292.443,1703.34 -289.798,1704.85Z" style="fill:rgb(187,51,34);fill-rule:nonzero;"/>
        </g>
    </g>
</svg>