<?xml version="1.0" encoding="UTF-8" standalone="no"?>
<svg width="100%" height="100%" viewBox="0 0 150 200" version="1.1" xmlns="http://www.w3.org/2000/svg" xmlns:xlink="http://www.w3.org/1999/xlink" xml:space="preserve" xmlns:serif="http://www.serif.com/" style="fill-rule:evenodd;clip-rule:evenodd;stroke-linejoin:round;stroke-miterlimit:2;">
    <path d="M13.394,23.338L13.897,23.436L14.8,23.938C15.102,24.139 15.401,24.139 15.703,24.139C16.606,24.139 20.108,23.035 24.314,21.433C23.811,17.428 23.811,17.326 21.71,15.426C21.11,14.723 20.807,14.322 20.807,13.623L21.008,13.321L22.209,13.121C23.909,13.121 26.214,13.722 27.215,14.424C28.217,15.127 28.817,15.924 28.817,16.427L28.719,18.83C28.719,19.132 28.817,19.533 28.919,20.334L31.224,19.831L34.526,19.23C38.331,18.732 39.132,18.531 39.635,18.029C40.236,17.33 40.836,15.025 40.836,13.525C40.836,13.026 40.636,12.225 40.334,11.424C39.635,9.52 39.635,9.422 39.635,8.621L39.733,8.421C39.933,8.319 40.134,8.319 40.134,8.319C40.636,8.319 44.241,9.52 45.14,10.023C46.742,10.824 47.543,11.625 47.543,12.426C47.506,12.743 47.403,13.049 47.241,13.325L45.639,17.028C50.343,16.128 52.047,15.826 54.348,15.826C57.351,15.826 59.754,17.13 59.754,18.83C59.754,19.733 58.953,20.134 56.452,20.534L43.836,21.736L42.635,23.436C41.433,25.34 41.131,25.54 39.431,27.139L42.737,28.14C43.338,27.94 43.836,27.739 43.938,27.641L45.54,26.538C46.742,25.737 51.446,24.535 53.248,24.535C55.953,24.535 59.656,27.339 59.656,29.44C59.656,29.738 59.456,30.339 59.256,31.242C58.753,32.844 58.353,35.247 58.353,38.05C58.353,40.854 58.451,40.952 59.154,53.969L59.853,64.68C59.853,70.389 57.85,76.695 56.048,76.695C55.545,76.695 55.047,76.295 54.045,75.093C52.443,73.291 52.043,72.792 50.841,71.791L46.436,67.684L46.534,67.385L49.137,67.884C50.441,68.186 51.642,68.387 52.341,68.387C54.144,68.387 54.642,66.785 54.642,61.48L53.841,41.254C49.534,42.358 49.334,42.358 45.831,42.456C43.326,42.656 42.827,42.758 42.427,43.657C43.829,44.56 44.429,45.161 44.429,45.46C44.429,45.86 43.927,46.261 43.228,46.461C43.028,46.563 43.028,46.563 41.225,46.763C40.424,46.861 40.024,46.963 38.822,47.462L38.822,48.966L44.732,47.764C46.734,47.764 49.538,49.366 49.538,50.466C49.538,50.965 49.538,50.965 48.438,52.767L46.236,57.875C46.035,58.076 45.537,58.476 45.332,58.476L42.329,58.276C42.23,58.276 41.826,58.374 41.426,58.476C40.615,58.789 39.776,59.023 38.921,59.175C38.72,60.777 38.72,62.281 38.72,62.878C38.622,67.986 38.52,69.188 37.519,70.888C37.217,71.39 37.016,71.689 36.718,71.689C36.317,71.689 36.117,71.39 35.116,70.087C34.515,69.286 33.113,67.786 31.311,65.681L31.511,65.481C32.267,65.662 33.039,65.763 33.816,65.783C34.916,65.783 34.916,65.783 35.116,60.278C32.815,60.777 32.615,60.777 30.51,61.979C30.008,62.179 29.607,62.379 29.411,62.379C28.712,62.379 27.71,61.48 27.31,60.679C26.407,58.676 25.61,54.97 25.61,53.568C25.61,52.967 25.81,52.567 26.309,51.966L26.509,51.966C27.011,52.869 27.208,53.069 27.71,53.768C30.714,51.565 30.914,51.467 35.32,49.865L35.32,48.365C33.718,48.864 33.317,48.864 32.018,49.567C31.417,49.767 31.016,49.967 30.714,49.967C30.113,49.967 29.513,49.567 27.911,48.165L27.812,47.965L28.715,47.262L32.622,45.86C33.512,45.588 34.382,45.253 35.225,44.859C34.723,43.657 34.625,43.657 33.623,42.856C33.118,42.985 32.663,43.264 32.32,43.657C32.018,45.161 31.719,45.361 30.015,45.361L26.312,48.365C25.409,48.966 24.71,49.366 24.11,49.366C23.509,49.366 22.409,48.463 21.605,47.462C21.204,46.963 20.906,46.563 20.705,46.563C20.505,46.563 20.305,47.164 20.305,47.965C20.403,48.766 20.305,50.266 20.105,52.571C19.904,54.373 19.904,55.877 19.904,56.976L19.904,67.79C19.904,70.994 19.402,72.996 18.703,72.996C17.301,72.996 15.699,68.19 15.699,63.985C15.699,62.783 15.797,61.283 16.001,59.379L16.904,46.06L16.704,41.254L16.504,38.149C16.504,36.445 16.904,35.545 18.306,34.344L18.506,34.246C18.605,34.446 18.707,34.646 18.707,34.744C18.805,35.243 18.907,35.345 19.209,35.345C19.409,35.345 19.61,35.145 19.81,34.846C21.113,32.844 21.113,32.844 23.713,31.741C28.319,29.738 29.021,29.538 30.321,29.538C32.422,29.538 34.326,30.94 34.326,32.542C34.326,33.343 34.326,33.343 33.423,35.746C33.121,36.547 32.921,37.846 32.921,40.151L33.121,40.351C34.024,39.849 34.821,39.248 35.123,39.048L36.525,38.047C36.623,38.047 36.725,37.948 37.028,37.846C36.827,39.048 36.827,39.15 35.426,41.05C35.225,41.353 35.025,41.553 35.025,41.651C35.025,42.052 35.123,42.052 37.228,42.652C38.131,42.853 38.531,43.253 39.329,44.356L40.931,44.356C39.929,42.154 39.529,40.752 39.529,39.35L39.529,32.749C39.529,29.848 38.626,28.144 37.024,28.144C36.521,28.144 36.121,28.344 35.52,28.544C34.617,28.846 33.918,29.047 33.518,29.047C33.419,29.047 33.317,29.047 33.015,28.945L32.917,28.544C37.02,25.438 37.723,24.539 38.524,21.637C36.722,21.237 36.321,21.237 35.618,21.237C34.715,21.237 34.115,21.437 32.516,22.438L28.912,24.641C28.409,28.045 28.009,28.748 27.212,28.748C26.611,28.748 26.01,28.147 25.111,26.247C23.108,26.746 23.01,26.746 18.404,28.948C17.403,29.451 16.402,29.749 15.899,29.749C14.497,29.749 12.695,26.848 12.695,24.641C12.695,24.441 12.793,24.04 12.895,23.538L13.394,23.338ZM28.916,40.159L25.511,42.161C23.909,43.264 23.709,43.264 21.907,43.665L21.809,43.264C23.312,42.063 23.811,41.36 23.811,40.759C23.811,40.261 23.411,39.66 22.81,39.157L20.906,37.756L21.004,37.555C21.907,37.057 23.309,36.754 25.61,36.754C27.011,36.754 27.612,36.955 28.814,38.156L29.014,36.154C29.014,34.053 28.814,33.452 28.013,33.452C27.612,33.452 26.611,33.751 25.209,34.453C24.608,34.654 24.11,34.854 24.008,34.952L21.703,35.152C20.8,35.254 20.301,36.354 20.301,37.858C20.301,38.258 20.301,38.258 20.603,41.662L20.906,45.067C21.208,45.569 21.707,45.868 22.307,45.868C24.31,45.868 25.712,45.267 28.916,42.966L28.916,40.159ZM26.312,62.489C27.514,64.189 28.013,64.79 28.315,64.79C28.617,64.79 30.317,63.989 31.118,63.588L31.217,63.989C31.016,64.389 30.914,64.589 30.816,64.691L29.312,67.393C28.213,69.596 28.111,69.694 27.71,69.694C27.612,69.694 27.612,69.694 26.309,68.394C25.406,67.495 25.209,66.894 25.209,65.693C25.209,64.79 25.409,64.091 25.908,62.889L26.312,62.489ZM32.622,53.78C32.12,53.98 31.523,54.078 30.82,54.278C29.516,54.479 28.916,55.079 28.916,56.281C28.916,57.981 29.615,59.583 30.419,59.583C31.75,59.379 33.058,59.044 34.322,58.582C35.225,58.181 35.422,57.781 35.422,56.681C34.519,57.184 33.82,57.384 33.419,57.384C32.921,57.384 32.618,57.184 31.319,56.583C30.816,56.383 30.816,56.383 30.718,55.982L30.816,55.68C32.416,55.243 33.987,54.708 35.52,54.078L35.52,53.077C35.018,53.179 34.617,53.179 34.617,53.277L32.622,53.78ZM39.128,57.184L41.531,56.685C42.733,56.485 43.232,56.186 43.534,55.586C44.082,54.518 44.453,53.368 44.634,52.181C44.634,51.581 44.033,50.98 43.33,50.98C42.929,50.98 42.329,51.078 41.63,51.278C41.127,51.479 40.228,51.679 39.026,51.879L39.227,53.081C39.529,52.982 39.926,52.982 40.13,52.88C40.632,52.68 41.033,52.68 41.131,52.68C42.034,52.68 42.733,53.481 42.733,54.282C42.733,54.785 42.533,55.083 42.23,55.185C42.03,55.283 42.03,55.283 40.628,55.283C40.126,55.283 39.929,55.385 39.026,55.586L39.128,57.184ZM41.433,60.089L42.435,60.089C43.236,60.089 45.238,60.588 46.742,61.091C48.246,61.593 49.145,63.093 49.145,64.695C49.145,65.594 48.544,66.395 47.743,66.395C46.844,66.395 46.141,65.897 44.241,63.792L43.239,62.591L41.037,60.188L41.433,60.089ZM53.747,35.557C53.747,35.258 53.649,35.156 53.547,35.156C53.346,35.156 53.146,35.258 52.946,35.356C52.345,35.557 47.637,36.157 46.636,36.157C46.035,36.157 45.136,36.059 43.832,35.957C43.632,37.559 43.632,37.861 43.632,39.762C46.035,39.664 46.035,39.664 49.137,39.161C50.04,38.961 50.641,38.961 51.14,38.961C51.34,38.961 52.239,39.063 53.943,39.161L53.743,36.66C53.645,36.358 53.645,35.957 53.743,35.557L53.747,35.557ZM43.935,33.256L46.84,32.855C48.088,32.561 49.363,32.393 50.645,32.353C51.344,32.353 52.247,32.553 53.649,33.256L53.649,30.951C53.649,29.349 53.146,28.65 51.948,28.65C51.171,28.664 50.398,28.765 49.644,28.952C48.442,29.251 47.641,29.451 47.04,29.451L45.34,29.451C44.94,29.451 44.641,29.553 44.139,29.753L44.139,30.154L43.938,32.859L43.935,33.256Z" style="fill:rgb(51,51,153);fill-rule:nonzero;"/>
    <path d="M133.844,155.504C131.241,158.107 127.134,161.013 121.526,164.213L121.126,164.814C121.628,164.814 122.225,164.613 122.928,164.213C131.139,162.713 137.248,159.607 141.151,155.103C143.154,153.003 144.555,150.996 145.356,149.096L145.859,147.191L146.161,145.688L146.161,144.686C146.161,144.388 146.063,143.885 145.859,143.183L145.56,141.981L145.56,139.877C145.56,138.777 145.258,137.776 144.559,136.975C141.756,133.469 138.151,131.168 133.844,129.864C131.641,129.463 129.941,129.263 128.539,129.263C125.535,129.263 122.429,129.762 119.029,130.763C113.12,132.966 106.213,137.572 98.403,144.679C90.994,151.99 86.388,159.199 84.684,166.306L80.38,181.026C78.877,187.835 79.081,189.535 79.878,193.941L87.888,173.016C91.292,165.407 93.397,160.699 96.098,157.397L102.008,151.389C106.413,147.184 111.121,143.78 115.927,140.976C120.332,138.573 124.035,137.47 126.843,137.47L127.644,137.47C130.647,137.47 132.948,138.573 134.55,140.776C134.849,140.874 135.053,141.377 135.351,141.977L135.952,143.477C136.855,144.981 137.354,145.88 137.354,146.183L137.354,147.683C137.452,150.388 136.251,152.991 133.848,155.492L133.844,155.504Z" style="fill:rgb(0,136,68);fill-rule:nonzero;"/>
    <path d="M32.418,171.524C32.618,171.426 33.019,171.426 33.518,171.426L34.519,171.426C34.919,171.426 35.422,171.324 35.822,171.025L36.725,170.825C38.127,169.824 38.928,168.724 38.928,167.519C38.928,166.62 38.426,165.717 37.424,164.715C36.725,163.714 35.724,162.713 34.421,161.712L33.722,161.511C33.321,161.413 33.023,161.111 33.023,160.812C33.023,160.714 33.121,160.514 33.423,160.314L34.523,159.513L35.426,158.814L38.229,157.31C38.229,157.011 37.829,156.909 36.926,156.909C36.827,156.909 36.325,156.909 35.622,156.811C34.919,156.713 34.319,156.713 34.02,156.713C33.62,156.713 33.219,156.811 32.618,156.913L31.519,156.913C28.916,157.812 27.612,159.316 27.612,161.519C27.612,163.023 28.712,164.421 30.816,165.724C31.319,166.125 31.515,166.325 31.515,166.423C31.417,166.725 31.013,166.926 30.416,166.926C29.815,167.024 29.414,167.024 29.112,167.024C27.51,167.923 26.709,169.525 26.709,171.83C26.709,172.128 26.807,172.529 27.011,173.13C27.215,173.73 27.314,174.233 27.314,174.634C27.314,174.732 27.113,175.034 26.615,175.533C26.505,175.639 26.365,175.707 26.214,175.733C25.775,175.715 25.339,175.648 24.914,175.533L24.011,175.132C22.409,174.233 21.408,173.13 21.008,171.83C20.607,171.528 20.309,170.526 20.309,168.826L20.309,167.927C20.909,166.023 22.409,163.623 24.914,160.718C25.515,160.317 26.014,159.516 26.418,158.315L30.325,154.208C30.325,153.906 29.626,153.807 28.122,153.807C25.319,153.807 23.516,154.506 22.515,156.01C21.612,156.909 21.212,158.013 21.212,159.312C21.212,160.612 21.714,161.315 22.715,161.515L23.116,161.715L22.406,161.715C22.307,162.116 21.707,162.615 20.906,163.019C19.504,164.421 18.401,165.222 17.902,165.222C17.599,165.222 17.203,165.123 16.802,165.021C16.402,164.919 16.103,164.821 15.899,164.821C14.297,164.821 13.296,164.723 12.895,164.621C13.897,163.62 14.399,162.917 14.399,162.418C14.702,161.719 14.8,161.217 14.8,160.914C14.8,160.215 14.399,159.214 13.7,157.911C12.499,156.607 11.497,155.708 10.394,155.307L9.994,155.107L11.996,154.008L13.5,153.105C14.415,153.101 15.314,153.344 16.103,153.807C16.202,153.807 16.504,153.807 17.006,153.906C17.401,153.988 17.805,154.021 18.208,154.004C18.608,154.004 19.111,154.004 19.908,153.906C20.705,153.807 21.51,153.807 22.209,153.807L24.812,153.607C24.812,153.305 24.714,153.207 24.612,153.207C18.506,151.903 14.702,150.203 13.099,148.2C12.098,147.199 11.596,146.198 11.596,145.196C11.596,144.796 11.694,143.995 11.996,142.895C12.24,142.082 12.374,141.239 12.397,140.39L12.397,139.688L12.196,138.588L12.397,138.588C12.797,138.588 13.598,138.686 14.8,138.989L16.802,139.389C19.708,140.39 21.907,141.592 23.309,142.892L24.212,143.995L24.212,143.296C22.61,139.091 19.908,136.185 15.899,134.583C13.897,133.684 12.196,133.283 10.991,133.283C9.786,133.283 8.89,134.084 8.486,135.686C8.49,136.136 8.592,136.582 8.788,136.99C8.95,137.265 9.053,137.572 9.091,137.889C9.091,138.592 8.69,139.691 7.791,141.195C6.888,142.597 6.487,143.901 6.487,144.898C6.487,146.202 6.79,147.501 7.39,148.805C7.489,149.103 7.893,149.504 8.392,150.006L9.593,151.208L9.193,151.208C8.792,151.306 8.392,151.506 7.991,151.506C7.591,151.605 7.39,151.605 7.19,151.605C4.885,152.606 3.684,153.807 3.487,155.111L3.487,155.511C4.088,156.913 4.587,157.714 4.991,157.914C5.089,158.213 5.69,158.613 6.495,159.014L7.594,159.414C6.393,162.32 5.894,164.421 5.894,165.724C5.894,166.325 6.094,167.224 6.593,168.528C7.194,169.227 8.494,169.929 10.496,170.53C11.097,170.53 12.098,170.232 13.602,169.631C15.106,169.03 16.005,168.732 16.304,168.732L16.304,170.031L16.103,170.432L16.103,171.131C16.103,173.935 17.305,176.239 19.806,178.34C20.505,179.239 21.106,179.742 21.506,179.844C22.81,180.845 24.612,181.344 26.815,181.344C29.018,181.344 30.518,180.445 31.322,178.741C32.021,177.841 32.422,176.44 32.422,174.437L32.021,173.538L32.021,172.435C32.12,171.936 32.222,171.634 32.422,171.535L32.418,171.524Z" style="fill:rgb(187,34,119);fill-rule:nonzero;"/>
    <path d="M114.121,163.514C112.758,163.371 111.388,163.305 110.018,163.314C107.014,163.314 104.611,163.714 102.809,164.417C94.096,168.524 88.693,177.732 86.49,191.851C92.399,182.742 99.506,175.23 107.615,169.325C110.921,167.02 113.921,165.52 116.528,164.617L116.728,164.617L116.327,164.417C115.879,164.295 115.443,164.127 115.028,163.918C114.525,163.62 114.227,163.518 114.125,163.518L114.121,163.514ZM76.273,48.369C74.872,48.369 72.771,48.77 69.967,49.669L67.466,50.171L65.161,50.47L63.861,51.173L64.262,51.173C68.169,52.072 71.369,53.674 73.874,55.979C78.079,59.183 80.282,62.587 80.584,66.191C80.883,66.792 80.985,67.593 80.985,68.594C80.985,70.895 79.583,74.402 76.878,79.008C74.977,82.011 73.874,85.015 73.375,87.917C72.374,91.121 71.872,95.228 71.872,100.332C71.872,103.639 72.272,107.141 72.971,110.746C74.875,102.634 77.074,95.526 79.681,89.417L82.685,83.111C82.984,82.809 83.486,82.31 84.287,81.709C85.088,81.006 85.591,80.508 85.689,80.107C90.295,75.902 92.698,71.398 92.698,66.588C92.698,60.683 90.695,55.877 86.592,52.268C83.286,49.665 80.082,48.365 76.98,48.365L76.273,48.369ZM100.005,86.519C97.028,91.439 93.464,95.978 89.392,100.038C85.889,104.145 82.882,109.151 80.282,115.057C76.678,123.067 72.771,133.079 69.767,148.899C69.366,149.802 68.165,162.819 68.165,163.518C68.565,163.518 70.065,158.009 71.77,153.006C76.175,139.189 80.082,132.082 87.091,117.259C90.094,111.652 91.795,108.751 92.097,108.55C92.8,107.549 94.001,106.348 95.599,104.848C97.202,103.446 98.305,102.343 98.906,101.844C107.615,93.335 112.825,85.125 114.525,77.311C115.428,74.81 115.829,71.103 115.829,65.995C115.126,58.786 112.625,52.079 108.419,45.97C104.516,40.861 99.71,36.856 94.099,33.754C87.291,30.252 80.683,27.747 74.275,26.145L81.185,31.552C82.787,32.553 85.092,34.355 88.092,36.958L94.001,43.068C99.106,47.273 102.412,51.977 104.014,57.188C104.312,58.087 104.717,61.491 105.113,67.601L105.113,69.105C105.015,74.912 103.409,80.719 100.009,86.526L100.005,86.519ZM86.788,147.698C89.792,143.092 92.698,139.888 95.297,138.086C96,137.685 97.099,136.884 98.403,135.883C99.805,134.882 100.806,134.183 101.505,133.88L107.611,129.275C121.13,119.462 130.64,110.851 136.345,103.642C138.948,100.136 140.35,98.035 140.452,97.332C142.655,92.829 143.958,87.822 144.359,82.314L144.359,80.311C144.359,72.403 141.555,64.393 135.85,56.179C137.853,61.385 138.956,66.792 138.956,72.399C138.956,74.27 138.889,76.14 138.756,78.006C137.754,85.714 135.453,92.024 132.045,96.928C129.242,101.035 125.037,105.441 119.429,110.145C116.528,112.948 106.712,120.259 90.094,132.373C88.092,133.975 85.991,136.178 83.788,138.879C76.98,147.191 73.077,156.101 72.072,165.611C71.671,168.815 71.369,171.018 71.369,172.321C71.369,177.127 72.272,182.632 74.173,188.844C74.271,173.024 78.476,159.207 86.788,147.69L86.788,147.698Z" style="fill:rgb(0,136,68);fill-rule:nonzero;"/>
    <path d="M52.443,113.451L51.042,115.155L50.841,116.054C50.841,116.356 50.94,116.455 51.042,116.455C51.442,116.455 51.945,116.254 52.345,115.756C52.443,115.756 53.044,115.555 53.849,115.053C55.531,113.956 56.52,112.054 56.452,110.047C56.452,109.242 56.384,108.437 56.252,107.644C55.251,105.641 54.249,104.338 53.248,103.737C53.15,103.737 52.848,103.639 52.447,103.537C52.047,103.435 51.846,103.238 51.646,103.136C51.246,102.736 50.845,101.935 50.445,100.835C50.044,99.736 49.746,99.033 49.443,98.53C49.141,99.834 49.043,100.733 49.043,101.334C49.043,102.637 49.742,104.039 51.246,105.441C52.647,106.843 53.448,108.445 53.448,110.247C53.448,111.15 53.35,111.649 53.248,111.951C53.15,112.45 52.946,112.85 52.447,113.451L52.443,113.451Z" style="fill:rgb(187,34,119);fill-rule:nonzero;"/>
    <path d="M42.431,183.539C43.734,184.642 45.435,185.542 47.437,186.343C50.743,187.945 54.446,189.146 58.553,190.049C62.656,190.85 66.363,191.152 69.665,191.05L63.057,188.447L55.047,185.145L48.438,181.941L41.429,178.034C39.401,176.765 37.461,175.36 35.622,173.829L35.12,173.326C34.319,172.525 33.816,172.125 33.718,172.125C33.117,173.228 33.416,174.63 34.621,176.428L34.923,176.829C36.623,179.33 39.128,181.537 42.435,183.539L42.431,183.539ZM60.552,140.984L60.151,136.076L59.751,136.178C57.948,138.879 56.747,141.082 56.346,142.786C55.644,145.79 55.844,150.694 57.147,157.306C58.651,165.214 61.753,172.725 66.559,180.037C66.96,180.535 67.262,180.838 67.462,181.038C67.56,181.136 67.56,181.238 67.56,181.336C66.057,177.033 64.655,171.524 63.453,164.814L60.85,146.693L60.552,140.984ZM43.73,147.089L43.53,147.191C42.329,151.196 42.929,156.203 45.132,162.108L45.733,163.51C48.336,169.918 51.642,175.125 55.447,178.827C56.35,179.931 59.853,182.432 65.962,186.339L53.845,168.717C52.844,166.914 49.44,159.705 43.734,147.089L43.73,147.089Z" style="fill:rgb(0,136,68);fill-rule:nonzero;"/>
    <path d="M74.471,121.461C74.77,120.758 74.872,120.059 74.872,119.458C74.872,116.455 73.969,114.35 72.068,113.349C71.649,113.21 71.21,113.142 70.768,113.149C70.67,113.149 70.368,113.149 69.967,113.247C69.567,113.345 69.366,113.349 69.166,113.349L68.467,113.349C67.466,113.349 66.563,113.149 65.864,112.646L62.86,112.646C57.253,113.047 51.948,115.952 46.942,121.355C51.249,118.752 56.256,117.452 61.961,117.452C62.059,117.452 62.562,117.554 63.363,117.652L65.165,117.853C67.368,117.853 68.671,118.155 69.268,118.756C69.268,119.757 69.17,120.456 69.068,120.758C68.467,122.062 67.969,122.863 67.564,123.161C65.361,125.764 63.457,127.469 61.957,128.368C59.955,129.369 57.049,129.872 53.445,129.872C51.242,129.872 48.839,129.671 46.035,129.169L46.935,129.872C47.535,129.97 47.838,130.272 47.838,130.571L46.935,130.571C46.836,130.673 47.033,131.372 47.634,132.573L48.733,134.576C49.035,134.674 49.134,135.074 49.134,135.675L49.334,136.578L49.134,137.277C48.831,137.379 48.733,137.678 48.733,137.98C48.733,138.282 48.431,138.38 47.83,138.38L45.227,138.38C43.728,138.351 42.32,139.112 41.524,140.383C41.426,140.481 41.123,140.783 40.825,141.282C40.523,141.883 40.224,142.185 39.922,142.185L39.019,142.185C38.618,142.083 38.32,141.985 38.116,141.985L35.713,142.083C34.712,142.185 33.71,142.185 32.909,142.185L31.81,141.985C34.111,140.383 35.513,139.079 35.913,138.078L36.612,137.379C37.613,138.078 38.414,138.479 39.015,138.479C40.016,138.479 40.919,137.277 41.618,134.976C41.921,134.576 42.317,133.775 42.718,132.773L42.918,132.373L43.821,131.073L42.317,130.37C40.617,130.37 39.011,131.273 37.511,133.174L36.608,134.874C36.51,134.874 36.208,134.474 35.705,133.574C35.105,133.574 34.802,133.276 34.802,132.675C35.564,132.656 36.286,132.33 36.805,131.772L37.205,131.772C37.606,131.674 37.904,131.572 38.108,131.572L39.011,131.171C39.011,131.073 38.913,130.971 38.811,130.971L32.501,129.271L26.395,126.467C24.393,125.164 23.392,122.564 23.392,118.657C23.392,117.358 23.49,116.254 23.792,115.355C23.792,113.651 23.89,112.752 24.193,112.752C25.096,113.152 25.594,113.451 25.696,113.651L28.099,114.554L28.099,115.854C28.099,116.557 28.198,117.055 28.5,117.157L29.599,119.761C31.602,122.662 36.008,125.666 42.816,128.67C42.816,128.568 42.816,128.47 42.718,128.47C42.62,128.47 42.62,128.368 42.62,128.069C37.712,124.465 34.61,120.958 33.306,117.656C32.841,116.617 32.603,115.491 32.607,114.354C32.607,109.85 34.908,106.242 39.514,103.442C40.115,103.042 41.316,102.441 43.118,101.64C44.921,100.839 46.22,100.136 46.923,99.535C48.325,98.836 49.126,98.035 49.126,97.132C48.525,97.03 48.223,96.732 48.223,96.429C47.021,96.029 46.02,95.73 44.921,95.73L43.617,95.73C42.215,96.029 40.111,96.932 37.307,98.334C33.102,100.835 30.298,103.741 28.798,107.243C28.798,108.244 28.7,108.845 28.398,108.943C28.096,109.246 27.397,109.344 26.195,109.344L24.495,110.243C24.193,110.243 23.894,110.443 23.494,110.746C23.183,111.076 22.745,111.257 22.292,111.244C21.291,111.244 20.191,111.947 18.99,113.247C18.087,114.55 17.686,116.152 17.686,118.053C17.686,119.254 17.887,120.558 18.385,122.16C18.384,123.427 18.621,124.683 19.084,125.863L20.588,127.162C21.589,128.466 23.392,129.668 25.995,130.669C26.694,130.669 27.397,130.767 27.997,130.869C26.796,131.47 26.297,132.471 26.297,133.873C26.297,135.074 26.8,135.875 27.801,136.476C28.802,136.476 29.305,136.578 29.305,136.877L28.904,137.077C26.399,138.679 25.202,140.383 25.202,142.083L25.202,142.484C25.202,142.586 25.3,142.986 25.402,143.583L25.602,144.887C27.004,146.288 28.304,147.089 29.305,147.089C29.906,147.089 30.809,146.991 32.108,146.889L35.112,146.689L35.513,146.689C35.611,146.987 35.913,147.089 36.212,147.089L38.414,147.188C39.079,147.263 39.748,147.293 40.417,147.29C41.819,147.29 43.118,146.587 44.32,145.087L45.019,144.184C45.321,143.583 45.718,143.285 46.118,143.285L47.422,143.285C49.024,143.285 50.025,143.186 50.327,142.986C50.728,142.786 50.928,142.385 51.128,141.883C51.227,141.384 51.431,141.082 51.529,140.882C51.929,140.481 52.228,140.183 52.432,140.183C53.033,139.582 53.335,138.981 53.335,138.479C53.335,138.18 53.237,137.678 53.135,136.979L53.135,136.778L53.335,136.079C53.736,135.679 54.034,135.176 54.034,134.776L53.335,133.076C53.936,133.076 54.839,133.174 56.037,133.476C57.234,133.778 58.44,133.877 59.641,133.877C62.543,133.476 65.448,131.874 68.35,129.271C71.754,126.766 73.757,124.162 74.456,121.461L74.471,121.461Z" style="fill:rgb(187,34,119);fill-rule:nonzero;"/>
</svg>