<?xml version="1.0" encoding="UTF-8" standalone="no"?>
<svg width="100%" height="100%" viewBox="0 0 150 200" version="1.1" xmlns="http://www.w3.org/2000/svg" xmlns:xlink="http://www.w3.org/1999/xlink" xml:space="preserve" xmlns:serif="http://www.serif.com/" style="fill-rule:evenodd;clip-rule:evenodd;stroke-linejoin:round;stroke-miterlimit:2;">
    <path d="M5.743,62.387C5.841,61.888 6.144,61.888 6.246,61.786C6.548,61.586 9.249,61.185 10.05,60.887C10.251,60.887 12.752,59.783 13.557,59.485C21.869,55.582 23.067,55.181 25.972,54.479L26.071,50.674C26.071,46.669 25.67,45.169 24.469,44.466C23.369,44.969 22.564,45.369 22.065,45.77C20.664,46.669 20.365,46.669 19.761,46.669C18.661,46.669 17.958,44.969 17.958,42.365C17.958,41.466 18.359,40.963 19.961,39.864C22.965,37.759 25.27,34.057 25.27,31.151C25.27,30.35 24.869,29.651 24.17,29.149L22.969,28.147C22.87,28.045 22.768,27.747 22.768,27.346L22.969,27.146L23.271,27.044C22.87,26.844 21.967,25.843 21.869,25.442C20.565,25.744 18.963,26.345 18.563,26.644C13.757,28.446 12.555,29.749 11.856,29.749C11.055,29.749 10.156,29.047 9.351,27.845C8.252,26.243 7.549,25.144 7.549,24.739C7.549,24.539 7.451,24.637 7.549,24.237L7.749,23.938L10.353,24.437C11.754,24.437 17.263,23.035 20.864,21.634C20.664,18.029 20.263,16.827 18.359,14.727C17.456,13.827 17.456,13.827 17.358,12.724L17.558,12.324C18.06,12.123 18.461,12.123 18.559,12.123C19.863,12.123 23.263,13.125 24.469,13.926C25.674,14.727 26.169,15.83 26.169,18.033L26.071,20.236C28.171,19.737 29.773,18.936 31.878,18.834C34.064,18.793 36.243,18.558 38.388,18.131C39.087,15.229 39.291,14.228 39.291,13.023C39.265,12.467 39.129,11.923 38.89,11.421L37.481,9.32L37.681,8.919C38.082,8.519 38.282,8.421 38.883,8.421C40.285,8.421 42.586,9.021 44.188,10.023C45.691,10.922 46.288,11.825 46.288,13.026C46.288,13.725 46.19,14.028 45.786,14.927L44.482,17.632L46.885,17.432C47.486,17.33 49.889,17.33 50.188,17.33C52.591,17.33 55.394,19.03 55.394,20.534C55.394,22.234 49.689,23.236 43.281,23.236L41.479,23.236C39.276,26.64 38.173,28.042 37.073,29.145C35.974,30.044 35.169,30.445 34.568,30.445C34.368,30.445 34.168,30.445 33.767,30.244L33.567,30.044C35.169,27.543 35.872,25.741 36.873,22.737C34.568,22.136 34.27,22.034 32.067,21.135C31.564,20.935 31.164,20.832 30.865,20.832C30.264,20.832 27.763,22.034 26.259,23.538C25.659,26.039 26.259,26.039 25.659,26.942C26.161,27.142 26.86,27.343 27.06,27.343L29.365,27.841C30.967,28.242 32.467,29.742 32.467,30.947C32.467,31.65 31.564,33.452 30.064,35.455C29.966,35.655 29.864,35.753 29.864,35.855C29.864,35.957 29.962,35.953 30.064,35.953C30.166,35.953 30.465,35.855 30.963,35.753C35.369,34.453 42.178,33.452 44.482,33.452C48.589,33.452 54.295,38.458 54.295,41.764C54.295,42.063 54.196,42.664 54.094,43.264L52.995,46.971C52.795,47.87 52.594,50.576 52.492,55.083C52.292,66.297 51.091,72.505 48.185,76.911C47.282,78.112 46.681,78.815 46.281,78.815C45.88,78.815 45.48,78.513 44.679,77.311C44.479,77.111 43.878,76.412 43.077,75.309C40.976,72.607 37.972,71.005 36.669,68.198L36.869,67.997C37.372,68.198 37.772,68.198 37.772,68.296L42.079,69.097C42.68,69.297 43.281,69.399 43.681,69.399C44.584,69.399 45.283,68.798 45.684,67.499C46.285,65.296 47.384,53.583 47.384,48.173C47.384,39.361 46.783,38.058 42.378,38.058C37.972,38.058 30.861,39.558 28.458,41.462C30.461,42.565 31.062,43.366 31.062,44.768C31.023,45.671 30.957,46.572 30.861,47.47C30.661,48.271 30.661,49.272 30.661,49.775C30.661,50.375 30.861,50.776 31.062,50.776C31.662,50.776 34.866,45.97 34.866,44.969C34.866,44.466 34.364,43.865 33.465,43.064L33.465,42.766C33.967,41.965 34.564,41.564 35.467,41.564C37.568,41.564 40.273,44.266 40.273,46.268C40.273,46.669 39.873,47.372 39.37,47.87C38.97,48.271 38.467,48.773 37.67,49.374C36.971,49.873 35.97,50.776 34.666,51.977C35.569,51.777 38.173,51.777 38.671,51.777C41.373,51.777 44.879,53.878 44.879,55.48C44.879,56.281 44.18,56.78 43.277,56.78C43.077,56.78 42.676,56.681 42.076,56.579C40.38,56.362 38.676,56.228 36.967,56.179C35.463,56.179 34.062,56.477 30.96,57.278L30.96,58.979C31.961,58.88 35.864,59.882 36.665,59.882C37.568,59.882 38.569,60.282 39.571,60.581C41.875,61.283 42.374,62.885 42.374,65.387C42.374,66.49 41.872,67.291 41.173,67.291C40.27,67.291 35.365,64.287 30.858,61.181C30.759,62.183 30.759,65.288 30.759,65.587C30.661,66.788 30.559,71.594 30.559,71.893C30.461,75.497 30.057,77.602 29.256,77.602C28.753,77.602 27.752,76.401 25.851,73.196C24.049,70.291 23.751,69.592 23.649,68.292L23.849,68.19C24.249,68.39 24.548,68.39 24.85,68.39C25.753,68.39 26.252,62.783 26.252,60.18L26.154,58.979C22.749,60.082 22.247,60.282 18.843,62.285L19.844,63.384C20.044,63.785 20.346,63.887 20.445,63.887C20.645,63.887 20.947,63.785 21.446,63.584L23.649,62.383L23.951,62.485C23.951,62.783 23.853,63.086 23.751,63.184C23.751,63.184 23.652,63.384 23.448,63.686C23.35,63.887 23.146,64.287 22.946,64.888C22.848,64.986 22.644,65.489 22.247,66.29C21.744,67.389 20.146,68.991 19.844,70.295C19.145,72.497 17.04,73.801 16.239,73.801C15.14,73.801 13.734,71.096 13.734,69.093C13.734,68.893 15.136,66.992 15.537,66.49C16.84,64.786 16.938,62.984 16.738,62.984C16.538,62.984 13.534,64.586 12.631,64.986C11.327,65.689 10.428,65.889 9.929,65.889C8.83,65.889 7.526,64.786 5.924,62.485L5.924,62.383L5.743,62.387ZM16.156,45.565C17.46,45.766 18.457,47.168 18.457,48.97C18.359,49.771 18.457,49.869 18.759,49.869C19.262,49.869 21.064,49.268 24.068,47.969L24.166,48.169C23.664,49.068 23.165,49.669 22.965,49.869L20.962,51.974C20.762,52.174 20.263,52.873 19.761,53.576C18.159,55.877 17.46,56.681 16.757,56.681C15.555,56.681 13.753,54.278 13.753,52.877C13.753,52.476 13.753,52.476 14.754,50.073C15.355,48.671 15.657,47.67 15.854,45.77L16.156,45.565Z" style="fill:rgb(51,51,153);fill-rule:nonzero;"/>
    <path d="M56.807,164.515C56.807,165.414 57.31,166.215 58.209,167.016C59.108,167.817 60.11,168.218 61.111,168.218L62.014,168.218C63.918,167.319 65.218,165.615 65.921,163.011C66.521,161.81 66.82,160.809 66.82,159.705C66.82,158.704 66.722,158.005 66.419,157.703C66.121,156.702 65.218,155.5 63.816,154C62.112,151.997 59.713,150.694 56.607,150.093C56.183,149.978 55.747,149.911 55.307,149.893L54.907,149.893L55.107,149.693C56.509,148.389 58.912,146.791 62.018,144.887C62.116,144.584 62.418,144.384 62.72,144.184C63.019,144.086 63.321,143.885 63.623,143.685C63.926,143.485 64.024,143.186 64.024,142.884L63.824,142.684C62.996,142.661 62.196,142.987 61.621,143.583L47.301,153.395C47.203,153.395 46.901,153.596 46.602,153.894C46.3,154.295 45.903,154.495 45.503,154.695L44.804,155.398C44.206,154.824 43.878,154.023 43.901,153.195C42.657,151.863 41.202,150.746 39.593,149.889C38.191,149.489 37.19,148.99 36.79,148.586C36.691,148.487 36.487,147.985 36.287,147.184L35.985,145.782C34.681,143.179 31.98,141.879 27.975,141.879C26.275,141.879 25.069,142.079 24.469,142.582C23.467,143.183 22.466,143.984 21.465,145.185L19.262,148.491C19.262,148.589 19.36,148.892 19.662,149.292C19.965,149.693 20.063,149.995 20.063,150.293C20.063,150.592 20.063,150.894 19.965,151.193C19.866,151.491 19.866,151.691 19.866,151.892L19.866,152.292L21.37,154.295L20.067,154.695L18.763,154.895C18.363,154.895 17.864,155.296 17.263,156.097C16.662,156.898 16.164,157.298 15.759,157.298C14.966,157.431 14.161,157.499 13.356,157.499C11.452,158.099 9.249,159.702 6.846,162.305C6.544,162.603 6.344,163.004 6.344,163.605C6.246,164.205 6.246,164.508 6.246,164.708C5.645,165.309 5.146,166.31 4.746,167.712C5.947,170.315 7.749,171.615 10.353,171.615L11.856,171.615C12.257,171.316 12.555,171.214 12.759,171.214C12.858,171.214 13.262,171.513 13.961,172.215C14.66,172.918 14.962,173.217 15.162,173.217C16.065,173.217 17.263,172.416 18.865,170.814C18.166,171.414 17.664,172.317 17.365,173.617L16.965,174.018L17.365,174.218C16.965,174.618 16.164,174.917 15.162,174.917C13.961,175.918 13.16,177.12 12.559,178.423C11.958,179.126 11.656,179.825 11.656,180.426C11.656,180.724 11.754,181.325 12.057,182.13C12.657,182.13 12.96,182.428 12.96,183.033L12.057,184.332C11.958,184.631 11.856,185.232 11.856,186.037C11.856,188.338 13.36,190.144 16.462,191.443C17.161,191.742 18.064,191.844 19.065,191.844C21.068,191.545 22.069,190.242 22.069,187.941L22.069,186.838C21.767,186.739 21.669,186.539 21.669,186.339C21.669,186.139 22.069,185.84 22.972,185.538C22.972,185.44 23.275,185.137 23.974,184.737C24.673,184.336 25.175,183.936 25.576,183.535C25.878,182.935 26.176,181.831 26.479,180.233C28.681,175.427 30.181,172.521 31.084,171.52L34.088,168.516C34.088,168.414 34.186,168.116 34.489,167.613L35.188,166.714C36.091,165.713 36.589,165.21 36.691,165.21C37.092,165.611 37.39,167.115 37.39,169.718C37.39,172.219 36.691,174.724 35.388,177.225C35.29,177.324 34.885,178.026 34.288,179.028C33.688,180.127 33.385,181.03 33.385,181.729C33.385,182.428 33.888,183.331 34.889,184.435C35.89,185.538 36.892,186.037 37.693,186.037C38.494,186.037 39.793,185.636 41.395,184.933C41.494,184.635 42.397,183.531 43.999,181.631C44.902,180.029 45.302,179.028 45.302,178.627C45.302,178.026 45.102,177.524 44.603,177.123C44.603,177.025 44.403,176.723 44.101,176.322C43.7,175.922 43.602,175.722 43.602,175.521C43.602,175.423 43.802,175.121 44.101,174.819C44.501,174.52 44.702,174.12 44.902,173.719L45.302,173.016L45.302,172.616C45.302,172.317 44.902,170.613 43.999,167.409C43.696,166.51 43.099,165.607 41.996,164.606L39.593,162.203C39.593,161.602 40.292,161.001 41.596,160.499C42.899,159.297 43.598,158.798 43.798,158.798C43.897,158.798 44.497,159.097 45.401,159.698C46.304,160.298 46.802,160.597 46.802,160.801C48.106,161.802 48.805,163.404 48.805,165.607L48.404,167.009L48.404,169.514C48.404,170.715 48.306,171.717 48.004,172.416C48.004,172.714 47.906,173.118 47.603,173.617C47.301,174.116 47.203,174.618 47.203,175.019L47.203,175.219C47.203,176.621 48.106,177.724 49.806,178.223C50.105,178.223 50.407,178.125 50.807,177.822C51.208,177.52 51.506,177.422 51.71,177.422C51.914,177.422 52.111,177.422 52.111,177.52C52.209,177.618 52.409,177.618 52.613,177.618L53.713,176.519L54.412,175.616C56.014,173.613 56.815,171.811 56.815,170.209C56.815,167.606 55.115,164.602 51.809,161.3C50.407,159.898 48.907,158.798 47.505,157.994L46.406,157.094L48.106,155.092L52.213,152.288C53.214,151.287 53.913,150.785 54.215,150.785C54.816,150.785 55.617,151.888 56.618,154.091C56.717,154.491 56.819,155.39 56.819,156.694L56.819,157.393L56.618,158.096L56.819,158.296C56.819,158.696 57.219,159.195 57.918,159.698C58.617,160.2 59.018,160.801 59.018,161.5C59.018,161.798 58.719,162.301 58.016,162.902C57.113,163.302 56.815,163.903 56.815,164.504L56.807,164.515ZM32.377,165.014C30.472,166.718 28.772,167.617 27.17,167.617C27.072,167.617 26.868,167.617 26.668,167.519C26.467,167.421 26.165,167.421 25.866,167.421L24.767,167.421C22.965,167.421 21.261,168.222 19.458,169.722C19.458,169.623 19.557,169.521 19.557,169.423C19.655,169.325 19.859,168.924 19.859,168.32C19.957,167.719 20.059,167.217 20.259,166.816C20.46,166.416 21.06,166.015 22.062,165.717C23.063,165.418 23.762,165.214 24.162,164.916C24.563,164.715 24.861,164.417 25.262,164.016C25.662,163.616 25.863,163.518 26.063,163.518C26.664,163.215 28.065,163.117 30.17,163.117L34.081,163.117C34.179,163.718 33.578,164.417 32.38,165.018L32.377,165.014ZM41.989,156.403C41.686,156.501 41.588,156.603 41.588,156.804C41.588,157.004 41.686,157.102 41.89,157.102C42.094,157.102 42.193,157.2 42.193,157.302C42.094,157.703 41.494,158.202 40.492,158.802C39.491,159.403 38.989,159.906 38.989,160.306C38.89,160.306 38.588,160.008 38.188,159.505C37.787,159.003 37.587,158.704 37.387,158.704C36.185,158.704 35.384,158.802 34.783,159.105C34.383,159.105 33.684,159.105 32.981,159.203C32.18,159.305 31.678,159.305 31.579,159.305L30.88,159.305C30.578,159.305 30.382,159.003 30.181,158.402L29.981,157.703C29.38,156.702 28.78,156.003 27.979,155.5C27.88,155.402 27.476,155.202 26.777,155.001C26.078,154.801 25.678,154.703 25.375,154.703L24.873,154.204C24.673,154.004 24.472,153.902 24.37,153.902L22.866,153.902C23.467,153.501 23.77,153.203 23.77,153.003C25.47,152.304 28.077,151.899 31.579,151.899L32.879,151.899C37.084,151.899 39.99,153.003 41.592,155.205C41.992,155.504 42.291,155.606 42.495,155.606C42.397,156.105 42.295,156.305 41.992,156.407L41.989,156.403Z" style="fill:rgb(0,136,68);fill-rule:nonzero;"/>
    <path d="M67.821,122.462C67.821,119.761 67.22,117.856 66.117,116.855L61.111,115.355C59.207,115.654 57.809,117.157 57.008,119.961C57.008,120.059 56.807,120.762 56.305,121.763C55.904,122.866 55.606,123.565 55.606,124.068L55.606,124.767C55.606,125.969 56.509,127.272 58.209,128.674C60.51,130.374 62.513,131.375 64.315,131.477L68.222,131.477C68.622,131.878 68.924,132.176 69.125,132.176L70.829,131.277C71.229,130.676 71.63,130.374 71.83,130.374C72.03,130.374 72.23,130.476 72.329,130.574C72.729,130.975 73.031,131.277 73.232,131.277C74.834,132.278 76.636,132.777 78.639,132.777C79.64,132.777 81.042,132.078 82.742,130.574L84.446,128.874C87.049,126.872 88.651,125.768 89.252,125.568C89.909,125.425 90.581,125.357 91.254,125.368C92.554,124.669 93.257,124.166 93.257,123.868L92.157,122.564C91.757,122.564 91.058,122.764 90.155,123.267L85.149,124.268C85.05,124.567 84.646,124.869 83.947,125.27C83.248,125.67 82.848,125.768 82.545,125.768C82.145,126.071 81.344,126.169 80.343,126.169C78.941,126.169 78.14,125.67 78.14,124.669C78.14,124.268 78.34,123.668 78.839,122.965C79.239,122.266 79.542,121.563 79.542,120.962C79.602,120.021 78.962,119.167 78.042,118.96L76.338,117.656C76.039,117.656 75.336,118.257 74.135,119.36L72.431,121.363C71.229,122.965 70.73,124.669 70.73,126.569C70.73,127.873 70.829,128.674 71.131,128.972L70.031,127.873C69.933,127.873 69.631,127.771 69.128,127.673C68.728,127.571 68.426,127.37 68.225,127.272C67.625,126.872 67.322,126.369 67.322,125.768C67.328,125.081 67.464,124.402 67.723,123.766L67.723,122.466L67.821,122.462Z" style="fill:rgb(221,119,17);fill-rule:nonzero;"/>
    <path d="M115.583,103.438C114.982,102.936 114.582,102.637 114.382,102.637C114.181,102.637 113.879,102.838 113.479,103.336C113.078,103.737 112.878,104.039 112.678,104.039L112.277,103.639C112.179,103.639 111.877,103.839 111.374,104.338C110.974,104.738 110.671,105.04 110.671,105.241C110.573,105.539 110.373,105.94 110.271,106.54L109.87,107.44C109.772,107.84 109.47,108.241 108.967,108.641C108.567,109.042 108.064,109.344 107.668,109.642C107.271,109.941 106.866,110.145 106.568,110.345L113.777,109.042C114.178,108.743 114.676,108.142 115.281,107.039C116.282,106.14 116.781,105.637 116.781,105.339C116.482,105.237 116.38,105.037 116.38,104.84C116.482,104.338 116.18,103.937 115.579,103.438L115.583,103.438ZM134.509,122.56C136.209,122.56 137.713,122.262 138.812,121.661C140.414,120.059 141.314,118.96 141.616,118.359C141.616,118.257 141.113,117.656 140.112,116.655C138.71,114.452 137.411,113.353 136.409,113.353C135.71,113.353 134.906,113.651 134.108,114.354C133.311,115.057 132.707,115.453 132.306,115.756C132.208,115.854 131.906,115.956 131.407,115.956C130.908,115.956 130.504,115.756 129.903,115.453C129.302,115.053 129,114.955 128.8,114.955C128.199,114.955 127.398,115.253 126.397,115.956C125.395,116.659 124.893,117.157 124.893,117.558C124.893,117.656 125.395,118.257 126.397,119.258C127.398,120.259 127.999,120.758 128.101,120.758L128.301,120.558L129,120.558L130.504,122.058C131.407,122.356 132.805,122.557 134.509,122.557L134.509,122.56ZM86.645,29.247L86.645,29.047C86.445,27.845 86.943,26.345 87.948,24.441C88.549,23.84 88.851,23.44 88.851,23.141C89.052,23.141 89.15,22.639 89.252,21.739C89.452,21.437 89.652,21.037 89.955,20.538C90.253,20.137 90.457,19.737 90.457,19.435C90.858,18.135 91.16,17.432 91.36,17.232C92.562,15.528 93.963,14.428 95.664,14.028L97.764,14.028C97.965,14.126 98.267,14.126 98.664,14.028C99.567,13.827 100.368,14.228 101.169,15.127C102.17,15.928 102.673,16.529 102.771,16.831C102.869,17.432 102.472,18.834 101.569,20.938C101.369,21.539 101.271,22.238 101.369,22.741C100.466,24.743 99.567,25.945 98.766,26.443C98.565,26.443 98.365,26.443 98.165,26.243C97.965,26.043 97.764,26.043 97.564,26.043C97.266,26.145 96.661,26.644 95.762,27.747L94.36,30.55C94.262,30.751 93.96,30.849 93.457,30.951L92.358,31.151C89.055,32.251 87.952,34.756 87.151,36.656C86.853,36.856 86.649,37.355 86.35,38.156C86.15,38.957 85.95,39.46 85.848,39.66C83.445,46.366 82.043,52.778 81.642,58.884L81.843,67.196L82.043,68.5C82.243,69.8 82.746,71.802 83.547,74.508C87.453,88.026 92.456,97.839 98.565,104.145C99.465,105.146 98.966,104.746 98.966,104.848L98.868,105.346L98.467,105.849C98.369,106.348 98.169,106.548 98.067,106.65C97.969,106.65 97.564,106.348 97.065,105.649C96.567,104.95 96.264,104.545 96.064,104.647C91.761,99.94 88.455,94.835 86.15,89.326C85.95,88.023 85.549,86.923 84.85,86.22L84.752,86.22C84.151,86.322 83.849,86.523 83.652,86.923C81.552,87.324 79.647,87.324 77.943,86.723C77.845,86.723 77.543,86.621 77.142,86.322C76.742,86.024 76.341,85.922 76.043,86.02C75.945,86.02 75.642,86.22 75.242,86.421C74.841,86.621 74.539,86.821 74.339,86.821C73.436,86.421 72.537,86.122 71.637,85.82C70.636,85.121 67.931,83.217 67.53,80.115L67.33,78.815L67.428,78.312L67.33,77.413C66.03,76.31 65.229,75.01 65.029,73.408L64.829,71.005C65.127,68.504 65.83,66.599 67.13,65.099C68.732,63.497 69.533,64.597 69.933,64.499C70.636,64.397 71.936,65.398 73.938,67.503C76.341,70.506 77.645,73.208 78.045,75.713C78.045,75.815 78.144,76.314 78.144,77.115L78.344,79.019C78.442,79.718 78.544,80.319 78.744,80.719C79.145,82.321 80.244,83.421 81.846,84.123L84.552,85.125L83.55,82.419C81.948,77.515 80.747,72.709 80.146,68.202L79.848,65.798L79.848,64.899L79.647,63.097C76.844,62.496 74.641,61.393 73.137,59.693C70.734,57.792 69.034,55.189 68.131,51.985L67.931,50.783C67.832,50.281 67.73,49.982 67.632,49.88C67.432,49.782 67.13,49.382 66.631,48.879C66.132,48.278 65.83,47.98 65.63,47.878L64.727,45.777C64.628,45.078 64.727,43.775 65.127,42.074C65.127,41.972 65.225,41.474 65.528,40.771C65.83,40.068 66.128,39.471 66.329,39.169C66.329,38.67 66.529,37.767 66.827,36.467C67.126,35.168 67.428,34.264 67.829,33.864C67.927,33.562 68.127,33.263 68.63,32.863L69.831,32.062C70.931,31.861 72.136,32.462 73.534,33.962C74.936,36.267 75.737,38.27 75.937,39.97L76.137,42.173C76.137,42.275 76.039,42.773 75.839,43.476C75.639,44.179 75.54,44.678 75.54,44.776L75.639,45.475L75.937,45.875L75.737,46.378L75.737,46.578C75.835,47.179 75.835,47.579 75.737,47.878L75.336,48.38C75.238,48.981 75.238,49.582 75.238,49.982C75.238,50.281 75.336,50.481 75.438,50.583C75.54,50.685 75.537,50.984 75.639,51.184C75.639,51.785 75.438,52.484 75.136,53.186C74.834,53.889 74.634,54.486 74.736,54.989L75.034,57.191C75.737,59.194 77.237,60.996 79.64,62.798L79.84,61.899C79.742,61.196 79.742,60.796 79.84,60.796C79.742,54.188 81.042,47.179 83.645,39.671L84.246,38.67C84.246,38.368 83.947,38.27 83.343,38.368C83.044,38.27 82.84,38.27 82.742,38.27C81.642,37.869 80.539,36.966 79.538,35.564C78.522,34.231 77.806,32.695 77.437,31.06C77.139,28.559 77.139,26.356 77.437,24.252C78.038,22.049 78.639,20.647 79.239,20.047C79.927,19.453 80.754,19.038 81.642,18.845L82.345,18.645C82.946,18.943 83.346,19.144 83.445,19.045L83.543,19.045C83.841,18.947 84.144,18.845 84.344,18.547C84.642,18.248 84.846,18.146 85.047,18.048L85.345,17.946C86.044,17.844 86.645,18.547 87.246,20.047C87.344,20.447 86.947,21.649 86.044,23.451C85.844,23.651 85.345,24.354 84.344,25.555C83.343,26.757 82.742,27.758 82.44,28.661C82.137,29.564 82.039,30.864 82.039,32.466C82.137,33.467 82.64,34.869 83.543,36.671C83.641,37.571 83.943,37.971 84.446,37.873C84.846,36.569 85.647,34.767 86.649,32.466L87.351,30.766C87.316,30.556 87.248,30.354 87.151,30.165C86.751,29.863 86.649,29.564 86.649,29.262L86.645,29.247Z" style="fill:rgb(0,136,68);fill-rule:nonzero;"/>
    <path d="M100.462,136.48C100.56,135.581 100.56,134.878 100.56,134.277C100.56,133.877 100.56,133.178 100.462,132.275C100.364,131.372 100.364,130.771 100.364,130.272C100.364,129.071 100.164,128.069 99.661,127.268C99.563,126.868 99.159,126.365 98.66,125.965C98.161,125.564 97.757,125.266 97.56,125.266C97.364,125.266 97.262,125.364 97.262,125.466C95.558,127.068 94.458,129.671 93.956,133.276C93.956,134.976 93.355,137.081 92.252,139.385C91.851,140.084 91.152,140.987 90.45,141.887C89.649,142.786 89.15,143.489 89.048,143.689C88.345,144.388 87.948,145.593 87.948,147.195C87.809,147.614 87.741,148.054 87.748,148.495C88.149,150.399 89.252,151.499 91.054,152.001C91.455,152.001 92.554,151.401 94.356,150.297C96.96,148.695 98.562,147.093 99.162,145.491C99.563,144.89 100.065,142.487 100.466,138.282C100.368,137.984 100.466,137.383 100.466,136.48L100.462,136.48Z" style="fill:rgb(221,119,17);fill-rule:nonzero;"/>
    <path d="M114.28,163.514C114.28,163.215 113.981,162.815 113.38,162.21C112.379,161.209 111.076,160.71 109.477,160.71C108.877,160.71 108.276,160.911 107.475,161.409C107.176,161.409 106.772,161.708 106.175,162.309L105.272,163.008C103.67,160.805 101.97,159.705 100.266,159.705L99.865,159.705C99.162,159.804 98.361,160.204 97.56,160.805C96.902,161.303 96.198,161.739 95.46,162.108C95.059,162.207 94.258,162.309 93.257,162.309C92.784,162.38 92.316,162.48 91.855,162.607C91.054,162.807 90.555,163.008 90.253,163.11C89.955,163.408 89.452,164.009 88.651,164.912C87.85,165.815 87.45,166.514 87.45,167.013C87.467,167.453 87.534,167.891 87.65,168.316L87.65,168.717C87.552,169.117 87.45,169.518 87.45,169.816L87.65,170.217C88.251,171.819 89.052,172.62 90.253,172.62C90.552,172.62 90.956,172.718 91.353,173.02C92.268,173.024 93.167,172.781 93.956,172.317C95.259,171.418 96.261,170.613 96.96,169.714C96.96,169.416 96.96,169.113 97.058,168.815C97.139,168.574 97.239,168.341 97.356,168.116C98.259,167.217 99.261,166.812 100.36,166.812C102.865,166.412 104.463,165.811 105.166,165.112L105.869,164.209C106.47,164.311 106.969,164.61 107.373,164.912C108.975,165.811 110.074,166.212 110.875,166.212C111.188,166.216 111.497,166.148 111.778,166.011C113.482,165.312 114.283,164.511 114.283,163.51L114.28,163.514ZM108.673,188.447L108.673,189.15C108.673,191.152 109.674,192.452 111.676,193.053L113.18,193.053C115.783,191.651 117.185,189.849 117.287,187.846C117.385,187.548 117.487,186.947 117.487,186.142C117.487,185.742 117.287,185.341 116.985,184.941C116.653,184.631 116.47,184.193 116.482,183.739L116.683,183.037L117.083,182.636L117.083,181.336C117.083,180.335 116.38,178.835 115.081,176.73L113.977,175.627L113.278,174.728L112.375,174.327C111.775,174.229 111.374,174.029 111.174,173.829C110.974,173.628 110.671,173.228 110.275,172.627C109.878,172.026 109.474,171.524 109.073,171.123L108.37,170.923C107.97,170.825 107.668,170.523 107.467,170.224L107.267,169.824C106.866,169.121 106.466,168.72 106.266,168.72C106.065,168.72 105.665,169.121 105.064,169.824L105.264,170.723C105.264,170.821 105.465,171.222 105.767,171.724C106.168,172.227 106.27,172.525 106.27,172.725C106.568,174.327 106.67,175.729 106.67,176.832L105.767,179.035C105.366,180.237 105.064,181.238 105.064,182.039L105.064,182.239C105.363,182.538 105.465,182.738 105.465,182.938C105.563,183.04 106.168,183.539 107.067,184.34C107.966,185.141 108.469,185.84 108.469,186.441C108.451,186.88 108.384,187.316 108.268,187.741C108.771,188.039 108.669,188.341 108.669,188.443L108.673,188.447Z" style="fill:rgb(0,136,68);fill-rule:nonzero;"/>
    <path d="M128.698,143.489C128.974,143.326 129.282,143.223 129.601,143.186C131.603,142.185 132.605,140.783 132.605,139.079C132.605,138.479 132.204,137.78 131.505,136.877C130.806,135.974 130.304,135.377 130.202,134.874C129.997,134.02 129.861,133.147 129.801,132.271C129.741,131.394 129.605,130.521 129.401,129.668C128.8,128.764 127.999,128.364 126.797,128.364L125.694,128.364L126.094,127.963C127.096,126.962 127.598,126.361 127.598,126.263C127.598,125.262 127.198,124.159 126.298,122.957C125.698,121.956 124.897,121.457 123.895,121.457C123.797,121.457 123.495,121.555 122.996,121.657L121.292,123.86L121.292,124.06C121.39,124.06 121.492,124.159 121.492,124.461L119.989,125.961C119.887,125.961 119.486,126.063 118.987,126.161C118.489,126.259 117.986,126.562 117.586,126.864C117.986,126.562 118.288,126.063 118.288,125.36C118.288,123.157 117.586,122.058 116.086,122.058C115.787,122.058 115.383,122.156 114.982,122.458C114.582,122.761 114.28,122.859 114.083,122.859C112.379,123.558 109.98,123.958 107.074,123.958C106.976,123.86 106.372,123.758 105.37,123.758L106.073,123.958C105.775,123.958 105.571,123.86 105.37,123.758L104.467,123.558C108.374,123.157 110.875,122.156 111.877,120.554C112.878,119.152 113.38,117.252 113.38,114.947C112.98,113.043 111.778,112.144 109.878,112.144L109.477,112.144C108.178,113.043 107.275,113.946 106.874,114.947C106.776,115.045 106.576,115.446 106.474,116.047L106.273,117.346C105.873,118.348 104.471,119.451 102.17,120.652C100.466,121.351 99.567,122.054 99.567,122.753C99.567,123.452 99.967,123.754 100.666,123.754L103.972,123.754L103.972,123.955L103.27,124.657C103.27,124.756 103.368,124.858 103.67,124.858C103.768,125.156 103.87,125.356 103.87,125.557C106.874,127.759 110.078,128.863 113.18,128.863C113.278,128.863 113.683,128.863 114.181,128.761C114.68,128.659 114.982,128.659 115.183,128.659C115.783,128.659 116.184,128.761 116.486,129.059C116.486,129.361 116.584,129.46 116.785,129.46L119.286,129.562L122.29,129.66L122.989,129.66L123.691,129.46L123.691,129.86C122.49,130.563 121.987,131.564 121.987,132.864C121.982,133.301 122.016,133.737 122.089,134.168C122.166,134.664 122.198,135.166 122.188,135.668C122.089,135.668 121.787,135.97 121.485,136.571L121.285,137.47C120.884,137.572 119.581,137.67 117.582,137.67C116.581,137.67 115.477,137.372 114.276,136.771C114.174,136.771 113.977,136.571 113.773,136.268C113.573,135.868 113.373,135.569 113.271,135.267L109.368,130.963C108.366,129.962 107.267,129.46 106.062,129.46C105.461,130.06 105.159,130.363 105.159,130.563C105.159,131.965 105.559,132.766 106.258,132.766L107.161,135.169L109.164,140.175C110.067,142.079 111.166,143.379 112.666,144.078C113.267,144.18 114.37,144.479 115.972,144.981C118.976,146.183 121.179,146.681 122.482,146.681C123.385,146.681 124.084,146.583 124.685,146.281C125.313,145.974 125.889,145.568 126.389,145.079C126.99,144.581 127.489,144.278 127.889,144.078C127.889,143.78 128.191,143.678 128.69,143.477L128.698,143.489Z" style="fill:rgb(221,119,17);fill-rule:nonzero;"/>
    <path d="M119.188,173.526C119.388,173.625 119.588,173.825 119.69,174.327C119.788,174.728 120.091,175.03 120.393,175.227C121.394,176.829 122.596,177.63 123.895,177.63C126.401,177.63 127.598,176.228 127.598,173.523C127.598,172.922 127.398,172.223 126.899,171.32L125.996,170.421L124.696,169.521C123.997,168.32 123.393,167.617 122.996,167.319C122.422,166.722 121.622,166.393 120.793,166.416C120.695,166.416 120.393,166.518 119.894,166.816L119.494,167.016L119.093,167.016C118.995,166.918 118.693,166.816 118.394,166.816L118.194,167.016L116.694,167.016C115.693,167.016 114.589,166.816 113.388,166.317C112.186,165.917 111.385,165.618 110.985,165.618C109.383,166.317 108.582,167.02 108.582,167.621C108.582,167.919 108.88,168.12 109.485,168.422C110.086,168.622 110.486,168.822 110.686,169.125C110.887,169.325 111.087,169.824 111.389,170.625C111.589,171.426 111.79,171.928 111.892,172.026L113.195,173.326C113.683,173.471 114.19,173.539 114.699,173.526C114.997,173.526 115.5,173.526 116.301,173.428C117.102,173.33 117.605,173.326 117.903,173.326C118.602,173.428 119.003,173.428 119.203,173.526L119.188,173.526ZM103.568,172.725C104.369,172.125 104.868,171.622 105.17,171.222C105.268,171.123 105.37,170.723 105.37,170.122C105.37,168.72 104.569,167.919 102.967,167.919L102.767,167.919C102.166,167.919 101.063,168.52 99.461,169.62L97.258,171.822C97.16,171.921 96.96,172.423 96.756,173.122C96.552,173.821 96.253,174.324 95.955,174.422C95.955,174.72 95.754,174.822 95.252,174.822L94.152,174.822L93.45,175.223C93.351,175.521 93.151,175.722 93.049,175.926C92.448,176.526 91.848,178.026 91.345,180.531C90.945,181.234 90.646,181.733 90.646,182.035C90.752,182.145 90.82,182.285 90.846,182.436C90.846,184.038 91.549,185.137 93.049,185.738C93.842,186.193 94.739,186.435 95.652,186.441C96.854,186.04 97.655,185.141 98.055,183.838C98.2,183.351 98.267,182.845 98.256,182.338L98.256,180.834L98.656,180.834L98.856,181.034C100.859,180.433 101.86,179.53 101.86,178.23C101.86,177.932 101.762,177.63 101.46,177.229C101.195,176.885 101.054,176.462 101.059,176.028C101.059,175.427 101.358,174.826 101.962,174.324C102.261,173.825 102.763,173.322 103.564,172.722L103.568,172.725ZM139.315,97.128C138.714,97.03 138.015,96.928 137.112,96.928C135.501,96.892 133.969,97.64 133.005,98.931C133.005,99.233 132.703,99.634 132.204,100.234C131.705,100.835 131.403,101.134 131.403,101.334L131.403,101.734C131.403,101.836 131.203,102.135 130.7,102.437L130.3,102.637C128.898,104.64 128.097,105.641 127.897,105.641C129.2,103.737 129.899,102.535 129.899,101.935C129.899,101.236 129.499,100.332 128.596,99.233C127.693,98.134 126.895,97.631 125.992,97.631L125.592,97.631C124.689,97.631 123.892,98.031 123.189,98.73C122.286,98.73 121.889,99.131 121.889,100.034L122.29,100.234L122.29,100.933C120.888,104.137 118.987,106.54 116.883,108.142C114.979,109.442 113.377,110.243 112.077,110.545C112.175,110.644 112.579,110.746 113.176,110.746C113.577,110.746 114.079,110.746 114.68,110.644C115.281,110.542 115.78,110.545 116.184,110.545C116.588,110.545 116.985,110.746 117.385,111.044C117.786,111.445 118.088,111.547 118.387,111.547C120.291,112.948 123.495,113.749 127.999,113.749L130.402,113.749C130.704,113.447 131.203,113.047 131.804,112.548L133.205,111.547C133.504,111.547 133.806,111.445 134.105,111.346C135.008,110.946 135.608,110.644 136.107,110.644C138.809,110.243 140.513,109.744 141.113,109.344C142.814,108.142 143.917,106.042 144.416,102.838C143.717,100.132 142.013,98.232 139.307,97.128L139.315,97.128ZM36.181,129.671C36.181,129.271 35.38,128.27 33.778,126.668C33.68,126.565 33.178,126.267 32.377,125.866C31.576,125.466 31.073,125.164 30.975,124.865C30.232,124.102 29.531,123.3 28.874,122.462C28.073,121.461 27.272,120.66 26.471,120.059C25.762,119.485 24.878,119.168 23.966,119.16L23.766,119.16C23.463,119.16 23.263,119.258 23.067,119.36C22.969,119.458 22.666,119.56 22.368,119.56C20.668,120.46 19.764,121.261 19.764,122.164L19.764,122.364C19.764,122.662 19.666,122.965 19.564,123.263L19.164,123.962L19.164,124.665L18.963,125.364C18.963,126.267 19.863,127.567 21.567,129.471L23.77,131.474C24.37,131.772 25.972,132.173 28.576,132.773C28.674,132.773 29.176,132.773 29.977,132.875C30.574,132.947 31.179,132.981 31.78,132.974L32.679,132.974L33.378,132.773C35.282,131.772 36.181,130.673 36.181,129.668L36.181,129.671ZM54.907,131.874C56.108,131.273 56.607,130.472 56.607,129.471C56.607,128.568 55.708,127.469 53.804,126.165L53.603,125.764C53.203,125.666 52.901,125.466 52.7,125.364C52.099,124.763 51.797,122.761 51.797,119.254C51.797,118.854 51.797,118.253 51.895,117.652C51.994,116.953 51.994,116.451 51.994,116.05C51.994,115.45 51.793,114.649 51.291,113.447C49.991,108.943 46.685,106.741 41.479,106.741L40.379,106.741C37.375,107.141 35.271,107.64 34.069,108.241L31.866,110.443C29.864,112.446 28.863,114.248 28.863,115.85C28.863,117.052 30.064,118.956 32.565,121.756C33.869,123.063 35.237,124.298 36.673,125.462C36.971,125.56 37.273,125.761 37.674,125.961C38.074,126.161 38.577,126.361 39.276,126.463C39.975,126.565 40.477,126.864 40.579,127.162L43.183,128.866L50.392,131.27C51.994,131.67 53.195,131.972 54.098,131.972L54.899,131.972L54.907,131.874ZM96.861,152.099L96.159,152.099C95.86,152.099 95.558,152.198 95.256,152.398C94.953,152.598 94.655,152.696 94.353,152.696L94.152,152.696C93.752,152.798 93.151,153.297 92.55,154.098C91.848,154.899 91.549,155.5 91.549,155.901C91.549,157.102 92.252,157.903 93.552,158.304C93.65,158.402 93.952,158.504 94.455,158.504C94.753,158.504 95.055,158.402 95.358,158.304C95.66,158.205 95.86,158.005 96.06,157.805C96.159,157.605 96.461,157.302 96.861,157.004C97.262,156.705 97.462,156.403 97.662,156.105C99.264,155.406 100.065,154.801 100.065,154.401C98.966,152.897 97.965,152.099 96.861,152.099Z" style="fill:rgb(0,136,68);fill-rule:nonzero;"/>
    <path d="M112.78,118.457C112.78,119.36 113.078,119.761 113.683,119.761C114.083,120.059 115.084,120.161 116.486,120.161C118.19,120.161 119.69,119.863 120.79,119.262C122.191,117.962 122.992,117.161 122.992,116.859C122.992,116.458 122.49,115.759 121.489,114.856C120.189,113.855 119.286,113.356 118.885,113.356C116.985,113.356 115.882,114.055 115.579,115.359C115.579,115.657 115.481,115.96 115.379,116.36C115.277,116.761 115.081,117.059 114.979,117.259C114.877,117.46 114.578,117.66 114.178,117.66L113.176,117.962C112.976,118.261 112.776,118.363 112.776,118.461L112.78,118.457ZM70.829,144.788C71.689,144.93 72.56,144.997 73.432,144.989C76.738,144.989 80.241,143.387 83.845,140.183C87.049,137.878 89.452,135.377 91.054,132.573C92.754,130.673 93.657,129.071 93.657,127.767C93.657,126.868 93.257,126.467 92.558,126.467L92.558,126.668C90.858,128.069 87.854,130.17 83.649,132.777C78.843,135.078 75.136,136.28 72.533,136.28L71.233,136.28C71.135,136.181 71.033,135.981 71.033,135.781C71.033,135.581 70.935,135.38 70.832,135.278C70.232,134.277 69.329,133.778 68.029,133.778C67.428,133.778 66.827,133.979 66.026,134.477C64.424,135.078 63.623,136.079 63.623,137.481L63.623,137.681C63.623,137.783 63.722,138.082 63.922,138.384C64.122,138.686 64.322,138.883 64.424,139.185C64.549,139.434 64.618,139.708 64.625,139.986L64.625,140.387L66.125,142.79C67.126,143.689 68.63,144.392 70.832,144.792L70.829,144.788ZM75.737,107.64C74.834,106.941 73.935,106.54 73.232,106.54C71.331,107.141 70.13,107.942 69.529,108.943C69.431,109.042 69.23,109.442 69.23,110.145C69.132,110.844 69.132,111.244 69.132,111.346C68.732,112.246 68.429,113.047 68.429,113.749C68.429,115.351 69.132,116.651 70.432,117.652L72.835,118.752C73.738,118.752 74.139,118.351 74.139,117.652L73.738,116.753L73.538,115.85C73.538,115.45 73.738,114.751 74.241,113.848C74.339,113.247 74.943,112.548 75.843,111.747C76.742,110.946 77.244,110.443 77.244,110.145L77.244,109.744C77.146,109.042 76.644,108.343 75.741,107.64L75.737,107.64ZM104.275,132.872C103.572,132.872 102.873,133.472 102.272,134.576C101.974,135.475 101.872,136.778 101.872,138.479L101.97,142.385L102.068,146.489L103.168,151.495C103.568,152.194 104.369,153.199 105.571,154.298L108.374,156.902C109.375,157.503 110.475,157.801 111.676,157.801C112.98,157.801 114.68,157.2 116.683,156.097C119.286,154.094 120.589,152.092 120.589,150.191C120.589,147.686 119.788,146.485 118.186,146.485C117.586,146.485 117.083,146.783 116.584,147.286C116.086,147.788 115.583,148.087 115.183,148.087L114.782,148.087C112.882,148.087 111.476,147.388 110.475,145.884C109.175,143.98 108.072,141.278 107.173,137.874C107.028,137.388 106.961,136.881 106.972,136.374L106.972,135.071C106.069,133.571 105.17,132.868 104.267,132.868L104.275,132.872Z" style="fill:rgb(221,119,17);fill-rule:nonzero;"/>
    <path d="M40.78,146.492L41.69,146.492C42.291,146.492 43.292,146.394 44.592,146.194L47.497,145.892C48.237,145.884 48.975,145.951 49.7,146.092C49.798,146.394 50.203,146.795 50.8,147.395C51.397,147.996 51.801,148.295 52.099,148.295C52.802,148.295 53.403,148.094 53.804,147.596C54.204,147.497 54.805,146.995 55.606,146.194C56.407,145.393 56.807,144.792 56.807,144.392C56.807,143.991 56.207,142.888 55.107,141.086C54.106,139.484 53.105,138.584 52.304,138.482C52.205,138.184 51.703,138.082 50.902,138.082C50.101,138.082 49.598,137.984 49.398,137.882C49.198,137.78 48.997,137.481 48.997,136.982C48.899,136.582 48.695,136.28 48.495,136.079C47.191,134.678 45.793,133.877 44.388,133.877C42.185,133.877 40.583,134.678 39.382,136.28C39.079,136.382 38.981,136.582 38.981,136.782C38.981,136.982 38.581,137.583 37.678,138.584C36.076,140.186 35.275,141.286 35.275,141.887C35.373,142.189 35.777,142.888 36.374,144.089C37.277,145.491 38.777,146.292 40.78,146.492ZM91.353,50.674C90.45,49.673 89.951,49.272 89.849,49.272C89.146,49.374 88.345,49.673 87.544,50.175C86.711,50.687 85.937,51.292 85.239,51.977C85.039,52.076 84.839,52.578 84.741,53.379C84.442,53.878 84.238,54.18 84.14,54.18L83.841,54.38L84.042,53.077C84.14,46.869 85.844,42.762 89.248,40.759L90.151,40.261C94.058,38.258 96.861,38.156 98.562,39.66C99.363,40.359 99.963,40.96 100.262,41.36C100.965,42.962 101.063,44.466 100.662,45.864C100.262,47.466 99.759,48.97 99.06,50.372C98.46,51.373 98.059,51.872 97.961,51.872C97.56,52.072 97.16,52.272 96.759,52.272C98.463,52.374 99.861,52.775 100.965,53.674C101.766,54.373 102.366,55.174 102.669,56.077C102.767,56.277 102.767,56.678 102.669,57.176C102.571,57.675 102.571,57.977 102.571,58.178L103.073,59.481C104.173,61.982 103.576,64.589 101.471,67.189C100.768,67.99 100.171,68.591 99.567,68.991C98.067,69.89 95.962,70.193 93.461,69.992C93.162,69.992 92.66,69.992 91.859,69.89C91.058,69.788 90.457,69.792 90.155,69.792C89.853,69.792 89.154,69.992 88.251,70.593C86.951,71.394 85.647,72.894 84.348,75.097C84.446,74.696 84.446,72.694 84.249,68.791C84.049,65.587 84.45,63.086 85.553,61.283C86.754,58.28 88.957,55.877 92.263,53.972C93.563,53.273 94.965,52.673 96.366,52.472C95.966,52.574 95.565,52.472 95.165,52.37C94.262,52.17 92.864,51.569 91.36,50.67L91.353,50.674Z" style="fill:rgb(0,136,68);fill-rule:nonzero;"/>
    <path d="M94.054,112.45C94.455,112.049 94.757,111.55 94.957,111.15C94.957,111.048 95.256,110.647 95.758,110.047C96.261,109.446 96.559,109.045 96.559,108.747C96.159,107.746 95.358,106.945 94.156,106.344L91.753,106.344L91.553,106.744L88.549,109.548C88.149,110.848 87.846,112.151 87.846,113.451C87.846,115.453 88.047,117.055 88.549,118.257C90.151,119.859 91.451,120.66 92.456,120.66C93.159,120.358 93.555,119.957 93.555,119.557C93.555,119.258 93.457,118.756 93.155,117.955C92.853,117.154 92.754,116.655 92.754,116.353C92.754,115.049 93.053,114.048 93.657,113.349C93.457,113.247 93.657,112.948 94.058,112.446L94.054,112.45Z" style="fill:rgb(221,119,17);fill-rule:nonzero;"/>
    <path d="M113.078,77.406L113.879,78.505C113.977,78.906 113.781,79.707 113.278,80.81L112.678,82.212L111.775,83.213L111.775,83.413C111.873,83.715 112.073,84.116 112.477,84.615C112.81,85.026 113.05,85.504 113.18,86.016C113.18,86.118 113.082,86.519 112.882,87.018L112.882,87.921C112.281,89.22 111.88,89.923 111.582,90.222C111.083,90.822 110.482,91.325 109.78,91.525C108.076,92.126 106.674,92.126 105.574,91.525C105.276,91.423 104.974,91.223 104.475,90.822C103.976,90.422 103.674,90.222 103.572,90.222L102.17,90.724C100.069,90.021 98.664,88.82 97.965,87.32C97.965,86.817 97.965,86.417 97.866,86.016L96.865,85.918C94.56,85.718 92.958,85.816 91.957,86.118L91.058,86.417C90.96,86.417 90.759,86.817 90.657,87.418C90.457,88.019 90.257,88.321 90.057,88.419C89.456,87.921 89.055,87.32 88.855,86.617C88.254,84.214 89.558,82.51 92.558,81.411L94.262,80.81C95.263,80.409 96.064,79.809 96.465,79.11C97.768,78.01 99.767,76.907 102.673,75.906L103.674,75.505C105.174,74.904 106.477,74.704 107.679,74.904C110.482,75.807 112.183,76.707 113.086,77.409L113.078,77.406Z" style="fill:rgb(0,136,68);fill-rule:nonzero;"/>
    <path d="M81.238,102.437C80.94,102.838 80.838,103.737 80.838,105.04C80.838,106.642 81.238,107.542 82.141,107.844L82.341,107.844L83.645,106.54C85.247,104.938 86.649,104.137 87.948,104.137L89.452,104.137C90.756,102.936 91.455,102.335 91.455,102.135C91.455,101.734 91.054,101.035 90.155,100.132C88.553,98.931 87.45,98.432 86.849,98.432C84.309,98.386 82.022,100.019 81.242,102.437L81.238,102.437ZM105.17,111.947L105.17,111.044C104.271,109.144 103.368,108.241 102.366,108.241C100.462,108.641 98.86,109.945 97.36,112.147C96.359,114.15 95.856,115.752 95.856,116.953C95.85,117.395 95.917,117.834 96.057,118.253C96.759,119.855 97.458,120.656 98.259,120.656C98.66,120.656 99.261,120.256 99.96,119.356C103.466,116.651 105.166,114.15 105.166,111.947L105.17,111.947ZM80.841,117.853C82.443,119.855 84.147,120.958 86.048,121.155L87.552,121.155C87.65,121.155 87.952,121.257 88.455,121.555L88.655,121.756L89.958,120.656C89.66,120.656 89.157,120.256 88.455,119.353C87.453,118.654 86.751,117.751 86.252,116.749C85.52,115.805 85.132,114.638 85.152,113.443L85.152,112.744L85.353,112.042L85.353,110.942C85.353,110.542 85.152,110.039 84.85,109.639C84.45,109.238 84.049,108.94 83.649,108.94L83.248,108.94C82.95,109.238 82.647,109.34 82.345,109.34C81.344,109.941 80.441,110.942 79.742,112.344C79.644,112.642 79.542,113.243 79.542,114.044C79.542,115.045 79.64,115.748 79.742,116.047L80.841,117.853Z" style="fill:rgb(221,119,17);fill-rule:nonzero;"/>
    <path d="M106.27,123.463L107.974,124.162C107.675,123.962 107.173,123.762 106.27,123.463Z" style="fill-rule:nonzero;"/>
</svg>