<?xml version="1.0" encoding="UTF-8" standalone="no"?>
<svg width="100%" height="100%" viewBox="0 0 150 200" version="1.1" xmlns="http://www.w3.org/2000/svg" xmlns:xlink="http://www.w3.org/1999/xlink" xml:space="preserve" xmlns:serif="http://www.serif.com/" style="fill-rule:evenodd;clip-rule:evenodd;stroke-linejoin:round;stroke-miterlimit:2;">
    <g transform="matrix(0.265,0,0,0.265,177.582,-341.184)">
        <path d="M-608.312,1364.04C-606.801,1363.29 -605.668,1363.29 -605.29,1363.29C-595.466,1363.29 -576.574,1379.16 -576.574,1387.47C-576.574,1391.25 -576.574,1391.25 -584.887,1400.32L-594.71,1412.41C-594.71,1413.16 -593.955,1413.54 -592.821,1413.54C-590.176,1413.54 -576.196,1408.25 -565.617,1402.58C-562.217,1401.07 -559.572,1400.32 -558.06,1400.32C-552.015,1400.32 -544.081,1410.89 -544.081,1418.45C-544.081,1423.36 -547.481,1425.25 -558.06,1425.63C-579.597,1430.16 -591.31,1434.32 -601.511,1441.12C-586.02,1453.97 -583.375,1456.99 -583.375,1464.92C-583.375,1468.7 -583.375,1468.7 -586.02,1493.26C-592.443,1524.62 -592.443,1524.62 -594.332,1526.51C-595.088,1527.27 -596.222,1527.64 -596.599,1527.64C-600.378,1527.64 -613.602,1507.62 -613.602,1501.95C-613.602,1500.06 -611.713,1494.39 -609.068,1485.7C-606.805,1478.88 -605.656,1471.74 -605.668,1464.55C-605.668,1452.46 -607.557,1449.81 -615.491,1448.68C-625.693,1452.08 -629.849,1454.35 -636.272,1458.12C-640.05,1460.39 -643.829,1462.28 -646.096,1462.28C-650.252,1462.28 -653.275,1451.7 -653.275,1437.34C-653.275,1432.81 -651.763,1431.3 -646.851,1429.79C-635.894,1426.38 -634.761,1425.63 -624.559,1414.3C-612.091,1400.69 -605.29,1388.22 -605.29,1379.91C-605.29,1376.51 -606.045,1372.73 -609.824,1364.8L-608.312,1364.04ZM-530.856,1349.31C-530.479,1342.13 -524.811,1336.08 -518.01,1336.08C-510.831,1336.08 -506.297,1339.48 -499.874,1348.17C-494.584,1355.73 -491.94,1362.15 -491.94,1367.44C-491.94,1373.11 -494.584,1379.16 -503.275,1392.76C-508.564,1401.07 -511.965,1407.49 -511.965,1408.63C-511.965,1409.01 -511.587,1409.38 -511.209,1409.38C-510.831,1409.38 -510.453,1409.01 -509.32,1408.63C-508.564,1408.25 -505.919,1407.49 -501.385,1405.98L-479.471,1399.18L-452.645,1394.65C-440.932,1394.65 -426.574,1406.74 -426.574,1416.94C-426.574,1419.96 -429.975,1422.23 -433.753,1422.23C-436.02,1422.23 -439.798,1421.85 -443.955,1421.47C-447.733,1420.72 -451.511,1420.72 -455.29,1420.72C-463.602,1420.72 -470.403,1421.47 -485.516,1425.25C-478.338,1431.3 -475.315,1436.21 -475.315,1440.74C-475.315,1442.63 -476.071,1446.03 -477.204,1450.94C-478.715,1454.35 -479.471,1464.92 -479.849,1476.26C-480.982,1531.8 -482.872,1542.38 -492.695,1560.52C-496.851,1568.45 -501.385,1574.5 -503.275,1574.5C-504.786,1574.5 -505.919,1571.85 -505.919,1568.45C-505.919,1566.56 -505.164,1563.92 -505.164,1560.52C-501.385,1537.09 -499.118,1499.68 -499.118,1461.9C-499.118,1443.01 -499.874,1441.12 -510.453,1439.61C-512.72,1440.37 -514.987,1440.74 -515.743,1441.12L-520.655,1444.14C-524.433,1446.41 -527.834,1448.68 -531.99,1450.57C-535.013,1452.46 -536.524,1453.21 -537.657,1453.21C-541.058,1453.21 -543.703,1447.92 -543.703,1441.88C-543.703,1430.92 -543.325,1430.16 -535.013,1420.72C-528.967,1413.16 -527.456,1410.52 -521.411,1390.49C-515.743,1371.6 -514.232,1364.42 -514.232,1357.24C-514.232,1353.09 -517.254,1349.31 -520.277,1349.31C-521.033,1349.31 -523.678,1350.06 -528.967,1350.82L-530.856,1349.31Z" style="fill:rgb(51,51,153);fill-rule:nonzero;"/>
        <g>
            <path d="M-332.872,1874.12L-328.715,1866.94C-329.093,1864.67 -332.116,1863.92 -338.539,1864.67L-352.141,1871.1C-353.652,1871.85 -358.186,1876.38 -364.987,1885.08C-369.144,1892.25 -375.189,1906.99 -382.746,1929.28L-346.851,1886.59C-339.673,1881.3 -334.761,1877.14 -332.872,1874.12ZM-283.753,1854.47C-283.375,1856.74 -281.108,1857.49 -276.574,1857.12C-270.907,1856.36 -268.64,1852.58 -269.395,1845.4C-269.773,1842 -270.907,1836.71 -273.174,1829.16L-276.952,1811.4L-277.33,1809.13L-277.33,1804.6C-277.33,1801.95 -277.33,1800.44 -277.708,1799.31C-277.33,1794.39 -277.708,1785.33 -278.841,1772.1C-279.975,1758.88 -280.353,1749.81 -279.219,1744.14C-279.219,1743.77 -278.841,1742.25 -278.086,1740.37C-277.33,1738.48 -276.952,1736.59 -276.952,1734.7L-276.952,1733.94C-277.708,1732.81 -278.086,1732.05 -278.086,1731.67C-282.997,1724.12 -292.821,1720.72 -307.179,1722.61C-329.093,1724.87 -339.673,1730.16 -338.539,1737.72C-338.539,1738.85 -336.65,1740.74 -333.627,1743.39C-330.605,1746.03 -328.338,1748.3 -327.582,1749.81C-326.448,1754.29 -325.565,1758.83 -324.937,1763.41L-323.048,1778.9C-322.67,1780.42 -322.67,1783.44 -322.67,1787.22C-322.672,1790.26 -322.419,1793.29 -321.914,1796.29L-321.537,1799.68L-320.781,1804.6C-320.025,1805.73 -319.647,1808 -318.892,1811.78C-318.514,1814.04 -318.514,1817.07 -318.136,1820.84L-317.758,1829.16L-316.247,1842.38L-315.113,1851.45L-314.736,1855.61C-314.736,1855.98 -315.113,1857.12 -315.491,1859.01C-315.869,1860.89 -316.247,1862.41 -316.247,1863.54C-316.247,1865.05 -314.736,1867.69 -312.846,1871.85L-312.091,1876.76L-310.957,1885.83L-308.69,1883.94L-289.798,1862.78C-286.398,1857.12 -284.131,1854.47 -283.753,1854.47Z" style="fill:rgb(0,136,68);fill-rule:nonzero;"/>
            <path d="M-337.783,1998.8C-335.516,1985.96 -331.738,1971.22 -326.826,1954.6C-320.781,1934.19 -315.113,1920.21 -310.202,1913.04C-309.824,1911.9 -308.312,1909.63 -306.045,1906.23C-303.401,1902.83 -301.511,1900.19 -300,1898.68C-294.71,1891.88 -292.065,1887.72 -292.065,1885.45C-292.443,1883.94 -294.71,1882.05 -299.622,1880.16C-304.534,1878.28 -308.312,1877.52 -310.957,1877.52C-321.537,1879.41 -329.471,1884.7 -334.761,1893.39C-345.718,1910.01 -349.496,1934.57 -345.718,1966.31C-344.207,1978.78 -341.562,1989.36 -337.783,1998.8ZM-259.572,1654.6C-257.305,1656.49 -255.793,1658.38 -255.038,1659.89C-246.725,1668.95 -239.924,1673.11 -234.635,1672.36C-228.589,1671.6 -224.055,1667.44 -221.411,1660.26C-221.033,1658.75 -221.033,1656.49 -221.411,1654.6C-222.166,1649.68 -227.834,1644.77 -238.413,1639.86L-251.259,1633.82C-255.793,1633.06 -263.35,1633.44 -274.307,1634.57L-273.552,1635.33L-264.106,1650.06C-263.35,1651.2 -261.839,1652.71 -259.572,1654.6ZM-334.761,1692.76C-336.65,1695.03 -337.406,1697.67 -337.406,1700.32C-337.028,1702.58 -335.894,1704.47 -334.383,1705.61C-330.982,1710.89 -326.826,1713.16 -321.537,1712.41C-318.176,1713.73 -314.553,1714.24 -310.957,1713.92C-305.29,1713.16 -300.756,1711.27 -296.977,1708.25C-296.599,1708.25 -293.577,1706.36 -288.287,1702.2C-284.131,1699.18 -282.242,1696.16 -282.242,1694.27L-283.375,1692.76L-285.264,1690.49L-287.154,1674.24C-289.043,1658 -289.798,1642.88 -289.043,1628.9C-289.421,1627.39 -289.043,1625.5 -288.665,1623.99C-288.287,1622.48 -288.287,1620.97 -288.287,1619.84C-288.665,1618.33 -289.421,1617.57 -290.932,1617.57L-291.688,1617.57C-301.927,1626.2 -312.005,1635.01 -321.914,1644.02C-327.582,1648.93 -330.982,1652.33 -331.738,1653.46C-332.116,1659.51 -332.116,1665.55 -331.36,1671.6C-332.116,1673.87 -332.494,1676.89 -332.116,1680.67C-332.116,1681.05 -331.738,1682.93 -331.36,1685.58C-330.982,1688.22 -330.982,1690.11 -331.738,1690.49L-334.761,1692.76ZM-279.975,1874.87L-280.73,1876.76C-281.864,1877.9 -282.242,1879.79 -281.864,1881.67C-281.108,1889.23 -276.574,1894.14 -269.018,1896.03C-267.884,1897.54 -265.239,1899.06 -261.083,1900.94L-252.393,1905.86C-251.259,1906.23 -248.615,1907.37 -244.458,1908.5C-240.302,1910.01 -237.28,1911.52 -235.39,1913.04C-230.856,1916.81 -226.7,1923.24 -222.922,1931.55C-216.877,1939.11 -212.343,1945.91 -209.32,1951.57L-187.406,1993.89L-185.894,1993.89L-187.783,1976.89C-193.829,1923.99 -210.831,1888.48 -238.035,1869.21C-239.924,1868.83 -242.191,1868.07 -245.592,1866.18C-248.992,1864.67 -251.259,1863.54 -252.393,1863.16C-258.816,1862.03 -262.972,1862.03 -265.239,1862.03C-277.708,1863.54 -283.375,1865.81 -282.997,1869.96L-280.353,1870.34C-279.597,1871.85 -279.219,1872.99 -279.219,1873.74C-279.219,1874.5 -279.597,1874.87 -279.975,1874.87ZM-150.378,1899.43L-133.375,1910.39C-128.463,1914.92 -125.063,1916.81 -123.174,1916.81C-123.552,1914.17 -125.819,1910.39 -130.353,1906.23C-140.932,1887.72 -153.023,1872.23 -166.625,1859.76C-168.136,1857.87 -174.181,1852.58 -184.761,1844.27C-194.962,1834.82 -202.519,1830.67 -207.809,1831.05C-208.942,1831.05 -211.209,1831.42 -214.61,1832.18C-218.01,1832.93 -219.899,1833.31 -220.277,1833.31L-222.922,1832.93C-224.055,1832.93 -225.189,1833.31 -225.945,1833.31C-226.7,1833.31 -228.212,1833.69 -230.479,1834.07C-232.746,1834.45 -234.257,1834.82 -235.39,1835.2C-241.436,1838.6 -243.703,1844.65 -242.569,1853.34C-241.436,1861.65 -236.902,1865.05 -228.589,1864.3C-227.456,1864.3 -226.322,1863.92 -224.811,1863.54C-223.3,1863.16 -222.166,1862.78 -221.411,1862.78C-220.655,1862.78 -217.632,1863.54 -213.098,1865.05C-204.786,1867.32 -188.161,1876.38 -162.846,1891.88C-161.335,1891.5 -157.179,1894.14 -150.378,1899.43ZM-350.63,1658.75C-374.433,1685.2 -392.569,1710.52 -405.793,1735.08C-419.018,1758.12 -431.864,1782.68 -444.71,1809.51C-448.866,1818.58 -450.378,1825.38 -450,1829.91C-449.622,1832.56 -449.244,1834.45 -448.489,1835.58C-448.489,1836.71 -446.599,1838.22 -443.577,1840.11C-440.554,1842 -438.665,1842.76 -438.287,1842.76C-434.131,1837.85 -432.242,1834.82 -432.62,1833.69L-432.997,1832.18C-433.753,1830.67 -434.131,1829.16 -434.131,1828.02C-434.509,1823.87 -434.887,1820.47 -434.509,1818.2C-432.997,1812.15 -429.975,1804.6 -425.063,1796.66C-421.662,1787.59 -411.839,1766.06 -395.97,1732.43C-383.123,1706.36 -365.365,1681.42 -342.317,1658C-299.622,1614.17 -246.348,1577.9 -182.116,1548.8C-247.481,1571.85 -303.778,1608.5 -350.63,1658.75ZM-337.406,1605.86L-337.028,1616.06C-337.028,1617.19 -336.65,1619.46 -336.65,1622.48C-336.65,1625.88 -336.272,1628.15 -336.272,1630.04C-335.894,1632.68 -335.516,1634.57 -334.761,1635.7C-333.627,1635.7 -332.116,1634.95 -330.605,1633.44L-329.093,1632.31L-301.134,1609.26L-296.599,1605.48L-290.176,1600.57C-289.798,1599.06 -290.176,1593.01 -291.31,1582.43L-290.176,1562.41C-289.798,1554.85 -290.176,1549.56 -290.176,1546.91C-290.554,1544.65 -290.554,1541.62 -290.932,1537.85C-290.932,1534.07 -290.932,1531.05 -289.798,1528.78L-287.154,1521.98C-287.909,1514.42 -290.554,1510.64 -294.332,1511.4C-295.844,1511.4 -300,1512.53 -306.045,1514.42L-317.758,1515.55C-326.071,1516.31 -330.982,1517.82 -332.494,1519.71C-332.872,1520.84 -333.627,1526.89 -334.761,1537.47C-334.383,1555.23 -335.139,1574.5 -336.65,1595.65C-337.406,1597.54 -337.406,1601.32 -337.406,1605.86ZM-337.783,1460.39C-337.406,1461.9 -337.406,1465.3 -337.028,1469.84L-336.272,1480.04C-337.406,1486.08 -337.406,1491.37 -337.028,1495.91C-337.028,1497.04 -336.65,1497.8 -335.894,1498.17C-335.139,1498.55 -334.761,1499.31 -334.761,1500.44C-331.626,1502.77 -328.195,1504.68 -324.559,1506.11C-320.025,1507.24 -316.247,1507.62 -313.224,1507.24C-295.844,1505.35 -286.776,1500.06 -286.02,1491.75L-290.932,1484.95C-290.932,1484.57 -291.31,1482.68 -292.065,1480.04C-292.821,1477.39 -293.199,1475.5 -293.199,1473.99C-293.199,1472.48 -293.955,1470.21 -294.332,1466.81C-295.088,1463.41 -295.466,1461.15 -295.466,1460.01C-297.355,1442.63 -297.733,1409.76 -295.844,1361.78C-296.222,1360.26 -295.844,1358.38 -295.844,1356.11C-295.466,1353.84 -295.466,1351.95 -295.088,1350.44L-295.088,1347.04C-295.088,1346.66 -294.332,1345.15 -292.065,1342.88C-290.176,1340.62 -288.665,1338.35 -287.909,1336.08C-288.287,1333.44 -290.554,1329.28 -295.466,1323.62C-295.844,1323.62 -297.355,1323.62 -299.244,1323.24C-301.134,1322.86 -303.023,1322.1 -304.156,1321.35C-313.98,1323.99 -321.914,1327.39 -327.96,1330.79C-333.627,1334.57 -336.272,1339.48 -335.516,1345.91C-335.516,1347.04 -334.761,1348.17 -334.005,1349.31C-332.872,1350.44 -332.494,1351.57 -332.494,1352.71L-332.116,1354.98C-332.494,1355.73 -332.872,1356.11 -332.872,1356.86C-334.005,1362.91 -334.383,1373.87 -334.005,1389.36C-336.65,1420.34 -338.161,1444.14 -337.783,1460.39Z" style="fill:rgb(0,136,68);fill-rule:nonzero;"/>
            <path d="M-547.859,1832.56C-543.703,1829.53 -539.924,1825.76 -537.28,1822.36C-530.856,1817.82 -527.834,1814.04 -528.212,1811.4C-528.967,1809.13 -531.612,1808.38 -536.146,1809.13C-538.791,1809.51 -542.191,1809.89 -545.214,1811.02L-551.259,1812.53C-552.015,1812.53 -553.526,1812.53 -555.416,1812.15C-557.305,1811.78 -558.816,1811.78 -559.194,1811.78C-563.728,1813.29 -567.128,1815.93 -570.151,1819.71C-577.33,1826.13 -583.375,1836.71 -588.665,1851.45C-589.043,1852.2 -589.421,1853.34 -589.043,1854.85C-588.665,1856.36 -589.421,1857.49 -590.176,1858.25C-590.176,1858.63 -591.688,1862.03 -595.088,1867.69L-608.312,1901.32C-589.421,1874.5 -569.018,1851.83 -547.859,1832.56ZM-581.486,1628.15C-582.62,1627.77 -584.131,1626.26 -585.264,1623.99C-586.776,1621.73 -587.531,1620.21 -588.287,1619.84C-601.134,1606.99 -620.025,1593.01 -644.207,1578.28C-641.184,1581.3 -637.028,1586.21 -632.872,1592.63L-622.292,1608.12C-609.068,1623.24 -601.511,1632.68 -599.244,1636.08L-593.577,1647.8C-593.577,1648.17 -592.065,1650.06 -589.421,1653.09C-586.776,1656.11 -585.264,1658 -585.264,1659.13L-584.887,1660.64C-584.887,1661.02 -585.264,1662.15 -586.02,1664.04C-586.776,1665.93 -587.531,1667.07 -587.154,1668.2C-586.776,1671.98 -584.509,1674.62 -580.353,1675.76C-578.463,1677.27 -576.196,1677.64 -573.174,1677.64C-569.395,1677.27 -563.728,1675.38 -556.549,1672.36C-550.126,1668.2 -547.481,1662.15 -548.615,1653.46C-548.992,1650.82 -550.126,1647.42 -552.393,1643.26C-553.149,1642.88 -557.683,1640.62 -566.751,1636.46C-573.552,1634.95 -578.086,1632.31 -581.486,1628.15ZM-639.673,1874.87L-624.559,1861.65L-599.622,1840.87C-594.71,1834.82 -592.065,1831.05 -591.688,1829.91L-591.31,1825L-590.176,1820.09L-600,1819.71C-600.756,1819.71 -601.889,1820.09 -603.401,1820.84L-608.312,1823.49C-610.202,1824.62 -611.713,1825 -612.846,1825.38L-634.383,1853.34C-636.65,1856.74 -639.673,1862.41 -643.073,1869.58L-650.252,1883.19L-650.252,1883.94C-649.874,1882.81 -646.474,1879.79 -639.673,1874.87ZM-510.831,1843.14C-511.965,1834.82 -514.61,1828.78 -519.144,1824.24C-524.811,1826.13 -527.456,1827.27 -527.456,1827.64C-531.234,1829.53 -533.501,1834.82 -534.257,1842.38C-536.146,1850.69 -536.146,1860.89 -535.013,1872.99L-530.856,1898.3L-526.7,1922.48L-525.945,1928.9C-521.411,1914.17 -516.877,1893.01 -511.965,1865.43C-511.965,1865.05 -511.965,1861.65 -511.209,1855.98C-510.453,1849.94 -510.453,1845.78 -510.831,1843.14ZM-156.045,1627.39L-176.448,1613.04C-195.34,1602.08 -211.587,1594.52 -225.189,1591.12C-233.123,1590.74 -239.169,1591.12 -242.947,1591.5C-247.481,1591.88 -252.015,1593.01 -256.171,1594.52C-261.839,1599.06 -264.484,1603.59 -263.728,1608.5L-263.728,1609.26C-263.35,1611.52 -259.95,1613.79 -253.526,1616.44C-248.615,1617.95 -241.814,1619.84 -232.368,1620.97C-222.922,1622.48 -218.01,1623.62 -216.499,1624.75C-209.32,1626.26 -182.116,1632.68 -134.887,1644.02C-136.776,1643.26 -139.798,1640.62 -144.71,1636.46L-156.045,1627.39ZM-373.678,1626.64C-376.7,1624.37 -379.345,1622.86 -381.99,1622.48C-384.257,1620.97 -388.413,1620.59 -394.081,1621.35C-415.617,1623.62 -435.642,1631.55 -454.534,1645.53C-448.866,1645.53 -438.665,1644.77 -424.307,1644.02C-409.95,1642.88 -399.37,1642.51 -392.569,1642.88C-387.753,1644.09 -382.748,1644.35 -377.834,1643.64C-371.033,1642.88 -368.01,1639.86 -368.766,1634.19C-368.766,1631.55 -370.655,1628.9 -373.678,1626.64ZM-434.887,1710.52C-421.662,1698.43 -411.083,1689.74 -403.149,1684.45C-391.814,1675.38 -385.39,1669.33 -383.879,1665.93L-384.257,1662.53C-384.635,1659.89 -385.768,1657.62 -387.657,1656.11C-390.302,1652.71 -396.725,1651.2 -406.927,1652.33L-419.773,1658.75C-434.887,1669.33 -449.244,1694.27 -462.091,1733.56C-457.179,1730.54 -448.111,1722.61 -434.887,1710.52ZM-473.048,1831.8C-479.849,1832.93 -482.116,1841.62 -480.227,1857.49C-479.471,1864.67 -477.96,1871.1 -475.315,1876.76C-473.048,1882.43 -468.892,1888.85 -463.602,1895.28C-458.312,1901.7 -455.29,1906.23 -454.534,1908.12C-438.287,1933.82 -428.841,1960.64 -425.441,1988.22L-423.929,1999.56C-423.552,2003.72 -422.418,2006.36 -421.285,2006.74C-420.529,2009.76 -415.995,2011.27 -408.06,2010.14C-394.081,2008.63 -382.368,2002.2 -373.678,1991.62C-370.277,1987.47 -368.388,1984.07 -368.01,1981.8C-368.01,1980.67 -371.411,1976.13 -378.212,1968.2C-392.191,1945.91 -406.549,1912.28 -421.662,1867.32C-426.196,1852.58 -430.73,1843.14 -435.264,1839.74C-446.599,1832.93 -459.068,1830.29 -473.048,1831.8ZM-465.869,1791.37C-472.292,1786.08 -480.982,1774.37 -492.317,1756.23C-508.186,1732.05 -517.632,1713.92 -520.277,1701.45C-520.655,1699.94 -521.033,1698.05 -521.788,1696.54C-522.544,1695.03 -522.922,1693.89 -522.922,1693.51L-521.411,1692.38C-521.411,1691.25 -521.788,1690.49 -521.788,1690.11L-522.922,1681.8L-523.3,1678.4C-524.811,1674.24 -528.967,1672.36 -535.768,1673.11C-552.015,1675 -562.972,1676.89 -568.262,1679.16C-575.819,1683.31 -579.219,1687.85 -578.463,1692.76C-578.463,1693.14 -575.441,1698.05 -569.018,1706.74C-539.547,1747.92 -524.433,1770.59 -522.544,1774.37C-510.076,1798.93 -503.652,1812.53 -503.275,1815.18C-502.897,1817.82 -503.275,1819.71 -504.408,1821.22L-504.03,1823.49C-503.275,1828.78 -497.607,1831.05 -486.272,1829.91L-482.116,1829.53C-473.048,1828.4 -467.758,1826.89 -465.491,1824.24C-459.068,1820.09 -456.423,1812.91 -457.935,1802.71C-457.935,1800.82 -460.579,1797.04 -465.869,1791.37ZM-296.599,1990.49C-298.111,1994.27 -298.489,1998.05 -297.733,2001.83C-297.355,2004.85 -295.844,2007.49 -293.955,2009.38C-290.176,2016.56 -286.02,2012.03 -281.864,2010.52C-279.219,2012.03 -275.819,2012.41 -272.418,2011.65C-267.506,2010.14 -254.66,2013.92 -250.504,2007.87C-247.481,2002.96 -245.97,1998.8 -246.725,1995.78L-247.859,1993.51L-249.748,1990.49L-257.683,1951.95C-261.839,1928.53 -264.484,1906.61 -265.995,1886.59C-266.373,1884.32 -266.751,1881.67 -266.373,1879.41C-266.373,1876.76 -266.373,1874.87 -266.751,1873.36C-267.128,1871.1 -268.262,1869.96 -269.395,1870.34L-270.151,1870.72C-279.219,1886.59 -286.398,1900.19 -292.443,1911.9C-296.599,1919.84 -299.244,1924.37 -299.622,1926.26C-299.244,1935.33 -298.111,1944.02 -296.599,1952.71C-296.977,1956.11 -296.599,1960.64 -295.844,1965.93C-295.844,1966.69 -295.466,1968.96 -294.71,1973.11C-293.955,1976.89 -293.955,1987.09 -294.332,1987.85L-296.599,1990.49Z" style="fill:rgb(0,136,68);fill-rule:nonzero;"/>
        </g>
    </g>
</svg>