<svg width="100%" height="100%" viewBox="0 0 150 200" version="1.1" xmlns="http://www.w3.org/2000/svg" xmlns:xlink="http://www.w3.org/1999/xlink" xml:space="preserve" xmlns:serif="http://www.serif.com/" fill-rule="evenodd" clip-rule="evenodd"><g transform="translate(179.093 -340.806)scale(1.32)"><g><path d="M-31.738 334.446c0 26.07-21.159 47.229-47.229 47.229-26.071 0-47.229-21.159-47.229-47.229 0-26.071 21.158-47.229 47.229-47.229s47.229 21.158 47.229 47.229Z" fill="none" fill-rule="nonzero" stroke="#339" stroke-width="5.21px"/><g><path d="M-38.917 334.446c0 21.914-17.758 40.05-40.05 40.05l-.38.002c-21.764 0-39.672-17.909-39.672-39.673l.001-.379c0-21.915 17.759-40.051 40.051-40.051s40.05 18.136 40.05 40.051Z" fill="none" fill-rule="nonzero" stroke="#084" stroke-width="6.16px"/><path d="M-78.967 294.773v13.602m-39.673 26.071h13.602m26.071 39.672v-13.602m39.672-26.07h-13.602m-54.03-27.96 9.446 9.446m-9.446 46.851 9.446-9.445m46.473 9.445-9.445-9.445m9.445-46.852-9.445 9.446m-33.628-18.136 5.29 12.468m-26.826 39.673 12.468-5.29m39.295 26.449-5.29-12.469m26.827-39.295-12.469 5.29m-60.831-5.29 12.468 5.29m9.068 46.474 5.29-12.469m46.474-8.69-12.469-5.29m-9.068-46.851-5.29 12.468" fill="none" fill-rule="nonzero" stroke="#084" stroke-width="5.67px"/></g></g><path d="M-51.008 334.446a27.897 27.897 0 0 1-27.959 27.96 27.897 27.897 0 0 1-27.96-27.96 27.897 27.897 0 0 1 27.96-27.96c15.491 0 27.959 12.846 27.959 27.96m-29.361-.737s-.529-6.427-5.063-10.957-10.957-5.063-10.957-5.063.529 6.427 5.063 10.957 10.957 5.063 10.957 5.063m2.139 0s6.687-.793 10.957-5.063c4.53-4.534 5.063-10.957 5.063-10.957s-6.688.793-10.958 5.063c-4.53 4.534-5.062 10.957-5.062 10.957m-1.871 1.87s-6.687.794-10.957 5.063c-4.53 4.534-5.063 10.957-5.063 10.957s6.688-.793 10.957-5.062c4.53-4.534 5.063-10.958 5.063-10.958m1.871.269s.528 6.427 5.062 10.957 10.958 5.063 10.958 5.063-.529-6.427-5.063-10.957-10.957-5.063-10.957-5.063" fill="#b32" fill-rule="nonzero"/><path d="M-51.008 334.446a27.897 27.897 0 0 1-27.959 27.96 27.897 27.897 0 0 1-27.96-27.96 27.897 27.897 0 0 1 27.96-27.96c15.491 0 27.959 12.846 27.959 27.96Z" fill="none" fill-rule="nonzero" stroke="#084" stroke-width="5.67px"/></g></svg>