<svg width="100%" height="100%" viewBox="0 0 150 200" version="1.1" xmlns="http://www.w3.org/2000/svg" xmlns:xlink="http://www.w3.org/1999/xlink" xml:space="preserve" fill-rule="evenodd" clip-rule="evenodd" stroke-linejoin="round" stroke-miterlimit="2"><g transform="translate(178.715 -340.806)scale(.265)"><path d="M-265.995 1518.95c0 69.53-56.297 125.82-126.196 125.82-69.9 0-126.197-56.29-126.197-125.82 0-69.52 56.297-125.81 126.197-125.81 69.899 0 126.196 56.29 126.196 125.81m-121.436-1.73s29.184-2.72 49.119-22.6c19.934-19.87 22.594-49.12 22.594-49.12s-29.184 2.72-49.118 22.6c-19.935 19.87-22.595 49.12-22.595 49.12m0 7.97s2.721 29.18 22.595 49.12 49.118 22.59 49.118 22.59-2.72-29.18-22.594-49.12c-19.874-19.93-49.119-22.59-49.119-22.59m-9.294-9.3s-2.721-29.18-22.595-49.11c-19.874-19.94-49.118-22.6-49.118-22.6s2.72 29.18 22.594 49.12 49.119 22.59 49.119 22.59m0 10.62s-29.184 2.72-49.119 22.6c-19.934 19.87-22.594 49.11-22.594 49.11s29.184-2.72 49.118-22.59 22.595-49.12 22.595-49.12" fill="#339" fill-rule="nonzero"/><path d="M-265.995 1812.084c0 69.53-56.297 125.82-126.196 125.82-69.9 0-126.197-56.29-126.197-125.82 0-69.52 56.297-125.81 126.197-125.81 69.899 0 126.196 56.29 126.196 125.81m-121.436-1.73s29.184-2.72 49.119-22.6c19.934-19.87 22.594-49.12 22.594-49.12s-29.184 2.72-49.118 22.6c-19.935 19.87-22.595 49.12-22.595 49.12m0 7.97s2.721 29.18 22.595 49.12 49.118 22.59 49.118 22.59-2.72-29.18-22.594-49.12c-19.874-19.93-49.119-22.59-49.119-22.59m-9.294-9.3s-2.721-29.18-22.595-49.11c-19.874-19.94-49.118-22.6-49.118-22.6s2.72 29.18 22.594 49.12 49.119 22.59 49.119 22.59m0 10.62s-29.184 2.72-49.119 22.6c-19.934 19.87-22.594 49.11-22.594 49.11s29.184-2.72 49.118-22.59 22.595-49.12 22.595-49.12" fill="#084" fill-rule="nonzero"/></g></svg>