<svg width="100%" height="100%" viewBox="0 0 150 200" version="1.1" xmlns="http://www.w3.org/2000/svg" xmlns:xlink="http://www.w3.org/1999/xlink" xml:space="preserve" fill-rule="evenodd" clip-rule="evenodd" stroke-linejoin="round" stroke-miterlimit="2"><g transform="matrix(.263 0 0 .265 176.826 -339.673)"><path d="M-289.327 1666.552c0 59.162-48.564 107.841-107.589 107.841-59.02 0-107.588-48.679-107.588-107.841 0-59.16 48.569-107.842 107.589-107.842 59.415 0 107.588 46.68 107.588 107.842m-103.933 3.557s2.273 25.036 19.303 42.11c17.034 17.074 42.015 19.349 42.015 19.349s-2.273-25.04-19.303-42.11c-17.034-17.075-42.015-19.35-42.015-19.35m0-9.107s24.981-2.275 42.015-19.345 19.304-42.114 19.304-42.114-24.982 2.279-42.016 19.349c-17.03 17.074-19.303 42.11-19.303 42.11m-7.948 1.141s-3.404-26.177-19.303-42.114c-17.03-17.07-42.012-19.349-42.012-19.349s2.27 25.04 19.304 42.115 42.011 19.348 42.011 19.348m0 6.83s-24.977 2.274-42.011 19.344-19.304 42.114-19.304 42.114 24.982-2.279 42.012-19.349c17.034-17.074 19.303-42.11 19.303-42.11" fill="#b32" fill-rule="nonzero"/><path d="M-421.946 1465.167c0 59.162-48.564 107.841-107.588 107.841-59.02 0-107.59-48.679-107.59-107.841 0-59.16 48.57-107.842 107.59-107.842 59.415 0 107.588 46.68 107.588 107.842m-111.881-4.41s-3.404-26.177-19.303-42.114c-17.03-17.07-42.012-19.349-42.012-19.349s2.27 25.04 19.304 42.115 42.011 19.348 42.011 19.348m0 6.83s-24.977 2.274-42.011 19.344-19.304 42.114-19.304 42.114 24.982-2.279 42.012-19.349c17.034-17.074 19.303-42.11 19.303-42.11m7.948 1.138s2.273 25.036 19.303 42.11c17.034 17.074 42.015 19.349 42.015 19.349s-2.273-25.04-19.303-42.11c-17.034-17.075-42.016-19.35-42.016-19.35m0-9.107s24.982-2.275 42.016-19.345 19.303-42.114 19.303-42.114-24.981 2.279-42.015 19.349c-17.03 17.074-19.303 42.11-19.303 42.11" fill="#339" fill-rule="nonzero"/><path d="M-139.327 1854.714c0 59.162-48.564 107.841-107.588 107.841-59.02 0-107.59-48.679-107.59-107.841 0-59.16 48.57-107.842 107.59-107.842 59.415 0 107.588 46.68 107.588 107.842m-103.933-5.551s24.981-2.275 42.015-19.345 19.304-42.114 19.304-42.114-24.982 2.279-42.016 19.349c-17.03 17.074-19.303 42.11-19.303 42.11m-7.948 7.97s-24.977 2.275-42.011 19.345-19.304 42.114-19.304 42.114 24.982-2.279 42.012-19.349c17.034-17.074 19.303-42.11 19.303-42.11m0-6.829s-3.404-26.177-19.303-42.114c-17.03-17.07-42.012-19.349-42.012-19.349s2.27 25.04 19.304 42.115 42.011 19.348 42.011 19.348m7.948 7.967s2.273 25.036 19.303 42.11c17.034 17.074 42.016 19.349 42.016 19.349s-2.274-25.04-19.304-42.11c-17.034-17.075-42.015-19.35-42.015-19.35" fill="#084" fill-rule="nonzero"/></g></svg>