<svg width="100%" height="100%" viewBox="0 0 150 200" version="1.1" xmlns="http://www.w3.org/2000/svg" xmlns:xlink="http://www.w3.org/1999/xlink" xml:space="preserve" fill-rule="evenodd" clip-rule="evenodd" stroke-linejoin="round" stroke-miterlimit="2"><g transform="matrix(1.31 0 0 1.32 396.725 -357.053)"><path d="M-204.087 312.247c0 10.332-8.502 18.834-18.834 18.834s-18.835-8.502-18.835-18.834 8.503-18.834 18.835-18.834 18.834 8.501 18.834 18.834m-19.6-1.266s-.399-4.373-3.38-7.355c-2.982-2.982-7.354-3.379-7.354-3.379s.397 4.373 3.378 7.355c2.982 2.982 7.356 3.379 7.356 3.379m1.39 1.391s.398 4.373 3.38 7.355c2.981 2.981 7.354 3.38 7.354 3.38s-.397-4.374-3.379-7.356c-2.981-2.98-7.354-3.379-7.354-3.379m-1.391-.199s-4.374.398-7.356 3.38c-2.98 2.982-3.378 7.354-3.378 7.354s4.372-.397 7.354-3.38c2.981-2.98 3.38-7.354 3.38-7.354m1.39-1.39s4.374-.398 7.355-3.38 3.38-7.355 3.38-7.355-4.374.398-7.355 3.38c-2.982 2.98-3.38 7.354-3.38 7.354" fill="#339" fill-rule="nonzero"/><path d="M-249.427 312.247c0 10.332-8.502 18.834-18.834 18.834s-18.835-8.502-18.835-18.834 8.503-18.834 18.835-18.834 18.834 8.501 18.834 18.834m-19.6-.074s-4.374.398-7.356 3.38c-2.98 2.982-3.378 7.354-3.378 7.354s4.372-.397 7.354-3.38c2.981-2.98 3.38-7.354 3.38-7.354m0-1.192s-.399-4.373-3.38-7.355c-2.982-2.982-7.354-3.379-7.354-3.379s.397 4.373 3.378 7.355c2.982 2.982 7.356 3.379 7.356 3.379m1.39-.199s4.374-.397 7.355-3.38c2.982-2.98 3.38-7.354 3.38-7.354s-4.374.398-7.355 3.38c-2.982 2.98-3.38 7.354-3.38 7.354m0 1.59s.398 4.373 3.38 7.355c2.981 2.981 7.354 3.38 7.354 3.38s-.397-4.374-3.379-7.356c-2.981-2.98-7.354-3.379-7.354-3.379" fill="#084" fill-rule="nonzero"/><path d="M-249.427 380.257c0 10.332-8.502 18.834-18.834 18.834s-18.835-8.502-18.835-18.834 8.503-18.834 18.835-18.834 18.834 8.501 18.834 18.834m-19.6-.074s-4.374.398-7.356 3.38c-2.98 2.982-3.378 7.354-3.378 7.354s4.372-.397 7.354-3.38c2.981-2.98 3.38-7.354 3.38-7.354m1.39-1.39s4.374-.398 7.355-3.38 3.38-7.355 3.38-7.355-4.374.398-7.355 3.38c-2.982 2.98-3.38 7.354-3.38 7.354m0 1.59s.398 4.373 3.38 7.355c2.981 2.981 7.354 3.38 7.354 3.38s-.397-4.374-3.379-7.356c-2.981-2.98-7.354-3.379-7.354-3.379m-1.391-1.391s-.399-4.373-3.38-7.355c-2.982-2.982-7.354-3.379-7.354-3.379s.397 4.373 3.378 7.355c2.982 2.982 7.356 3.379 7.356 3.379" fill="#339" fill-rule="nonzero"/><path d="M-204.087 380.257c0 10.332-8.502 18.834-18.834 18.834s-18.835-8.502-18.835-18.834 8.503-18.834 18.835-18.834 18.834 8.501 18.834 18.834m-18.21.125s.398 4.373 3.38 7.355c2.981 2.981 7.354 3.38 7.354 3.38s-.397-4.374-3.379-7.356c-2.981-2.98-7.354-3.379-7.354-3.379m-1.391-1.391s-.399-4.373-3.38-7.355c-2.982-2.982-7.354-3.379-7.354-3.379s.397 4.373 3.378 7.355c2.982 2.982 7.356 3.379 7.356 3.379m0 1.192s-4.374.398-7.356 3.38c-2.98 2.982-3.378 7.354-3.378 7.354s4.372-.397 7.354-3.38c2.981-2.98 3.38-7.354 3.38-7.354m1.39-1.39s4.374-.398 7.355-3.38 3.38-7.355 3.38-7.355-4.374.398-7.355 3.38c-2.982 2.98-3.38 7.354-3.38 7.354" fill="#084" fill-rule="nonzero"/></g></svg>