<svg width="100%" height="100%" viewBox="0 0 150 200" version="1.1" xmlns="http://www.w3.org/2000/svg" xmlns:xlink="http://www.w3.org/1999/xlink" xml:space="preserve" fill-rule="evenodd" clip-rule="evenodd" stroke-linejoin="round" stroke-miterlimit="2"><g transform="translate(389.169 -346.474)scale(1.32)"><path d="M-197.834 342.289c0 10.332-8.502 18.834-18.834 18.834s-18.834-8.502-18.834-18.834 8.502-18.834 18.834-18.834 18.834 8.502 18.834 18.834m-19.484.693s-4.373.398-7.355 3.38-3.379 7.354-3.379 7.354 4.373-.397 7.355-3.378c2.982-2.982 3.379-7.356 3.379-7.356m1.59 0s.398 4.374 3.379 7.356c2.982 2.98 7.354 3.378 7.354 3.378s-.397-4.372-3.378-7.354c-2.982-2.982-7.355-3.38-7.355-3.38m-.199-1.391s4.373-.397 7.355-3.38c2.981-2.98 3.379-7.354 3.379-7.354s-4.373.398-7.355 3.38c-2.98 2.98-3.379 7.354-3.379 7.354m-1.193 0s-.397-4.373-3.379-7.354c-2.981-2.982-7.354-3.38-7.354-3.38s.397 4.374 3.379 7.355c2.981 2.982 7.354 3.379 7.354 3.379" fill="#b32" fill-rule="nonzero"/><path d="M-241.285 342.289c0 10.332-8.502 18.834-18.834 18.834s-18.834-8.502-18.834-18.834 8.502-18.834 18.834-18.834 18.834 8.502 18.834 18.834m-19.484.693s-4.373.398-7.355 3.38-3.379 7.354-3.379 7.354 4.373-.397 7.355-3.378c2.982-2.982 3.379-7.356 3.379-7.356m1.391-1.391s4.373-.397 7.355-3.38c2.981-2.98 3.379-7.354 3.379-7.354s-4.373.398-7.355 3.38c-2.98 2.98-3.379 7.354-3.379 7.354m.199 1.391s.398 4.374 3.379 7.356c2.982 2.98 7.354 3.378 7.354 3.378s-.397-4.372-3.378-7.354c-2.982-2.982-7.355-3.38-7.355-3.38m-1.392-1.391s-.397-4.373-3.379-7.354c-2.981-2.982-7.354-3.38-7.354-3.38s.397 4.374 3.379 7.355c2.981 2.982 7.354 3.379 7.354 3.379" fill="#b32" fill-rule="nonzero"/><path d="M-197.834 382.944c0 10.332-8.502 18.834-18.834 18.834s-18.834-8.502-18.834-18.834 8.502-18.834 18.834-18.834 18.834 8.502 18.834 18.834m-19.484.693s-4.373.398-7.355 3.38-3.379 7.354-3.379 7.354 4.373-.397 7.355-3.378c2.982-2.982 3.379-7.356 3.379-7.356m1.391-1.391s4.373-.397 7.355-3.38c2.981-2.98 3.379-7.354 3.379-7.354s-4.373.398-7.355 3.38c-2.98 2.98-3.379 7.354-3.379 7.354m-1.193 0s-.397-4.373-3.379-7.354c-2.981-2.982-7.354-3.38-7.354-3.38s.397 4.374 3.379 7.355c2.981 2.982 7.354 3.379 7.354 3.379m1.392 1.391s.398 4.374 3.379 7.356c2.982 2.98 7.354 3.378 7.354 3.378s-.397-4.372-3.378-7.354c-2.982-2.982-7.355-3.38-7.355-3.38" fill="#b32" fill-rule="nonzero"/><path d="M-241.285 382.944c0 10.332-8.502 18.834-18.834 18.834s-18.834-8.502-18.834-18.834 8.502-18.834 18.834-18.834 18.834 8.502 18.834 18.834m-18.093-.698s4.373-.397 7.355-3.38c2.981-2.98 3.379-7.354 3.379-7.354s-4.373.398-7.355 3.38c-2.98 2.98-3.379 7.354-3.379 7.354m-1.193 0s-.397-4.373-3.379-7.354c-2.981-2.982-7.354-3.38-7.354-3.38s.397 4.374 3.379 7.355c2.981 2.982 7.354 3.379 7.354 3.379m1.392 1.391s.398 4.374 3.379 7.356c2.982 2.98 7.354 3.378 7.354 3.378s-.397-4.372-3.378-7.354c-2.982-2.982-7.355-3.38-7.355-3.38m-1.59 0s-4.373.398-7.355 3.38-3.379 7.354-3.379 7.354 4.373-.397 7.355-3.378c2.982-2.982 3.379-7.356 3.379-7.356" fill="#b32" fill-rule="nonzero"/><path d="M-197.834 295.626c0 10.332-8.502 18.834-18.834 18.834s-18.834-8.502-18.834-18.834 8.502-18.834 18.834-18.834 18.834 8.502 18.834 18.834m-18.06-.772s4.373-.397 7.355-3.379c2.982-2.981 3.38-7.354 3.38-7.354s-4.374.397-7.355 3.379c-2.982 2.981-3.38 7.354-3.38 7.354m-1.39 1.392s-4.374.398-7.356 3.379c-2.981 2.982-3.38 7.354-3.38 7.354s4.374-.397 7.356-3.378 3.38-7.355 3.38-7.355m0-1.59s-.399-4.373-3.38-7.355c-2.982-2.982-7.355-3.379-7.355-3.379s.398 4.373 3.38 7.354c2.981 2.982 7.354 3.38 7.354 3.38m1.392 1.391s.397 4.373 3.379 7.354c2.981 2.982 7.354 3.38 7.354 3.38s-.397-4.374-3.379-7.355-7.354-3.379-7.354-3.379" fill="#084" fill-rule="nonzero"/><path d="M-241.285 295.86c0 10.333-8.502 18.835-18.834 18.835s-18.834-8.502-18.834-18.834 8.502-18.834 18.834-18.834c10.401-.281 18.834 8.433 18.834 18.834m-18.06-1.006s4.373-.398 7.355-3.379c2.982-2.982 3.38-7.355 3.38-7.355s-4.374.398-7.355 3.38-3.38 7.354-3.38 7.354m-1.39-.199s-.399-4.373-3.38-7.354c-2.982-2.982-7.355-3.38-7.355-3.38s.398 4.374 3.38 7.355 7.354 3.379 7.354 3.379m1.392 1.392s.397 4.372 3.379 7.354c2.981 2.982 7.354 3.38 7.354 3.38s-.397-4.374-3.379-7.355-7.354-3.379-7.354-3.379m-1.392.199s-4.373.397-7.355 3.379c-2.981 2.981-3.38 7.354-3.38 7.354s4.374-.397 7.356-3.379 3.38-7.354 3.38-7.354" fill="#084" fill-rule="nonzero"/></g></svg>