<svg width="100%" height="100%" viewBox="0 0 150 200" version="1.1" xmlns="http://www.w3.org/2000/svg" xmlns:xlink="http://www.w3.org/1999/xlink" xml:space="preserve" fill-rule="evenodd" clip-rule="evenodd" stroke-linejoin="round" stroke-miterlimit="2"><g transform="translate(178.715 -341.184)scale(.265)"><path d="M-222.484 1737.959c0 41.244-33.824 75.183-74.933 75.183-41.105 0-74.932-33.939-74.932-75.183s33.827-75.186 74.932-75.186 74.933 33.939 74.933 75.186m-78.757 1.224s-17.399 1.586-29.26 13.49c-11.863 11.9-13.444 29.358-13.444 29.358s17.399-1.586 29.26-13.49c11.863-11.9 13.444-29.358 13.444-29.358m6.326 0s1.583 17.457 13.444 29.358c11.864 11.904 29.26 13.49 29.26 13.49s-1.581-17.458-13.442-29.359c-11.864-11.903-29.262-13.49-29.262-13.49m-5.536-5.553s-1.58-17.458-13.444-29.359c-11.86-11.904-29.26-13.49-29.26-13.49s1.581 17.455 13.445 29.359c11.86 11.904 29.26 13.49 29.26 13.49m4.744 0s17.4-1.586 29.26-13.49c11.864-11.904 13.444-29.359 13.444-29.359s-17.396 1.586-29.26 13.49c-11.863 11.901-13.444 29.359-13.444 29.359" fill="#b32" fill-rule="nonzero"/><path d="M-410.645 1737.959c0 41.244-33.824 75.183-74.933 75.183-41.105 0-74.932-33.939-74.932-75.183s33.827-75.186 74.932-75.186 74.933 33.939 74.933 75.186m-72.431 1.224s1.583 17.457 13.444 29.358c11.864 11.904 29.26 13.49 29.26 13.49s-1.581-17.458-13.442-29.359c-11.864-11.903-29.262-13.49-29.262-13.49m-6.326 0s-17.399 1.587-29.26 13.49c-11.863 11.901-13.444 29.359-13.444 29.359s17.399-1.586 29.26-13.49c11.863-11.9 13.444-29.358 13.444-29.358m.79-5.554s-1.58-17.458-13.444-29.359c-11.86-11.904-29.26-13.49-29.26-13.49s1.581 17.455 13.445 29.359c11.86 11.904 29.26 13.49 29.26 13.49m4.744 0s17.4-1.586 29.26-13.49c11.864-11.904 13.444-29.359 13.444-29.359s-17.396 1.586-29.26 13.49c-11.863 11.901-13.444 29.359-13.444 29.359" fill="#b32" fill-rule="nonzero"/><path d="M-222.484 1916.297c0 41.244-33.824 75.183-74.933 75.183-41.105 0-74.932-33.939-74.932-75.183s33.827-75.186 74.932-75.186 74.933 33.939 74.933 75.186m-73.222-4.33s17.4-1.586 29.26-13.49c11.864-11.904 13.444-29.359 13.444-29.359s-17.396 1.586-29.26 13.49c-11.863 11.901-13.444 29.359-13.444 29.359m.79 5.554s1.584 17.457 13.445 29.358c11.864 11.904 29.26 13.49 29.26 13.49s-1.581-17.458-13.442-29.359c-11.864-11.903-29.262-13.49-29.262-13.49m-6.326 0s-17.399 1.587-29.26 13.49c-11.863 11.901-13.444 29.359-13.444 29.359s17.399-1.586 29.26-13.49c11.863-11.9 13.444-29.358 13.444-29.358m.79-5.554s-1.58-17.458-13.444-29.359c-11.86-11.904-29.26-13.49-29.26-13.49s1.581 17.455 13.445 29.359c11.86 11.904 29.26 13.49 29.26 13.49" fill="#b32" fill-rule="nonzero"/><path d="M-410.645 1916.297c0 41.244-33.824 75.183-74.933 75.183-41.105 0-74.932-33.939-74.932-75.183s33.827-75.186 74.932-75.186 74.933 33.939 74.933 75.186m-72.431 1.224s1.583 17.457 13.444 29.358c11.864 11.904 29.26 13.49 29.26 13.49s-1.581-17.458-13.442-29.359c-11.864-11.903-29.262-13.49-29.262-13.49m-.79-5.553s17.398-1.586 29.259-13.49c11.864-11.904 13.444-29.359 13.444-29.359s-17.396 1.586-29.26 13.49c-11.863 11.901-13.444 29.359-13.444 29.359m-4.745 0s-1.58-17.458-13.444-29.359c-11.86-11.904-29.26-13.49-29.26-13.49s1.581 17.455 13.445 29.359c11.86 11.904 29.26 13.49 29.26 13.49m-.79 5.554s-17.4 1.586-29.26 13.49c-11.864 11.9-13.445 29.358-13.445 29.358s17.399-1.586 29.26-13.49c11.863-11.9 13.444-29.358 13.444-29.358" fill="#b32" fill-rule="nonzero"/><path d="M-316.565 1504.836c0 41.244-33.824 75.183-74.933 75.183-41.105 0-74.932-33.939-74.932-75.183s33.827-75.186 74.932-75.186 74.933 33.939 74.933 75.186m-72.431 1.224s1.583 17.457 13.444 29.358c11.864 11.904 29.26 13.49 29.26 13.49s-1.581-17.458-13.442-29.359c-11.864-11.903-29.262-13.49-29.262-13.49m-5.536-5.553s-1.58-17.458-13.444-29.359c-11.86-11.904-29.26-13.49-29.26-13.49s1.581 17.455 13.445 29.359c11.86 11.904 29.26 13.49 29.26 13.49m-.79 5.554s-17.4 1.586-29.26 13.49c-11.864 11.9-13.445 29.358-13.445 29.358s17.399-1.586 29.26-13.49c11.863-11.9 13.444-29.358 13.444-29.358m5.535-5.554s17.4-1.586 29.26-13.49c11.864-11.904 13.444-29.359 13.444-29.359s-17.396 1.586-29.26 13.49c-11.863 11.901-13.444 29.359-13.444 29.359" fill="#084" fill-rule="nonzero"/><path d="M-166.187 1580.025c0 41.244-33.824 75.183-74.933 75.183-41.105 0-74.932-33.939-74.932-75.183s33.827-75.186 74.932-75.186 74.933 33.939 74.933 75.186m-77.967-4.33s-1.58-17.458-13.444-29.359c-11.86-11.904-29.26-13.49-29.26-13.49s1.581 17.455 13.445 29.359c11.86 11.904 29.26 13.49 29.26 13.49m-.79 5.554s-17.4 1.586-29.26 13.49c-11.864 11.9-13.445 29.358-13.445 29.358s17.399-1.586 29.26-13.49c11.863-11.9 13.444-29.358 13.444-29.358m6.326 0s1.583 17.457 13.444 29.358c11.864 11.904 29.26 13.49 29.26 13.49s-1.581-17.458-13.442-29.359c-11.864-11.903-29.262-13.49-29.262-13.49m-.79-5.553s17.398-1.586 29.259-13.49c11.864-11.904 13.444-29.359 13.444-29.359s-17.396 1.586-29.26 13.49c-11.863 11.901-13.444 29.359-13.444 29.359" fill="#084" fill-rule="nonzero"/><path d="M-467.018 1429.383c0 41.244-33.824 75.183-74.933 75.183-41.105 0-74.932-33.939-74.932-75.183s33.827-75.186 74.932-75.186 74.933 33.939 74.933 75.186m-78.757 1.224s-17.399 1.586-29.26 13.49c-11.863 11.9-13.444 29.358-13.444 29.358s17.399-1.586 29.26-13.49c11.863-11.9 13.444-29.358 13.444-29.358m5.535-5.554s17.4-1.586 29.26-13.49c11.864-11.904 13.444-29.359 13.444-29.359s-17.396 1.586-29.26 13.49c-11.863 11.901-13.444 29.359-13.444 29.359m.79 5.554s1.584 17.457 13.445 29.358c11.864 11.904 29.26 13.49 29.26 13.49s-1.581-17.458-13.442-29.359c-11.864-11.903-29.262-13.49-29.262-13.49m-5.536-5.553s-1.58-17.458-13.444-29.359c-11.86-11.904-29.26-13.49-29.26-13.49s1.581 17.455 13.445 29.359c11.86 11.904 29.26 13.49 29.26 13.49" fill="#084" fill-rule="nonzero"/></g></svg>