<svg width="100%" height="100%" viewBox="0 0 150 200" version="1.1" xmlns="http://www.w3.org/2000/svg" xmlns:xlink="http://www.w3.org/1999/xlink" xml:space="preserve" fill-rule="evenodd" clip-rule="evenodd" stroke-linejoin="round" stroke-miterlimit="2"><g transform="translate(460.957 -336.272)scale(1.32)"><path d="M-259.194 312.909c0 8.313-6.801 15.114-15.113 15.114-8.313 0-15.114-6.801-15.114-15.114 0-8.312 6.801-15.113 15.114-15.113 8.312 0 15.113 6.801 15.113 15.113m-15.853.789s-3.5.318-5.886 2.704-2.704 5.885-2.704 5.885 3.499-.318 5.885-2.704 2.705-5.885 2.705-5.885m1.113-1.114s3.659-.477 5.886-2.704c2.386-2.386 2.704-5.885 2.704-5.885s-3.5.318-5.886 2.704-2.704 5.885-2.704 5.885m.159 1.114s.318 3.499 2.704 5.885 5.886 2.704 5.886 2.704-.318-3.499-2.704-5.885-5.886-2.704-5.886-2.704m-1.113-1.114s-.318-3.499-2.705-5.885-5.885-2.704-5.885-2.704.318 3.499 2.704 5.885 5.886 2.704 5.886 2.704" fill="#339" fill-rule="nonzero"/><path d="M-296.743 313.961c0 8.263-6.799 15.062-15.062 15.062s-15.063-6.8-15.063-15.062 6.8-15.062 15.063-15.062c8.318-.225 15.062 6.744 15.062 15.062m-15.672-.866s-.318-3.497-2.703-5.882-5.881-2.702-5.881-2.702.318 3.497 2.702 5.882 5.882 2.702 5.882 2.702m-.159 1.113s-3.497.318-5.882 2.702-2.702 5.882-2.702 5.882 3.497-.318 5.882-2.702 2.702-5.882 2.702-5.882m1.272 0s.318 3.497 2.702 5.882 5.882 2.702 5.882 2.702-.318-3.497-2.702-5.882-5.882-2.702-5.882-2.702m-.16-1.113s3.657-.477 5.882-2.702c2.385-2.385 2.703-5.882 2.703-5.882s-3.497.318-5.882 2.702-2.702 5.882-2.702 5.882" fill="#339" fill-rule="nonzero"/><path d="M-259.194 277.456c0 8.313-6.801 15.114-15.113 15.114-8.313 0-15.114-6.801-15.114-15.114 0-8.312 6.801-15.113 15.114-15.113 8.312 0 15.113 6.801 15.113 15.113m-15.694-.388s-.318-3.499-2.705-5.885-5.885-2.704-5.885-2.704.318 3.499 2.704 5.885 5.886 2.704 5.886 2.704m.954 0s3.659-.477 5.886-2.704c2.386-2.386 2.704-5.885 2.704-5.885s-3.5.318-5.886 2.704-2.704 5.885-2.704 5.885m-1.113 1.114s-3.5.318-5.886 2.704-2.704 5.885-2.704 5.885 3.499-.318 5.885-2.704 2.705-5.885 2.705-5.885m1.272 0s.318 3.499 2.704 5.885 5.886 2.704 5.886 2.704-.318-3.499-2.704-5.885-5.886-2.704-5.886-2.704" fill="#339" fill-rule="nonzero"/><path d="M-296.743 278.444c0 8.263-6.799 15.062-15.062 15.062s-15.063-6.8-15.063-15.062 6.8-15.062 15.063-15.062c8.318-.225 15.062 6.744 15.062 15.062m-15.83.247s-3.498.318-5.883 2.702-2.702 5.882-2.702 5.882 3.497-.318 5.882-2.702 2.702-5.882 2.702-5.882m1.113-1.113s3.656-.477 5.881-2.702c2.385-2.385 2.703-5.882 2.703-5.882s-3.497.318-5.882 2.702-2.702 5.882-2.702 5.882m.159 1.113s.318 3.497 2.702 5.882 5.882 2.702 5.882 2.702-.318-3.497-2.702-5.882-5.882-2.702-5.882-2.702m-1.113-1.113s-.318-3.497-2.703-5.882-5.881-2.702-5.881-2.702.318 3.497 2.702 5.882 5.882 2.702 5.882 2.702" fill="#339" fill-rule="nonzero"/><path d="M-259.194 348.489c0 8.313-6.801 15.114-15.113 15.114-8.313 0-15.114-6.801-15.114-15.114 0-8.312 6.801-15.113 15.114-15.113 8.312 0 15.113 6.801 15.113 15.113m-15.853.726s-3.5.318-5.886 2.704-2.704 5.885-2.704 5.885 3.499-.318 5.885-2.704 2.705-5.885 2.705-5.885m1.113-1.114s3.659-.477 5.886-2.704c2.386-2.386 2.704-5.885 2.704-5.885s-3.5.318-5.886 2.704-2.704 5.885-2.704 5.885m.159 1.114s.318 3.499 2.704 5.885 5.886 2.704 5.886 2.704-.318-3.499-2.704-5.885-5.886-2.704-5.886-2.704m-1.113-1.114s-.318-3.499-2.705-5.885-5.885-2.704-5.885-2.704.318 3.499 2.704 5.885 5.886 2.704 5.886 2.704" fill="#339" fill-rule="nonzero"/><path d="M-296.743 349.364c0 8.263-6.799 15.062-15.062 15.062s-15.063-6.8-15.063-15.062 6.8-15.062 15.063-15.062c8.318-.225 15.062 6.744 15.062 15.062m-14.56.247s.319 3.497 2.703 5.882 5.882 2.702 5.882 2.702-.318-3.497-2.702-5.882-5.882-2.702-5.882-2.702m-1.113-1.113s-.318-3.497-2.703-5.882-5.881-2.702-5.881-2.702.318 3.497 2.702 5.882 5.882 2.702 5.882 2.702m-.159 1.113s-3.497.318-5.882 2.702-2.702 5.882-2.702 5.882 3.497-.318 5.882-2.702 2.702-5.882 2.702-5.882m1.113-1.113s3.656-.477 5.881-2.702c2.385-2.385 2.703-5.882 2.703-5.882s-3.497.318-5.882 2.702-2.702 5.882-2.702 5.882" fill="#339" fill-rule="nonzero"/><path d="M-259.194 384.005c0 8.313-6.801 15.114-15.113 15.114-8.313 0-15.114-6.801-15.114-15.114 0-8.312 6.801-15.113 15.114-15.113 8.312 0 15.113 6.801 15.113 15.113m-15.694-.388s-.318-3.499-2.705-5.885-5.885-2.704-5.885-2.704.318 3.499 2.704 5.885 5.886 2.704 5.886 2.704m-.159 1.114s-3.5.318-5.886 2.704-2.704 5.885-2.704 5.885 3.499-.318 5.885-2.704 2.705-5.885 2.705-5.885m1.113-1.114s3.659-.477 5.886-2.704c2.386-2.386 2.704-5.885 2.704-5.885s-3.5.318-5.886 2.704-2.704 5.885-2.704 5.885m.159 1.114s.318 3.499 2.704 5.885 5.886 2.704 5.886 2.704-.318-3.499-2.704-5.885-5.886-2.704-5.886-2.704" fill="#339" fill-rule="nonzero"/><path d="M-296.743 384.88c0 8.263-6.799 15.062-15.062 15.062s-15.063-6.8-15.063-15.062 6.8-15.062 15.063-15.062c8.318-.225 15.062 6.744 15.062 15.062m-14.718-.866s3.656-.477 5.881-2.702c2.385-2.385 2.703-5.882 2.703-5.882s-3.497.318-5.882 2.702-2.702 5.882-2.702 5.882m.159 1.113s.318 3.497 2.702 5.882 5.882 2.702 5.882 2.702-.318-3.497-2.702-5.882-5.882-2.702-5.882-2.702m-1.113-1.113s-.318-3.497-2.703-5.882-5.881-2.702-5.881-2.702.318 3.497 2.702 5.882 5.882 2.702 5.882 2.702m-.159 1.113s-3.497.318-5.882 2.702-2.702 5.882-2.702 5.882 3.497-.318 5.882-2.702 2.702-5.882 2.702-5.882" fill="#339" fill-rule="nonzero"/></g></svg>