<svg width="100%" height="100%" viewBox="0 0 150 200" version="1.1" xmlns="http://www.w3.org/2000/svg" xmlns:xlink="http://www.w3.org/1999/xlink" xml:space="preserve" fill-rule="evenodd" clip-rule="evenodd" stroke-linejoin="round" stroke-miterlimit="2"><g transform="translate(373.678 -329.093)scale(1.32)"><path d="M-211.73 325.976c0 8.263-6.8 15.062-15.063 15.062s-15.063-6.8-15.063-15.062 6.8-15.062 15.063-15.062 15.062 6.799 15.062 15.062m-15.83.247s-3.498.318-5.883 2.702-2.702 5.882-2.702 5.882 3.497-.318 5.882-2.702 2.702-5.882 2.702-5.882m1.113-1.113s3.656-.477 5.881-2.702c2.385-2.385 2.703-5.882 2.703-5.882s-3.497.318-5.882 2.702-2.702 5.882-2.702 5.882m.159 1.113s.318 3.497 2.702 5.882 5.882 2.702 5.882 2.702-.318-3.497-2.702-5.882-5.882-2.702-5.882-2.702m-1.113-1.113s-.318-3.497-2.703-5.882-5.881-2.702-5.881-2.702.318 3.497 2.702 5.882 5.882 2.702 5.882 2.702" fill="#b32" fill-rule="nonzero"/><path d="M-177.726 325.976c0 8.263-6.799 15.062-15.062 15.062s-15.063-6.8-15.063-15.062 6.8-15.062 15.063-15.062 15.062 6.799 15.062 15.062m-15.83.247s-3.498.318-5.883 2.702-2.702 5.882-2.702 5.882 3.497-.318 5.882-2.702 2.702-5.882 2.702-5.882m1.113-1.113s3.656-.477 5.881-2.702c2.385-2.385 2.703-5.882 2.703-5.882s-3.497.318-5.882 2.702-2.702 5.882-2.702 5.882m.159 1.113s.318 3.497 2.702 5.882 5.882 2.702 5.882 2.702-.318-3.497-2.702-5.882-5.882-2.702-5.882-2.702m-1.113-1.113s-.318-3.497-2.703-5.882-5.881-2.702-5.881-2.702.318 3.497 2.702 5.882 5.882 2.702 5.882 2.702" fill="#b32" fill-rule="nonzero"/><path d="M-245.736 325.976c0 8.263-6.799 15.062-15.062 15.062s-15.063-6.8-15.063-15.062 6.8-15.062 15.063-15.062c8.318-.225 15.062 6.744 15.062 15.062m-15.672-.866s-.318-3.497-2.703-5.882-5.881-2.702-5.881-2.702.318 3.497 2.702 5.882 5.882 2.702 5.882 2.702m-.159 1.113s-3.497.318-5.882 2.702-2.702 5.882-2.702 5.882 3.497-.318 5.882-2.702 2.702-5.882 2.702-5.882m1.113-1.113s3.656-.477 5.881-2.702c2.385-2.385 2.703-5.882 2.703-5.882s-3.497.318-5.882 2.702-2.702 5.882-2.702 5.882m.159 1.113s.318 3.497 2.702 5.882 5.882 2.702 5.882 2.702-.318-3.497-2.702-5.882-5.882-2.702-5.882-2.702" fill="#b32" fill-rule="nonzero"/><path d="M-211.73 282.525c0 8.263-6.8 15.062-15.063 15.062s-15.063-6.8-15.063-15.062 6.8-15.062 15.063-15.062 15.062 6.799 15.062 15.062m-14.56.247s.319 3.497 2.703 5.882 5.882 2.702 5.882 2.702-.318-3.497-2.702-5.882-5.882-2.702-5.882-2.702m-1.113-1.113s-.318-3.497-2.703-5.882-5.881-2.702-5.881-2.702.318 3.497 2.702 5.882 5.882 2.702 5.882 2.702m-.159 1.113s-3.497.318-5.882 2.702-2.702 5.882-2.702 5.882 3.497-.318 5.882-2.702 2.702-5.882 2.702-5.882m1.113-1.113s3.656-.477 5.881-2.702c2.385-2.385 2.703-5.882 2.703-5.882s-3.497.318-5.882 2.702-2.702 5.882-2.702 5.882" fill="#339" fill-rule="nonzero"/><path d="M-177.726 282.525c0 8.263-6.799 15.062-15.062 15.062s-15.063-6.8-15.063-15.062 6.8-15.062 15.063-15.062 15.062 6.799 15.062 15.062m-14.718-.866s3.656-.477 5.881-2.702c2.385-2.385 2.703-5.882 2.703-5.882s-3.497.318-5.882 2.702-2.702 5.882-2.702 5.882m.159 1.113s.318 3.497 2.702 5.882 5.882 2.702 5.882 2.702-.318-3.497-2.702-5.882-5.882-2.702-5.882-2.702m-1.113-1.113s-.318-3.497-2.703-5.882-5.881-2.702-5.881-2.702.318 3.497 2.702 5.882 5.882 2.702 5.882 2.702m-.159 1.113s-3.497.318-5.882 2.702-2.702 5.882-2.702 5.882 3.497-.318 5.882-2.702 2.702-5.882 2.702-5.882" fill="#339" fill-rule="nonzero"/><path d="M-245.736 282.525c0 8.263-6.799 15.062-15.062 15.062s-15.063-6.8-15.063-15.062 6.8-15.062 15.063-15.062c8.318-.225 15.062 6.744 15.062 15.062m-14.56.247s.319 3.497 2.703 5.882 5.882 2.702 5.882 2.702-.318-3.497-2.702-5.882-5.882-2.702-5.882-2.702m-1.113-1.113s-.318-3.497-2.703-5.882-5.881-2.702-5.881-2.702.318 3.497 2.702 5.882 5.882 2.702 5.882 2.702m.954 0s3.656-.477 5.881-2.702c2.385-2.385 2.703-5.882 2.703-5.882s-3.497.318-5.882 2.702-2.702 5.882-2.702 5.882m-1.113 1.113s-3.497.318-5.882 2.702-2.702 5.882-2.702 5.882 3.497-.318 5.882-2.702 2.702-5.882 2.702-5.882" fill="#339" fill-rule="nonzero"/><path d="M-211.73 369.39c0 8.262-6.8 15.06-15.063 15.06s-15.063-6.798-15.063-15.06 6.8-15.063 15.063-15.063 15.062 6.799 15.062 15.062m-15.672-.866s-.318-3.497-2.703-5.882-5.881-2.702-5.881-2.702.318 3.497 2.702 5.882 5.882 2.702 5.882 2.702m-.159 1.113s-3.497.318-5.882 2.702-2.702 5.882-2.702 5.882 3.497-.318 5.882-2.702 2.702-5.882 2.702-5.882m1.272 0s.318 3.497 2.702 5.882 5.882 2.702 5.882 2.702-.318-3.497-2.702-5.882-5.882-2.702-5.882-2.702m-.16-1.113s3.657-.477 5.882-2.702c2.385-2.385 2.703-5.882 2.703-5.882s-3.497.318-5.882 2.702-2.702 5.882-2.702 5.882" fill="#084" fill-rule="nonzero"/><path d="M-177.726 369.39c0 8.262-6.799 15.06-15.062 15.06s-15.063-6.798-15.063-15.06 6.8-15.063 15.063-15.063 15.062 6.799 15.062 15.062m-15.672-.866s-.318-3.497-2.703-5.882-5.881-2.702-5.881-2.702.318 3.497 2.702 5.882 5.882 2.702 5.882 2.702m1.113 1.113s.318 3.497 2.702 5.882 5.882 2.702 5.882 2.702-.318-3.497-2.702-5.882-5.882-2.702-5.882-2.702m-1.272 0s-3.497.318-5.882 2.702-2.702 5.882-2.702 5.882 3.497-.318 5.882-2.702 2.702-5.882 2.702-5.882m1.113-1.113s3.656-.477 5.881-2.702c2.385-2.385 2.703-5.882 2.703-5.882s-3.497.318-5.882 2.702-2.702 5.882-2.702 5.882" fill="#084" fill-rule="nonzero"/><path d="M-245.736 369.39c0 8.262-6.799 15.06-15.062 15.06s-15.063-6.798-15.063-15.06 6.8-15.063 15.063-15.063c8.318-.225 15.062 6.744 15.062 15.062m-14.56.247s.319 3.497 2.703 5.882 5.882 2.702 5.882 2.702-.318-3.497-2.702-5.882-5.882-2.702-5.882-2.702m-.16-1.113s3.657-.477 5.882-2.702c2.385-2.385 2.703-5.882 2.703-5.882s-3.497.318-5.882 2.702-2.702 5.882-2.702 5.882m-.954 0s-.318-3.497-2.703-5.882-5.881-2.702-5.881-2.702.318 3.497 2.702 5.882 5.882 2.702 5.882 2.702m-.159 1.113s-3.497.318-5.882 2.702-2.702 5.882-2.702 5.882 3.497-.318 5.882-2.702 2.702-5.882 2.702-5.882" fill="#084" fill-rule="nonzero"/></g></svg>