<svg id="svg" version="1.1" xmlns="http://www.w3.org/2000/svg" xmlns:xlink="http://www.w3.org/1999/xlink" width="400" height="225.04000000000002" viewBox="0, 0, 400,225.04000000000002"><g id="svgg"><path id="path0" d="M274.417 5.234 C 270.202 6.276,266.950 11.989,266.486 19.167 C 265.338 36.921,274.535 44.408,301.186 47.412 C 309.084 48.303,309.683 48.476,314.183 51.172 C 318.014 53.466,320.951 54.333,324.890 54.333 C 329.374 54.333,330.100 53.626,329.511 49.831 C 328.953 46.235,327.399 45.136,321.399 44.096 C 314.114 42.833,313.236 41.911,312.001 34.225 C 311.356 30.218,308.872 28.833,305.789 30.761 C 303.832 31.985,303.185 33.852,303.172 38.311 L 303.167 40.205 302.125 40.136 C 300.106 40.000,295.542 37.812,293.831 36.158 C 290.767 33.198,290.714 29.697,293.670 25.583 C 295.403 23.173,295.575 22.340,294.635 20.922 C 293.253 18.835,291.036 18.504,288.141 19.952 C 284.780 21.634,283.139 24.965,282.250 31.917 C 281.850 35.042,281.722 35.137,280.289 33.375 C 276.066 28.184,275.997 21.603,280.099 14.986 C 282.160 11.662,282.526 10.105,281.656 8.365 C 280.339 5.728,277.458 4.483,274.417 5.234 M368.083 29.826 C 359.834 31.596,355.789 43.144,360.931 50.247 C 362.982 53.081,363.991 53.625,368.040 54.084 C 369.877 54.292,370.598 54.446,371.216 54.765 C 372.166 55.255,372.430 55.171,372.078 54.490 C 371.717 53.791,370.720 53.191,369.571 52.980 C 367.549 52.610,366.442 52.310,365.690 51.927 C 359.624 48.845,358.777 39.557,364.078 34.241 C 366.611 31.700,368.794 31.104,369.088 32.873 C 369.409 34.807,370.766 35.574,372.180 34.621 C 375.275 32.535,372.205 28.942,368.083 29.826 M325.250 35.330 C 323.393 35.592,318.744 36.981,316.042 38.081 C 314.387 38.755,316.280 41.041,319.352 42.081 L 320.750 42.554 327.833 42.673 C 334.563 42.787,334.967 42.812,335.917 43.161 C 340.396 44.809,340.198 44.813,339.331 43.083 C 336.843 38.119,330.444 34.596,325.250 35.330 M265.667 37.491 C 265.667 38.094,266.999 41.512,268.074 43.667 C 274.546 56.643,286.541 63.253,299.878 61.191 C 302.017 60.860,302.123 60.733,301.567 59.167 C 300.479 56.101,301.181 54.099,304.243 51.542 L 305.069 50.851 304.613 50.678 C 303.974 50.435,299.991 50.048,295.083 49.752 C 280.353 48.863,276.995 47.565,268.228 39.375 C 265.887 37.189,265.667 37.027,265.667 37.491 M375.044 37.413 C 371.025 38.544,368.871 42.045,370.392 44.973 C 371.879 47.836,373.491 48.515,379.750 48.916 C 384.444 49.216,384.930 49.271,386.492 49.687 C 388.515 50.225,391.196 51.817,391.821 52.850 C 391.965 53.089,392.210 53.464,392.366 53.683 C 392.704 54.163,392.996 55.841,393.001 57.333 C 393.005 58.303,393.195 59.040,393.386 58.829 C 394.975 57.076,394.029 52.819,391.493 50.311 C 389.384 48.226,387.788 47.730,381.917 47.339 C 375.074 46.883,373.352 46.310,372.752 44.287 C 371.941 41.559,373.461 39.625,376.615 39.372 C 377.816 39.276,377.845 39.321,377.252 40.358 C 375.824 42.856,379.174 44.367,380.999 42.047 C 383.206 39.241,379.313 36.212,375.044 37.413 M346.546 39.091 C 346.452 39.270,346.323 40.047,346.258 40.817 C 346.036 43.437,346.030 43.439,343.890 41.563 C 342.227 40.106,340.822 39.171,340.292 39.168 C 339.924 39.166,339.910 39.042,340.506 41.047 C 341.062 42.916,341.500 45.183,341.500 46.188 C 341.500 47.040,341.450 47.036,338.228 45.905 C 333.849 44.368,330.450 43.747,329.042 44.228 C 328.491 44.416,328.549 44.536,329.887 45.990 C 332.806 49.159,333.438 52.822,331.758 56.815 C 329.328 62.587,323.882 65.943,315.500 66.834 C 312.599 67.143,312.449 67.267,314.037 68.043 C 315.387 68.702,317.892 69.326,320.494 69.653 C 323.101 69.980,323.213 70.078,322.225 71.172 C 319.349 74.355,314.412 76.336,304.708 78.199 C 303.666 78.399,303.558 78.740,304.458 78.994 C 307.734 79.917,311.566 80.371,316.042 80.366 C 319.155 80.362,319.833 80.403,319.833 80.591 C 319.833 81.051,316.533 83.533,313.750 85.165 C 312.925 85.649,311.856 86.275,311.375 86.557 C 310.894 86.840,310.500 87.159,310.500 87.267 C 310.500 87.668,313.273 88.466,318.212 89.489 C 321.322 90.133,321.396 90.165,324.231 92.153 C 331.427 97.199,335.793 98.454,342.083 97.285 C 347.655 96.250,350.294 96.999,354.583 100.834 C 357.263 103.230,358.731 103.972,361.083 104.123 C 366.795 104.488,372.516 98.463,372.571 92.025 C 372.586 90.225,372.452 90.163,371.448 91.509 C 369.621 93.958,368.814 94.469,366.541 94.616 C 364.247 94.765,364.154 94.666,363.843 91.747 C 363.635 89.794,363.070 88.167,362.600 88.167 C 362.461 88.167,362.033 88.706,361.649 89.364 C 359.487 93.066,356.590 93.626,351.417 91.342 C 348.079 89.869,347.325 89.767,343.917 90.331 C 338.770 91.183,336.186 90.733,333.561 88.528 C 327.675 83.585,327.777 78.328,333.848 73.755 C 338.426 70.307,343.896 69.659,354.833 71.269 C 361.527 72.255,367.089 71.369,369.243 68.973 C 370.114 68.004,370.196 67.632,369.982 65.645 C 369.784 63.805,369.907 61.798,370.338 59.833 C 370.732 58.041,370.789 58.074,368.326 58.676 C 361.765 60.282,357.848 60.314,353.210 58.800 C 350.409 57.886,349.931 57.489,350.792 56.794 C 353.483 54.619,354.886 51.706,355.117 47.817 C 355.268 45.279,354.533 41.527,353.678 40.474 L 353.361 40.083 353.282 40.500 C 352.390 45.199,350.837 48.434,350.323 46.667 C 348.941 41.907,347.051 38.118,346.546 39.091 M260.743 46.602 C 258.815 67.171,289.792 81.525,316.203 72.303 C 318.254 71.586,318.191 71.471,315.247 70.579 C 312.032 69.604,309.503 68.391,308.075 67.137 C 306.964 66.162,307.206 66.067,312.250 65.503 C 321.338 64.485,326.005 62.308,328.770 57.793 C 329.514 56.578,329.456 56.512,327.883 56.769 C 323.352 57.512,319.402 56.766,315.921 54.512 C 310.399 50.934,305.487 50.833,303.827 54.263 C 301.818 58.413,307.680 63.396,311.020 60.379 C 313.697 57.961,311.280 54.720,308.017 56.351 C 306.856 56.931,306.698 56.910,307.056 56.224 C 309.010 52.483,314.342 54.584,314.141 59.016 C 314.018 61.707,313.021 62.181,306.794 62.502 C 303.996 62.646,302.992 62.768,301.387 63.158 C 288.019 66.411,274.905 61.257,264.088 48.500 C 260.966 44.818,260.913 44.788,260.743 46.602 M378.042 51.424 C 375.530 52.101,374.073 53.676,373.402 56.440 C 373.250 57.069,372.932 57.921,372.696 58.333 C 368.543 65.591,374.289 71.012,380.174 65.390 C 381.649 63.980,381.372 64.044,383.617 64.595 C 389.143 65.953,392.770 60.665,388.593 57.341 C 387.405 56.395,386.905 55.793,386.274 54.548 C 384.940 51.915,381.321 50.541,378.042 51.424 M344.167 52.923 C 345.525 53.604,346.112 55.806,345.341 57.319 C 344.153 59.647,340.845 59.756,339.708 57.505 C 338.312 54.742,341.422 51.547,344.167 52.923 M260.056 61.080 C 260.194 62.705,260.811 65.421,261.591 67.833 C 268.804 90.149,296.689 103.140,316.667 93.491 C 319.737 92.008,319.740 91.810,316.701 91.345 C 312.234 90.660,307.283 89.319,305.034 88.184 C 303.659 87.490,303.708 87.202,305.250 86.924 C 307.771 86.469,312.335 83.960,311.747 83.352 C 311.653 83.256,310.753 83.062,309.747 82.922 C 306.012 82.402,302.761 81.667,297.917 80.247 C 296.542 79.844,292.642 78.759,289.250 77.836 C 274.030 73.693,271.067 71.974,262.417 62.270 C 259.913 59.462,259.920 59.465,260.056 61.080 M389.666 64.750 C 387.303 66.323,385.236 66.630,382.869 65.760 L 381.654 65.313 380.452 66.432 C 378.366 68.372,376.507 68.984,373.699 68.656 C 371.935 68.451,371.821 68.494,371.527 69.477 C 371.268 70.342,370.303 71.249,368.630 72.203 C 366.560 73.383,366.709 73.258,367.005 73.566 C 367.943 74.542,372.488 74.214,376.148 72.906 C 378.133 72.197,378.168 72.232,378.418 75.150 C 378.557 76.777,378.626 77.000,378.985 77.000 C 379.931 77.000,383.084 74.212,384.167 72.419 C 385.165 70.766,385.621 70.383,386.759 70.245 C 391.276 69.696,396.543 66.450,396.302 64.364 C 396.244 63.867,396.234 63.865,394.543 64.121 C 393.584 64.266,392.164 64.180,391.377 63.931 C 391.151 63.859,390.633 64.107,389.666 64.750 M340.281 71.847 C 339.407 72.056,337.218 72.974,336.452 73.452 C 335.130 74.276,333.268 79.500,334.295 79.500 C 335.238 79.500,338.822 76.575,340.401 74.518 C 342.121 72.276,342.082 71.415,340.281 71.847 M355.917 78.256 C 353.252 78.750,350.971 79.405,345.167 81.339 C 336.890 84.098,334.180 84.584,332.083 83.685 C 330.635 83.064,330.445 83.190,331.031 84.384 C 333.462 89.341,340.367 90.333,346.058 86.544 C 347.293 85.721,347.997 85.306,349.417 84.561 C 349.875 84.321,350.273 84.064,350.301 83.991 C 350.386 83.774,353.662 82.217,354.823 81.843 C 360.709 79.947,367.082 80.825,372.381 84.260 C 374.569 85.678,374.548 85.065,372.333 82.817 C 368.781 79.211,361.569 77.208,355.917 78.256 M259.190 82.301 C 255.179 86.390,253.272 89.550,251.978 94.250 C 251.059 97.588,251.246 104.524,252.352 108.106 C 252.778 109.483,252.881 109.388,253.492 107.059 C 254.421 103.517,255.410 101.753,256.754 101.240 C 259.916 100.032,260.923 103.636,259.576 111.333 C 258.386 118.133,259.207 120.603,264.297 125.542 C 265.921 127.117,266.089 127.146,266.247 125.881 C 266.562 123.361,267.555 121.723,269.002 121.333 C 270.863 120.832,271.922 122.061,274.864 128.139 C 277.952 134.519,279.958 136.892,283.965 138.903 C 285.091 139.468,285.144 139.421,285.122 137.873 C 285.082 134.934,287.145 132.929,289.914 133.214 C 292.327 133.463,293.799 135.290,296.054 140.833 C 297.433 144.225,297.632 144.637,298.599 146.103 C 300.314 148.702,305.771 153.135,305.089 151.375 C 303.577 147.470,303.848 144.223,305.791 142.991 C 309.711 140.505,314.681 144.327,314.664 149.814 C 314.655 152.590,313.738 154.525,310.429 158.750 C 307.610 162.349,306.898 165.593,309.272 164.020 C 313.203 161.416,316.659 166.798,313.953 171.311 C 312.841 173.165,310.101 175.203,308.413 175.432 C 307.200 175.596,307.058 175.656,306.862 176.087 C 306.599 176.663,306.616 179.141,306.885 179.667 C 307.548 180.958,311.960 178.914,314.685 176.052 C 321.195 169.218,322.503 157.488,317.873 147.479 C 315.739 142.867,313.837 141.485,302.199 136.090 C 279.242 125.448,270.402 117.832,264.951 104.000 C 261.266 94.651,260.354 89.692,260.940 82.208 C 261.078 80.445,261.007 80.449,259.190 82.301 M262.966 81.371 C 262.574 82.058,262.690 87.829,263.147 90.417 C 263.944 94.927,266.641 103.715,267.489 104.563 L 267.825 104.899 268.704 104.271 C 269.188 103.925,270.308 103.157,271.195 102.564 C 273.853 100.785,278.249 95.630,278.599 93.880 C 278.722 93.266,278.612 93.177,275.676 91.504 C 270.682 88.660,268.212 86.642,264.752 82.583 C 263.369 80.962,263.247 80.879,262.966 81.371 M321.020 94.827 C 319.170 97.682,314.552 99.413,306.557 100.249 C 303.008 100.619,302.751 100.785,304.505 101.572 C 312.521 105.170,327.612 104.683,333.678 100.633 C 335.181 99.629,335.084 99.528,331.677 98.580 C 328.768 97.771,325.284 96.233,322.953 94.729 C 321.564 93.833,321.668 93.828,321.020 94.827 M280.014 94.792 C 278.876 96.208,276.333 100.398,276.333 100.857 C 276.333 102.991,285.958 103.183,290.128 101.132 C 293.849 99.302,293.503 98.578,288.049 96.780 C 285.932 96.083,283.499 95.210,282.642 94.840 C 280.731 94.016,280.638 94.014,280.014 94.792 M341.467 99.508 C 339.781 99.694,339.562 99.823,337.233 102.018 C 334.822 104.290,333.975 104.918,331.174 106.509 C 328.829 107.841,328.666 108.054,329.930 108.138 C 334.646 108.451,348.034 105.132,350.005 103.162 C 351.645 101.521,345.823 99.030,341.467 99.508 M291.500 102.326 C 290.904 102.578,289.558 103.114,288.510 103.517 C 286.328 104.356,285.334 105.111,285.332 105.933 C 285.331 106.199,285.144 107.497,284.915 108.817 C 284.347 112.101,284.356 112.430,285.021 112.563 C 289.063 113.371,298.176 110.179,298.165 107.958 C 298.161 107.318,293.354 101.814,292.830 101.850 C 292.694 101.860,292.096 102.074,291.500 102.326 M272.500 103.519 C 270.330 104.986,268.500 106.449,268.500 106.717 C 268.500 107.915,275.248 117.016,276.689 117.762 C 278.816 118.862,283.414 111.304,283.781 106.105 C 283.902 104.401,283.930 104.425,281.607 104.260 C 279.661 104.122,278.120 103.752,276.091 102.934 C 274.229 102.183,274.556 102.130,272.500 103.519 M354.149 105.785 C 353.910 105.949,353.175 106.721,352.516 107.500 C 351.856 108.279,350.627 109.566,349.784 110.359 C 348.002 112.036,348.013 112.095,350.123 112.048 C 355.750 111.922,360.415 110.455,364.312 107.586 C 365.677 106.581,365.532 106.444,363.355 106.680 C 361.126 106.923,358.262 106.663,356.595 106.066 C 354.946 105.476,354.649 105.442,354.149 105.785 M210.500 106.830 C 209.446 106.899,208.490 106.966,208.375 106.978 C 207.896 107.029,208.231 107.492,209.161 108.066 C 211.455 109.482,212.684 112.160,211.840 113.904 C 210.385 116.909,206.048 117.188,198.408 114.770 C 190.242 112.185,186.214 111.882,182.000 113.536 C 179.571 114.489,175.679 117.075,176.083 117.466 C 176.175 117.554,177.112 117.826,178.167 118.069 C 184.732 119.584,187.253 123.625,182.917 125.683 C 181.111 126.540,179.860 126.775,172.763 127.590 C 165.931 128.375,160.593 131.021,158.753 134.535 C 158.079 135.821,158.215 136.081,159.460 135.894 C 164.453 135.142,167.673 136.213,167.955 138.718 C 168.223 141.096,165.490 142.865,159.806 143.995 C 153.265 145.294,150.206 146.983,148.108 150.455 C 146.955 152.362,147.025 152.451,149.949 152.815 C 156.644 153.648,155.779 162.250,149.000 162.250 C 146.870 162.250,146.038 161.710,142.782 158.210 C 140.899 156.185,137.797 155.140,139.049 156.952 C 141.725 160.827,138.192 166.242,134.238 164.327 C 131.581 163.041,131.520 159.195,134.052 152.583 C 137.430 143.762,137.654 136.926,134.719 132.292 C 134.144 131.383,133.696 130.925,133.662 131.208 C 133.659 131.231,133.591 132.150,133.511 133.250 C 133.227 137.154,131.980 139.109,129.873 138.954 C 127.444 138.774,127.000 137.533,127.000 130.916 C 127.000 123.410,126.343 121.475,122.496 117.645 C 119.857 115.019,119.479 114.926,119.921 117.012 C 120.864 121.457,117.294 121.746,111.509 117.693 C 104.459 112.753,98.469 112.113,91.603 115.568 C 89.503 116.625,89.459 116.831,91.271 117.112 C 95.145 117.713,97.316 119.773,96.249 121.835 C 95.373 123.530,90.616 124.384,85.589 123.749 C 80.662 123.127,78.237 123.728,74.533 126.492 C 72.335 128.131,72.238 128.407,73.794 128.587 C 79.034 129.192,80.652 131.590,77.322 133.814 C 75.402 135.097,74.061 135.399,69.083 135.671 C 64.619 135.915,63.109 136.286,61.417 137.556 C 60.952 137.905,61.017 137.931,63.147 138.242 C 67.766 138.915,68.900 139.703,69.402 142.590 C 69.675 144.159,69.585 144.105,70.859 143.461 C 72.763 142.498,75.776 140.169,79.727 136.605 C 89.913 127.418,96.566 123.257,103.385 121.808 C 117.625 118.783,126.173 129.421,128.584 153.167 C 129.941 166.539,132.680 170.500,140.569 170.500 C 147.725 170.500,150.773 168.233,160.172 155.917 C 171.517 141.053,176.517 136.410,187.917 130.158 C 200.869 123.055,208.401 120.661,217.128 120.874 C 221.846 120.989,225.563 122.330,236.667 127.926 C 248.411 133.845,253.164 138.246,264.917 154.083 C 266.278 155.917,268.207 158.517,269.204 159.862 C 271.677 163.197,272.853 164.277,275.888 166.001 C 279.138 167.847,279.955 168.667,281.720 171.861 C 284.805 177.444,289.973 180.877,292.320 178.902 C 293.134 178.217,293.006 177.929,291.664 177.416 C 287.534 175.837,286.309 173.488,285.013 164.663 C 283.913 157.164,283.148 155.193,280.857 153.946 C 279.818 153.380,279.841 153.334,279.769 156.113 C 279.665 160.108,278.549 161.833,276.070 161.833 C 273.736 161.833,273.072 160.304,272.667 154.000 C 272.296 148.226,271.630 145.552,269.521 141.375 C 268.379 139.112,265.103 135.820,262.855 134.677 C 261.922 134.202,261.794 134.349,262.021 135.636 C 262.566 138.731,260.189 140.751,257.511 139.469 C 254.446 138.002,252.594 134.201,251.318 126.764 C 249.533 116.354,247.019 112.387,241.024 110.524 C 237.998 109.584,237.938 109.638,239.502 111.880 C 242.051 115.532,242.717 118.164,241.583 120.099 C 240.173 122.505,238.014 121.492,234.079 116.578 C 229.868 111.319,225.930 108.757,219.583 107.145 C 218.058 106.758,213.815 106.611,210.500 106.830 M298.856 109.996 C 295.237 112.489,295.241 112.482,296.138 114.460 C 296.992 116.343,297.095 116.695,297.492 119.065 C 297.922 121.637,297.950 121.667,299.901 121.666 C 305.224 121.664,308.875 119.737,312.102 115.229 C 313.323 113.524,313.154 113.279,310.333 112.660 C 308.820 112.328,306.420 111.528,303.301 110.314 C 299.792 108.949,300.320 108.987,298.856 109.996 M9.292 112.610 C 8.318 112.730,8.521 113.038,10.375 114.260 C 13.318 116.198,14.766 117.931,15.590 120.500 C 15.837 121.270,15.903 122.365,16.003 127.333 C 16.153 134.748,16.200 134.962,18.493 138.478 C 19.873 140.594,19.873 140.597,18.958 140.846 C 17.222 141.320,16.627 141.559,15.719 142.149 C 14.129 143.183,12.889 144.750,13.229 145.299 C 13.280 145.382,14.206 145.494,15.286 145.547 C 19.041 145.731,20.743 146.811,23.707 150.886 C 26.247 154.381,27.879 156.145,30.167 157.868 C 31.155 158.613,31.118 158.771,29.831 159.302 C 27.818 160.133,25.500 161.569,25.500 161.987 C 25.500 162.057,26.269 162.398,27.208 162.744 C 28.148 163.089,29.929 163.841,31.167 164.415 C 42.597 169.715,49.512 169.574,56.537 163.899 C 58.460 162.345,58.408 161.914,56.263 161.647 C 52.713 161.207,43.269 157.419,40.549 155.344 C 40.072 154.980,39.469 154.573,39.210 154.439 C 37.850 153.736,34.091 149.926,32.722 147.864 C 30.185 144.042,25.520 132.424,26.235 131.709 C 26.385 131.559,27.172 132.437,27.547 133.174 C 28.199 134.452,32.700 139.473,35.678 142.243 C 41.428 147.591,53.940 151.322,57.311 148.694 L 57.705 148.386 57.107 147.485 C 56.249 146.191,55.736 144.817,55.072 142.032 C 54.750 140.685,54.291 138.763,54.050 137.760 C 53.196 134.201,51.451 131.755,48.552 130.056 C 47.577 129.485,47.555 129.559,48.227 131.188 C 50.302 136.214,48.920 141.075,45.861 139.514 C 44.256 138.695,43.038 136.744,40.930 131.615 C 38.448 125.575,36.143 122.849,32.371 121.495 C 31.011 121.006,30.957 121.112,31.880 122.463 C 34.255 125.939,34.262 128.890,31.896 128.623 C 30.404 128.455,29.507 127.396,26.893 122.723 C 24.662 118.734,23.809 117.579,22.093 116.221 C 18.767 113.588,13.474 112.095,9.292 112.610 M373.583 112.613 C 371.543 112.787,368.726 113.465,368.083 113.937 C 367.782 114.158,367.750 114.376,367.747 116.216 C 367.744 118.417,367.526 119.196,366.556 120.467 L 366.122 121.036 366.578 122.476 C 368.600 128.866,365.196 132.364,361.157 128.047 C 358.842 125.572,358.793 124.021,360.948 121.344 C 362.271 119.701,362.131 119.489,360.275 120.322 C 356.265 122.121,354.000 125.191,354.000 128.827 C 354.000 129.606,354.005 129.612,355.105 130.346 C 355.980 130.930,356.342 131.309,356.844 132.167 C 357.711 133.650,358.138 134.167,358.495 134.167 C 361.054 134.167,363.085 136.161,363.835 139.411 C 364.252 141.217,364.384 141.378,366.095 142.169 C 370.156 144.046,371.801 151.677,369.737 159.071 C 369.086 161.405,369.081 161.328,369.999 163.250 C 371.815 167.056,371.507 169.424,368.640 173.680 C 366.466 176.908,365.500 178.967,365.500 180.374 C 365.500 180.915,364.981 180.931,364.541 180.403 C 362.681 178.171,362.582 175.595,364.182 171.125 C 365.009 168.816,365.303 167.231,364.967 166.896 C 364.588 166.517,364.268 167.028,363.757 168.833 C 362.885 171.907,361.257 174.177,358.991 175.477 C 357.362 176.410,357.228 176.251,358.147 174.476 C 359.290 172.266,359.372 170.744,358.575 166.500 C 357.965 163.249,358.697 161.305,360.982 160.105 C 361.627 159.766,362.201 159.412,362.259 159.319 C 362.636 158.709,355.793 150.278,353.502 148.530 C 352.529 147.788,352.413 148.017,352.738 150.036 C 353.961 157.636,353.429 168.587,351.582 173.833 C 351.340 174.521,351.101 175.214,351.052 175.375 C 350.902 175.858,351.452 176.477,352.802 177.340 C 353.507 177.791,354.196 178.259,354.333 178.380 C 354.471 178.500,354.790 178.729,355.042 178.887 C 355.656 179.272,355.632 179.637,354.851 181.792 C 353.478 185.582,353.090 187.312,353.089 189.667 C 353.087 192.738,353.550 193.073,355.603 191.483 C 358.304 189.393,359.557 189.098,360.333 190.371 C 361.333 192.011,360.535 193.087,356.830 195.094 C 350.692 198.419,349.564 201.088,351.821 206.941 C 352.687 209.187,352.812 209.196,353.840 207.085 C 355.619 203.434,357.137 202.589,364.417 201.197 C 367.568 200.595,369.870 199.368,371.688 197.323 C 372.920 195.936,372.999 195.919,373.003 197.042 C 373.008 198.783,373.621 198.748,375.270 196.912 C 379.306 192.421,380.537 188.996,380.569 182.167 C 380.589 177.810,380.234 177.008,376.619 173.235 L 374.874 171.414 375.097 169.165 C 375.321 166.899,375.557 162.054,375.813 154.462 C 375.991 149.200,375.936 149.286,377.988 151.069 C 378.662 151.655,379.210 152.000,379.467 152.000 C 380.737 152.000,387.351 146.073,386.751 145.473 C 386.712 145.435,385.946 145.467,385.049 145.546 C 379.433 146.041,376.400 143.287,378.562 139.657 C 379.411 138.233,379.417 138.158,378.801 136.799 C 378.316 135.728,378.250 135.414,378.251 134.167 L 378.252 132.750 380.035 129.373 C 382.781 124.172,383.898 122.728,385.986 121.674 C 387.150 121.086,389.409 120.449,389.841 120.586 C 389.994 120.634,390.216 120.558,390.334 120.416 C 391.210 119.360,384.932 117.403,382.271 117.902 C 380.884 118.162,378.030 121.531,377.412 123.638 C 376.294 127.449,373.906 129.709,372.617 128.176 C 371.948 127.381,371.750 126.218,371.750 123.083 C 371.750 117.914,372.541 116.580,377.262 113.782 C 378.786 112.879,377.025 112.320,373.583 112.613 M291.833 113.946 C 290.249 114.413,287.386 114.547,284.943 114.267 L 283.636 114.118 281.632 116.174 C 279.488 118.375,278.767 119.307,278.918 119.682 C 279.269 120.554,292.440 128.964,293.587 129.048 C 294.876 129.144,295.951 125.427,295.770 121.500 C 295.577 117.311,294.437 113.444,293.417 113.517 C 293.325 113.524,292.612 113.717,291.833 113.946 M314.988 114.466 C 314.052 115.296,311.000 119.550,311.000 120.024 C 311.000 120.190,311.287 121.059,311.639 121.955 C 311.990 122.851,312.487 124.169,312.743 124.885 C 313.347 126.577,313.596 126.752,314.927 126.413 C 319.174 125.333,326.935 119.359,326.059 117.845 C 325.596 117.045,318.632 114.280,316.523 114.059 C 315.618 113.965,315.524 113.990,314.988 114.466 M325.184 121.899 L 322.122 124.965 322.407 126.858 C 323.306 132.826,323.543 133.667,324.330 133.667 C 326.999 133.667,332.487 129.915,335.421 126.085 C 336.538 124.626,336.540 124.559,335.483 123.770 C 333.880 122.573,328.446 118.833,328.310 118.833 C 328.275 118.833,326.868 120.213,325.184 121.899 M308.417 121.435 C 305.727 122.870,304.864 123.106,301.750 123.253 C 299.166 123.376,298.439 123.468,298.109 123.715 C 297.801 123.945,296.519 128.313,296.383 129.596 L 296.293 130.442 300.521 132.160 C 306.038 134.401,308.702 135.280,309.237 135.036 C 311.389 134.056,311.584 123.775,309.493 121.531 C 309.088 121.097,309.057 121.094,308.417 121.435 M213.766 123.018 C 213.225 123.096,212.644 123.286,212.475 123.440 C 211.453 124.364,213.024 129.095,215.072 131.260 C 216.116 132.365,216.412 132.398,216.818 131.458 C 217.557 129.751,220.153 128.154,223.231 127.514 C 224.912 127.165,225.787 126.709,226.177 125.980 C 227.042 124.365,218.503 122.326,213.766 123.018 M107.824 123.491 C 106.990 123.744,106.661 124.022,106.262 124.810 C 105.260 126.788,104.884 130.155,105.562 131.083 C 105.738 131.323,105.898 131.324,107.336 131.091 C 108.238 130.945,109.960 130.834,111.346 130.834 L 113.776 130.833 115.027 129.542 C 117.153 127.348,117.182 127.196,115.685 126.097 C 113.270 124.324,109.356 123.027,107.824 123.491 M207.833 123.767 C 199.126 126.294,195.989 127.741,196.004 129.221 C 196.019 130.712,198.727 133.528,201.472 134.907 C 202.797 135.572,203.059 135.472,203.194 134.250 C 203.538 131.156,205.934 128.302,209.220 127.072 C 210.769 126.493,210.887 126.340,210.753 125.083 C 210.537 123.058,210.436 123.012,207.833 123.767 M103.250 124.020 C 100.803 124.582,98.458 125.690,97.604 126.687 C 95.540 129.099,95.988 133.046,98.643 135.835 C 99.841 137.095,99.748 137.130,101.845 134.629 C 103.898 132.180,103.852 132.298,103.899 129.333 C 103.933 127.211,103.992 126.755,104.386 125.583 C 104.999 123.765,104.908 123.639,103.250 124.020 M227.446 126.467 C 226.185 127.861,225.646 132.732,226.554 134.531 C 227.028 135.471,227.392 135.508,228.888 134.770 C 230.428 134.010,232.475 133.517,234.634 133.386 L 236.352 133.282 237.009 132.364 C 238.070 130.883,237.976 130.790,232.766 128.164 C 228.819 126.173,227.960 125.900,227.446 126.467 M334.667 129.509 C 330.839 133.424,330.967 133.210,331.094 135.500 C 331.262 138.543,331.436 138.833,333.079 138.833 C 336.635 138.833,343.500 135.654,343.500 134.008 C 343.500 133.416,338.598 126.281,338.147 126.217 C 338.021 126.199,336.454 127.681,334.667 129.509 M318.917 126.768 C 313.247 128.434,313.526 128.240,312.754 131.057 C 312.435 132.220,311.985 133.719,311.754 134.390 C 311.018 136.521,310.990 136.473,314.778 139.508 C 318.418 142.424,318.326 142.418,319.585 139.793 C 321.069 136.702,321.605 133.211,321.207 129.231 C 320.930 126.458,320.724 126.237,318.917 126.768 M92.917 128.601 C 86.478 132.191,85.443 133.754,87.985 136.050 C 90.007 137.876,91.630 137.954,92.168 136.250 C 92.475 135.279,93.037 134.229,93.908 133.004 C 94.752 131.814,94.920 131.324,95.086 129.555 C 95.291 127.365,95.203 127.327,92.917 128.601 M209.458 128.332 C 204.017 131.088,203.041 136.751,207.295 140.882 L 207.946 141.515 209.848 139.625 C 211.767 137.719,213.018 136.878,214.750 136.329 C 215.591 136.063,215.661 135.950,215.664 134.853 C 215.667 133.991,214.907 132.833,214.339 132.833 C 214.126 132.833,212.431 130.531,211.823 129.417 C 210.845 127.623,210.852 127.626,209.458 128.332 M223.250 128.827 C 220.187 129.590,218.759 130.512,217.890 132.290 C 216.914 134.284,217.329 138.556,218.656 140.195 L 218.960 140.571 219.605 140.120 C 219.960 139.872,220.737 139.287,221.333 138.819 C 221.929 138.352,223.110 137.595,223.957 137.138 C 225.808 136.138,225.749 136.220,225.330 135.242 C 225.057 134.606,224.975 133.955,224.902 131.852 C 224.807 129.118,224.739 128.488,224.538 128.518 C 224.471 128.528,223.892 128.667,223.250 128.827 M116.973 129.726 C 114.460 131.773,112.665 134.831,112.386 137.542 L 112.294 138.433 114.183 138.898 C 116.414 139.449,117.293 139.863,118.469 140.920 L 119.339 141.703 120.814 141.338 C 123.097 140.774,123.398 140.534,123.290 139.364 C 122.995 136.173,120.115 130.085,118.507 129.254 C 117.876 128.927,118.000 128.889,116.973 129.726 M192.893 129.842 C 188.954 131.904,186.850 133.152,186.103 133.868 L 185.285 134.652 185.388 135.524 C 185.610 137.398,187.094 139.352,189.651 141.138 C 191.629 142.519,191.616 142.533,191.804 138.750 C 191.952 135.777,192.089 135.410,193.826 133.354 C 195.220 131.703,195.271 131.566,194.908 130.412 C 194.486 129.072,194.406 129.049,192.893 129.842 M239.082 132.140 C 237.442 133.141,235.678 137.443,235.670 140.464 C 235.666 141.737,235.311 141.620,239.500 141.728 L 242.917 141.816 245.250 139.480 L 247.583 137.143 247.083 136.727 C 246.340 136.108,239.927 131.833,239.742 131.834 C 239.655 131.834,239.358 131.972,239.082 132.140 M108.250 132.479 C 105.457 133.284,102.167 135.789,102.167 137.111 C 102.167 138.552,109.273 139.105,110.449 137.756 C 110.816 137.335,112.167 133.474,112.167 132.846 C 112.167 132.119,110.154 131.930,108.250 132.479 M195.401 133.496 C 194.599 133.820,193.491 135.671,193.172 137.219 C 192.638 139.804,194.047 142.746,196.372 143.905 C 197.892 144.662,198.137 144.519,198.496 142.667 C 198.751 141.349,199.318 140.232,200.349 139.021 C 201.714 137.415,201.718 137.407,201.507 137.014 C 201.214 136.465,196.212 133.251,195.797 133.344 C 195.771 133.350,195.593 133.418,195.401 133.496 M327.378 134.358 C 326.439 134.714,325.215 135.052,324.657 135.111 C 323.405 135.241,323.574 134.998,321.598 139.523 C 319.336 144.701,319.464 143.986,320.426 146.078 C 321.727 148.905,321.888 148.939,324.179 146.866 C 327.565 143.801,329.256 140.344,329.453 136.081 C 329.572 133.488,329.605 133.515,327.378 134.358 M94.512 134.606 C 93.762 135.559,92.934 139.441,93.306 140.257 C 93.540 140.770,93.551 140.768,95.917 139.712 C 98.546 138.539,98.645 138.317,97.321 136.567 C 95.303 133.901,95.150 133.794,94.512 134.606 M232.833 134.904 C 227.705 136.042,225.635 139.268,226.898 144.155 C 227.366 145.964,227.600 146.028,229.679 144.914 C 230.451 144.499,231.737 143.825,232.535 143.415 C 234.333 142.492,234.363 142.435,234.513 139.627 C 234.616 137.700,234.709 137.149,235.099 136.156 C 235.714 134.590,235.294 134.358,232.833 134.904 M83.561 136.141 C 83.023 136.595,81.723 137.835,80.673 138.897 L 78.762 140.827 79.328 141.411 C 80.130 142.239,82.374 143.316,83.412 143.372 L 84.240 143.417 84.373 142.417 C 84.618 140.582,85.035 138.928,85.538 137.801 L 86.036 136.685 85.726 136.051 C 85.261 135.098,84.772 135.119,83.561 136.141 M182.406 136.058 C 178.133 138.502,172.820 143.303,173.080 144.485 C 173.518 146.479,178.561 149.500,181.452 149.500 C 182.291 149.500,182.273 149.597,181.744 147.940 C 180.610 144.390,180.849 142.494,182.807 139.470 C 184.471 136.902,184.248 135.005,182.406 136.058 M344.333 135.962 C 343.681 136.181,339.953 138.941,339.732 139.368 C 339.597 139.629,339.300 140.487,339.072 141.275 C 338.843 142.062,338.280 143.648,337.821 144.798 C 336.795 147.363,336.802 147.443,338.083 148.083 C 341.514 149.799,351.350 146.970,349.410 144.826 C 349.269 144.670,348.231 142.676,347.104 140.396 C 345.033 136.207,344.785 135.810,344.333 135.962 M86.950 138.191 C 85.853 138.805,85.829 145.098,86.921 146.003 C 87.298 146.317,87.803 145.998,89.543 144.346 C 92.349 141.681,92.445 139.855,89.831 138.879 C 88.110 138.235,87.241 138.028,86.950 138.191 M213.231 138.492 C 210.735 139.924,208.333 143.789,208.333 146.375 L 208.333 147.691 209.208 147.599 C 209.690 147.549,211.498 147.460,213.226 147.402 L 216.369 147.296 216.759 146.440 C 217.161 145.556,218.000 142.816,218.000 142.387 C 218.000 142.056,216.389 139.091,215.881 138.488 C 215.318 137.819,214.401 137.821,213.231 138.492 M201.894 139.550 C 200.107 141.437,199.754 142.742,199.862 147.057 C 199.930 149.812,200.129 150.449,200.894 150.367 C 201.378 150.315,204.965 148.806,205.611 148.383 C 206.345 147.902,207.184 144.437,206.842 143.297 C 206.688 142.782,204.276 139.310,203.418 138.366 C 203.259 138.192,202.956 138.427,201.894 139.550 M223.750 138.713 C 220.566 140.423,217.372 145.927,218.808 147.227 C 219.533 147.883,224.996 148.984,225.591 148.594 C 226.547 147.967,226.594 147.492,225.905 145.440 C 225.312 143.671,225.279 143.456,225.203 140.875 C 225.113 137.820,225.192 137.938,223.750 138.713 M247.959 138.990 C 246.365 140.001,243.872 142.770,243.072 144.416 C 242.400 145.802,241.780 148.169,242.026 148.415 C 242.304 148.693,250.783 150.178,251.267 150.034 C 251.878 149.852,254.914 147.852,255.875 147.000 L 256.547 146.403 255.536 145.196 C 253.967 143.322,249.660 138.700,249.385 138.594 C 248.958 138.430,248.751 138.488,247.959 138.990 M183.840 140.184 C 180.650 144.587,183.578 150.667,188.888 150.667 L 189.596 150.667 189.873 148.375 C 190.026 147.115,190.298 145.658,190.478 145.138 C 190.871 144.007,190.867 144.001,189.250 142.942 C 188.608 142.521,187.411 141.575,186.590 140.839 C 184.837 139.268,184.552 139.200,183.840 140.184 M30.500 139.740 C 30.500 139.780,30.998 140.736,31.606 141.865 C 34.749 147.694,36.650 150.015,40.455 152.670 C 41.855 153.646,41.870 153.543,40.747 150.709 C 39.632 147.893,40.163 148.526,34.024 142.708 C 31.210 140.041,30.500 139.443,30.500 139.740 M336.667 140.015 C 335.870 140.233,334.934 140.314,333.126 140.322 L 330.669 140.333 329.766 142.135 C 328.545 144.568,328.077 145.156,324.885 148.254 C 321.321 151.712,321.319 151.730,324.404 151.797 C 331.130 151.943,335.954 148.095,337.782 141.126 C 338.149 139.728,338.056 139.635,336.667 140.015 M107.333 140.263 C 107.333 140.408,108.017 142.017,108.853 143.840 C 110.548 147.537,110.384 147.363,112.356 147.568 L 113.294 147.665 114.481 146.179 C 115.134 145.361,116.212 144.193,116.876 143.584 L 118.083 142.475 117.500 141.976 C 117.179 141.701,116.717 141.370,116.474 141.242 C 114.702 140.305,107.333 139.516,107.333 140.263 M121.917 142.480 C 119.822 143.238,117.770 144.580,116.262 146.179 C 114.837 147.689,114.851 147.881,116.439 148.569 C 118.154 149.311,119.587 150.200,121.059 151.433 L 122.348 152.514 123.966 152.086 C 126.239 151.484,126.285 151.368,125.663 147.725 C 124.788 142.594,124.134 141.678,121.917 142.480 M74.333 144.251 C 70.855 146.653,70.850 146.660,71.886 147.598 C 73.024 148.627,74.370 149.245,75.484 149.248 L 76.386 149.250 76.872 148.083 C 78.481 144.225,78.700 142.804,77.743 142.437 C 77.260 142.252,77.117 142.328,74.333 144.251 M237.917 143.436 C 233.899 144.156,229.232 146.491,227.725 148.534 C 227.055 149.442,227.197 149.625,229.500 150.813 L 231.583 151.887 232.500 151.302 C 233.779 150.485,234.930 150.092,237.773 149.501 C 239.126 149.219,240.247 148.973,240.264 148.953 C 240.443 148.740,241.839 144.042,241.801 143.781 C 241.709 143.150,240.238 143.019,237.917 143.436 M192.508 144.322 C 191.185 146.181,191.185 150.430,192.509 153.125 C 193.356 154.849,193.541 154.812,197.556 152.120 L 198.529 151.468 198.415 150.442 C 198.070 147.338,197.670 146.149,196.917 145.993 C 196.246 145.854,195.457 145.433,194.229 144.560 C 193.018 143.699,192.958 143.690,192.508 144.322 M79.852 144.760 C 78.723 145.710,77.626 151.845,78.344 153.188 C 78.578 153.624,78.795 153.496,82.066 151.002 C 86.521 147.604,86.618 145.823,82.407 144.781 C 80.505 144.310,80.388 144.309,79.852 144.760 M170.228 146.708 C 167.311 149.731,164.333 153.795,164.333 154.752 C 164.333 156.458,170.262 158.539,173.249 157.882 C 174.148 157.684,174.146 157.413,173.238 156.244 C 171.168 153.582,170.928 151.767,172.227 148.582 L 172.807 147.160 172.364 146.622 C 171.505 145.576,171.313 145.584,170.228 146.708 M367.274 147.450 C 367.224 147.707,367.137 148.854,367.080 150.000 C 366.776 156.110,365.679 158.857,362.755 160.830 C 360.253 162.519,359.809 163.529,360.133 166.805 C 360.239 167.875,360.372 169.369,360.430 170.125 C 360.488 170.881,360.596 171.500,360.672 171.500 C 360.933 171.500,361.622 169.744,361.980 168.167 C 362.709 164.956,363.937 163.820,365.779 164.656 C 367.623 165.494,367.714 167.283,366.127 171.500 C 364.772 175.100,364.766 175.538,366.088 174.208 C 369.705 170.569,370.513 166.835,368.523 162.956 L 367.687 161.328 368.086 160.456 C 369.597 157.146,369.631 151.235,368.156 148.098 C 367.667 147.058,367.388 146.853,367.274 147.450 M66.833 148.100 C 65.184 148.455,62.266 149.492,61.743 149.909 L 61.277 150.280 61.987 151.050 C 63.615 152.816,65.840 154.333,66.801 154.333 C 67.393 154.333,67.586 154.118,68.587 152.333 C 69.024 151.554,69.671 150.511,70.024 150.015 C 71.375 148.118,70.154 147.386,66.833 148.100 M256.260 148.506 C 253.228 150.043,249.167 154.527,249.167 156.336 C 249.167 156.706,249.292 156.753,251.835 157.327 C 252.982 157.586,254.621 158.068,255.477 158.399 C 257.429 159.153,257.227 159.174,258.861 158.055 C 259.620 157.534,260.931 156.787,261.775 156.393 C 263.898 155.400,263.907 155.660,261.634 152.299 C 258.893 148.246,258.006 147.621,256.260 148.506 M349.667 148.286 C 346.334 149.431,345.662 149.914,343.645 152.611 C 341.866 154.988,341.158 155.681,339.542 156.627 C 338.219 157.400,338.250 157.553,339.917 158.449 C 344.027 160.659,350.439 161.338,351.338 159.658 C 351.867 158.669,350.895 149.314,350.178 148.498 C 350.034 148.334,349.804 148.239,349.667 148.286 M173.591 148.599 C 173.276 148.914,173.007 149.837,172.887 151.012 C 172.507 154.742,176.155 157.433,180.901 156.924 C 182.668 156.735,182.663 156.751,182.145 153.119 C 181.892 151.342,181.788 151.249,179.417 150.667 C 177.975 150.312,176.917 149.921,175.627 149.265 C 174.051 148.463,173.807 148.383,173.591 148.599 M41.565 149.369 C 41.786 150.472,42.994 152.646,43.905 153.578 C 45.071 154.773,45.377 154.779,46.547 153.625 C 47.035 153.144,47.787 152.504,48.217 152.203 C 49.248 151.483,49.229 151.444,47.625 150.995 C 46.040 150.551,43.672 149.680,42.689 149.178 C 41.691 148.669,41.434 148.713,41.565 149.369 M335.199 149.208 C 334.915 149.415,334.248 149.927,333.716 150.348 C 331.903 151.782,329.719 152.770,327.489 153.164 C 324.726 153.652,324.569 153.890,326.230 155.075 C 331.610 158.914,338.824 157.524,342.606 151.919 C 343.519 150.566,343.471 150.517,341.071 150.325 C 339.627 150.209,339.054 150.073,337.651 149.510 C 335.669 148.715,335.849 148.737,335.199 149.208 M111.234 149.281 C 110.911 149.345,110.870 149.524,110.692 151.642 C 110.181 157.744,110.315 157.999,114.177 158.263 L 115.750 158.371 117.602 156.311 C 118.621 155.177,119.706 153.958,120.014 153.602 L 120.575 152.954 119.912 152.379 C 118.109 150.812,112.372 148.607,111.613 149.189 C 111.597 149.202,111.426 149.243,111.234 149.281 M71.330 150.792 C 69.671 152.672,68.341 156.758,69.271 157.115 C 69.677 157.270,70.982 156.898,73.583 155.887 C 76.704 154.673,76.928 154.401,76.490 152.358 C 76.262 151.296,76.026 151.100,74.246 150.499 C 72.286 149.836,72.162 149.849,71.330 150.792 M240.234 150.669 C 236.485 151.145,233.000 152.370,233.000 153.213 C 233.000 154.511,237.577 158.840,238.692 158.596 C 238.907 158.548,240.321 158.211,241.833 157.846 C 243.346 157.482,245.143 157.091,245.828 156.978 C 247.314 156.733,247.436 156.623,248.643 154.445 C 249.676 152.578,249.871 151.788,249.364 151.516 C 247.988 150.780,243.007 150.318,240.234 150.669 M57.957 150.848 C 57.613 150.929,56.413 151.151,55.290 151.340 C 52.733 151.773,52.667 151.793,52.667 152.147 C 52.667 152.469,54.517 155.261,54.966 155.616 C 55.457 156.005,56.289 155.731,57.703 154.717 C 61.036 152.325,61.324 151.703,59.458 150.923 C 58.778 150.639,58.831 150.642,57.957 150.848 M183.609 151.471 C 182.804 152.361,184.285 155.971,186.271 157.958 C 187.668 159.357,188.072 159.236,190.786 156.607 L 191.822 155.604 191.302 154.677 C 190.329 152.944,190.046 152.774,186.544 151.828 C 183.682 151.055,183.956 151.088,183.609 151.471 M49.068 153.305 C 45.951 155.326,46.128 155.977,50.278 157.770 C 54.214 159.471,55.431 159.161,54.040 156.811 C 51.709 152.874,50.762 152.206,49.068 153.305 M123.540 153.751 C 121.614 154.492,119.077 156.313,118.082 157.669 C 117.298 158.737,117.332 158.899,118.453 159.412 C 119.558 159.918,120.813 160.833,122.309 162.223 C 123.471 163.302,124.067 163.405,125.343 162.745 C 126.193 162.306,126.409 159.932,126.009 155.452 C 125.803 153.143,125.558 152.975,123.540 153.751 M60.604 154.454 C 58.198 155.737,55.741 158.587,56.407 159.323 C 57.221 160.222,62.689 159.383,66.108 157.834 C 67.776 157.078,67.695 156.360,65.867 155.691 C 65.344 155.500,64.354 155.006,63.667 154.592 C 62.160 153.684,62.056 153.680,60.604 154.454 M322.441 154.127 C 322.398 154.197,322.428 155.040,322.507 156.002 C 322.587 156.963,322.655 158.929,322.659 160.369 C 322.668 163.530,322.591 163.429,324.906 163.284 C 326.977 163.154,329.428 162.483,331.417 161.501 C 334.593 159.934,334.908 159.261,332.651 158.869 C 328.202 158.095,326.527 157.353,323.946 155.015 C 322.848 154.019,322.599 153.872,322.441 154.127 M288.372 155.542 C 287.785 156.264,286.785 160.749,286.783 162.667 C 286.779 166.357,287.916 168.288,292.803 172.901 C 295.310 175.267,296.132 176.189,296.251 176.767 C 296.296 176.987,296.370 177.347,296.416 177.566 C 296.982 180.317,293.460 184.230,289.719 185.006 C 285.262 185.932,282.111 183.242,279.754 176.500 C 277.443 169.890,275.064 167.062,271.208 166.342 C 270.113 166.137,270.189 166.380,271.738 168.026 C 274.255 170.699,274.608 171.874,274.837 178.328 C 275.138 186.813,276.388 188.389,284.750 190.838 C 289.216 192.145,290.718 193.401,291.082 196.128 C 291.456 198.938,289.940 200.216,285.958 200.447 C 284.006 200.560,284.001 200.564,284.417 201.558 C 285.714 204.664,281.336 207.881,278.044 206.240 C 276.544 205.493,275.546 204.118,274.663 201.583 C 272.265 194.697,268.939 192.729,261.937 194.053 C 256.566 195.069,254.277 193.809,253.261 189.276 C 252.826 187.339,252.633 187.165,252.152 188.278 C 250.802 191.399,251.240 194.297,253.464 196.960 C 254.992 198.791,256.019 199.192,260.180 199.579 C 265.846 200.107,268.215 201.581,267.774 204.303 C 267.343 206.959,264.256 207.015,258.750 204.467 C 252.438 201.545,250.108 201.552,247.261 204.500 C 245.897 205.914,245.897 205.914,247.867 205.656 C 251.409 205.193,253.167 206.045,259.239 211.167 C 262.734 214.115,263.799 214.661,266.784 215.038 C 270.591 215.519,275.177 214.232,277.554 212.014 L 278.359 211.264 279.804 211.636 C 282.731 212.390,284.886 212.087,289.599 210.257 C 293.312 208.815,293.347 208.796,294.697 207.350 C 298.621 203.147,299.062 196.748,295.782 191.592 C 294.602 189.738,294.598 189.789,295.971 189.098 C 301.912 186.106,305.493 178.980,303.353 174.407 C 302.380 172.327,300.966 170.979,296.772 168.131 C 291.431 164.504,289.850 162.256,289.071 157.185 C 288.790 155.351,288.699 155.138,288.372 155.542 M162.674 157.052 C 162.216 157.272,157.716 163.205,157.562 163.794 C 157.145 165.379,162.558 166.171,165.283 164.923 C 166.321 164.448,166.360 164.267,165.667 163.142 C 165.045 162.130,164.843 161.275,164.837 159.633 C 164.832 158.021,164.019 156.682,163.144 156.845 C 163.111 156.851,162.899 156.944,162.674 157.052 M262.104 157.744 C 259.821 158.740,258.406 159.943,256.514 162.494 C 254.530 165.171,254.580 165.663,256.882 166.077 C 257.726 166.229,259.271 166.573,260.316 166.843 C 262.733 167.467,263.272 167.462,264.737 166.802 C 266.431 166.039,266.418 166.057,265.820 165.376 C 265.154 164.618,265.249 164.550,267.421 164.246 C 269.976 163.887,269.981 163.972,267.200 160.423 C 264.511 156.992,264.200 156.829,262.104 157.744 M216.533 158.625 C 214.553 162.940,216.476 167.882,221.675 171.840 C 225.455 174.717,223.857 175.426,219.167 172.953 C 214.850 170.677,213.415 170.184,210.750 170.064 C 209.318 170.000,208.931 170.043,208.000 170.369 C 206.686 170.831,206.642 171.066,207.750 171.714 C 209.992 173.024,211.193 174.370,213.001 177.603 C 215.237 181.599,216.592 182.624,220.527 183.295 C 221.429 183.449,222.167 183.624,222.167 183.684 C 222.167 183.744,221.084 184.790,219.760 186.008 C 218.436 187.226,215.709 189.955,213.700 192.071 C 209.476 196.520,209.452 196.538,208.431 196.042 C 207.454 195.568,206.775 194.716,205.583 192.473 L 204.583 190.590 202.833 190.387 C 201.871 190.274,200.769 190.104,200.385 190.008 C 198.947 189.649,198.561 189.748,197.918 190.643 C 197.197 191.646,196.449 192.173,194.786 192.851 C 192.805 193.657,192.032 195.290,191.721 199.321 C 191.592 200.989,191.703 201.004,192.783 199.458 C 195.117 196.114,198.499 194.744,200.789 196.214 C 202.617 197.388,205.656 200.758,207.308 203.444 C 209.206 206.530,210.970 208.313,213.167 209.365 C 217.204 211.297,217.576 214.001,214.360 218.039 C 213.299 219.372,213.124 219.746,213.625 219.610 C 216.250 218.898,217.679 218.200,218.865 217.049 C 219.512 216.421,219.666 216.103,219.984 214.750 C 220.092 214.292,220.451 213.519,220.782 213.034 L 221.385 212.150 220.860 211.450 C 220.284 210.683,219.334 208.872,219.333 208.542 C 219.333 208.217,219.631 208.293,220.387 208.811 C 222.152 210.022,224.097 210.753,227.303 211.412 C 228.340 211.626,229.234 211.845,229.290 211.901 C 229.497 212.108,228.954 214.303,228.322 215.818 C 227.961 216.680,227.667 217.449,227.667 217.526 C 227.667 218.389,231.923 215.058,233.209 213.188 C 233.858 212.246,233.873 211.631,233.270 210.725 C 232.694 209.857,232.333 208.680,232.333 207.666 C 232.333 206.504,232.124 206.390,229.322 206.014 C 225.349 205.482,222.428 204.583,223.225 204.138 C 223.383 204.049,224.579 203.867,225.882 203.733 C 227.184 203.600,228.662 203.408,229.167 203.309 C 233.525 202.444,236.230 203.552,237.786 206.837 C 238.509 208.364,238.982 208.065,239.589 205.694 C 240.099 203.706,240.007 202.693,239.265 202.098 C 237.768 200.897,236.927 200.030,236.463 199.208 C 236.191 198.727,235.957 198.326,235.942 198.317 C 235.928 198.309,235.054 198.245,234.000 198.176 C 232.490 198.077,231.863 197.956,231.047 197.609 C 229.671 197.022,229.384 197.042,226.797 197.904 C 223.705 198.933,220.417 199.345,220.214 198.728 C 220.071 198.292,223.573 196.511,233.977 191.727 C 238.381 189.702,237.842 189.631,241.083 192.664 C 246.307 197.552,250.592 200.406,254.341 201.492 C 255.024 201.690,257.131 202.377,259.022 203.018 C 264.068 204.728,265.718 204.755,265.178 203.118 C 264.693 201.649,263.451 201.223,258.500 200.828 C 254.769 200.531,253.849 200.177,251.985 198.324 C 248.382 194.741,248.407 189.112,252.042 185.436 L 253.177 184.289 254.093 184.396 C 255.658 184.580,256.117 184.162,257.179 181.590 C 257.480 180.861,258.351 179.335,259.113 178.201 C 261.046 175.325,261.022 175.297,256.686 175.285 C 251.744 175.272,249.792 176.234,250.560 178.305 C 250.899 179.220,250.853 179.275,249.959 179.010 C 247.194 178.191,246.383 177.476,245.846 175.389 C 244.209 169.018,240.377 166.315,230.885 164.837 C 223.335 163.661,220.584 162.315,218.189 158.622 C 217.286 157.230,217.173 157.230,216.533 158.625 M181.750 158.437 C 180.925 158.548,179.369 158.644,178.292 158.652 L 176.333 158.667 176.335 159.958 C 176.339 162.332,177.118 164.259,178.673 165.743 C 180.366 167.357,180.532 167.304,183.082 164.333 C 186.165 160.743,186.222 160.572,184.789 159.237 C 183.673 158.198,183.625 158.186,181.750 158.437 M336.227 158.958 C 334.958 160.697,334.576 161.140,333.781 161.793 C 333.306 162.183,332.410 162.768,331.792 163.094 C 330.523 163.761,330.436 163.977,331.208 164.556 C 334.613 167.109,341.015 166.542,344.296 163.398 C 345.246 162.488,345.207 162.436,342.948 161.600 C 340.884 160.837,339.927 160.357,338.224 159.231 C 336.608 158.163,336.790 158.188,336.227 158.958 M246.052 158.671 C 242.899 158.889,239.968 159.520,239.502 160.081 C 239.252 160.383,239.609 160.906,242.750 164.833 C 245.629 168.434,245.150 168.162,247.204 167.359 C 248.147 166.990,249.744 166.459,250.752 166.178 C 251.759 165.898,252.754 165.579,252.963 165.470 C 253.641 165.117,255.833 161.244,255.833 160.400 C 255.833 159.294,250.552 158.360,246.052 158.671 M166.333 160.005 C 166.333 162.672,168.599 164.328,172.250 164.330 C 174.952 164.333,175.151 164.124,174.831 161.635 C 174.550 159.453,174.786 159.614,171.810 159.572 C 170.120 159.549,168.910 159.448,168.250 159.274 C 166.430 158.797,166.333 158.834,166.333 160.005 M110.848 160.152 C 110.641 160.359,110.520 160.640,110.568 160.800 C 110.614 160.956,110.957 162.883,111.328 165.083 C 111.700 167.283,112.066 169.308,112.142 169.583 L 112.279 170.083 114.515 170.040 C 117.700 169.979,117.506 170.092,119.484 167.141 C 121.296 164.438,121.439 164.017,120.832 163.165 C 119.429 161.195,112.036 158.964,110.848 160.152 M76.072 162.125 C 74.065 166.848,75.331 169.750,80.090 171.336 C 81.842 171.919,82.445 172.301,82.283 172.724 C 81.986 173.498,80.492 173.025,75.750 170.660 C 68.761 167.173,66.150 167.104,62.489 170.307 C 59.977 172.504,60.052 172.999,62.895 173.003 C 66.943 173.010,67.981 173.353,70.500 175.515 C 73.339 177.952,75.780 179.449,77.523 179.823 C 78.293 179.988,79.667 180.581,79.667 180.749 C 79.667 180.948,78.594 181.329,77.083 181.668 C 74.991 182.137,74.765 182.280,74.409 183.369 C 73.763 185.341,72.655 186.911,71.489 187.506 C 70.260 188.132,70.246 188.018,71.263 185.770 C 72.588 182.839,72.455 182.142,70.380 181.162 C 67.944 180.011,65.361 179.717,63.019 180.325 C 61.284 180.776,61.012 181.306,62.381 181.567 C 66.077 182.273,66.481 185.048,63.074 186.323 C 60.662 187.225,52.530 188.200,51.121 187.755 C 47.410 186.585,46.438 181.929,49.226 178.674 C 50.559 177.117,49.577 176.974,46.396 178.262 C 45.318 178.698,44.207 179.102,43.927 179.159 C 43.276 179.292,43.212 179.646,43.654 180.674 C 44.175 181.885,44.256 183.184,43.917 184.893 C 43.562 186.682,43.638 187.217,44.433 188.505 C 45.177 189.710,45.080 189.956,43.980 189.664 C 39.760 188.541,37.844 184.485,39.533 180.250 C 39.862 179.425,40.073 178.688,40.002 178.611 C 39.759 178.351,38.509 179.169,37.328 180.362 C 35.636 182.070,35.584 182.204,35.997 183.779 C 36.253 184.757,36.333 185.592,36.333 187.286 C 36.333 189.423,36.353 189.548,36.831 190.496 C 37.391 191.605,37.300 191.796,36.391 191.417 C 34.789 190.747,33.836 189.456,33.298 187.225 C 33.102 186.414,32.919 185.721,32.891 185.685 C 32.674 185.401,31.000 188.023,31.000 188.646 C 31.000 188.854,31.237 189.368,31.527 189.789 C 31.816 190.210,32.412 191.571,32.850 192.814 C 33.759 195.393,33.707 195.337,35.829 196.017 C 38.295 196.807,38.933 196.801,44.000 195.939 C 49.398 195.020,50.692 194.888,56.457 194.661 C 58.954 194.563,61.399 194.418,61.890 194.338 C 63.241 194.118,65.636 194.004,72.500 193.832 C 79.484 193.657,80.232 193.583,84.250 192.663 C 91.777 190.940,92.894 191.004,100.667 193.601 C 115.450 198.540,125.818 199.851,130.418 197.364 C 132.034 196.491,131.777 196.382,127.884 196.289 C 123.223 196.178,121.424 195.718,114.686 192.916 C 110.962 191.366,110.301 191.215,106.667 191.078 C 96.234 190.686,92.794 188.076,91.576 179.625 C 91.419 178.533,91.699 178.577,93.177 179.875 C 98.150 184.244,98.824 184.438,104.250 183.046 C 111.065 181.297,113.994 181.711,119.566 185.209 C 123.684 187.795,129.217 188.531,132.060 186.870 C 133.532 186.011,132.814 185.673,129.500 185.667 C 121.357 185.651,120.045 185.090,116.667 180.182 C 112.662 174.362,112.520 174.299,106.692 175.745 C 99.818 177.451,97.882 177.461,98.579 175.788 C 99.583 173.377,99.696 172.936,99.637 171.667 C 99.414 166.899,93.777 164.549,84.811 165.487 C 80.831 165.904,78.989 165.185,77.340 162.574 C 76.552 161.326,76.430 161.283,76.072 162.125 M348.513 162.274 C 347.534 162.617,346.684 163.167,345.237 164.397 C 342.616 166.624,339.666 167.833,336.854 167.833 C 334.859 167.833,334.955 168.458,337.297 170.695 C 340.212 173.480,343.766 175.000,347.365 175.000 C 349.062 175.000,349.741 173.753,350.744 168.794 C 352.026 162.455,351.595 161.195,348.513 162.274 M195.167 162.632 C 194.578 162.959,194.241 163.513,193.015 166.174 C 192.401 167.507,191.540 168.400,190.519 168.763 C 190.096 168.913,189.525 169.117,189.250 169.217 C 188.975 169.316,188.000 170.123,187.083 171.008 C 185.742 172.304,185.165 172.735,184.125 173.215 C 182.633 173.904,182.632 173.906,183.458 174.696 C 184.995 176.165,186.758 176.037,189.327 174.270 C 189.806 173.941,190.486 173.593,190.840 173.498 C 192.583 173.029,194.786 170.090,196.271 166.253 C 196.470 165.739,196.750 165.342,197.004 165.213 C 197.879 164.771,200.723 165.068,201.857 165.720 C 202.697 166.204,202.814 165.994,202.230 165.050 C 200.995 163.051,196.924 161.658,195.167 162.632 M220.474 164.518 C 222.318 166.144,224.307 166.759,230.656 167.665 C 237.905 168.700,240.334 170.032,242.292 174.049 C 243.645 176.825,243.658 176.814,239.828 176.055 C 235.047 175.107,234.269 175.301,229.779 178.573 C 226.552 180.924,226.475 180.950,223.706 180.682 C 219.921 180.316,218.135 179.775,217.011 178.653 C 215.821 177.466,213.138 172.962,213.441 172.659 C 213.955 172.145,217.961 174.212,219.967 176.026 C 222.121 177.973,226.368 177.099,227.654 174.443 C 228.565 172.561,227.872 171.745,223.195 169.194 C 220.950 167.970,219.722 166.457,219.417 164.542 C 219.272 163.633,219.467 163.629,220.474 164.518 M125.576 164.322 C 123.625 164.790,120.548 167.355,119.979 168.990 C 119.718 169.738,119.992 169.973,122.301 170.986 C 123.336 171.440,124.525 172.022,124.944 172.280 C 126.279 173.104,126.404 173.155,126.831 173.056 C 127.423 172.918,128.758 172.091,129.833 171.197 C 130.337 170.778,130.775 170.419,130.805 170.399 C 130.835 170.378,130.423 169.811,129.888 169.138 C 128.928 167.928,128.306 166.994,127.439 165.466 C 127.045 164.770,126.418 164.136,126.171 164.184 C 126.123 164.193,125.855 164.255,125.576 164.322 M78.616 166.101 C 80.208 167.313,83.055 167.831,85.690 167.390 C 91.149 166.477,96.786 168.052,97.269 170.626 C 97.445 171.564,97.223 173.574,96.851 174.415 C 96.466 175.285,96.526 175.280,94.833 174.581 C 90.401 172.748,88.547 173.133,84.776 176.671 C 82.102 179.178,82.119 179.167,81.017 179.167 C 78.674 179.167,75.949 177.783,72.167 174.675 C 69.067 172.127,68.227 171.680,65.865 171.318 C 64.114 171.050,63.954 170.942,64.536 170.427 C 66.254 168.905,70.381 169.504,74.975 171.941 C 79.892 174.549,80.451 174.763,81.998 174.622 C 86.534 174.211,86.125 171.320,81.273 169.500 C 77.672 168.149,76.832 167.270,77.256 165.295 C 77.435 164.460,77.534 164.400,77.734 165.009 C 77.841 165.338,78.206 165.789,78.616 166.101 M325.000 164.674 C 322.158 164.973,322.184 164.950,321.442 167.927 C 320.625 171.205,320.707 171.618,322.205 171.787 C 324.556 172.052,330.160 170.356,332.282 168.737 C 333.219 168.022,333.078 167.763,330.917 166.229 C 328.432 164.466,328.014 164.357,325.000 164.674 M168.370 165.530 C 167.660 166.240,168.482 170.786,169.720 173.000 C 171.161 175.576,174.151 177.105,175.308 175.857 C 175.806 175.319,179.067 169.949,179.239 169.383 C 179.523 168.449,176.300 165.361,175.267 165.578 C 173.573 165.933,169.896 165.833,168.770 165.401 C 168.662 165.360,168.482 165.418,168.370 165.530 M154.143 167.281 C 151.963 169.319,150.795 170.180,148.947 171.109 C 147.176 171.999,147.147 172.193,148.669 172.959 C 150.806 174.035,154.575 174.591,156.990 174.188 C 158.594 173.920,158.649 173.803,157.913 172.231 C 156.833 169.924,156.803 169.359,157.613 166.647 C 157.706 166.336,156.745 165.667,156.206 165.667 C 156.010 165.667,155.150 166.339,154.143 167.281 M165.000 166.786 C 164.487 166.969,163.382 167.084,161.500 167.152 L 158.750 167.250 158.750 168.833 C 158.750 172.395,161.220 174.661,165.244 174.791 C 168.096 174.883,168.376 174.586,167.529 172.374 C 167.016 171.034,166.599 169.301,166.378 167.585 C 166.230 166.446,166.125 166.385,165.000 166.786 M251.667 167.615 C 249.517 167.977,246.946 169.070,246.634 169.755 C 246.415 170.236,246.866 171.509,248.047 173.750 C 248.848 175.269,249.168 175.428,250.284 174.858 C 251.340 174.320,252.623 174.018,255.000 173.748 C 256.237 173.608,257.445 173.415,257.683 173.320 C 258.389 173.038,261.000 169.361,261.000 168.648 C 261.000 167.900,254.350 167.164,251.667 167.615 M266.493 167.739 C 263.548 168.552,259.125 172.530,259.998 173.581 C 260.768 174.509,262.557 174.957,263.998 174.584 C 265.682 174.148,267.073 174.098,268.833 174.413 C 271.741 174.932,271.629 174.931,271.856 174.433 C 272.109 173.878,271.771 172.707,270.793 170.750 C 269.276 167.713,268.515 167.181,266.493 167.739 M197.079 169.518 C 196.893 169.609,196.443 170.176,196.079 170.777 C 195.203 172.224,193.828 173.446,191.962 174.437 C 191.123 174.882,190.027 175.565,189.525 175.955 C 186.656 178.183,184.431 178.049,181.849 175.493 C 180.750 174.405,180.629 174.331,179.881 174.303 C 178.013 174.231,177.843 174.360,176.673 176.738 C 175.515 179.091,175.512 179.122,176.242 180.601 C 177.763 183.677,180.615 185.500,183.909 185.500 C 188.211 185.500,189.767 187.487,187.655 190.285 C 186.593 191.692,186.946 191.706,189.555 190.362 C 192.211 188.993,192.890 188.479,193.959 187.027 C 194.477 186.325,195.303 185.325,195.796 184.805 L 196.692 183.860 196.328 182.555 C 195.765 180.535,195.740 180.525,193.544 181.445 C 191.772 182.187,189.266 182.452,189.062 181.920 C 188.919 181.548,189.094 181.447,190.958 180.822 C 192.759 180.219,194.312 179.242,196.333 177.440 C 198.331 175.660,198.617 175.522,199.438 175.948 C 200.433 176.464,200.639 176.976,200.839 179.429 C 201.050 182.008,201.076 182.116,201.430 181.823 C 202.782 180.700,203.412 173.870,202.398 171.335 C 201.940 170.191,198.263 168.935,197.079 169.518 M331.741 170.616 C 329.890 171.794,328.661 172.302,326.000 172.990 C 324.854 173.286,323.858 173.585,323.785 173.654 C 323.398 174.024,326.560 177.037,327.766 177.448 C 330.229 178.287,337.082 176.951,339.126 175.232 L 339.501 174.917 337.582 173.261 C 336.526 172.350,335.283 171.168,334.820 170.636 C 333.763 169.421,333.620 169.420,331.741 170.616 M131.974 171.899 C 129.631 172.736,127.687 175.014,127.474 177.174 C 127.401 177.907,127.837 177.980,129.859 177.571 C 130.772 177.387,132.310 177.271,134.333 177.234 C 136.029 177.204,137.470 177.176,137.535 177.173 C 137.899 177.154,138.296 174.053,138.005 173.509 C 137.456 172.484,133.382 171.396,131.974 171.899 M113.875 172.028 C 113.071 172.208,112.981 172.487,113.440 173.383 C 113.815 174.117,114.657 175.167,114.870 175.167 C 114.967 175.167,115.579 175.570,116.231 176.062 C 118.894 178.074,122.051 179.230,124.061 178.929 C 125.178 178.761,125.308 178.588,125.680 176.768 L 126.016 175.122 125.647 174.730 C 125.138 174.187,121.466 172.383,120.257 172.081 C 119.130 171.800,115.045 171.766,113.875 172.028 M142.583 172.925 C 141.483 173.044,140.415 173.147,140.208 173.154 C 138.606 173.207,138.954 176.857,140.792 179.285 C 141.606 180.360,142.182 181.416,142.500 182.417 C 143.226 184.700,143.561 184.752,144.181 182.677 C 144.875 180.355,144.885 180.353,146.119 182.365 C 147.468 184.564,147.715 184.740,149.552 184.802 C 152.678 184.909,153.059 184.538,151.579 182.829 C 149.963 180.964,149.438 179.662,149.336 177.264 L 149.250 175.250 147.514 173.958 C 145.554 172.500,145.878 172.568,142.583 172.925 M319.783 173.504 C 319.548 173.689,318.987 174.345,318.537 174.962 C 318.088 175.579,316.960 176.891,316.031 177.877 C 313.617 180.442,313.595 180.528,315.141 181.287 C 317.161 182.279,322.377 181.771,326.281 180.201 C 327.716 179.624,327.758 179.390,326.543 178.725 C 325.424 178.112,323.585 176.479,322.979 175.558 C 322.747 175.205,322.378 174.643,322.161 174.307 C 321.445 173.206,320.548 172.902,319.783 173.504 M374.860 175.863 C 377.829 179.078,379.033 185.778,377.483 190.461 C 376.745 192.691,375.469 193.836,375.118 192.583 C 374.693 191.068,374.424 190.388,373.893 189.482 C 372.957 187.885,372.509 187.971,372.500 189.750 C 372.474 194.514,369.867 197.490,364.896 198.432 C 359.115 199.528,357.082 200.263,354.594 202.159 C 353.101 203.297,353.076 203.307,352.938 202.792 C 352.333 200.533,353.304 199.398,358.051 196.819 C 361.857 194.752,362.754 193.754,362.744 191.595 C 362.728 187.844,360.402 186.395,357.092 188.073 C 355.456 188.901,355.264 188.879,355.414 187.875 C 355.850 184.962,358.017 180.667,359.050 180.667 C 359.450 180.667,361.316 181.702,364.955 183.944 C 368.056 185.855,367.836 185.773,368.372 185.213 C 369.428 184.110,372.150 178.939,372.819 176.763 C 373.391 174.902,373.805 174.719,374.860 175.863 M160.235 175.690 C 159.707 176.546,160.035 180.067,160.790 181.637 C 162.018 184.193,166.530 186.772,167.956 185.733 C 168.560 185.293,173.327 178.999,173.331 178.637 C 173.332 178.453,172.641 177.966,171.292 177.204 L 169.250 176.050 168.000 176.203 C 166.552 176.381,163.277 176.144,161.784 175.753 C 160.626 175.450,160.390 175.440,160.235 175.690 M266.083 175.607 C 264.096 175.909,262.144 177.014,260.500 178.768 C 259.351 179.994,258.106 182.149,258.282 182.608 C 258.390 182.889,258.305 182.892,261.083 182.506 C 261.725 182.417,263.060 182.342,264.051 182.339 L 265.852 182.333 266.259 181.375 C 266.840 180.006,267.451 178.898,268.257 177.750 C 269.166 176.455,269.284 176.074,268.849 175.842 C 268.464 175.635,266.816 175.495,266.083 175.607 M151.578 175.835 C 149.768 176.517,151.322 181.346,153.710 182.462 C 154.747 182.946,156.650 183.333,157.991 183.333 C 159.336 183.333,159.349 183.314,158.889 181.917 C 158.710 181.374,158.580 180.212,158.515 178.583 L 158.417 176.083 156.833 175.978 C 153.498 175.755,151.905 175.712,151.578 175.835 M340.700 176.175 C 340.489 176.260,340.002 176.545,339.617 176.809 C 337.881 177.998,336.070 178.648,333.225 179.099 C 330.581 179.519,330.622 179.426,331.920 182.054 C 334.022 186.308,336.115 188.006,339.325 188.062 L 340.566 188.083 342.127 186.083 C 344.847 182.598,347.500 178.405,347.500 177.593 C 347.500 177.426,347.047 177.207,346.125 176.927 C 343.182 176.035,341.596 175.815,340.700 176.175 M271.250 176.973 C 269.046 178.318,266.281 184.330,267.516 185.093 C 267.744 185.234,270.025 184.105,271.625 183.059 C 273.018 182.148,272.956 182.405,272.496 179.417 C 272.024 176.353,272.081 176.466,271.250 176.973 M283.775 178.625 C 283.617 178.882,284.159 180.060,284.685 180.602 C 285.434 181.375,286.358 181.696,287.659 181.634 C 289.076 181.567,289.093 181.314,287.725 180.667 C 287.106 180.375,286.026 179.767,285.325 179.318 C 283.990 178.462,283.901 178.422,283.775 178.625 M130.333 179.676 C 124.125 181.266,122.566 181.348,119.125 180.265 C 118.027 179.920,118.061 180.240,119.257 181.493 C 121.207 183.538,122.201 183.792,128.936 183.971 C 134.281 184.112,134.332 184.123,135.014 185.217 C 136.340 187.345,132.905 189.046,127.250 189.062 C 123.120 189.075,122.204 188.824,116.147 186.029 C 111.023 183.665,109.873 183.537,104.833 184.766 C 100.123 185.914,98.284 185.720,95.457 183.775 C 93.723 182.582,93.503 182.753,94.463 184.543 C 96.014 187.438,98.697 188.465,105.250 188.674 C 109.817 188.819,109.437 188.735,113.030 190.388 C 121.936 194.485,125.985 195.242,130.917 193.735 C 134.902 192.518,135.867 193.357,134.191 196.583 C 132.662 199.529,131.248 199.981,123.500 200.000 C 118.897 200.011,118.063 200.197,116.625 201.536 C 115.608 202.483,115.586 202.760,116.542 202.563 C 116.931 202.483,120.962 202.415,125.500 202.414 C 135.280 202.410,134.819 202.500,138.847 199.806 C 144.326 196.143,147.301 190.060,145.540 186.125 C 145.168 185.294,144.833 185.087,144.833 185.688 C 144.833 186.516,143.321 189.000,142.817 189.000 C 142.440 189.000,142.437 188.994,142.184 187.333 C 141.719 184.279,138.978 180.426,136.417 179.227 C 135.148 178.632,134.111 178.709,130.333 179.676 M327.327 181.499 C 324.866 182.454,323.303 182.883,320.598 183.345 C 317.726 183.835,317.601 183.967,318.431 185.634 C 319.936 188.652,324.053 189.285,329.988 187.410 C 330.711 187.182,331.464 186.864,331.663 186.703 L 332.023 186.411 331.483 185.414 C 330.413 183.438,330.177 182.902,329.981 182.000 C 329.672 180.576,329.696 180.580,327.327 181.499 M311.583 181.611 C 310.704 181.802,306.379 183.059,306.105 183.203 C 304.874 183.849,307.452 188.439,310.002 190.142 C 311.561 191.183,311.483 191.247,311.836 188.633 C 312.046 187.078,312.549 185.823,313.570 184.307 C 314.472 182.968,314.339 182.456,312.922 181.813 C 312.232 181.499,312.153 181.487,311.583 181.611 M261.750 184.097 C 258.602 184.648,255.366 185.965,254.888 186.888 C 254.374 187.883,255.258 190.441,256.505 191.568 C 257.468 192.438,261.026 192.356,263.287 191.412 C 264.634 190.849,266.131 187.284,265.765 185.511 C 265.405 183.768,264.814 183.560,261.750 184.097 M314.847 184.700 C 311.987 188.590,313.353 192.861,318.221 195.247 C 320.955 196.587,321.478 196.094,321.757 191.915 L 321.868 190.250 320.332 189.509 C 317.939 188.354,317.296 187.679,316.664 185.658 C 316.043 183.674,315.725 183.506,314.847 184.700 M271.733 184.600 C 269.863 185.591,267.331 188.071,266.644 189.582 C 266.060 190.868,266.160 190.968,268.467 191.390 C 271.202 191.890,272.383 193.117,274.744 197.917 C 277.023 202.547,278.353 203.989,280.471 204.124 C 282.495 204.254,282.869 203.476,282.083 200.766 C 281.416 198.463,281.211 198.641,284.375 198.769 C 287.766 198.905,287.917 198.835,287.917 197.111 C 287.917 195.460,287.448 195.081,283.547 193.573 C 278.453 191.604,276.157 189.748,274.205 186.021 C 273.132 183.972,273.029 183.913,271.733 184.600 M155.550 185.169 C 153.488 185.999,154.717 195.003,156.892 194.999 C 157.735 194.998,166.260 188.351,165.884 187.989 C 165.810 187.918,165.054 187.562,164.203 187.197 C 163.352 186.832,162.261 186.261,161.779 185.929 C 160.685 185.176,156.731 184.693,155.550 185.169 M302.529 187.068 C 300.616 188.660,298.620 190.458,298.473 190.721 C 298.286 191.055,299.962 194.500,300.312 194.500 C 300.384 194.500,300.625 194.108,300.847 193.629 C 301.348 192.548,302.790 190.581,304.142 189.137 C 305.287 187.912,305.358 187.630,304.757 186.677 C 304.153 185.721,304.147 185.722,302.529 187.068 M148.278 186.618 C 147.996 186.690,147.981 186.843,148.084 188.640 C 148.326 192.859,147.574 195.544,145.466 197.982 C 145.118 198.384,144.833 198.778,144.833 198.857 C 144.833 199.435,150.792 198.035,153.434 196.837 C 154.687 196.270,154.707 196.190,154.015 194.559 C 153.240 192.731,153.023 191.734,152.854 189.215 C 152.766 187.913,152.647 186.769,152.588 186.674 C 152.481 186.501,148.907 186.455,148.278 186.618 M331.750 188.434 C 329.205 189.519,327.757 189.916,325.137 190.251 C 322.643 190.569,322.395 194.777,324.609 199.208 C 325.324 200.639,325.336 200.639,328.072 199.140 C 333.025 196.426,334.859 195.158,337.121 192.884 C 339.340 190.654,339.308 190.551,335.945 189.109 C 333.006 187.848,333.093 187.862,331.750 188.434 M305.002 190.375 C 299.678 195.623,301.087 200.099,308.273 200.767 L 309.448 200.876 309.559 199.296 C 309.685 197.508,309.938 196.537,310.775 194.632 C 311.478 193.034,311.477 193.031,310.052 192.189 C 309.428 191.820,308.397 191.064,307.762 190.509 C 306.346 189.271,306.132 189.261,305.002 190.375 M312.409 194.745 C 310.357 197.436,311.232 204.877,313.742 206.068 C 314.354 206.359,314.514 206.323,315.667 205.637 C 316.079 205.391,317.723 204.656,319.320 204.003 C 323.517 202.286,323.606 202.186,322.807 200.050 C 322.281 198.645,321.852 198.302,319.836 197.676 C 317.710 197.015,315.898 196.122,314.427 195.008 C 313.108 194.010,312.983 193.993,312.409 194.745 M300.699 200.280 C 300.611 200.447,300.416 201.146,300.264 201.833 C 299.799 203.941,299.183 205.587,298.324 207.015 C 297.136 208.992,297.099 208.907,299.167 208.968 C 302.489 209.066,308.405 208.164,310.160 207.292 C 311.119 206.816,311.134 206.339,310.248 204.546 C 309.538 203.110,309.462 203.063,306.806 202.430 C 304.109 201.786,302.853 201.294,301.304 200.272 C 300.876 199.989,300.851 199.990,300.699 200.280 " stroke="none" fill="#084" fill-rule="evenodd"></path></g></svg>