<?xml version="1.0" encoding="UTF-8" standalone="no"?>
<!DOCTYPE svg PUBLIC "-//W3C//DTD SVG 1.1//EN" "http://www.w3.org/Graphics/SVG/1.1/DTD/svg11.dtd">
<svg width="100%" height="100%" viewBox="0 0 1058 845" version="1.1" xmlns="http://www.w3.org/2000/svg" xmlns:xlink="http://www.w3.org/1999/xlink" xml:space="preserve" xmlns:serif="http://www.serif.com/" style="fill-rule:evenodd;clip-rule:evenodd;stroke-linecap:round;stroke-linejoin:round;stroke-miterlimit:1.5;">
    <g transform="matrix(1,0,0,1.0974,-22,-17.5584)">
        <rect id="Tavola-da-disegno1" serif:id="Tavola da disegno1" x="22" y="16" width="1058" height="770" style="fill:none;"/>
        <g id="Tavola-da-disegno11" serif:id="Tavola da disegno1">
            <g transform="matrix(1,0,0,0.911243,197.429,-76.2943)">
                <path d="M526.287,633.025L570.144,658.346L570.144,708.988" style="fill:none;stroke:black;stroke-width:2px;"/>
                <g transform="matrix(1,0,0,1,-176.667,101.094)">
                    <path d="M439.811,734.499L483.668,759.82L724.883,620.555L724.502,594.193L724.883,569.913L681.026,544.592L439.811,683.857L439.811,734.499Z" style="fill:none;stroke:black;stroke-width:2px;stroke-dasharray:10,10,0,0;"/>
                </g>
                <g transform="matrix(1,0,0,1,-175.429,101.284)">
                    <path d="M438.573,708.988L482.43,734.309L723.645,595.044" style="fill:none;stroke:black;stroke-width:2px;stroke-dasharray:10,10,0,0;"/>
                </g>
                <g transform="matrix(1,0,0,1,-175.429,101.284)">
                    <path d="M438.573,683.667L482.43,708.988L482.43,759.63" style="fill:none;stroke:black;stroke-width:2px;stroke-dasharray:10,10,0,0;"/>
                </g>
                <path d="M592.073,595.044L635.93,620.364L635.93,671.006" style="fill:none;stroke:black;stroke-width:2px;"/>
                <path d="M614.002,582.383L657.859,607.704L657.859,658.346" style="fill:none;stroke:black;stroke-width:2px;"/>
                <path d="M635.93,569.722L679.788,595.044L679.788,645.685" style="fill:none;stroke:black;stroke-width:2px;"/>
                <g transform="matrix(1,0,0,1,-175.429,177.247)">
                    <path d="M745.573,481.099L745.573,430.457" style="fill:none;stroke:black;stroke-width:2px;"/>
                </g>
                <g transform="matrix(1,0,0,1,-175.429,177.247)">
                    <path d="M701.716,455.778L701.716,481.099L745.573,506.42" style="fill:none;stroke:black;stroke-width:2px;"/>
                </g>
                <g transform="matrix(1,0,0,1,-175.429,177.247)">
                    <path d="M745.573,531.741L701.716,506.42L701.716,481.099" style="fill:none;stroke:black;stroke-width:2px;"/>
                </g>
                <g transform="matrix(1,0,0,1,-175.429,177.247)">
                    <path d="M701.716,430.457L745.573,455.778L767.502,443.118" style="fill:none;stroke:black;stroke-width:2px;"/>
                </g>
                <g transform="matrix(1,0,0,1,-175.429,177.247)">
                    <path d="M745.573,481.099L877.145,405.136L767.502,468.438L767.502,417.796L745.573,430.457L701.716,405.136L701.716,455.778" style="fill:none;stroke:black;stroke-width:2px;"/>
                </g>
                <g transform="matrix(1,0,0,1,-175.429,177.247)">
                    <path d="M745.573,531.741L877.145,455.778L877.145,405.136L833.288,379.815L767.502,417.797" style="fill:none;stroke:black;stroke-width:2px;"/>
                </g>
                <g transform="matrix(1,0,0,1,-175.429,177.247)">
                    <path d="M789.431,506.42L789.431,455.778L767.502,443.117" style="fill:none;stroke:black;stroke-width:2px;"/>
                </g>
                <g transform="matrix(1,0,0,1,-175.429,177.247)">
                    <path d="M767.502,519.08L767.502,468.439" style="fill:none;stroke:black;stroke-width:2px;"/>
                </g>
                <g transform="matrix(1,0,0,1,-175.429,177.247)">
                    <path d="M767.502,417.796L723.645,392.476L701.716,405.136" style="fill:none;stroke:black;stroke-width:2px;"/>
                </g>
            </g>
            <g transform="matrix(1,0,0,0.911243,-65.7145,-399.324)">
                <path d="M263.144,784.951L307.001,810.272L701.716,582.383L657.859,557.062L263.144,784.951Z" style="fill:none;stroke:black;stroke-width:2px;"/>
                <path d="M263.144,835.593L307.001,860.914L701.716,633.025L701.716,582.383" style="fill:none;stroke:black;stroke-width:2px;"/>
                <path d="M263.144,784.951L263.144,835.593" style="fill:none;stroke:black;stroke-width:2px;"/>
                <path d="M307.001,810.272L307.001,860.914" style="fill:none;stroke:black;stroke-width:2px;"/>
                <path d="M263.144,810.272L307.001,835.593L701.716,607.704" style="fill:none;stroke:black;stroke-width:2px;"/>
                <path d="M285.072,772.29L328.929,797.611L328.929,848.253" style="fill:none;stroke:black;stroke-width:2px;"/>
                <path d="M307.001,759.63L350.858,784.951L350.858,835.593" style="fill:none;stroke:black;stroke-width:2px;"/>
                <path d="M328.929,746.969L372.787,772.29L372.787,822.932" style="fill:none;stroke:black;stroke-width:2px;"/>
                <path d="M350.858,734.309L394.715,759.63L394.715,810.272" style="fill:none;stroke:black;stroke-width:2px;"/>
                <path d="M372.787,721.648L416.644,746.969L416.644,797.611" style="fill:none;stroke:black;stroke-width:2px;"/>
                <path d="M394.715,708.988L438.573,734.309L438.573,784.951" style="fill:none;stroke:black;stroke-width:2px;"/>
                <path d="M416.644,696.327L460.501,721.648L460.501,772.29" style="fill:none;stroke:black;stroke-width:2px;"/>
                <path d="M438.573,683.667L482.43,708.988L482.43,759.63" style="fill:none;stroke:black;stroke-width:2px;"/>
                <path d="M460.501,671.007L504.358,696.328L504.358,746.969" style="fill:none;stroke:black;stroke-width:2px;"/>
                <path d="M482.43,658.346L526.287,683.667L526.287,734.309" style="fill:none;stroke:black;stroke-width:2px;"/>
                <path d="M504.358,645.685L548.216,671.006L548.216,721.648" style="fill:none;stroke:black;stroke-width:2px;"/>
                <path d="M526.287,633.025L570.144,658.346L570.144,708.988" style="fill:none;stroke:black;stroke-width:2px;"/>
                <path d="M548.216,620.364L592.073,645.685L592.073,696.327" style="fill:none;stroke:black;stroke-width:2px;"/>
                <path d="M570.144,607.704L614.002,633.025L614.002,683.667" style="fill:none;stroke:black;stroke-width:2px;"/>
                <path d="M592.073,595.044L635.93,620.364L635.93,671.006" style="fill:none;stroke:black;stroke-width:2px;"/>
                <path d="M614.002,582.383L657.859,607.704L657.859,658.346" style="fill:none;stroke:black;stroke-width:2px;"/>
                <path d="M635.93,569.722L679.788,595.044L679.788,645.685" style="fill:none;stroke:black;stroke-width:2px;"/>
            </g>
            <g transform="matrix(1,0,0,0.911243,22,16)">
                <path d="M482.43,633.025L438.573,658.346L65.786,443.118L65.786,392.476L109.643,367.154L482.43,582.383L482.43,633.025Z" style="fill:none;stroke:black;stroke-width:2px;stroke-dasharray:10,10,0,0;"/>
            </g>
            <g transform="matrix(1,0,0,0.911243,548.287,-237.809)">
                <g transform="matrix(1,0,0,1,-526.287,354.494)">
                    <path d="M614.002,126.605L570.144,151.926L570.144,202.568L964.86,430.457L1008.72,405.136L1008.72,354.494L614.002,126.605Z" style="fill:none;stroke:black;stroke-width:2px;"/>
                </g>
                <path d="M438.573,734.309L438.573,784.951" style="fill:none;stroke:black;stroke-width:2px;"/>
                <path d="M482.43,734.309L438.573,759.63L43.857,531.741" style="fill:none;stroke:black;stroke-width:2px;"/>
                <path d="M109.643,493.76L65.786,519.08L65.786,569.723" style="fill:none;stroke:black;stroke-width:2px;"/>
                <path d="M87.715,582.383L87.715,531.741L131.572,506.42" style="fill:none;stroke:black;stroke-width:2px;"/>
                <path d="M153.5,519.081L109.643,544.402L109.643,595.043" style="fill:none;stroke:black;stroke-width:2px;"/>
                <path d="M175.429,531.741L131.572,557.062L131.572,607.704" style="fill:none;stroke:black;stroke-width:2px;"/>
                <path d="M153.5,620.364L153.5,569.723L197.358,544.401" style="fill:none;stroke:black;stroke-width:2px;"/>
                <path d="M219.286,557.062L175.429,582.383L175.429,633.025" style="fill:none;stroke:black;stroke-width:2px;"/>
                <path d="M197.358,645.685L197.358,595.043L241.215,569.722" style="fill:none;stroke:black;stroke-width:2px;"/>
                <path d="M263.144,582.383L219.286,607.704L219.286,658.346" style="fill:none;stroke:black;stroke-width:2px;"/>
                <path d="M241.215,671.006L241.215,620.364L285.072,595.043" style="fill:none;stroke:black;stroke-width:2px;"/>
                <path d="M307.001,607.704L263.144,633.025L263.144,683.667" style="fill:none;stroke:black;stroke-width:2px;"/>
                <path d="M285.072,696.327L285.072,645.685L328.929,620.364" style="fill:none;stroke:black;stroke-width:2px;"/>
                <path d="M350.858,633.025L307.001,658.346L307.001,708.988" style="fill:none;stroke:black;stroke-width:2px;"/>
                <path d="M328.929,721.648L328.929,671.007L372.787,645.685" style="fill:none;stroke:black;stroke-width:2px;"/>
                <path d="M394.715,658.346L350.858,683.667L350.858,734.309" style="fill:none;stroke:black;stroke-width:2px;"/>
                <path d="M372.787,746.969L372.787,696.327L416.644,671.006" style="fill:none;stroke:black;stroke-width:2px;"/>
                <path d="M438.573,683.667L394.715,708.988L394.715,759.63" style="fill:none;stroke:black;stroke-width:2px;"/>
                <path d="M416.644,772.29L416.644,721.649L460.501,696.327" style="fill:none;stroke:black;stroke-width:2px;"/>
                <g transform="matrix(1,0,0,1,-526.287,354.494)">
                    <path d="M964.86,379.815L1008.72,354.494" style="fill:none;stroke:black;stroke-width:2px;"/>
                </g>
                <g transform="matrix(1,0,0,1,-526.287,354.494)">
                    <path d="M570.144,151.926L964.86,379.815" style="fill:none;stroke:black;stroke-width:2px;"/>
                </g>
            </g>
            <g transform="matrix(1,0,0,1,-21.9286,-11.5368)">
                <g transform="matrix(1,0,0,0.911243,-6.96332e-13,-21.6535)">
                    <g transform="matrix(1,0,0,1,22,16)">
                        <path d="M899.074,696.327L855.217,671.007L855.217,620.364L877.145,607.704L921.002,633.025L921.002,683.667L899.074,696.327Z" style="fill:white;stroke:black;stroke-width:2px;"/>
                    </g>
                    <g transform="matrix(1,0,0,1,22,16)">
                        <path d="M855.217,620.364L899.074,645.685L921.002,633.025" style="fill:none;stroke:black;stroke-width:2px;"/>
                    </g>
                    <g transform="matrix(1,0,0,1,22,16)">
                        <path d="M855.217,645.686L899.074,671.007L921.002,658.346" style="fill:none;stroke:black;stroke-width:2px;"/>
                    </g>
                    <g transform="matrix(1,0,0,1,22,16)">
                        <path d="M899.074,645.685L899.074,696.327" style="fill:none;stroke:black;stroke-width:2px;"/>
                    </g>
                </g>
                <g transform="matrix(1,0,0,0.911243,175.429,-21.6535)">
                    <g transform="matrix(1,0,0,1,22,16)">
                        <path d="M657.859,734.309L614.002,708.988L614.002,658.346L657.859,633.025L701.716,658.346L701.716,708.988L657.859,734.309Z" style="fill:white;stroke:black;stroke-width:2px;"/>
                    </g>
                    <g transform="matrix(1,0,0,1,22,16)">
                        <path d="M614.002,658.346L657.859,683.667L701.716,658.346" style="fill:none;stroke:black;stroke-width:2px;"/>
                    </g>
                    <g transform="matrix(1,0,0,1,22,16)">
                        <path d="M614.002,683.667L657.859,708.988L701.716,683.667" style="fill:none;stroke:black;stroke-width:2px;"/>
                    </g>
                    <g transform="matrix(1,0,0,1,22,16)">
                        <path d="M657.859,734.309L657.859,683.667" style="fill:none;stroke:black;stroke-width:2px;"/>
                    </g>
                    <g transform="matrix(1,0,0,1,22,16)">
                        <path d="M635.93,645.685L679.788,671.007L679.788,721.648" style="fill:none;stroke:black;stroke-width:2px;"/>
                    </g>
                </g>
                <g transform="matrix(1,0,0,0.911243,109.643,12.9569)">
                    <g transform="matrix(1,0,0,1,22,16)">
                        <path d="M657.859,734.309L614.002,708.988L614.002,658.346L657.859,633.025L701.716,658.346L701.716,708.988L657.859,734.309Z" style="fill:white;stroke:black;stroke-width:2px;"/>
                    </g>
                    <g transform="matrix(1,0,0,1,22,16)">
                        <path d="M614.002,658.346L657.859,683.667L701.716,658.346" style="fill:none;stroke:black;stroke-width:2px;"/>
                    </g>
                    <g transform="matrix(1,0,0,1,22,16)">
                        <path d="M614.002,683.667L657.859,708.988L701.716,683.667" style="fill:none;stroke:black;stroke-width:2px;"/>
                    </g>
                    <g transform="matrix(1,0,0,1,22,16)">
                        <path d="M657.859,734.309L657.859,683.667" style="fill:none;stroke:black;stroke-width:2px;"/>
                    </g>
                    <g transform="matrix(1,0,0,1,22,16)">
                        <path d="M635.93,645.685L679.788,671.007L679.788,721.648" style="fill:none;stroke:black;stroke-width:2px;"/>
                    </g>
                </g>
                <g transform="matrix(1,0,0,0.911243,43.8573,47.5673)">
                    <g transform="matrix(1,0,0,1,22,16)">
                        <path d="M657.859,734.309L614.002,708.988L614.002,658.346L657.859,633.025L701.716,658.346L701.716,708.988L657.859,734.309Z" style="fill:white;stroke:black;stroke-width:2px;"/>
                    </g>
                    <g transform="matrix(1,0,0,1,22,16)">
                        <path d="M614.002,658.346L657.859,683.667L701.716,658.346" style="fill:none;stroke:black;stroke-width:2px;"/>
                    </g>
                    <g transform="matrix(1,0,0,1,22,16)">
                        <path d="M614.002,683.667L657.859,708.988L701.716,683.667" style="fill:none;stroke:black;stroke-width:2px;"/>
                    </g>
                    <g transform="matrix(1,0,0,1,22,16)">
                        <path d="M657.859,734.309L657.859,683.667" style="fill:none;stroke:black;stroke-width:2px;"/>
                    </g>
                    <g transform="matrix(1,0,0,1,22,16)">
                        <path d="M635.93,645.685L679.788,671.007L679.788,721.648" style="fill:none;stroke:black;stroke-width:2px;"/>
                    </g>
                </g>
            </g>
            <g transform="matrix(1,0,0,1,65.7859,-10.6593)">
                <g transform="matrix(1,0,0,0.911243,-526.287,-484.002)">
                    <g transform="matrix(1,0,0,1,22,16)">
                        <path d="M899.074,696.327L855.217,671.007L855.217,620.364L877.145,607.704L921.002,633.025L921.002,683.667L899.074,696.327Z" style="fill:white;stroke:black;stroke-width:2px;"/>
                    </g>
                    <g transform="matrix(1,0,0,1,22,16)">
                        <path d="M855.217,620.364L899.074,645.685L921.002,633.025" style="fill:none;stroke:black;stroke-width:2px;"/>
                    </g>
                    <g transform="matrix(1,0,0,1,22,16)">
                        <path d="M855.217,645.686L899.074,671.007L921.002,658.346" style="fill:none;stroke:black;stroke-width:2px;"/>
                    </g>
                    <g transform="matrix(1,0,0,1,22,16)">
                        <path d="M899.074,645.685L899.074,696.327" style="fill:none;stroke:black;stroke-width:2px;"/>
                    </g>
                </g>
                <g transform="matrix(1,0,0,0.911243,-350.858,-483.125)">
                    <g transform="matrix(1,0,0,1,22,16)">
                        <path d="M657.859,734.309L614.002,708.988L614.002,658.346L657.859,633.025L701.716,658.346L701.716,708.988L657.859,734.309Z" style="fill:white;stroke:black;stroke-width:2px;"/>
                    </g>
                    <g transform="matrix(1,0,0,1,22,16)">
                        <path d="M614.002,658.346L657.859,683.667L701.716,658.346" style="fill:none;stroke:black;stroke-width:2px;"/>
                    </g>
                    <g transform="matrix(1,0,0,1,22,16)">
                        <path d="M614.002,683.667L657.859,708.988L701.716,683.667" style="fill:none;stroke:black;stroke-width:2px;"/>
                    </g>
                    <g transform="matrix(1,0,0,1,22,16)">
                        <path d="M657.859,734.309L657.859,683.667" style="fill:none;stroke:black;stroke-width:2px;"/>
                    </g>
                    <g transform="matrix(1,0,0,1,22,16)">
                        <path d="M635.93,645.685L679.788,671.007L679.788,721.648" style="fill:none;stroke:black;stroke-width:2px;"/>
                    </g>
                </g>
                <g transform="matrix(1,0,0,0.911243,-416.644,-448.515)">
                    <g transform="matrix(1,0,0,1,22,16)">
                        <path d="M657.859,734.309L614.002,708.988L614.002,658.346L657.859,633.025L701.716,658.346L701.716,708.988L657.859,734.309Z" style="fill:white;stroke:black;stroke-width:2px;"/>
                    </g>
                    <g transform="matrix(1,0,0,1,22,16)">
                        <path d="M614.002,658.346L657.859,683.667L701.716,658.346" style="fill:none;stroke:black;stroke-width:2px;"/>
                    </g>
                    <g transform="matrix(1,0,0,1,22,16)">
                        <path d="M614.002,683.667L657.859,708.988L701.716,683.667" style="fill:none;stroke:black;stroke-width:2px;"/>
                    </g>
                    <g transform="matrix(1,0,0,1,22,16)">
                        <path d="M657.859,734.309L657.859,683.667" style="fill:none;stroke:black;stroke-width:2px;"/>
                    </g>
                    <g transform="matrix(1,0,0,1,22,16)">
                        <path d="M635.93,645.685L679.788,671.007L679.788,721.648" style="fill:none;stroke:black;stroke-width:2px;"/>
                    </g>
                </g>
                <g transform="matrix(1,0,0,0.911243,-482.43,-413.904)">
                    <g transform="matrix(1,0,0,1,22,16)">
                        <path d="M657.859,734.309L614.002,708.988L614.002,658.346L657.859,633.025L701.716,658.346L701.716,708.988L657.859,734.309Z" style="fill:white;stroke:black;stroke-width:2px;"/>
                    </g>
                    <g transform="matrix(1,0,0,1,22,16)">
                        <path d="M614.002,658.346L657.859,683.667L701.716,658.346" style="fill:none;stroke:black;stroke-width:2px;"/>
                    </g>
                    <g transform="matrix(1,0,0,1,22,16)">
                        <path d="M614.002,683.667L657.859,708.988L701.716,683.667" style="fill:none;stroke:black;stroke-width:2px;"/>
                    </g>
                    <g transform="matrix(1,0,0,1,22,16)">
                        <path d="M657.859,734.309L657.859,683.667" style="fill:none;stroke:black;stroke-width:2px;"/>
                    </g>
                    <g transform="matrix(1,0,0,1,22,16)">
                        <path d="M635.93,645.685L679.788,671.007L679.788,721.648" style="fill:none;stroke:black;stroke-width:2px;"/>
                    </g>
                </g>
            </g>
            <g transform="matrix(1,0,0,1,-43.8573,-1.49214e-13)">
                <g transform="matrix(1,0,0,1,-153.5,57.6839)">
                    <g transform="matrix(1,0,0,0.911243,22,16)">
                        <path d="M921.002,177.247L942.931,189.908L986.788,164.587L986.788,113.944L964.86,101.284L921.002,126.605L921.002,177.247Z" style="fill:white;stroke:black;stroke-width:2px;"/>
                    </g>
                    <g transform="matrix(1,0,0,0.911243,22,16)">
                        <path d="M921.002,126.605L942.931,139.266L986.788,113.944" style="fill:none;stroke:black;stroke-width:2px;"/>
                    </g>
                    <g transform="matrix(1,0,0,0.911243,22,16)">
                        <path d="M942.931,189.908L942.931,139.266" style="fill:none;stroke:black;stroke-width:2px;"/>
                    </g>
                    <g transform="matrix(1,0,0,0.911243,22,16)">
                        <path d="M986.788,139.266L942.931,164.586L921.002,151.926" style="fill:none;stroke:black;stroke-width:2px;"/>
                    </g>
                </g>
                <g transform="matrix(1,0,0,1,-131.572,-69.2207)">
                    <g transform="matrix(1,0,0,0.911243,22,16)">
                        <path d="M942.931,341.833L986.788,367.155L1030.65,341.833L1030.65,291.191L986.788,265.87L942.931,291.191L942.931,341.833Z" style="fill:white;stroke:black;stroke-width:2px;"/>
                    </g>
                    <g transform="matrix(1,0,0,0.911243,22,16)">
                        <path d="M942.931,291.191L986.788,316.512L1030.65,291.191" style="fill:none;stroke:black;stroke-width:2px;"/>
                    </g>
                    <g transform="matrix(1,0,0,0.911243,22,16)">
                        <path d="M986.788,367.154L986.788,316.512" style="fill:none;stroke:black;stroke-width:2px;"/>
                    </g>
                    <g transform="matrix(1,0,0,0.911243,22,16)">
                        <path d="M964.86,354.494L964.86,303.852L1008.72,278.531" style="fill:none;stroke:black;stroke-width:2px;"/>
                    </g>
                    <g transform="matrix(1,0,0,0.911243,22,16)">
                        <path d="M1030.65,316.512L986.788,341.833L942.931,316.512" style="fill:none;stroke:black;stroke-width:2px;"/>
                    </g>
                </g>
                <g transform="matrix(1,0,0,1,-65.7859,-34.6104)">
                    <g transform="matrix(1,0,0,0.911243,22,16)">
                        <path d="M942.931,341.833L986.788,367.155L1030.65,341.833L1030.65,291.191L986.788,265.87L942.931,291.191L942.931,341.833Z" style="fill:white;stroke:black;stroke-width:2px;"/>
                    </g>
                    <g transform="matrix(1,0,0,0.911243,22,16)">
                        <path d="M942.931,291.191L986.788,316.512L1030.65,291.191" style="fill:none;stroke:black;stroke-width:2px;"/>
                    </g>
                    <g transform="matrix(1,0,0,0.911243,22,16)">
                        <path d="M986.788,367.154L986.788,316.512" style="fill:none;stroke:black;stroke-width:2px;"/>
                    </g>
                    <g transform="matrix(1,0,0,0.911243,22,16)">
                        <path d="M964.86,354.494L964.86,303.852L1008.72,278.531" style="fill:none;stroke:black;stroke-width:2px;"/>
                    </g>
                    <g transform="matrix(1,0,0,0.911243,22,16)">
                        <path d="M1030.65,316.512L986.788,341.833L942.931,316.512" style="fill:none;stroke:black;stroke-width:2px;"/>
                    </g>
                </g>
                <g>
                    <g transform="matrix(1,0,0,0.911243,22,16)">
                        <path d="M942.931,341.833L986.788,367.155L1030.65,341.833L1030.65,291.191L986.788,265.87L942.931,291.191L942.931,341.833Z" style="fill:white;stroke:black;stroke-width:2px;"/>
                    </g>
                    <g transform="matrix(1,0,0,0.911243,22,16)">
                        <path d="M942.931,291.191L986.788,316.512L1030.65,291.191" style="fill:none;stroke:black;stroke-width:2px;"/>
                    </g>
                    <g transform="matrix(1,0,0,0.911243,22,16)">
                        <path d="M986.788,367.154L986.788,316.512" style="fill:none;stroke:black;stroke-width:2px;"/>
                    </g>
                    <g transform="matrix(1,0,0,0.911243,22,16)">
                        <path d="M964.86,354.494L964.86,303.852L1008.72,278.531" style="fill:none;stroke:black;stroke-width:2px;"/>
                    </g>
                    <g transform="matrix(1,0,0,0.911243,22,16)">
                        <path d="M1030.65,316.512L986.788,341.833L942.931,316.512" style="fill:none;stroke:black;stroke-width:2px;"/>
                    </g>
                </g>
            </g>
            <g transform="matrix(1,0,0,1,-723.645,288.42)">
                <g transform="matrix(1,0,0,1,-153.5,57.6839)">
                    <g transform="matrix(1,0,0,0.911243,22,16)">
                        <path d="M921.002,177.247L942.931,189.908L986.788,164.587L986.788,113.944L964.86,101.284L921.002,126.605L921.002,177.247Z" style="fill:white;stroke:black;stroke-width:2px;"/>
                    </g>
                    <g transform="matrix(1,0,0,0.911243,22,16)">
                        <path d="M921.002,126.605L942.931,139.266L986.788,113.944" style="fill:none;stroke:black;stroke-width:2px;"/>
                    </g>
                    <g transform="matrix(1,0,0,0.911243,22,16)">
                        <path d="M942.931,189.908L942.931,139.266" style="fill:none;stroke:black;stroke-width:2px;"/>
                    </g>
                    <g transform="matrix(1,0,0,0.911243,22,16)">
                        <path d="M986.788,139.266L942.931,164.586L921.002,151.926" style="fill:none;stroke:black;stroke-width:2px;"/>
                    </g>
                </g>
                <g transform="matrix(1,0,0,1,-153.5,57.6839)">
                    <g transform="matrix(1,0,0,0.911243,22,16)">
                        <path d="M921.002,177.247L942.931,189.908L986.788,164.587L986.788,113.944L964.86,101.284L921.002,126.605L921.002,177.247Z" style="fill:white;stroke:black;stroke-width:2px;"/>
                    </g>
                    <g transform="matrix(1,0,0,0.911243,22,16)">
                        <path d="M921.002,126.605L942.931,139.266L986.788,113.944" style="fill:none;stroke:black;stroke-width:2px;"/>
                    </g>
                    <g transform="matrix(1,0,0,0.911243,22,16)">
                        <path d="M942.931,189.908L942.931,139.266" style="fill:none;stroke:black;stroke-width:2px;"/>
                    </g>
                    <g transform="matrix(1,0,0,0.911243,22,16)">
                        <path d="M986.788,139.266L942.931,164.586L921.002,151.926" style="fill:none;stroke:black;stroke-width:2px;"/>
                    </g>
                </g>
                <g transform="matrix(1,0,0,1,-153.5,-57.6839)">
                    <g transform="matrix(1,0,0,0.911243,22,16)">
                        <path d="M921.002,177.247L942.931,189.908L986.788,164.587L986.788,113.944L964.86,101.284L921.002,126.605L921.002,177.247Z" style="fill:white;stroke:black;stroke-width:2px;"/>
                    </g>
                    <g transform="matrix(1,0,0,0.911243,22,16)">
                        <path d="M921.002,126.605L942.931,139.266L986.788,113.944" style="fill:none;stroke:black;stroke-width:2px;"/>
                    </g>
                    <g transform="matrix(1,0,0,0.911243,22,16)">
                        <path d="M942.931,189.908L942.931,139.266" style="fill:none;stroke:black;stroke-width:2px;"/>
                    </g>
                    <g transform="matrix(1,0,0,0.911243,22,16)">
                        <path d="M986.788,139.266L942.931,164.586L921.002,151.926" style="fill:none;stroke:black;stroke-width:2px;"/>
                    </g>
                </g>
                <g transform="matrix(1,0,0,1,-131.572,-69.2207)">
                    <g transform="matrix(1,0,0,0.911243,22,16)">
                        <path d="M942.931,341.833L986.788,367.155L1030.65,341.833L1030.65,291.191L986.788,265.87L942.931,291.191L942.931,341.833Z" style="fill:white;stroke:black;stroke-width:2px;"/>
                    </g>
                    <g transform="matrix(1,0,0,0.911243,22,16)">
                        <path d="M942.931,291.191L986.788,316.512L1030.65,291.191" style="fill:none;stroke:black;stroke-width:2px;"/>
                    </g>
                    <g transform="matrix(1,0,0,0.911243,22,16)">
                        <path d="M986.788,367.154L986.788,316.512" style="fill:none;stroke:black;stroke-width:2px;"/>
                    </g>
                    <g transform="matrix(1,0,0,0.911243,22,16)">
                        <path d="M964.86,354.494L964.86,303.852L1008.72,278.531" style="fill:none;stroke:black;stroke-width:2px;"/>
                    </g>
                    <g transform="matrix(1,0,0,0.911243,22,16)">
                        <path d="M1030.65,316.512L986.788,341.833L942.931,316.512" style="fill:none;stroke:black;stroke-width:2px;"/>
                    </g>
                </g>
                <g transform="matrix(1,0,0,1,-65.7859,-34.6104)">
                    <g transform="matrix(1,0,0,0.911243,22,16)">
                        <path d="M942.931,341.833L986.788,367.155L1030.65,341.833L1030.65,291.191L986.788,265.87L942.931,291.191L942.931,341.833Z" style="fill:white;stroke:black;stroke-width:2px;"/>
                    </g>
                    <g transform="matrix(1,0,0,0.911243,22,16)">
                        <path d="M942.931,291.191L986.788,316.512L1030.65,291.191" style="fill:none;stroke:black;stroke-width:2px;"/>
                    </g>
                    <g transform="matrix(1,0,0,0.911243,22,16)">
                        <path d="M986.788,367.154L986.788,316.512" style="fill:none;stroke:black;stroke-width:2px;"/>
                    </g>
                    <g transform="matrix(1,0,0,0.911243,22,16)">
                        <path d="M964.86,354.494L964.86,303.852L1008.72,278.531" style="fill:none;stroke:black;stroke-width:2px;"/>
                    </g>
                    <g transform="matrix(1,0,0,0.911243,22,16)">
                        <path d="M1030.65,316.512L986.788,341.833L942.931,316.512" style="fill:none;stroke:black;stroke-width:2px;"/>
                    </g>
                </g>
                <g>
                    <g transform="matrix(1,0,0,0.911243,22,16)">
                        <path d="M942.931,341.833L986.788,367.155L1030.65,341.833L1030.65,291.191L986.788,265.87L942.931,291.191L942.931,341.833Z" style="fill:white;stroke:black;stroke-width:2px;"/>
                    </g>
                    <g transform="matrix(1,0,0,0.911243,22,16)">
                        <path d="M942.931,291.191L986.788,316.512L1030.65,291.191" style="fill:none;stroke:black;stroke-width:2px;"/>
                    </g>
                    <g transform="matrix(1,0,0,0.911243,22,16)">
                        <path d="M986.788,367.154L986.788,316.512" style="fill:none;stroke:black;stroke-width:2px;"/>
                    </g>
                    <g transform="matrix(1,0,0,0.911243,22,16)">
                        <path d="M964.86,354.494L964.86,303.852L1008.72,278.531" style="fill:none;stroke:black;stroke-width:2px;"/>
                    </g>
                    <g transform="matrix(1,0,0,0.911243,22,16)">
                        <path d="M1030.65,316.512L986.788,341.833L942.931,316.512" style="fill:none;stroke:black;stroke-width:2px;"/>
                    </g>
                </g>
            </g>
            <g transform="matrix(1,0,0,0.911243,22,16)">
                <path d="M482.43,708.988L723.645,569.722" style="fill:none;stroke:black;stroke-width:2px;stroke-dasharray:10,10,0,0;"/>
            </g>
            <g transform="matrix(1,0,0,0.911243,22,16)">
                <path d="M65.786,392.475L438.573,607.704L482.43,582.383" style="fill:none;stroke:black;stroke-width:2px;stroke-dasharray:10,10,0,0;"/>
            </g>
            <g transform="matrix(1,0,0,0.911243,22,16)">
                <path d="M438.573,658.346L438.573,607.704" style="fill:none;stroke:black;stroke-width:2px;stroke-dasharray:10,10,0,0;"/>
            </g>
            <g transform="matrix(1,0,0,0.911243,22,16)">
                <path d="M65.786,417.796L438.573,633.025L482.43,607.704" style="fill:none;stroke:black;stroke-width:2px;stroke-dasharray:10,10,0,0;"/>
            </g>
            <g transform="matrix(1,0,0,0.911243,22,16)">
                <path d="M745.573,582.383L877.145,506.42" style="fill:none;stroke:black;stroke-width:2px;"/>
            </g>
        </g>
    </g>
</svg>
