<?xml version="1.0" encoding="UTF-8" standalone="no"?>
<!DOCTYPE svg PUBLIC "-//W3C//DTD SVG 1.1//EN" "http://www.w3.org/Graphics/SVG/1.1/DTD/svg11.dtd">
<svg width="100%" height="100%" viewBox="0 0 1058 770" version="1.1" xmlns="http://www.w3.org/2000/svg" xmlns:xlink="http://www.w3.org/1999/xlink" xml:space="preserve" xmlns:serif="http://www.serif.com/" style="fill-rule:evenodd;clip-rule:evenodd;stroke-linecap:round;stroke-linejoin:round;stroke-miterlimit:1.5;">
    <g transform="matrix(1,0,0,1,-22,-16)">
        <rect id="Tavola-da-disegno1" serif:id="Tavola da disegno1" x="22" y="16" width="1058" height="770" style="fill:none;"/>
        <g id="Tavola-da-disegno11" serif:id="Tavola da disegno1">
            <g transform="matrix(1,0,0,1,197.429,-161.247)">
                <path d="M263.144,784.951L307.001,810.272L701.716,582.383L657.859,557.062L263.144,784.951Z" style="fill:none;stroke:black;stroke-width:2px;"/>
                <path d="M263.144,835.593L307.001,860.914L701.716,633.025L701.716,582.383" style="fill:none;stroke:black;stroke-width:2px;"/>
                <path d="M263.144,784.951L263.144,835.593" style="fill:none;stroke:black;stroke-width:2px;"/>
                <path d="M307.001,810.272L307.001,860.914" style="fill:none;stroke:black;stroke-width:2px;"/>
                <path d="M263.144,810.272L307.001,835.593L701.716,607.704" style="fill:none;stroke:black;stroke-width:2px;"/>
                <path d="M285.072,772.29L328.929,797.611L328.929,848.253" style="fill:none;stroke:black;stroke-width:2px;"/>
                <path d="M307.001,759.63L350.858,784.951L350.858,835.593" style="fill:none;stroke:black;stroke-width:2px;"/>
                <path d="M328.929,746.969L372.787,772.29L372.787,822.932" style="fill:none;stroke:black;stroke-width:2px;"/>
                <path d="M350.858,734.309L394.715,759.63L394.715,810.272" style="fill:none;stroke:black;stroke-width:2px;"/>
                <path d="M372.787,721.648L416.644,746.969L416.644,797.611" style="fill:none;stroke:black;stroke-width:2px;"/>
                <path d="M394.715,708.988L438.573,734.309L438.573,784.951" style="fill:none;stroke:black;stroke-width:2px;"/>
                <path d="M416.644,696.327L460.501,721.648L460.501,772.29" style="fill:none;stroke:black;stroke-width:2px;"/>
                <path d="M438.573,683.667L482.43,708.988L482.43,759.63" style="fill:none;stroke:black;stroke-width:2px;"/>
                <path d="M460.501,671.007L504.358,696.328L504.358,746.969" style="fill:none;stroke:black;stroke-width:2px;"/>
                <path d="M482.43,658.346L526.287,683.667L526.287,734.309" style="fill:none;stroke:black;stroke-width:2px;"/>
                <path d="M504.358,645.685L548.216,671.006L548.216,721.648" style="fill:none;stroke:black;stroke-width:2px;"/>
                <path d="M526.287,633.025L570.144,658.346L570.144,708.988" style="fill:none;stroke:black;stroke-width:2px;"/>
                <path d="M548.216,620.364L592.073,645.685L592.073,696.327" style="fill:none;stroke:black;stroke-width:2px;"/>
                <path d="M570.144,607.704L614.002,633.025L614.002,683.667" style="fill:none;stroke:black;stroke-width:2px;"/>
                <path d="M592.073,595.044L635.93,620.364L635.93,671.006" style="fill:none;stroke:black;stroke-width:2px;"/>
                <path d="M614.002,582.383L657.859,607.704L657.859,658.346" style="fill:none;stroke:black;stroke-width:2px;"/>
                <path d="M635.93,569.722L679.788,595.044L679.788,645.685" style="fill:none;stroke:black;stroke-width:2px;"/>
            </g>
            <g transform="matrix(1,0,0,1,-65.7145,-515.741)">
                <path d="M263.144,784.951L307.001,810.272L701.716,582.383L657.859,557.062L263.144,784.951Z" style="fill:none;stroke:black;stroke-width:2px;"/>
                <path d="M263.144,835.593L307.001,860.914L701.716,633.025L701.716,582.383" style="fill:none;stroke:black;stroke-width:2px;"/>
                <path d="M263.144,784.951L263.144,835.593" style="fill:none;stroke:black;stroke-width:2px;"/>
                <path d="M307.001,810.272L307.001,860.914" style="fill:none;stroke:black;stroke-width:2px;"/>
                <path d="M263.144,810.272L307.001,835.593L701.716,607.704" style="fill:none;stroke:black;stroke-width:2px;"/>
                <path d="M285.072,772.29L328.929,797.611L328.929,848.253" style="fill:none;stroke:black;stroke-width:2px;"/>
                <path d="M307.001,759.63L350.858,784.951L350.858,835.593" style="fill:none;stroke:black;stroke-width:2px;"/>
                <path d="M328.929,746.969L372.787,772.29L372.787,822.932" style="fill:none;stroke:black;stroke-width:2px;"/>
                <path d="M350.858,734.309L394.715,759.63L394.715,810.272" style="fill:none;stroke:black;stroke-width:2px;"/>
                <path d="M372.787,721.648L416.644,746.969L416.644,797.611" style="fill:none;stroke:black;stroke-width:2px;"/>
                <path d="M394.715,708.988L438.573,734.309L438.573,784.951" style="fill:none;stroke:black;stroke-width:2px;"/>
                <path d="M416.644,696.327L460.501,721.648L460.501,772.29" style="fill:none;stroke:black;stroke-width:2px;"/>
                <path d="M438.573,683.667L482.43,708.988L482.43,759.63" style="fill:none;stroke:black;stroke-width:2px;"/>
                <path d="M460.501,671.007L504.358,696.328L504.358,746.969" style="fill:none;stroke:black;stroke-width:2px;"/>
                <path d="M482.43,658.346L526.287,683.667L526.287,734.309" style="fill:none;stroke:black;stroke-width:2px;"/>
                <path d="M504.358,645.685L548.216,671.006L548.216,721.648" style="fill:none;stroke:black;stroke-width:2px;"/>
                <path d="M526.287,633.025L570.144,658.346L570.144,708.988" style="fill:none;stroke:black;stroke-width:2px;"/>
                <path d="M548.216,620.364L592.073,645.685L592.073,696.327" style="fill:none;stroke:black;stroke-width:2px;"/>
                <path d="M570.144,607.704L614.002,633.025L614.002,683.667" style="fill:none;stroke:black;stroke-width:2px;"/>
                <path d="M592.073,595.044L635.93,620.364L635.93,671.006" style="fill:none;stroke:black;stroke-width:2px;"/>
                <path d="M614.002,582.383L657.859,607.704L657.859,658.346" style="fill:none;stroke:black;stroke-width:2px;"/>
                <path d="M635.93,569.722L679.788,595.044L679.788,645.685" style="fill:none;stroke:black;stroke-width:2px;"/>
            </g>
            <g transform="matrix(1,0,0,1,22,-186.568)">
                <path d="M43.857,506.42L87.715,481.099L482.43,708.988L438.573,734.309L43.857,506.42Z" style="fill:none;stroke:black;stroke-width:2px;"/>
                <path d="M482.43,708.988L482.43,759.63L438.573,784.951L43.857,557.062L43.857,506.42" style="fill:none;stroke:black;stroke-width:2px;"/>
                <path d="M438.573,734.309L438.573,784.951" style="fill:none;stroke:black;stroke-width:2px;"/>
                <path d="M482.43,734.309L438.573,759.63L43.857,531.741" style="fill:none;stroke:black;stroke-width:2px;"/>
                <path d="M109.643,493.76L65.786,519.08L65.786,569.723" style="fill:none;stroke:black;stroke-width:2px;"/>
                <path d="M87.715,582.383L87.715,531.741L131.572,506.42" style="fill:none;stroke:black;stroke-width:2px;"/>
                <path d="M153.5,519.081L109.643,544.402L109.643,595.043" style="fill:none;stroke:black;stroke-width:2px;"/>
                <path d="M175.429,531.741L131.572,557.062L131.572,607.704" style="fill:none;stroke:black;stroke-width:2px;"/>
                <path d="M153.5,620.364L153.5,569.723L197.358,544.401" style="fill:none;stroke:black;stroke-width:2px;"/>
                <path d="M219.286,557.062L175.429,582.383L175.429,633.025" style="fill:none;stroke:black;stroke-width:2px;"/>
                <path d="M197.358,645.685L197.358,595.043L241.215,569.722" style="fill:none;stroke:black;stroke-width:2px;"/>
                <path d="M263.144,582.383L219.286,607.704L219.286,658.346" style="fill:none;stroke:black;stroke-width:2px;"/>
                <path d="M241.215,671.006L241.215,620.364L285.072,595.043" style="fill:none;stroke:black;stroke-width:2px;"/>
                <path d="M307.001,607.704L263.144,633.025L263.144,683.667" style="fill:none;stroke:black;stroke-width:2px;"/>
                <path d="M285.072,696.327L285.072,645.685L328.929,620.364" style="fill:none;stroke:black;stroke-width:2px;"/>
                <path d="M350.858,633.025L307.001,658.346L307.001,708.988" style="fill:none;stroke:black;stroke-width:2px;"/>
                <path d="M328.929,721.648L328.929,671.007L372.787,645.685" style="fill:none;stroke:black;stroke-width:2px;"/>
                <path d="M394.715,658.346L350.858,683.667L350.858,734.309" style="fill:none;stroke:black;stroke-width:2px;"/>
                <path d="M372.787,746.969L372.787,696.327L416.644,671.006" style="fill:none;stroke:black;stroke-width:2px;"/>
                <path d="M438.573,683.667L394.715,708.988L394.715,759.63" style="fill:none;stroke:black;stroke-width:2px;"/>
                <path d="M416.644,772.29L416.644,721.649L460.501,696.327" style="fill:none;stroke:black;stroke-width:2px;"/>
            </g>
            <g transform="matrix(1,0,0,1,548.287,-338.494)">
                <g transform="matrix(1,0,0,1,-526.287,354.494)">
                    <path d="M614.002,126.605L570.144,151.926L570.144,202.568L964.86,430.457L1008.72,405.136L1008.72,354.494L614.002,126.605Z" style="fill:none;stroke:black;stroke-width:2px;"/>
                </g>
                <path d="M438.573,734.309L438.573,784.951" style="fill:none;stroke:black;stroke-width:2px;"/>
                <path d="M482.43,734.309L438.573,759.63L43.857,531.741" style="fill:none;stroke:black;stroke-width:2px;"/>
                <path d="M109.643,493.76L65.786,519.08L65.786,569.723" style="fill:none;stroke:black;stroke-width:2px;"/>
                <path d="M87.715,582.383L87.715,531.741L131.572,506.42" style="fill:none;stroke:black;stroke-width:2px;"/>
                <path d="M153.5,519.081L109.643,544.402L109.643,595.043" style="fill:none;stroke:black;stroke-width:2px;"/>
                <path d="M175.429,531.741L131.572,557.062L131.572,607.704" style="fill:none;stroke:black;stroke-width:2px;"/>
                <path d="M153.5,620.364L153.5,569.723L197.358,544.401" style="fill:none;stroke:black;stroke-width:2px;"/>
                <path d="M219.286,557.062L175.429,582.383L175.429,633.025" style="fill:none;stroke:black;stroke-width:2px;"/>
                <path d="M197.358,645.685L197.358,595.043L241.215,569.722" style="fill:none;stroke:black;stroke-width:2px;"/>
                <path d="M263.144,582.383L219.286,607.704L219.286,658.346" style="fill:none;stroke:black;stroke-width:2px;"/>
                <path d="M241.215,671.006L241.215,620.364L285.072,595.043" style="fill:none;stroke:black;stroke-width:2px;"/>
                <path d="M307.001,607.704L263.144,633.025L263.144,683.667" style="fill:none;stroke:black;stroke-width:2px;"/>
                <path d="M285.072,696.327L285.072,645.685L328.929,620.364" style="fill:none;stroke:black;stroke-width:2px;"/>
                <path d="M350.858,633.025L307.001,658.346L307.001,708.988" style="fill:none;stroke:black;stroke-width:2px;"/>
                <path d="M328.929,721.648L328.929,671.007L372.787,645.685" style="fill:none;stroke:black;stroke-width:2px;"/>
                <path d="M394.715,658.346L350.858,683.667L350.858,734.309" style="fill:none;stroke:black;stroke-width:2px;"/>
                <path d="M372.787,746.969L372.787,696.327L416.644,671.006" style="fill:none;stroke:black;stroke-width:2px;"/>
                <path d="M438.573,683.667L394.715,708.988L394.715,759.63" style="fill:none;stroke:black;stroke-width:2px;"/>
                <path d="M416.644,772.29L416.644,721.649L460.501,696.327" style="fill:none;stroke:black;stroke-width:2px;"/>
                <g transform="matrix(1,0,0,1,-526.287,354.494)">
                    <path d="M964.86,379.815L1008.72,354.494" style="fill:none;stroke:black;stroke-width:2px;"/>
                </g>
                <g transform="matrix(1,0,0,1,-526.287,354.494)">
                    <path d="M570.144,151.926L964.86,379.815" style="fill:none;stroke:black;stroke-width:2px;"/>
                </g>
            </g>
        </g>
    </g>
</svg>
